G04 #@! TF.GenerationSoftware,KiCad,Pcbnew,(5.1.2)-2*
G04 #@! TF.CreationDate,2019-09-19T18:24:46+10:00*
G04 #@! TF.ProjectId,Smart_eNERF_Gun,536d6172-745f-4654-9e45-52465f47756e,4.5*
G04 #@! TF.SameCoordinates,Original*
G04 #@! TF.FileFunction,Legend,Bot*
G04 #@! TF.FilePolarity,Positive*
%FSLAX46Y46*%
G04 Gerber Fmt 4.6, Leading zero omitted, Abs format (unit mm)*
G04 Created by KiCad (PCBNEW (5.1.2)-2) date 2019-09-19 18:24:46*
%MOMM*%
%LPD*%
G04 APERTURE LIST*
%ADD10C,0.150000*%
%ADD11C,0.120000*%
%ADD12C,0.100000*%
%ADD13C,0.127000*%
G04 APERTURE END LIST*
D10*
X84464285Y-125083333D02*
X83511904Y-125083333D01*
X84654761Y-125654761D02*
X83988095Y-123654761D01*
X83321428Y-125654761D01*
X82654761Y-125654761D02*
X82654761Y-124321428D01*
X82654761Y-124702380D02*
X82559523Y-124511904D01*
X82464285Y-124416666D01*
X82273809Y-124321428D01*
X82083333Y-124321428D01*
X80654761Y-125559523D02*
X80845238Y-125654761D01*
X81226190Y-125654761D01*
X81416666Y-125559523D01*
X81511904Y-125369047D01*
X81511904Y-124607142D01*
X81416666Y-124416666D01*
X81226190Y-124321428D01*
X80845238Y-124321428D01*
X80654761Y-124416666D01*
X80559523Y-124607142D01*
X80559523Y-124797619D01*
X81511904Y-124988095D01*
X78369047Y-124321428D02*
X77892857Y-125654761D01*
X77416666Y-124321428D02*
X77892857Y-125654761D01*
X78083333Y-126130952D01*
X78178571Y-126226190D01*
X78369047Y-126321428D01*
X76369047Y-125654761D02*
X76559523Y-125559523D01*
X76654761Y-125464285D01*
X76750000Y-125273809D01*
X76750000Y-124702380D01*
X76654761Y-124511904D01*
X76559523Y-124416666D01*
X76369047Y-124321428D01*
X76083333Y-124321428D01*
X75892857Y-124416666D01*
X75797619Y-124511904D01*
X75702380Y-124702380D01*
X75702380Y-125273809D01*
X75797619Y-125464285D01*
X75892857Y-125559523D01*
X76083333Y-125654761D01*
X76369047Y-125654761D01*
X73988095Y-124321428D02*
X73988095Y-125654761D01*
X74845238Y-124321428D02*
X74845238Y-125369047D01*
X74750000Y-125559523D01*
X74559523Y-125654761D01*
X74273809Y-125654761D01*
X74083333Y-125559523D01*
X73988095Y-125464285D01*
X71607142Y-125559523D02*
X71321428Y-125654761D01*
X70845238Y-125654761D01*
X70654761Y-125559523D01*
X70559523Y-125464285D01*
X70464285Y-125273809D01*
X70464285Y-125083333D01*
X70559523Y-124892857D01*
X70654761Y-124797619D01*
X70845238Y-124702380D01*
X71226190Y-124607142D01*
X71416666Y-124511904D01*
X71511904Y-124416666D01*
X71607142Y-124226190D01*
X71607142Y-124035714D01*
X71511904Y-123845238D01*
X71416666Y-123750000D01*
X71226190Y-123654761D01*
X70750000Y-123654761D01*
X70464285Y-123750000D01*
X69607142Y-125654761D02*
X69607142Y-124321428D01*
X69607142Y-124511904D02*
X69511904Y-124416666D01*
X69321428Y-124321428D01*
X69035714Y-124321428D01*
X68845238Y-124416666D01*
X68750000Y-124607142D01*
X68750000Y-125654761D01*
X68750000Y-124607142D02*
X68654761Y-124416666D01*
X68464285Y-124321428D01*
X68178571Y-124321428D01*
X67988095Y-124416666D01*
X67892857Y-124607142D01*
X67892857Y-125654761D01*
X66083333Y-125654761D02*
X66083333Y-124607142D01*
X66178571Y-124416666D01*
X66369047Y-124321428D01*
X66750000Y-124321428D01*
X66940476Y-124416666D01*
X66083333Y-125559523D02*
X66273809Y-125654761D01*
X66750000Y-125654761D01*
X66940476Y-125559523D01*
X67035714Y-125369047D01*
X67035714Y-125178571D01*
X66940476Y-124988095D01*
X66750000Y-124892857D01*
X66273809Y-124892857D01*
X66083333Y-124797619D01*
X65130952Y-125654761D02*
X65130952Y-124321428D01*
X65130952Y-124702380D02*
X65035714Y-124511904D01*
X64940476Y-124416666D01*
X64750000Y-124321428D01*
X64559523Y-124321428D01*
X64178571Y-124321428D02*
X63416666Y-124321428D01*
X63892857Y-123654761D02*
X63892857Y-125369047D01*
X63797619Y-125559523D01*
X63607142Y-125654761D01*
X63416666Y-125654761D01*
X60464285Y-125559523D02*
X60654761Y-125654761D01*
X61035714Y-125654761D01*
X61226190Y-125559523D01*
X61321428Y-125369047D01*
X61321428Y-124607142D01*
X61226190Y-124416666D01*
X61035714Y-124321428D01*
X60654761Y-124321428D01*
X60464285Y-124416666D01*
X60369047Y-124607142D01*
X60369047Y-124797619D01*
X61321428Y-124988095D01*
X59511904Y-125654761D02*
X59511904Y-123654761D01*
X58369047Y-125654761D01*
X58369047Y-123654761D01*
X57416666Y-124607142D02*
X56750000Y-124607142D01*
X56464285Y-125654761D02*
X57416666Y-125654761D01*
X57416666Y-123654761D01*
X56464285Y-123654761D01*
X54464285Y-125654761D02*
X55130952Y-124702380D01*
X55607142Y-125654761D02*
X55607142Y-123654761D01*
X54845238Y-123654761D01*
X54654761Y-123750000D01*
X54559523Y-123845238D01*
X54464285Y-124035714D01*
X54464285Y-124321428D01*
X54559523Y-124511904D01*
X54654761Y-124607142D01*
X54845238Y-124702380D01*
X55607142Y-124702380D01*
X52940476Y-124607142D02*
X53607142Y-124607142D01*
X53607142Y-125654761D02*
X53607142Y-123654761D01*
X52654761Y-123654761D01*
X51607142Y-125464285D02*
X51511904Y-125559523D01*
X51607142Y-125654761D01*
X51702380Y-125559523D01*
X51607142Y-125464285D01*
X51607142Y-125654761D01*
X51988095Y-123750000D02*
X51797619Y-123654761D01*
X51321428Y-123654761D01*
X51130952Y-123750000D01*
X51035714Y-123940476D01*
X51035714Y-124130952D01*
X51130952Y-124321428D01*
X51226190Y-124416666D01*
X51416666Y-124511904D01*
X51511904Y-124607142D01*
X51607142Y-124797619D01*
X51607142Y-124892857D01*
D11*
X84077000Y-73052000D02*
X84077000Y-109120000D01*
X58423000Y-109120000D02*
X58423000Y-73052000D01*
X84077000Y-73052000D02*
X58423000Y-73052000D01*
X58423000Y-109120000D02*
X84077000Y-109120000D01*
D12*
X57556000Y-78740000D02*
G75*
G03X57556000Y-78740000I-254000J0D01*
G01*
D13*
X57700000Y-90946000D02*
X57700000Y-79446000D01*
X50300000Y-90946000D02*
X57700000Y-90946000D01*
X50300000Y-79446000D02*
X50300000Y-90946000D01*
X57700000Y-79446000D02*
X50300000Y-79446000D01*
D10*
X84593000Y-73639523D02*
X84545380Y-73544285D01*
X84545380Y-73401428D01*
X84593000Y-73258571D01*
X84688238Y-73163333D01*
X84783476Y-73115714D01*
X84973952Y-73068095D01*
X85116809Y-73068095D01*
X85307285Y-73115714D01*
X85402523Y-73163333D01*
X85497761Y-73258571D01*
X85545380Y-73401428D01*
X85545380Y-73496666D01*
X85497761Y-73639523D01*
X85450142Y-73687142D01*
X85116809Y-73687142D01*
X85116809Y-73496666D01*
X85545380Y-74115714D02*
X84545380Y-74115714D01*
X84545380Y-74496666D01*
X84593000Y-74591904D01*
X84640619Y-74639523D01*
X84735857Y-74687142D01*
X84878714Y-74687142D01*
X84973952Y-74639523D01*
X85021571Y-74591904D01*
X85069190Y-74496666D01*
X85069190Y-74115714D01*
X85497761Y-75068095D02*
X85545380Y-75210952D01*
X85545380Y-75449047D01*
X85497761Y-75544285D01*
X85450142Y-75591904D01*
X85354904Y-75639523D01*
X85259666Y-75639523D01*
X85164428Y-75591904D01*
X85116809Y-75544285D01*
X85069190Y-75449047D01*
X85021571Y-75258571D01*
X84973952Y-75163333D01*
X84926333Y-75115714D01*
X84831095Y-75068095D01*
X84735857Y-75068095D01*
X84640619Y-75115714D01*
X84593000Y-75163333D01*
X84545380Y-75258571D01*
X84545380Y-75496666D01*
X84593000Y-75639523D01*
X85545380Y-76591904D02*
X85545380Y-76020476D01*
X85545380Y-76306190D02*
X84545380Y-76306190D01*
X84688238Y-76210952D01*
X84783476Y-76115714D01*
X84831095Y-76020476D01*
X51356761Y-75811285D02*
X51404380Y-75954142D01*
X51404380Y-76192238D01*
X51356761Y-76287476D01*
X51309142Y-76335095D01*
X51213904Y-76382714D01*
X51118666Y-76382714D01*
X51023428Y-76335095D01*
X50975809Y-76287476D01*
X50928190Y-76192238D01*
X50880571Y-76001761D01*
X50832952Y-75906523D01*
X50785333Y-75858904D01*
X50690095Y-75811285D01*
X50594857Y-75811285D01*
X50499619Y-75858904D01*
X50452000Y-75906523D01*
X50404380Y-76001761D01*
X50404380Y-76239857D01*
X50452000Y-76382714D01*
X50404380Y-76811285D02*
X51213904Y-76811285D01*
X51309142Y-76858904D01*
X51356761Y-76906523D01*
X51404380Y-77001761D01*
X51404380Y-77192238D01*
X51356761Y-77287476D01*
X51309142Y-77335095D01*
X51213904Y-77382714D01*
X50404380Y-77382714D01*
X51404380Y-77858904D02*
X50404380Y-77858904D01*
X50404380Y-78239857D01*
X50452000Y-78335095D01*
X50499619Y-78382714D01*
X50594857Y-78430333D01*
X50737714Y-78430333D01*
X50832952Y-78382714D01*
X50880571Y-78335095D01*
X50928190Y-78239857D01*
X50928190Y-77858904D01*
X51404380Y-79382714D02*
X51404380Y-78811285D01*
X51404380Y-79097000D02*
X50404380Y-79097000D01*
X50547238Y-79001761D01*
X50642476Y-78906523D01*
X50690095Y-78811285D01*
M02*
