G04 #@! TF.GenerationSoftware,KiCad,Pcbnew,(5.1.2)-2*
G04 #@! TF.CreationDate,2019-09-19T18:24:46+10:00*
G04 #@! TF.ProjectId,Smart_eNERF_Gun,536d6172-745f-4654-9e45-52465f47756e,4.5*
G04 #@! TF.SameCoordinates,Original*
G04 #@! TF.FileFunction,Soldermask,Bot*
G04 #@! TF.FilePolarity,Negative*
%FSLAX46Y46*%
G04 Gerber Fmt 4.6, Leading zero omitted, Abs format (unit mm)*
G04 Created by KiCad (PCBNEW (5.1.2)-2) date 2019-09-19 18:24:46*
%MOMM*%
%LPD*%
G04 APERTURE LIST*
%ADD10C,3.657600*%
%ADD11C,1.625600*%
%ADD12R,1.625600X1.625600*%
%ADD13C,1.609600*%
%ADD14R,1.609600X1.609600*%
%ADD15C,1.701600*%
%ADD16R,1.701600X1.701600*%
%ADD17C,1.509600*%
%ADD18R,1.509600X1.509600*%
%ADD19R,1.371600X1.879600*%
%ADD20C,0.100000*%
%ADD21C,1.371600*%
%ADD22C,2.855600*%
G04 APERTURE END LIST*
D10*
X81664000Y-75592000D03*
X60836000Y-75592000D03*
X81664000Y-106580000D03*
X60836000Y-106580000D03*
D11*
X75060000Y-107342000D03*
X72520000Y-107342000D03*
X69980000Y-107342000D03*
D12*
X67440000Y-107342000D03*
D13*
X52750000Y-88646000D03*
D14*
X55250000Y-88646000D03*
D15*
X85982000Y-103532000D03*
X85982000Y-100992000D03*
X85982000Y-98452000D03*
X85982000Y-95912000D03*
X85982000Y-106072000D03*
X85982000Y-108612000D03*
X85982000Y-111152000D03*
X83442000Y-95912000D03*
X80902000Y-95912000D03*
X78362000Y-95912000D03*
X75822000Y-95912000D03*
X73282000Y-95912000D03*
X70742000Y-95912000D03*
X68202000Y-95912000D03*
X65662000Y-95912000D03*
X63122000Y-95912000D03*
X60582000Y-95912000D03*
X58042000Y-95912000D03*
X55502000Y-95912000D03*
X52962000Y-95912000D03*
X83442000Y-111152000D03*
X80902000Y-111152000D03*
X78362000Y-111152000D03*
X75822000Y-111152000D03*
X73282000Y-111152000D03*
X70742000Y-111152000D03*
X68202000Y-111152000D03*
X65662000Y-111152000D03*
X63122000Y-111152000D03*
X60582000Y-111152000D03*
X58042000Y-111152000D03*
X55502000Y-111152000D03*
D16*
X52962000Y-111152000D03*
D17*
X62350000Y-116328000D03*
X64850000Y-116328000D03*
X67350000Y-116328000D03*
X69850000Y-116328000D03*
X72350000Y-116328000D03*
X74850000Y-116328000D03*
D18*
X77350000Y-116328000D03*
D19*
X95888000Y-69038800D03*
D20*
G36*
X94257910Y-68100651D02*
G01*
X94291196Y-68105589D01*
X94323839Y-68113765D01*
X94355522Y-68125102D01*
X94385942Y-68139489D01*
X94414805Y-68156789D01*
X94441833Y-68176835D01*
X94466767Y-68199433D01*
X94489365Y-68224367D01*
X94509411Y-68251395D01*
X94526711Y-68280258D01*
X94541098Y-68310678D01*
X94552435Y-68342361D01*
X94560611Y-68375004D01*
X94565549Y-68408290D01*
X94567200Y-68441900D01*
X94567200Y-69635700D01*
X94565549Y-69669310D01*
X94560611Y-69702596D01*
X94552435Y-69735239D01*
X94541098Y-69766922D01*
X94526711Y-69797342D01*
X94509411Y-69826205D01*
X94489365Y-69853233D01*
X94466767Y-69878167D01*
X94441833Y-69900765D01*
X94414805Y-69920811D01*
X94385942Y-69938111D01*
X94355522Y-69952498D01*
X94323839Y-69963835D01*
X94291196Y-69972011D01*
X94257910Y-69976949D01*
X94224300Y-69978600D01*
X93538500Y-69978600D01*
X93504890Y-69976949D01*
X93471604Y-69972011D01*
X93438961Y-69963835D01*
X93407278Y-69952498D01*
X93376858Y-69938111D01*
X93347995Y-69920811D01*
X93320967Y-69900765D01*
X93296033Y-69878167D01*
X93273435Y-69853233D01*
X93253389Y-69826205D01*
X93236089Y-69797342D01*
X93221702Y-69766922D01*
X93210365Y-69735239D01*
X93202189Y-69702596D01*
X93197251Y-69669310D01*
X93195600Y-69635700D01*
X93195600Y-68441900D01*
X93197251Y-68408290D01*
X93202189Y-68375004D01*
X93210365Y-68342361D01*
X93221702Y-68310678D01*
X93236089Y-68280258D01*
X93253389Y-68251395D01*
X93273435Y-68224367D01*
X93296033Y-68199433D01*
X93320967Y-68176835D01*
X93347995Y-68156789D01*
X93376858Y-68139489D01*
X93407278Y-68125102D01*
X93438961Y-68113765D01*
X93471604Y-68105589D01*
X93504890Y-68100651D01*
X93538500Y-68099000D01*
X94224300Y-68099000D01*
X94257910Y-68100651D01*
X94257910Y-68100651D01*
G37*
D21*
X93881400Y-69038800D03*
D20*
G36*
X92251310Y-68100651D02*
G01*
X92284596Y-68105589D01*
X92317239Y-68113765D01*
X92348922Y-68125102D01*
X92379342Y-68139489D01*
X92408205Y-68156789D01*
X92435233Y-68176835D01*
X92460167Y-68199433D01*
X92482765Y-68224367D01*
X92502811Y-68251395D01*
X92520111Y-68280258D01*
X92534498Y-68310678D01*
X92545835Y-68342361D01*
X92554011Y-68375004D01*
X92558949Y-68408290D01*
X92560600Y-68441900D01*
X92560600Y-69635700D01*
X92558949Y-69669310D01*
X92554011Y-69702596D01*
X92545835Y-69735239D01*
X92534498Y-69766922D01*
X92520111Y-69797342D01*
X92502811Y-69826205D01*
X92482765Y-69853233D01*
X92460167Y-69878167D01*
X92435233Y-69900765D01*
X92408205Y-69920811D01*
X92379342Y-69938111D01*
X92348922Y-69952498D01*
X92317239Y-69963835D01*
X92284596Y-69972011D01*
X92251310Y-69976949D01*
X92217700Y-69978600D01*
X91531900Y-69978600D01*
X91498290Y-69976949D01*
X91465004Y-69972011D01*
X91432361Y-69963835D01*
X91400678Y-69952498D01*
X91370258Y-69938111D01*
X91341395Y-69920811D01*
X91314367Y-69900765D01*
X91289433Y-69878167D01*
X91266835Y-69853233D01*
X91246789Y-69826205D01*
X91229489Y-69797342D01*
X91215102Y-69766922D01*
X91203765Y-69735239D01*
X91195589Y-69702596D01*
X91190651Y-69669310D01*
X91189000Y-69635700D01*
X91189000Y-68441900D01*
X91190651Y-68408290D01*
X91195589Y-68375004D01*
X91203765Y-68342361D01*
X91215102Y-68310678D01*
X91229489Y-68280258D01*
X91246789Y-68251395D01*
X91266835Y-68224367D01*
X91289433Y-68199433D01*
X91314367Y-68176835D01*
X91341395Y-68156789D01*
X91370258Y-68139489D01*
X91400678Y-68125102D01*
X91432361Y-68113765D01*
X91465004Y-68105589D01*
X91498290Y-68100651D01*
X91531900Y-68099000D01*
X92217700Y-68099000D01*
X92251310Y-68100651D01*
X92251310Y-68100651D01*
G37*
D21*
X91874800Y-69038800D03*
D20*
G36*
X90244710Y-68100651D02*
G01*
X90277996Y-68105589D01*
X90310639Y-68113765D01*
X90342322Y-68125102D01*
X90372742Y-68139489D01*
X90401605Y-68156789D01*
X90428633Y-68176835D01*
X90453567Y-68199433D01*
X90476165Y-68224367D01*
X90496211Y-68251395D01*
X90513511Y-68280258D01*
X90527898Y-68310678D01*
X90539235Y-68342361D01*
X90547411Y-68375004D01*
X90552349Y-68408290D01*
X90554000Y-68441900D01*
X90554000Y-69635700D01*
X90552349Y-69669310D01*
X90547411Y-69702596D01*
X90539235Y-69735239D01*
X90527898Y-69766922D01*
X90513511Y-69797342D01*
X90496211Y-69826205D01*
X90476165Y-69853233D01*
X90453567Y-69878167D01*
X90428633Y-69900765D01*
X90401605Y-69920811D01*
X90372742Y-69938111D01*
X90342322Y-69952498D01*
X90310639Y-69963835D01*
X90277996Y-69972011D01*
X90244710Y-69976949D01*
X90211100Y-69978600D01*
X89525300Y-69978600D01*
X89491690Y-69976949D01*
X89458404Y-69972011D01*
X89425761Y-69963835D01*
X89394078Y-69952498D01*
X89363658Y-69938111D01*
X89334795Y-69920811D01*
X89307767Y-69900765D01*
X89282833Y-69878167D01*
X89260235Y-69853233D01*
X89240189Y-69826205D01*
X89222889Y-69797342D01*
X89208502Y-69766922D01*
X89197165Y-69735239D01*
X89188989Y-69702596D01*
X89184051Y-69669310D01*
X89182400Y-69635700D01*
X89182400Y-68441900D01*
X89184051Y-68408290D01*
X89188989Y-68375004D01*
X89197165Y-68342361D01*
X89208502Y-68310678D01*
X89222889Y-68280258D01*
X89240189Y-68251395D01*
X89260235Y-68224367D01*
X89282833Y-68199433D01*
X89307767Y-68176835D01*
X89334795Y-68156789D01*
X89363658Y-68139489D01*
X89394078Y-68125102D01*
X89425761Y-68113765D01*
X89458404Y-68105589D01*
X89491690Y-68100651D01*
X89525300Y-68099000D01*
X90211100Y-68099000D01*
X90244710Y-68100651D01*
X90244710Y-68100651D01*
G37*
D21*
X89868200Y-69038800D03*
D20*
G36*
X88238110Y-68100651D02*
G01*
X88271396Y-68105589D01*
X88304039Y-68113765D01*
X88335722Y-68125102D01*
X88366142Y-68139489D01*
X88395005Y-68156789D01*
X88422033Y-68176835D01*
X88446967Y-68199433D01*
X88469565Y-68224367D01*
X88489611Y-68251395D01*
X88506911Y-68280258D01*
X88521298Y-68310678D01*
X88532635Y-68342361D01*
X88540811Y-68375004D01*
X88545749Y-68408290D01*
X88547400Y-68441900D01*
X88547400Y-69635700D01*
X88545749Y-69669310D01*
X88540811Y-69702596D01*
X88532635Y-69735239D01*
X88521298Y-69766922D01*
X88506911Y-69797342D01*
X88489611Y-69826205D01*
X88469565Y-69853233D01*
X88446967Y-69878167D01*
X88422033Y-69900765D01*
X88395005Y-69920811D01*
X88366142Y-69938111D01*
X88335722Y-69952498D01*
X88304039Y-69963835D01*
X88271396Y-69972011D01*
X88238110Y-69976949D01*
X88204500Y-69978600D01*
X87518700Y-69978600D01*
X87485090Y-69976949D01*
X87451804Y-69972011D01*
X87419161Y-69963835D01*
X87387478Y-69952498D01*
X87357058Y-69938111D01*
X87328195Y-69920811D01*
X87301167Y-69900765D01*
X87276233Y-69878167D01*
X87253635Y-69853233D01*
X87233589Y-69826205D01*
X87216289Y-69797342D01*
X87201902Y-69766922D01*
X87190565Y-69735239D01*
X87182389Y-69702596D01*
X87177451Y-69669310D01*
X87175800Y-69635700D01*
X87175800Y-68441900D01*
X87177451Y-68408290D01*
X87182389Y-68375004D01*
X87190565Y-68342361D01*
X87201902Y-68310678D01*
X87216289Y-68280258D01*
X87233589Y-68251395D01*
X87253635Y-68224367D01*
X87276233Y-68199433D01*
X87301167Y-68176835D01*
X87328195Y-68156789D01*
X87357058Y-68139489D01*
X87387478Y-68125102D01*
X87419161Y-68113765D01*
X87451804Y-68105589D01*
X87485090Y-68100651D01*
X87518700Y-68099000D01*
X88204500Y-68099000D01*
X88238110Y-68100651D01*
X88238110Y-68100651D01*
G37*
D21*
X87861600Y-69038800D03*
D20*
G36*
X86231510Y-68100651D02*
G01*
X86264796Y-68105589D01*
X86297439Y-68113765D01*
X86329122Y-68125102D01*
X86359542Y-68139489D01*
X86388405Y-68156789D01*
X86415433Y-68176835D01*
X86440367Y-68199433D01*
X86462965Y-68224367D01*
X86483011Y-68251395D01*
X86500311Y-68280258D01*
X86514698Y-68310678D01*
X86526035Y-68342361D01*
X86534211Y-68375004D01*
X86539149Y-68408290D01*
X86540800Y-68441900D01*
X86540800Y-69635700D01*
X86539149Y-69669310D01*
X86534211Y-69702596D01*
X86526035Y-69735239D01*
X86514698Y-69766922D01*
X86500311Y-69797342D01*
X86483011Y-69826205D01*
X86462965Y-69853233D01*
X86440367Y-69878167D01*
X86415433Y-69900765D01*
X86388405Y-69920811D01*
X86359542Y-69938111D01*
X86329122Y-69952498D01*
X86297439Y-69963835D01*
X86264796Y-69972011D01*
X86231510Y-69976949D01*
X86197900Y-69978600D01*
X85512100Y-69978600D01*
X85478490Y-69976949D01*
X85445204Y-69972011D01*
X85412561Y-69963835D01*
X85380878Y-69952498D01*
X85350458Y-69938111D01*
X85321595Y-69920811D01*
X85294567Y-69900765D01*
X85269633Y-69878167D01*
X85247035Y-69853233D01*
X85226989Y-69826205D01*
X85209689Y-69797342D01*
X85195302Y-69766922D01*
X85183965Y-69735239D01*
X85175789Y-69702596D01*
X85170851Y-69669310D01*
X85169200Y-69635700D01*
X85169200Y-68441900D01*
X85170851Y-68408290D01*
X85175789Y-68375004D01*
X85183965Y-68342361D01*
X85195302Y-68310678D01*
X85209689Y-68280258D01*
X85226989Y-68251395D01*
X85247035Y-68224367D01*
X85269633Y-68199433D01*
X85294567Y-68176835D01*
X85321595Y-68156789D01*
X85350458Y-68139489D01*
X85380878Y-68125102D01*
X85412561Y-68113765D01*
X85445204Y-68105589D01*
X85478490Y-68100651D01*
X85512100Y-68099000D01*
X86197900Y-68099000D01*
X86231510Y-68100651D01*
X86231510Y-68100651D01*
G37*
D21*
X85855000Y-69038800D03*
D20*
G36*
X84224910Y-68100651D02*
G01*
X84258196Y-68105589D01*
X84290839Y-68113765D01*
X84322522Y-68125102D01*
X84352942Y-68139489D01*
X84381805Y-68156789D01*
X84408833Y-68176835D01*
X84433767Y-68199433D01*
X84456365Y-68224367D01*
X84476411Y-68251395D01*
X84493711Y-68280258D01*
X84508098Y-68310678D01*
X84519435Y-68342361D01*
X84527611Y-68375004D01*
X84532549Y-68408290D01*
X84534200Y-68441900D01*
X84534200Y-69635700D01*
X84532549Y-69669310D01*
X84527611Y-69702596D01*
X84519435Y-69735239D01*
X84508098Y-69766922D01*
X84493711Y-69797342D01*
X84476411Y-69826205D01*
X84456365Y-69853233D01*
X84433767Y-69878167D01*
X84408833Y-69900765D01*
X84381805Y-69920811D01*
X84352942Y-69938111D01*
X84322522Y-69952498D01*
X84290839Y-69963835D01*
X84258196Y-69972011D01*
X84224910Y-69976949D01*
X84191300Y-69978600D01*
X83505500Y-69978600D01*
X83471890Y-69976949D01*
X83438604Y-69972011D01*
X83405961Y-69963835D01*
X83374278Y-69952498D01*
X83343858Y-69938111D01*
X83314995Y-69920811D01*
X83287967Y-69900765D01*
X83263033Y-69878167D01*
X83240435Y-69853233D01*
X83220389Y-69826205D01*
X83203089Y-69797342D01*
X83188702Y-69766922D01*
X83177365Y-69735239D01*
X83169189Y-69702596D01*
X83164251Y-69669310D01*
X83162600Y-69635700D01*
X83162600Y-68441900D01*
X83164251Y-68408290D01*
X83169189Y-68375004D01*
X83177365Y-68342361D01*
X83188702Y-68310678D01*
X83203089Y-68280258D01*
X83220389Y-68251395D01*
X83240435Y-68224367D01*
X83263033Y-68199433D01*
X83287967Y-68176835D01*
X83314995Y-68156789D01*
X83343858Y-68139489D01*
X83374278Y-68125102D01*
X83405961Y-68113765D01*
X83438604Y-68105589D01*
X83471890Y-68100651D01*
X83505500Y-68099000D01*
X84191300Y-68099000D01*
X84224910Y-68100651D01*
X84224910Y-68100651D01*
G37*
D21*
X83848400Y-69038800D03*
D20*
G36*
X82218310Y-68100651D02*
G01*
X82251596Y-68105589D01*
X82284239Y-68113765D01*
X82315922Y-68125102D01*
X82346342Y-68139489D01*
X82375205Y-68156789D01*
X82402233Y-68176835D01*
X82427167Y-68199433D01*
X82449765Y-68224367D01*
X82469811Y-68251395D01*
X82487111Y-68280258D01*
X82501498Y-68310678D01*
X82512835Y-68342361D01*
X82521011Y-68375004D01*
X82525949Y-68408290D01*
X82527600Y-68441900D01*
X82527600Y-69635700D01*
X82525949Y-69669310D01*
X82521011Y-69702596D01*
X82512835Y-69735239D01*
X82501498Y-69766922D01*
X82487111Y-69797342D01*
X82469811Y-69826205D01*
X82449765Y-69853233D01*
X82427167Y-69878167D01*
X82402233Y-69900765D01*
X82375205Y-69920811D01*
X82346342Y-69938111D01*
X82315922Y-69952498D01*
X82284239Y-69963835D01*
X82251596Y-69972011D01*
X82218310Y-69976949D01*
X82184700Y-69978600D01*
X81498900Y-69978600D01*
X81465290Y-69976949D01*
X81432004Y-69972011D01*
X81399361Y-69963835D01*
X81367678Y-69952498D01*
X81337258Y-69938111D01*
X81308395Y-69920811D01*
X81281367Y-69900765D01*
X81256433Y-69878167D01*
X81233835Y-69853233D01*
X81213789Y-69826205D01*
X81196489Y-69797342D01*
X81182102Y-69766922D01*
X81170765Y-69735239D01*
X81162589Y-69702596D01*
X81157651Y-69669310D01*
X81156000Y-69635700D01*
X81156000Y-68441900D01*
X81157651Y-68408290D01*
X81162589Y-68375004D01*
X81170765Y-68342361D01*
X81182102Y-68310678D01*
X81196489Y-68280258D01*
X81213789Y-68251395D01*
X81233835Y-68224367D01*
X81256433Y-68199433D01*
X81281367Y-68176835D01*
X81308395Y-68156789D01*
X81337258Y-68139489D01*
X81367678Y-68125102D01*
X81399361Y-68113765D01*
X81432004Y-68105589D01*
X81465290Y-68100651D01*
X81498900Y-68099000D01*
X82184700Y-68099000D01*
X82218310Y-68100651D01*
X82218310Y-68100651D01*
G37*
D21*
X81841800Y-69038800D03*
D20*
G36*
X80211710Y-68100651D02*
G01*
X80244996Y-68105589D01*
X80277639Y-68113765D01*
X80309322Y-68125102D01*
X80339742Y-68139489D01*
X80368605Y-68156789D01*
X80395633Y-68176835D01*
X80420567Y-68199433D01*
X80443165Y-68224367D01*
X80463211Y-68251395D01*
X80480511Y-68280258D01*
X80494898Y-68310678D01*
X80506235Y-68342361D01*
X80514411Y-68375004D01*
X80519349Y-68408290D01*
X80521000Y-68441900D01*
X80521000Y-69635700D01*
X80519349Y-69669310D01*
X80514411Y-69702596D01*
X80506235Y-69735239D01*
X80494898Y-69766922D01*
X80480511Y-69797342D01*
X80463211Y-69826205D01*
X80443165Y-69853233D01*
X80420567Y-69878167D01*
X80395633Y-69900765D01*
X80368605Y-69920811D01*
X80339742Y-69938111D01*
X80309322Y-69952498D01*
X80277639Y-69963835D01*
X80244996Y-69972011D01*
X80211710Y-69976949D01*
X80178100Y-69978600D01*
X79492300Y-69978600D01*
X79458690Y-69976949D01*
X79425404Y-69972011D01*
X79392761Y-69963835D01*
X79361078Y-69952498D01*
X79330658Y-69938111D01*
X79301795Y-69920811D01*
X79274767Y-69900765D01*
X79249833Y-69878167D01*
X79227235Y-69853233D01*
X79207189Y-69826205D01*
X79189889Y-69797342D01*
X79175502Y-69766922D01*
X79164165Y-69735239D01*
X79155989Y-69702596D01*
X79151051Y-69669310D01*
X79149400Y-69635700D01*
X79149400Y-68441900D01*
X79151051Y-68408290D01*
X79155989Y-68375004D01*
X79164165Y-68342361D01*
X79175502Y-68310678D01*
X79189889Y-68280258D01*
X79207189Y-68251395D01*
X79227235Y-68224367D01*
X79249833Y-68199433D01*
X79274767Y-68176835D01*
X79301795Y-68156789D01*
X79330658Y-68139489D01*
X79361078Y-68125102D01*
X79392761Y-68113765D01*
X79425404Y-68105589D01*
X79458690Y-68100651D01*
X79492300Y-68099000D01*
X80178100Y-68099000D01*
X80211710Y-68100651D01*
X80211710Y-68100651D01*
G37*
D21*
X79835200Y-69038800D03*
D20*
G36*
X78205110Y-68100651D02*
G01*
X78238396Y-68105589D01*
X78271039Y-68113765D01*
X78302722Y-68125102D01*
X78333142Y-68139489D01*
X78362005Y-68156789D01*
X78389033Y-68176835D01*
X78413967Y-68199433D01*
X78436565Y-68224367D01*
X78456611Y-68251395D01*
X78473911Y-68280258D01*
X78488298Y-68310678D01*
X78499635Y-68342361D01*
X78507811Y-68375004D01*
X78512749Y-68408290D01*
X78514400Y-68441900D01*
X78514400Y-69635700D01*
X78512749Y-69669310D01*
X78507811Y-69702596D01*
X78499635Y-69735239D01*
X78488298Y-69766922D01*
X78473911Y-69797342D01*
X78456611Y-69826205D01*
X78436565Y-69853233D01*
X78413967Y-69878167D01*
X78389033Y-69900765D01*
X78362005Y-69920811D01*
X78333142Y-69938111D01*
X78302722Y-69952498D01*
X78271039Y-69963835D01*
X78238396Y-69972011D01*
X78205110Y-69976949D01*
X78171500Y-69978600D01*
X77485700Y-69978600D01*
X77452090Y-69976949D01*
X77418804Y-69972011D01*
X77386161Y-69963835D01*
X77354478Y-69952498D01*
X77324058Y-69938111D01*
X77295195Y-69920811D01*
X77268167Y-69900765D01*
X77243233Y-69878167D01*
X77220635Y-69853233D01*
X77200589Y-69826205D01*
X77183289Y-69797342D01*
X77168902Y-69766922D01*
X77157565Y-69735239D01*
X77149389Y-69702596D01*
X77144451Y-69669310D01*
X77142800Y-69635700D01*
X77142800Y-68441900D01*
X77144451Y-68408290D01*
X77149389Y-68375004D01*
X77157565Y-68342361D01*
X77168902Y-68310678D01*
X77183289Y-68280258D01*
X77200589Y-68251395D01*
X77220635Y-68224367D01*
X77243233Y-68199433D01*
X77268167Y-68176835D01*
X77295195Y-68156789D01*
X77324058Y-68139489D01*
X77354478Y-68125102D01*
X77386161Y-68113765D01*
X77418804Y-68105589D01*
X77452090Y-68100651D01*
X77485700Y-68099000D01*
X78171500Y-68099000D01*
X78205110Y-68100651D01*
X78205110Y-68100651D01*
G37*
D21*
X77828600Y-69038800D03*
D20*
G36*
X78205110Y-90097051D02*
G01*
X78238396Y-90101989D01*
X78271039Y-90110165D01*
X78302722Y-90121502D01*
X78333142Y-90135889D01*
X78362005Y-90153189D01*
X78389033Y-90173235D01*
X78413967Y-90195833D01*
X78436565Y-90220767D01*
X78456611Y-90247795D01*
X78473911Y-90276658D01*
X78488298Y-90307078D01*
X78499635Y-90338761D01*
X78507811Y-90371404D01*
X78512749Y-90404690D01*
X78514400Y-90438300D01*
X78514400Y-91632100D01*
X78512749Y-91665710D01*
X78507811Y-91698996D01*
X78499635Y-91731639D01*
X78488298Y-91763322D01*
X78473911Y-91793742D01*
X78456611Y-91822605D01*
X78436565Y-91849633D01*
X78413967Y-91874567D01*
X78389033Y-91897165D01*
X78362005Y-91917211D01*
X78333142Y-91934511D01*
X78302722Y-91948898D01*
X78271039Y-91960235D01*
X78238396Y-91968411D01*
X78205110Y-91973349D01*
X78171500Y-91975000D01*
X77485700Y-91975000D01*
X77452090Y-91973349D01*
X77418804Y-91968411D01*
X77386161Y-91960235D01*
X77354478Y-91948898D01*
X77324058Y-91934511D01*
X77295195Y-91917211D01*
X77268167Y-91897165D01*
X77243233Y-91874567D01*
X77220635Y-91849633D01*
X77200589Y-91822605D01*
X77183289Y-91793742D01*
X77168902Y-91763322D01*
X77157565Y-91731639D01*
X77149389Y-91698996D01*
X77144451Y-91665710D01*
X77142800Y-91632100D01*
X77142800Y-90438300D01*
X77144451Y-90404690D01*
X77149389Y-90371404D01*
X77157565Y-90338761D01*
X77168902Y-90307078D01*
X77183289Y-90276658D01*
X77200589Y-90247795D01*
X77220635Y-90220767D01*
X77243233Y-90195833D01*
X77268167Y-90173235D01*
X77295195Y-90153189D01*
X77324058Y-90135889D01*
X77354478Y-90121502D01*
X77386161Y-90110165D01*
X77418804Y-90101989D01*
X77452090Y-90097051D01*
X77485700Y-90095400D01*
X78171500Y-90095400D01*
X78205110Y-90097051D01*
X78205110Y-90097051D01*
G37*
D21*
X77828600Y-91035200D03*
D20*
G36*
X80211710Y-90097051D02*
G01*
X80244996Y-90101989D01*
X80277639Y-90110165D01*
X80309322Y-90121502D01*
X80339742Y-90135889D01*
X80368605Y-90153189D01*
X80395633Y-90173235D01*
X80420567Y-90195833D01*
X80443165Y-90220767D01*
X80463211Y-90247795D01*
X80480511Y-90276658D01*
X80494898Y-90307078D01*
X80506235Y-90338761D01*
X80514411Y-90371404D01*
X80519349Y-90404690D01*
X80521000Y-90438300D01*
X80521000Y-91632100D01*
X80519349Y-91665710D01*
X80514411Y-91698996D01*
X80506235Y-91731639D01*
X80494898Y-91763322D01*
X80480511Y-91793742D01*
X80463211Y-91822605D01*
X80443165Y-91849633D01*
X80420567Y-91874567D01*
X80395633Y-91897165D01*
X80368605Y-91917211D01*
X80339742Y-91934511D01*
X80309322Y-91948898D01*
X80277639Y-91960235D01*
X80244996Y-91968411D01*
X80211710Y-91973349D01*
X80178100Y-91975000D01*
X79492300Y-91975000D01*
X79458690Y-91973349D01*
X79425404Y-91968411D01*
X79392761Y-91960235D01*
X79361078Y-91948898D01*
X79330658Y-91934511D01*
X79301795Y-91917211D01*
X79274767Y-91897165D01*
X79249833Y-91874567D01*
X79227235Y-91849633D01*
X79207189Y-91822605D01*
X79189889Y-91793742D01*
X79175502Y-91763322D01*
X79164165Y-91731639D01*
X79155989Y-91698996D01*
X79151051Y-91665710D01*
X79149400Y-91632100D01*
X79149400Y-90438300D01*
X79151051Y-90404690D01*
X79155989Y-90371404D01*
X79164165Y-90338761D01*
X79175502Y-90307078D01*
X79189889Y-90276658D01*
X79207189Y-90247795D01*
X79227235Y-90220767D01*
X79249833Y-90195833D01*
X79274767Y-90173235D01*
X79301795Y-90153189D01*
X79330658Y-90135889D01*
X79361078Y-90121502D01*
X79392761Y-90110165D01*
X79425404Y-90101989D01*
X79458690Y-90097051D01*
X79492300Y-90095400D01*
X80178100Y-90095400D01*
X80211710Y-90097051D01*
X80211710Y-90097051D01*
G37*
D21*
X79835200Y-91035200D03*
D20*
G36*
X82218310Y-90097051D02*
G01*
X82251596Y-90101989D01*
X82284239Y-90110165D01*
X82315922Y-90121502D01*
X82346342Y-90135889D01*
X82375205Y-90153189D01*
X82402233Y-90173235D01*
X82427167Y-90195833D01*
X82449765Y-90220767D01*
X82469811Y-90247795D01*
X82487111Y-90276658D01*
X82501498Y-90307078D01*
X82512835Y-90338761D01*
X82521011Y-90371404D01*
X82525949Y-90404690D01*
X82527600Y-90438300D01*
X82527600Y-91632100D01*
X82525949Y-91665710D01*
X82521011Y-91698996D01*
X82512835Y-91731639D01*
X82501498Y-91763322D01*
X82487111Y-91793742D01*
X82469811Y-91822605D01*
X82449765Y-91849633D01*
X82427167Y-91874567D01*
X82402233Y-91897165D01*
X82375205Y-91917211D01*
X82346342Y-91934511D01*
X82315922Y-91948898D01*
X82284239Y-91960235D01*
X82251596Y-91968411D01*
X82218310Y-91973349D01*
X82184700Y-91975000D01*
X81498900Y-91975000D01*
X81465290Y-91973349D01*
X81432004Y-91968411D01*
X81399361Y-91960235D01*
X81367678Y-91948898D01*
X81337258Y-91934511D01*
X81308395Y-91917211D01*
X81281367Y-91897165D01*
X81256433Y-91874567D01*
X81233835Y-91849633D01*
X81213789Y-91822605D01*
X81196489Y-91793742D01*
X81182102Y-91763322D01*
X81170765Y-91731639D01*
X81162589Y-91698996D01*
X81157651Y-91665710D01*
X81156000Y-91632100D01*
X81156000Y-90438300D01*
X81157651Y-90404690D01*
X81162589Y-90371404D01*
X81170765Y-90338761D01*
X81182102Y-90307078D01*
X81196489Y-90276658D01*
X81213789Y-90247795D01*
X81233835Y-90220767D01*
X81256433Y-90195833D01*
X81281367Y-90173235D01*
X81308395Y-90153189D01*
X81337258Y-90135889D01*
X81367678Y-90121502D01*
X81399361Y-90110165D01*
X81432004Y-90101989D01*
X81465290Y-90097051D01*
X81498900Y-90095400D01*
X82184700Y-90095400D01*
X82218310Y-90097051D01*
X82218310Y-90097051D01*
G37*
D21*
X81841800Y-91035200D03*
D20*
G36*
X84224910Y-90097051D02*
G01*
X84258196Y-90101989D01*
X84290839Y-90110165D01*
X84322522Y-90121502D01*
X84352942Y-90135889D01*
X84381805Y-90153189D01*
X84408833Y-90173235D01*
X84433767Y-90195833D01*
X84456365Y-90220767D01*
X84476411Y-90247795D01*
X84493711Y-90276658D01*
X84508098Y-90307078D01*
X84519435Y-90338761D01*
X84527611Y-90371404D01*
X84532549Y-90404690D01*
X84534200Y-90438300D01*
X84534200Y-91632100D01*
X84532549Y-91665710D01*
X84527611Y-91698996D01*
X84519435Y-91731639D01*
X84508098Y-91763322D01*
X84493711Y-91793742D01*
X84476411Y-91822605D01*
X84456365Y-91849633D01*
X84433767Y-91874567D01*
X84408833Y-91897165D01*
X84381805Y-91917211D01*
X84352942Y-91934511D01*
X84322522Y-91948898D01*
X84290839Y-91960235D01*
X84258196Y-91968411D01*
X84224910Y-91973349D01*
X84191300Y-91975000D01*
X83505500Y-91975000D01*
X83471890Y-91973349D01*
X83438604Y-91968411D01*
X83405961Y-91960235D01*
X83374278Y-91948898D01*
X83343858Y-91934511D01*
X83314995Y-91917211D01*
X83287967Y-91897165D01*
X83263033Y-91874567D01*
X83240435Y-91849633D01*
X83220389Y-91822605D01*
X83203089Y-91793742D01*
X83188702Y-91763322D01*
X83177365Y-91731639D01*
X83169189Y-91698996D01*
X83164251Y-91665710D01*
X83162600Y-91632100D01*
X83162600Y-90438300D01*
X83164251Y-90404690D01*
X83169189Y-90371404D01*
X83177365Y-90338761D01*
X83188702Y-90307078D01*
X83203089Y-90276658D01*
X83220389Y-90247795D01*
X83240435Y-90220767D01*
X83263033Y-90195833D01*
X83287967Y-90173235D01*
X83314995Y-90153189D01*
X83343858Y-90135889D01*
X83374278Y-90121502D01*
X83405961Y-90110165D01*
X83438604Y-90101989D01*
X83471890Y-90097051D01*
X83505500Y-90095400D01*
X84191300Y-90095400D01*
X84224910Y-90097051D01*
X84224910Y-90097051D01*
G37*
D21*
X83848400Y-91035200D03*
D20*
G36*
X86231510Y-90097051D02*
G01*
X86264796Y-90101989D01*
X86297439Y-90110165D01*
X86329122Y-90121502D01*
X86359542Y-90135889D01*
X86388405Y-90153189D01*
X86415433Y-90173235D01*
X86440367Y-90195833D01*
X86462965Y-90220767D01*
X86483011Y-90247795D01*
X86500311Y-90276658D01*
X86514698Y-90307078D01*
X86526035Y-90338761D01*
X86534211Y-90371404D01*
X86539149Y-90404690D01*
X86540800Y-90438300D01*
X86540800Y-91632100D01*
X86539149Y-91665710D01*
X86534211Y-91698996D01*
X86526035Y-91731639D01*
X86514698Y-91763322D01*
X86500311Y-91793742D01*
X86483011Y-91822605D01*
X86462965Y-91849633D01*
X86440367Y-91874567D01*
X86415433Y-91897165D01*
X86388405Y-91917211D01*
X86359542Y-91934511D01*
X86329122Y-91948898D01*
X86297439Y-91960235D01*
X86264796Y-91968411D01*
X86231510Y-91973349D01*
X86197900Y-91975000D01*
X85512100Y-91975000D01*
X85478490Y-91973349D01*
X85445204Y-91968411D01*
X85412561Y-91960235D01*
X85380878Y-91948898D01*
X85350458Y-91934511D01*
X85321595Y-91917211D01*
X85294567Y-91897165D01*
X85269633Y-91874567D01*
X85247035Y-91849633D01*
X85226989Y-91822605D01*
X85209689Y-91793742D01*
X85195302Y-91763322D01*
X85183965Y-91731639D01*
X85175789Y-91698996D01*
X85170851Y-91665710D01*
X85169200Y-91632100D01*
X85169200Y-90438300D01*
X85170851Y-90404690D01*
X85175789Y-90371404D01*
X85183965Y-90338761D01*
X85195302Y-90307078D01*
X85209689Y-90276658D01*
X85226989Y-90247795D01*
X85247035Y-90220767D01*
X85269633Y-90195833D01*
X85294567Y-90173235D01*
X85321595Y-90153189D01*
X85350458Y-90135889D01*
X85380878Y-90121502D01*
X85412561Y-90110165D01*
X85445204Y-90101989D01*
X85478490Y-90097051D01*
X85512100Y-90095400D01*
X86197900Y-90095400D01*
X86231510Y-90097051D01*
X86231510Y-90097051D01*
G37*
D21*
X85855000Y-91035200D03*
D20*
G36*
X88238110Y-90097051D02*
G01*
X88271396Y-90101989D01*
X88304039Y-90110165D01*
X88335722Y-90121502D01*
X88366142Y-90135889D01*
X88395005Y-90153189D01*
X88422033Y-90173235D01*
X88446967Y-90195833D01*
X88469565Y-90220767D01*
X88489611Y-90247795D01*
X88506911Y-90276658D01*
X88521298Y-90307078D01*
X88532635Y-90338761D01*
X88540811Y-90371404D01*
X88545749Y-90404690D01*
X88547400Y-90438300D01*
X88547400Y-91632100D01*
X88545749Y-91665710D01*
X88540811Y-91698996D01*
X88532635Y-91731639D01*
X88521298Y-91763322D01*
X88506911Y-91793742D01*
X88489611Y-91822605D01*
X88469565Y-91849633D01*
X88446967Y-91874567D01*
X88422033Y-91897165D01*
X88395005Y-91917211D01*
X88366142Y-91934511D01*
X88335722Y-91948898D01*
X88304039Y-91960235D01*
X88271396Y-91968411D01*
X88238110Y-91973349D01*
X88204500Y-91975000D01*
X87518700Y-91975000D01*
X87485090Y-91973349D01*
X87451804Y-91968411D01*
X87419161Y-91960235D01*
X87387478Y-91948898D01*
X87357058Y-91934511D01*
X87328195Y-91917211D01*
X87301167Y-91897165D01*
X87276233Y-91874567D01*
X87253635Y-91849633D01*
X87233589Y-91822605D01*
X87216289Y-91793742D01*
X87201902Y-91763322D01*
X87190565Y-91731639D01*
X87182389Y-91698996D01*
X87177451Y-91665710D01*
X87175800Y-91632100D01*
X87175800Y-90438300D01*
X87177451Y-90404690D01*
X87182389Y-90371404D01*
X87190565Y-90338761D01*
X87201902Y-90307078D01*
X87216289Y-90276658D01*
X87233589Y-90247795D01*
X87253635Y-90220767D01*
X87276233Y-90195833D01*
X87301167Y-90173235D01*
X87328195Y-90153189D01*
X87357058Y-90135889D01*
X87387478Y-90121502D01*
X87419161Y-90110165D01*
X87451804Y-90101989D01*
X87485090Y-90097051D01*
X87518700Y-90095400D01*
X88204500Y-90095400D01*
X88238110Y-90097051D01*
X88238110Y-90097051D01*
G37*
D21*
X87861600Y-91035200D03*
D20*
G36*
X90244710Y-90097051D02*
G01*
X90277996Y-90101989D01*
X90310639Y-90110165D01*
X90342322Y-90121502D01*
X90372742Y-90135889D01*
X90401605Y-90153189D01*
X90428633Y-90173235D01*
X90453567Y-90195833D01*
X90476165Y-90220767D01*
X90496211Y-90247795D01*
X90513511Y-90276658D01*
X90527898Y-90307078D01*
X90539235Y-90338761D01*
X90547411Y-90371404D01*
X90552349Y-90404690D01*
X90554000Y-90438300D01*
X90554000Y-91632100D01*
X90552349Y-91665710D01*
X90547411Y-91698996D01*
X90539235Y-91731639D01*
X90527898Y-91763322D01*
X90513511Y-91793742D01*
X90496211Y-91822605D01*
X90476165Y-91849633D01*
X90453567Y-91874567D01*
X90428633Y-91897165D01*
X90401605Y-91917211D01*
X90372742Y-91934511D01*
X90342322Y-91948898D01*
X90310639Y-91960235D01*
X90277996Y-91968411D01*
X90244710Y-91973349D01*
X90211100Y-91975000D01*
X89525300Y-91975000D01*
X89491690Y-91973349D01*
X89458404Y-91968411D01*
X89425761Y-91960235D01*
X89394078Y-91948898D01*
X89363658Y-91934511D01*
X89334795Y-91917211D01*
X89307767Y-91897165D01*
X89282833Y-91874567D01*
X89260235Y-91849633D01*
X89240189Y-91822605D01*
X89222889Y-91793742D01*
X89208502Y-91763322D01*
X89197165Y-91731639D01*
X89188989Y-91698996D01*
X89184051Y-91665710D01*
X89182400Y-91632100D01*
X89182400Y-90438300D01*
X89184051Y-90404690D01*
X89188989Y-90371404D01*
X89197165Y-90338761D01*
X89208502Y-90307078D01*
X89222889Y-90276658D01*
X89240189Y-90247795D01*
X89260235Y-90220767D01*
X89282833Y-90195833D01*
X89307767Y-90173235D01*
X89334795Y-90153189D01*
X89363658Y-90135889D01*
X89394078Y-90121502D01*
X89425761Y-90110165D01*
X89458404Y-90101989D01*
X89491690Y-90097051D01*
X89525300Y-90095400D01*
X90211100Y-90095400D01*
X90244710Y-90097051D01*
X90244710Y-90097051D01*
G37*
D21*
X89868200Y-91035200D03*
D20*
G36*
X92251310Y-90097051D02*
G01*
X92284596Y-90101989D01*
X92317239Y-90110165D01*
X92348922Y-90121502D01*
X92379342Y-90135889D01*
X92408205Y-90153189D01*
X92435233Y-90173235D01*
X92460167Y-90195833D01*
X92482765Y-90220767D01*
X92502811Y-90247795D01*
X92520111Y-90276658D01*
X92534498Y-90307078D01*
X92545835Y-90338761D01*
X92554011Y-90371404D01*
X92558949Y-90404690D01*
X92560600Y-90438300D01*
X92560600Y-91632100D01*
X92558949Y-91665710D01*
X92554011Y-91698996D01*
X92545835Y-91731639D01*
X92534498Y-91763322D01*
X92520111Y-91793742D01*
X92502811Y-91822605D01*
X92482765Y-91849633D01*
X92460167Y-91874567D01*
X92435233Y-91897165D01*
X92408205Y-91917211D01*
X92379342Y-91934511D01*
X92348922Y-91948898D01*
X92317239Y-91960235D01*
X92284596Y-91968411D01*
X92251310Y-91973349D01*
X92217700Y-91975000D01*
X91531900Y-91975000D01*
X91498290Y-91973349D01*
X91465004Y-91968411D01*
X91432361Y-91960235D01*
X91400678Y-91948898D01*
X91370258Y-91934511D01*
X91341395Y-91917211D01*
X91314367Y-91897165D01*
X91289433Y-91874567D01*
X91266835Y-91849633D01*
X91246789Y-91822605D01*
X91229489Y-91793742D01*
X91215102Y-91763322D01*
X91203765Y-91731639D01*
X91195589Y-91698996D01*
X91190651Y-91665710D01*
X91189000Y-91632100D01*
X91189000Y-90438300D01*
X91190651Y-90404690D01*
X91195589Y-90371404D01*
X91203765Y-90338761D01*
X91215102Y-90307078D01*
X91229489Y-90276658D01*
X91246789Y-90247795D01*
X91266835Y-90220767D01*
X91289433Y-90195833D01*
X91314367Y-90173235D01*
X91341395Y-90153189D01*
X91370258Y-90135889D01*
X91400678Y-90121502D01*
X91432361Y-90110165D01*
X91465004Y-90101989D01*
X91498290Y-90097051D01*
X91531900Y-90095400D01*
X92217700Y-90095400D01*
X92251310Y-90097051D01*
X92251310Y-90097051D01*
G37*
D21*
X91874800Y-91035200D03*
D20*
G36*
X94257910Y-90097051D02*
G01*
X94291196Y-90101989D01*
X94323839Y-90110165D01*
X94355522Y-90121502D01*
X94385942Y-90135889D01*
X94414805Y-90153189D01*
X94441833Y-90173235D01*
X94466767Y-90195833D01*
X94489365Y-90220767D01*
X94509411Y-90247795D01*
X94526711Y-90276658D01*
X94541098Y-90307078D01*
X94552435Y-90338761D01*
X94560611Y-90371404D01*
X94565549Y-90404690D01*
X94567200Y-90438300D01*
X94567200Y-91632100D01*
X94565549Y-91665710D01*
X94560611Y-91698996D01*
X94552435Y-91731639D01*
X94541098Y-91763322D01*
X94526711Y-91793742D01*
X94509411Y-91822605D01*
X94489365Y-91849633D01*
X94466767Y-91874567D01*
X94441833Y-91897165D01*
X94414805Y-91917211D01*
X94385942Y-91934511D01*
X94355522Y-91948898D01*
X94323839Y-91960235D01*
X94291196Y-91968411D01*
X94257910Y-91973349D01*
X94224300Y-91975000D01*
X93538500Y-91975000D01*
X93504890Y-91973349D01*
X93471604Y-91968411D01*
X93438961Y-91960235D01*
X93407278Y-91948898D01*
X93376858Y-91934511D01*
X93347995Y-91917211D01*
X93320967Y-91897165D01*
X93296033Y-91874567D01*
X93273435Y-91849633D01*
X93253389Y-91822605D01*
X93236089Y-91793742D01*
X93221702Y-91763322D01*
X93210365Y-91731639D01*
X93202189Y-91698996D01*
X93197251Y-91665710D01*
X93195600Y-91632100D01*
X93195600Y-90438300D01*
X93197251Y-90404690D01*
X93202189Y-90371404D01*
X93210365Y-90338761D01*
X93221702Y-90307078D01*
X93236089Y-90276658D01*
X93253389Y-90247795D01*
X93273435Y-90220767D01*
X93296033Y-90195833D01*
X93320967Y-90173235D01*
X93347995Y-90153189D01*
X93376858Y-90135889D01*
X93407278Y-90121502D01*
X93438961Y-90110165D01*
X93471604Y-90101989D01*
X93504890Y-90097051D01*
X93538500Y-90095400D01*
X94224300Y-90095400D01*
X94257910Y-90097051D01*
X94257910Y-90097051D01*
G37*
D21*
X93881400Y-91035200D03*
D20*
G36*
X96264510Y-90097051D02*
G01*
X96297796Y-90101989D01*
X96330439Y-90110165D01*
X96362122Y-90121502D01*
X96392542Y-90135889D01*
X96421405Y-90153189D01*
X96448433Y-90173235D01*
X96473367Y-90195833D01*
X96495965Y-90220767D01*
X96516011Y-90247795D01*
X96533311Y-90276658D01*
X96547698Y-90307078D01*
X96559035Y-90338761D01*
X96567211Y-90371404D01*
X96572149Y-90404690D01*
X96573800Y-90438300D01*
X96573800Y-91632100D01*
X96572149Y-91665710D01*
X96567211Y-91698996D01*
X96559035Y-91731639D01*
X96547698Y-91763322D01*
X96533311Y-91793742D01*
X96516011Y-91822605D01*
X96495965Y-91849633D01*
X96473367Y-91874567D01*
X96448433Y-91897165D01*
X96421405Y-91917211D01*
X96392542Y-91934511D01*
X96362122Y-91948898D01*
X96330439Y-91960235D01*
X96297796Y-91968411D01*
X96264510Y-91973349D01*
X96230900Y-91975000D01*
X95545100Y-91975000D01*
X95511490Y-91973349D01*
X95478204Y-91968411D01*
X95445561Y-91960235D01*
X95413878Y-91948898D01*
X95383458Y-91934511D01*
X95354595Y-91917211D01*
X95327567Y-91897165D01*
X95302633Y-91874567D01*
X95280035Y-91849633D01*
X95259989Y-91822605D01*
X95242689Y-91793742D01*
X95228302Y-91763322D01*
X95216965Y-91731639D01*
X95208789Y-91698996D01*
X95203851Y-91665710D01*
X95202200Y-91632100D01*
X95202200Y-90438300D01*
X95203851Y-90404690D01*
X95208789Y-90371404D01*
X95216965Y-90338761D01*
X95228302Y-90307078D01*
X95242689Y-90276658D01*
X95259989Y-90247795D01*
X95280035Y-90220767D01*
X95302633Y-90195833D01*
X95327567Y-90173235D01*
X95354595Y-90153189D01*
X95383458Y-90135889D01*
X95413878Y-90121502D01*
X95445561Y-90110165D01*
X95478204Y-90101989D01*
X95511490Y-90097051D01*
X95545100Y-90095400D01*
X96230900Y-90095400D01*
X96264510Y-90097051D01*
X96264510Y-90097051D01*
G37*
D21*
X95888000Y-91035200D03*
D10*
X72012000Y-87530000D03*
X72012000Y-77370000D03*
D11*
X52962000Y-72290000D03*
X55502000Y-72290000D03*
X58042000Y-72290000D03*
X60582000Y-72290000D03*
X63122000Y-72290000D03*
X65662000Y-72290000D03*
X68202000Y-72290000D03*
X70742000Y-72290000D03*
X73282000Y-72290000D03*
X66932000Y-92610000D03*
X64392000Y-92610000D03*
X61852000Y-92610000D03*
D12*
X59312000Y-92610000D03*
D17*
X86824000Y-116232000D03*
X89324000Y-116232000D03*
X91824000Y-116232000D03*
X94324000Y-116232000D03*
D18*
X96824000Y-116232000D03*
D13*
X90300000Y-111092000D03*
X90300000Y-108592000D03*
X90300000Y-106092000D03*
D14*
X90300000Y-103592000D03*
D13*
X54274400Y-116332000D03*
D14*
X56774400Y-116332000D03*
D22*
X82000000Y-122000000D03*
X62000000Y-68000000D03*
X102000000Y-68000000D03*
M02*
