G04 #@! TF.GenerationSoftware,KiCad,Pcbnew,(5.1.2)-2*
G04 #@! TF.CreationDate,2019-09-30T00:10:55+10:00*
G04 #@! TF.ProjectId,Smart_eNERF_Gun,536d6172-745f-4654-9e45-52465f47756e,6.2*
G04 #@! TF.SameCoordinates,Original*
G04 #@! TF.FileFunction,Legend,Top*
G04 #@! TF.FilePolarity,Positive*
%FSLAX46Y46*%
G04 Gerber Fmt 4.6, Leading zero omitted, Abs format (unit mm)*
G04 Created by KiCad (PCBNEW (5.1.2)-2) date 2019-09-30 00:10:55*
%MOMM*%
%LPD*%
G04 APERTURE LIST*
%ADD10C,0.300000*%
%ADD11C,0.100000*%
%ADD12C,0.080000*%
%ADD13C,0.127000*%
%ADD14C,0.120000*%
%ADD15C,0.400000*%
%ADD16C,0.150000*%
%ADD17C,0.200000*%
G04 APERTURE END LIST*
D10*
X65080714Y-66932142D02*
X65295000Y-67003571D01*
X65652142Y-67003571D01*
X65795000Y-66932142D01*
X65866428Y-66860714D01*
X65937857Y-66717857D01*
X65937857Y-66575000D01*
X65866428Y-66432142D01*
X65795000Y-66360714D01*
X65652142Y-66289285D01*
X65366428Y-66217857D01*
X65223571Y-66146428D01*
X65152142Y-66075000D01*
X65080714Y-65932142D01*
X65080714Y-65789285D01*
X65152142Y-65646428D01*
X65223571Y-65575000D01*
X65366428Y-65503571D01*
X65723571Y-65503571D01*
X65937857Y-65575000D01*
X66580714Y-67003571D02*
X66580714Y-66003571D01*
X66580714Y-66146428D02*
X66652142Y-66075000D01*
X66795000Y-66003571D01*
X67009285Y-66003571D01*
X67152142Y-66075000D01*
X67223571Y-66217857D01*
X67223571Y-67003571D01*
X67223571Y-66217857D02*
X67295000Y-66075000D01*
X67437857Y-66003571D01*
X67652142Y-66003571D01*
X67795000Y-66075000D01*
X67866428Y-66217857D01*
X67866428Y-67003571D01*
X69223571Y-67003571D02*
X69223571Y-66217857D01*
X69152142Y-66075000D01*
X69009285Y-66003571D01*
X68723571Y-66003571D01*
X68580714Y-66075000D01*
X69223571Y-66932142D02*
X69080714Y-67003571D01*
X68723571Y-67003571D01*
X68580714Y-66932142D01*
X68509285Y-66789285D01*
X68509285Y-66646428D01*
X68580714Y-66503571D01*
X68723571Y-66432142D01*
X69080714Y-66432142D01*
X69223571Y-66360714D01*
X69937857Y-67003571D02*
X69937857Y-66003571D01*
X69937857Y-66289285D02*
X70009285Y-66146428D01*
X70080714Y-66075000D01*
X70223571Y-66003571D01*
X70366428Y-66003571D01*
X70652142Y-66003571D02*
X71223571Y-66003571D01*
X70866428Y-65503571D02*
X70866428Y-66789285D01*
X70937857Y-66932142D01*
X71080714Y-67003571D01*
X71223571Y-67003571D01*
X73437857Y-66932142D02*
X73295000Y-67003571D01*
X73009285Y-67003571D01*
X72866428Y-66932142D01*
X72795000Y-66789285D01*
X72795000Y-66217857D01*
X72866428Y-66075000D01*
X73009285Y-66003571D01*
X73295000Y-66003571D01*
X73437857Y-66075000D01*
X73509285Y-66217857D01*
X73509285Y-66360714D01*
X72795000Y-66503571D01*
X74152142Y-67003571D02*
X74152142Y-65503571D01*
X75009285Y-67003571D01*
X75009285Y-65503571D01*
X75723571Y-66217857D02*
X76223571Y-66217857D01*
X76437857Y-67003571D02*
X75723571Y-67003571D01*
X75723571Y-65503571D01*
X76437857Y-65503571D01*
X77937857Y-67003571D02*
X77437857Y-66289285D01*
X77080714Y-67003571D02*
X77080714Y-65503571D01*
X77652142Y-65503571D01*
X77795000Y-65575000D01*
X77866428Y-65646428D01*
X77937857Y-65789285D01*
X77937857Y-66003571D01*
X77866428Y-66146428D01*
X77795000Y-66217857D01*
X77652142Y-66289285D01*
X77080714Y-66289285D01*
X79080714Y-66217857D02*
X78580714Y-66217857D01*
X78580714Y-67003571D02*
X78580714Y-65503571D01*
X79295000Y-65503571D01*
X65937857Y-68125000D02*
X65795000Y-68053571D01*
X65580714Y-68053571D01*
X65366428Y-68125000D01*
X65223571Y-68267857D01*
X65152142Y-68410714D01*
X65080714Y-68696428D01*
X65080714Y-68910714D01*
X65152142Y-69196428D01*
X65223571Y-69339285D01*
X65366428Y-69482142D01*
X65580714Y-69553571D01*
X65723571Y-69553571D01*
X65937857Y-69482142D01*
X66009285Y-69410714D01*
X66009285Y-68910714D01*
X65723571Y-68910714D01*
X67295000Y-68553571D02*
X67295000Y-69553571D01*
X66652142Y-68553571D02*
X66652142Y-69339285D01*
X66723571Y-69482142D01*
X66866428Y-69553571D01*
X67080714Y-69553571D01*
X67223571Y-69482142D01*
X67295000Y-69410714D01*
X68009285Y-68553571D02*
X68009285Y-69553571D01*
X68009285Y-68696428D02*
X68080714Y-68625000D01*
X68223571Y-68553571D01*
X68437857Y-68553571D01*
X68580714Y-68625000D01*
X68652142Y-68767857D01*
X68652142Y-69553571D01*
D11*
X97566666Y-99116666D02*
X97700000Y-99116666D01*
X97766666Y-99150000D01*
X97833333Y-99216666D01*
X97866666Y-99350000D01*
X97866666Y-99583333D01*
X97833333Y-99716666D01*
X97766666Y-99783333D01*
X97700000Y-99816666D01*
X97566666Y-99816666D01*
X97500000Y-99783333D01*
X97433333Y-99716666D01*
X97400000Y-99583333D01*
X97400000Y-99350000D01*
X97433333Y-99216666D01*
X97500000Y-99150000D01*
X97566666Y-99116666D01*
X98166666Y-99816666D02*
X98166666Y-99116666D01*
X98566666Y-99816666D01*
X98566666Y-99116666D01*
X96783333Y-96816666D02*
X97116666Y-96816666D01*
X96716666Y-97016666D02*
X96950000Y-96316666D01*
X97183333Y-97016666D01*
X97383333Y-96983333D02*
X97483333Y-97016666D01*
X97650000Y-97016666D01*
X97716666Y-96983333D01*
X97750000Y-96950000D01*
X97783333Y-96883333D01*
X97783333Y-96816666D01*
X97750000Y-96750000D01*
X97716666Y-96716666D01*
X97650000Y-96683333D01*
X97516666Y-96650000D01*
X97450000Y-96616666D01*
X97416666Y-96583333D01*
X97383333Y-96516666D01*
X97383333Y-96450000D01*
X97416666Y-96383333D01*
X97450000Y-96350000D01*
X97516666Y-96316666D01*
X97683333Y-96316666D01*
X97783333Y-96350000D01*
X98216666Y-96316666D02*
X98350000Y-96316666D01*
X98416666Y-96350000D01*
X98483333Y-96416666D01*
X98516666Y-96550000D01*
X98516666Y-96783333D01*
X98483333Y-96916666D01*
X98416666Y-96983333D01*
X98350000Y-97016666D01*
X98216666Y-97016666D01*
X98150000Y-96983333D01*
X98083333Y-96916666D01*
X98050000Y-96783333D01*
X98050000Y-96550000D01*
X98083333Y-96416666D01*
X98150000Y-96350000D01*
X98216666Y-96316666D01*
X99216666Y-96950000D02*
X99183333Y-96983333D01*
X99083333Y-97016666D01*
X99016666Y-97016666D01*
X98916666Y-96983333D01*
X98850000Y-96916666D01*
X98816666Y-96850000D01*
X98783333Y-96716666D01*
X98783333Y-96616666D01*
X98816666Y-96483333D01*
X98850000Y-96416666D01*
X98916666Y-96350000D01*
X99016666Y-96316666D01*
X99083333Y-96316666D01*
X99183333Y-96350000D01*
X99216666Y-96383333D01*
X97383333Y-94116666D02*
X97150000Y-93783333D01*
X96983333Y-94116666D02*
X96983333Y-93416666D01*
X97250000Y-93416666D01*
X97316666Y-93450000D01*
X97350000Y-93483333D01*
X97383333Y-93550000D01*
X97383333Y-93650000D01*
X97350000Y-93716666D01*
X97316666Y-93750000D01*
X97250000Y-93783333D01*
X96983333Y-93783333D01*
X97650000Y-94083333D02*
X97750000Y-94116666D01*
X97916666Y-94116666D01*
X97983333Y-94083333D01*
X98016666Y-94050000D01*
X98050000Y-93983333D01*
X98050000Y-93916666D01*
X98016666Y-93850000D01*
X97983333Y-93816666D01*
X97916666Y-93783333D01*
X97783333Y-93750000D01*
X97716666Y-93716666D01*
X97683333Y-93683333D01*
X97650000Y-93616666D01*
X97650000Y-93550000D01*
X97683333Y-93483333D01*
X97716666Y-93450000D01*
X97783333Y-93416666D01*
X97950000Y-93416666D01*
X98050000Y-93450000D01*
X98316666Y-94083333D02*
X98416666Y-94116666D01*
X98583333Y-94116666D01*
X98650000Y-94083333D01*
X98683333Y-94050000D01*
X98716666Y-93983333D01*
X98716666Y-93916666D01*
X98683333Y-93850000D01*
X98650000Y-93816666D01*
X98583333Y-93783333D01*
X98450000Y-93750000D01*
X98383333Y-93716666D01*
X98350000Y-93683333D01*
X98316666Y-93616666D01*
X98316666Y-93550000D01*
X98350000Y-93483333D01*
X98383333Y-93450000D01*
X98450000Y-93416666D01*
X98616666Y-93416666D01*
X98716666Y-93450000D01*
X99016666Y-94116666D02*
X99016666Y-93416666D01*
D12*
X88452380Y-108930952D02*
X88476190Y-108859523D01*
X88476190Y-108740476D01*
X88452380Y-108692857D01*
X88428571Y-108669047D01*
X88380952Y-108645238D01*
X88333333Y-108645238D01*
X88285714Y-108669047D01*
X88261904Y-108692857D01*
X88238095Y-108740476D01*
X88214285Y-108835714D01*
X88190476Y-108883333D01*
X88166666Y-108907142D01*
X88119047Y-108930952D01*
X88071428Y-108930952D01*
X88023809Y-108907142D01*
X88000000Y-108883333D01*
X87976190Y-108835714D01*
X87976190Y-108716666D01*
X88000000Y-108645238D01*
X88023809Y-108454761D02*
X88000000Y-108430952D01*
X87976190Y-108383333D01*
X87976190Y-108264285D01*
X88000000Y-108216666D01*
X88023809Y-108192857D01*
X88071428Y-108169047D01*
X88119047Y-108169047D01*
X88190476Y-108192857D01*
X88476190Y-108478571D01*
X88476190Y-108169047D01*
X88452380Y-106430952D02*
X88476190Y-106359523D01*
X88476190Y-106240476D01*
X88452380Y-106192857D01*
X88428571Y-106169047D01*
X88380952Y-106145238D01*
X88333333Y-106145238D01*
X88285714Y-106169047D01*
X88261904Y-106192857D01*
X88238095Y-106240476D01*
X88214285Y-106335714D01*
X88190476Y-106383333D01*
X88166666Y-106407142D01*
X88119047Y-106430952D01*
X88071428Y-106430952D01*
X88023809Y-106407142D01*
X88000000Y-106383333D01*
X87976190Y-106335714D01*
X87976190Y-106216666D01*
X88000000Y-106145238D01*
X88476190Y-105669047D02*
X88476190Y-105954761D01*
X88476190Y-105811904D02*
X87976190Y-105811904D01*
X88047619Y-105859523D01*
X88095238Y-105907142D01*
X88119047Y-105954761D01*
X87976190Y-104288095D02*
X87976190Y-103978571D01*
X88166666Y-104145238D01*
X88166666Y-104073809D01*
X88190476Y-104026190D01*
X88214285Y-104002380D01*
X88261904Y-103978571D01*
X88380952Y-103978571D01*
X88428571Y-104002380D01*
X88452380Y-104026190D01*
X88476190Y-104073809D01*
X88476190Y-104216666D01*
X88452380Y-104264285D01*
X88428571Y-104288095D01*
X88428571Y-103764285D02*
X88452380Y-103740476D01*
X88476190Y-103764285D01*
X88452380Y-103788095D01*
X88428571Y-103764285D01*
X88476190Y-103764285D01*
X87976190Y-103573809D02*
X87976190Y-103264285D01*
X88166666Y-103430952D01*
X88166666Y-103359523D01*
X88190476Y-103311904D01*
X88214285Y-103288095D01*
X88261904Y-103264285D01*
X88380952Y-103264285D01*
X88428571Y-103288095D01*
X88452380Y-103311904D01*
X88476190Y-103359523D01*
X88476190Y-103502380D01*
X88452380Y-103550000D01*
X88428571Y-103573809D01*
X87976190Y-103121428D02*
X88476190Y-102954761D01*
X87976190Y-102788095D01*
X88000000Y-111430952D02*
X87976190Y-111478571D01*
X87976190Y-111550000D01*
X88000000Y-111621428D01*
X88047619Y-111669047D01*
X88095238Y-111692857D01*
X88190476Y-111716666D01*
X88261904Y-111716666D01*
X88357142Y-111692857D01*
X88404761Y-111669047D01*
X88452380Y-111621428D01*
X88476190Y-111550000D01*
X88476190Y-111502380D01*
X88452380Y-111430952D01*
X88428571Y-111407142D01*
X88261904Y-111407142D01*
X88261904Y-111502380D01*
X88476190Y-111192857D02*
X87976190Y-111192857D01*
X88476190Y-110907142D01*
X87976190Y-110907142D01*
X88476190Y-110669047D02*
X87976190Y-110669047D01*
X87976190Y-110550000D01*
X88000000Y-110478571D01*
X88047619Y-110430952D01*
X88095238Y-110407142D01*
X88190476Y-110383333D01*
X88261904Y-110383333D01*
X88357142Y-110407142D01*
X88404761Y-110430952D01*
X88452380Y-110478571D01*
X88476190Y-110550000D01*
X88476190Y-110669047D01*
X70146761Y-94202380D02*
X70218190Y-94226190D01*
X70337238Y-94226190D01*
X70384857Y-94202380D01*
X70408666Y-94178571D01*
X70432476Y-94130952D01*
X70432476Y-94083333D01*
X70408666Y-94035714D01*
X70384857Y-94011904D01*
X70337238Y-93988095D01*
X70242000Y-93964285D01*
X70194380Y-93940476D01*
X70170571Y-93916666D01*
X70146761Y-93869047D01*
X70146761Y-93821428D01*
X70170571Y-93773809D01*
X70194380Y-93750000D01*
X70242000Y-93726190D01*
X70361047Y-93726190D01*
X70432476Y-93750000D01*
X70932476Y-94178571D02*
X70908666Y-94202380D01*
X70837238Y-94226190D01*
X70789619Y-94226190D01*
X70718190Y-94202380D01*
X70670571Y-94154761D01*
X70646761Y-94107142D01*
X70622952Y-94011904D01*
X70622952Y-93940476D01*
X70646761Y-93845238D01*
X70670571Y-93797619D01*
X70718190Y-93750000D01*
X70789619Y-93726190D01*
X70837238Y-93726190D01*
X70908666Y-93750000D01*
X70932476Y-93773809D01*
X71384857Y-94226190D02*
X71146761Y-94226190D01*
X71146761Y-93726190D01*
X72674857Y-94202380D02*
X72746285Y-94226190D01*
X72865333Y-94226190D01*
X72912952Y-94202380D01*
X72936761Y-94178571D01*
X72960571Y-94130952D01*
X72960571Y-94083333D01*
X72936761Y-94035714D01*
X72912952Y-94011904D01*
X72865333Y-93988095D01*
X72770095Y-93964285D01*
X72722476Y-93940476D01*
X72698666Y-93916666D01*
X72674857Y-93869047D01*
X72674857Y-93821428D01*
X72698666Y-93773809D01*
X72722476Y-93750000D01*
X72770095Y-93726190D01*
X72889142Y-93726190D01*
X72960571Y-93750000D01*
X73174857Y-94226190D02*
X73174857Y-93726190D01*
X73293904Y-93726190D01*
X73365333Y-93750000D01*
X73412952Y-93797619D01*
X73436761Y-93845238D01*
X73460571Y-93940476D01*
X73460571Y-94011904D01*
X73436761Y-94107142D01*
X73412952Y-94154761D01*
X73365333Y-94202380D01*
X73293904Y-94226190D01*
X73174857Y-94226190D01*
X73651047Y-94083333D02*
X73889142Y-94083333D01*
X73603428Y-94226190D02*
X73770095Y-93726190D01*
X73936761Y-94226190D01*
X52344047Y-113250000D02*
X52296428Y-113226190D01*
X52225000Y-113226190D01*
X52153571Y-113250000D01*
X52105952Y-113297619D01*
X52082142Y-113345238D01*
X52058333Y-113440476D01*
X52058333Y-113511904D01*
X52082142Y-113607142D01*
X52105952Y-113654761D01*
X52153571Y-113702380D01*
X52225000Y-113726190D01*
X52272619Y-113726190D01*
X52344047Y-113702380D01*
X52367857Y-113678571D01*
X52367857Y-113511904D01*
X52272619Y-113511904D01*
X52582142Y-113726190D02*
X52582142Y-113226190D01*
X52867857Y-113726190D01*
X52867857Y-113226190D01*
X53105952Y-113726190D02*
X53105952Y-113226190D01*
X53225000Y-113226190D01*
X53296428Y-113250000D01*
X53344047Y-113297619D01*
X53367857Y-113345238D01*
X53391666Y-113440476D01*
X53391666Y-113511904D01*
X53367857Y-113607142D01*
X53344047Y-113654761D01*
X53296428Y-113702380D01*
X53225000Y-113726190D01*
X53105952Y-113726190D01*
X54463095Y-113226190D02*
X54748809Y-113226190D01*
X54605952Y-113726190D02*
X54605952Y-113226190D01*
X55201190Y-113726190D02*
X55034523Y-113488095D01*
X54915476Y-113726190D02*
X54915476Y-113226190D01*
X55105952Y-113226190D01*
X55153571Y-113250000D01*
X55177380Y-113273809D01*
X55201190Y-113321428D01*
X55201190Y-113392857D01*
X55177380Y-113440476D01*
X55153571Y-113464285D01*
X55105952Y-113488095D01*
X54915476Y-113488095D01*
X55415476Y-113726190D02*
X55415476Y-113226190D01*
X55915476Y-113250000D02*
X55867857Y-113226190D01*
X55796428Y-113226190D01*
X55725000Y-113250000D01*
X55677380Y-113297619D01*
X55653571Y-113345238D01*
X55629761Y-113440476D01*
X55629761Y-113511904D01*
X55653571Y-113607142D01*
X55677380Y-113654761D01*
X55725000Y-113702380D01*
X55796428Y-113726190D01*
X55844047Y-113726190D01*
X55915476Y-113702380D01*
X55939285Y-113678571D01*
X55939285Y-113511904D01*
X55844047Y-113511904D01*
X59825952Y-113726190D02*
X59825952Y-113226190D01*
X60111666Y-113726190D01*
X60111666Y-113226190D01*
X60325952Y-113702380D02*
X60397380Y-113726190D01*
X60516428Y-113726190D01*
X60564047Y-113702380D01*
X60587857Y-113678571D01*
X60611666Y-113630952D01*
X60611666Y-113583333D01*
X60587857Y-113535714D01*
X60564047Y-113511904D01*
X60516428Y-113488095D01*
X60421190Y-113464285D01*
X60373571Y-113440476D01*
X60349761Y-113416666D01*
X60325952Y-113369047D01*
X60325952Y-113321428D01*
X60349761Y-113273809D01*
X60373571Y-113250000D01*
X60421190Y-113226190D01*
X60540238Y-113226190D01*
X60611666Y-113250000D01*
X60802142Y-113702380D02*
X60873571Y-113726190D01*
X60992619Y-113726190D01*
X61040238Y-113702380D01*
X61064047Y-113678571D01*
X61087857Y-113630952D01*
X61087857Y-113583333D01*
X61064047Y-113535714D01*
X61040238Y-113511904D01*
X60992619Y-113488095D01*
X60897380Y-113464285D01*
X60849761Y-113440476D01*
X60825952Y-113416666D01*
X60802142Y-113369047D01*
X60802142Y-113321428D01*
X60825952Y-113273809D01*
X60849761Y-113250000D01*
X60897380Y-113226190D01*
X61016428Y-113226190D01*
X61087857Y-113250000D01*
X62302142Y-113702380D02*
X62373571Y-113726190D01*
X62492619Y-113726190D01*
X62540238Y-113702380D01*
X62564047Y-113678571D01*
X62587857Y-113630952D01*
X62587857Y-113583333D01*
X62564047Y-113535714D01*
X62540238Y-113511904D01*
X62492619Y-113488095D01*
X62397380Y-113464285D01*
X62349761Y-113440476D01*
X62325952Y-113416666D01*
X62302142Y-113369047D01*
X62302142Y-113321428D01*
X62325952Y-113273809D01*
X62349761Y-113250000D01*
X62397380Y-113226190D01*
X62516428Y-113226190D01*
X62587857Y-113250000D01*
X63087857Y-113678571D02*
X63064047Y-113702380D01*
X62992619Y-113726190D01*
X62945000Y-113726190D01*
X62873571Y-113702380D01*
X62825952Y-113654761D01*
X62802142Y-113607142D01*
X62778333Y-113511904D01*
X62778333Y-113440476D01*
X62802142Y-113345238D01*
X62825952Y-113297619D01*
X62873571Y-113250000D01*
X62945000Y-113226190D01*
X62992619Y-113226190D01*
X63064047Y-113250000D01*
X63087857Y-113273809D01*
X63302142Y-113726190D02*
X63302142Y-113226190D01*
X63587857Y-113726190D02*
X63373571Y-113440476D01*
X63587857Y-113226190D02*
X63302142Y-113511904D01*
X64659285Y-113726190D02*
X64659285Y-113226190D01*
X64825952Y-113583333D01*
X64992619Y-113226190D01*
X64992619Y-113726190D01*
X65325952Y-113226190D02*
X65421190Y-113226190D01*
X65468809Y-113250000D01*
X65516428Y-113297619D01*
X65540238Y-113392857D01*
X65540238Y-113559523D01*
X65516428Y-113654761D01*
X65468809Y-113702380D01*
X65421190Y-113726190D01*
X65325952Y-113726190D01*
X65278333Y-113702380D01*
X65230714Y-113654761D01*
X65206904Y-113559523D01*
X65206904Y-113392857D01*
X65230714Y-113297619D01*
X65278333Y-113250000D01*
X65325952Y-113226190D01*
X65730714Y-113702380D02*
X65802142Y-113726190D01*
X65921190Y-113726190D01*
X65968809Y-113702380D01*
X65992619Y-113678571D01*
X66016428Y-113630952D01*
X66016428Y-113583333D01*
X65992619Y-113535714D01*
X65968809Y-113511904D01*
X65921190Y-113488095D01*
X65825952Y-113464285D01*
X65778333Y-113440476D01*
X65754523Y-113416666D01*
X65730714Y-113369047D01*
X65730714Y-113321428D01*
X65754523Y-113273809D01*
X65778333Y-113250000D01*
X65825952Y-113226190D01*
X65945000Y-113226190D01*
X66016428Y-113250000D01*
X66230714Y-113726190D02*
X66230714Y-113226190D01*
X67159285Y-113726190D02*
X67159285Y-113226190D01*
X67325952Y-113583333D01*
X67492619Y-113226190D01*
X67492619Y-113726190D01*
X67730714Y-113726190D02*
X67730714Y-113226190D01*
X67945000Y-113702380D02*
X68016428Y-113726190D01*
X68135476Y-113726190D01*
X68183095Y-113702380D01*
X68206904Y-113678571D01*
X68230714Y-113630952D01*
X68230714Y-113583333D01*
X68206904Y-113535714D01*
X68183095Y-113511904D01*
X68135476Y-113488095D01*
X68040238Y-113464285D01*
X67992619Y-113440476D01*
X67968809Y-113416666D01*
X67945000Y-113369047D01*
X67945000Y-113321428D01*
X67968809Y-113273809D01*
X67992619Y-113250000D01*
X68040238Y-113226190D01*
X68159285Y-113226190D01*
X68230714Y-113250000D01*
X68540238Y-113226190D02*
X68635476Y-113226190D01*
X68683095Y-113250000D01*
X68730714Y-113297619D01*
X68754523Y-113392857D01*
X68754523Y-113559523D01*
X68730714Y-113654761D01*
X68683095Y-113702380D01*
X68635476Y-113726190D01*
X68540238Y-113726190D01*
X68492619Y-113702380D01*
X68445000Y-113654761D01*
X68421190Y-113559523D01*
X68421190Y-113392857D01*
X68445000Y-113297619D01*
X68492619Y-113250000D01*
X68540238Y-113226190D01*
X70064047Y-113250000D02*
X70016428Y-113226190D01*
X69945000Y-113226190D01*
X69873571Y-113250000D01*
X69825952Y-113297619D01*
X69802142Y-113345238D01*
X69778333Y-113440476D01*
X69778333Y-113511904D01*
X69802142Y-113607142D01*
X69825952Y-113654761D01*
X69873571Y-113702380D01*
X69945000Y-113726190D01*
X69992619Y-113726190D01*
X70064047Y-113702380D01*
X70087857Y-113678571D01*
X70087857Y-113511904D01*
X69992619Y-113511904D01*
X70302142Y-113726190D02*
X70302142Y-113226190D01*
X70587857Y-113726190D01*
X70587857Y-113226190D01*
X70825952Y-113726190D02*
X70825952Y-113226190D01*
X70945000Y-113226190D01*
X71016428Y-113250000D01*
X71064047Y-113297619D01*
X71087857Y-113345238D01*
X71111666Y-113440476D01*
X71111666Y-113511904D01*
X71087857Y-113607142D01*
X71064047Y-113654761D01*
X71016428Y-113702380D01*
X70945000Y-113726190D01*
X70825952Y-113726190D01*
X72671190Y-113726190D02*
X72504523Y-113488095D01*
X72385476Y-113726190D02*
X72385476Y-113226190D01*
X72575952Y-113226190D01*
X72623571Y-113250000D01*
X72647380Y-113273809D01*
X72671190Y-113321428D01*
X72671190Y-113392857D01*
X72647380Y-113440476D01*
X72623571Y-113464285D01*
X72575952Y-113488095D01*
X72385476Y-113488095D01*
X72861666Y-113702380D02*
X72933095Y-113726190D01*
X73052142Y-113726190D01*
X73099761Y-113702380D01*
X73123571Y-113678571D01*
X73147380Y-113630952D01*
X73147380Y-113583333D01*
X73123571Y-113535714D01*
X73099761Y-113511904D01*
X73052142Y-113488095D01*
X72956904Y-113464285D01*
X72909285Y-113440476D01*
X72885476Y-113416666D01*
X72861666Y-113369047D01*
X72861666Y-113321428D01*
X72885476Y-113273809D01*
X72909285Y-113250000D01*
X72956904Y-113226190D01*
X73075952Y-113226190D01*
X73147380Y-113250000D01*
X73290238Y-113226190D02*
X73575952Y-113226190D01*
X73433095Y-113726190D02*
X73433095Y-113226190D01*
X74849761Y-113702380D02*
X74921190Y-113726190D01*
X75040238Y-113726190D01*
X75087857Y-113702380D01*
X75111666Y-113678571D01*
X75135476Y-113630952D01*
X75135476Y-113583333D01*
X75111666Y-113535714D01*
X75087857Y-113511904D01*
X75040238Y-113488095D01*
X74945000Y-113464285D01*
X74897380Y-113440476D01*
X74873571Y-113416666D01*
X74849761Y-113369047D01*
X74849761Y-113321428D01*
X74873571Y-113273809D01*
X74897380Y-113250000D01*
X74945000Y-113226190D01*
X75064047Y-113226190D01*
X75135476Y-113250000D01*
X75635476Y-113678571D02*
X75611666Y-113702380D01*
X75540238Y-113726190D01*
X75492619Y-113726190D01*
X75421190Y-113702380D01*
X75373571Y-113654761D01*
X75349761Y-113607142D01*
X75325952Y-113511904D01*
X75325952Y-113440476D01*
X75349761Y-113345238D01*
X75373571Y-113297619D01*
X75421190Y-113250000D01*
X75492619Y-113226190D01*
X75540238Y-113226190D01*
X75611666Y-113250000D01*
X75635476Y-113273809D01*
X76087857Y-113726190D02*
X75849761Y-113726190D01*
X75849761Y-113226190D01*
X86142857Y-114702380D02*
X86214285Y-114726190D01*
X86333333Y-114726190D01*
X86380952Y-114702380D01*
X86404761Y-114678571D01*
X86428571Y-114630952D01*
X86428571Y-114583333D01*
X86404761Y-114535714D01*
X86380952Y-114511904D01*
X86333333Y-114488095D01*
X86238095Y-114464285D01*
X86190476Y-114440476D01*
X86166666Y-114416666D01*
X86142857Y-114369047D01*
X86142857Y-114321428D01*
X86166666Y-114273809D01*
X86190476Y-114250000D01*
X86238095Y-114226190D01*
X86357142Y-114226190D01*
X86428571Y-114250000D01*
X86642857Y-114726190D02*
X86642857Y-114226190D01*
X86761904Y-114226190D01*
X86833333Y-114250000D01*
X86880952Y-114297619D01*
X86904761Y-114345238D01*
X86928571Y-114440476D01*
X86928571Y-114511904D01*
X86904761Y-114607142D01*
X86880952Y-114654761D01*
X86833333Y-114702380D01*
X86761904Y-114726190D01*
X86642857Y-114726190D01*
X87119047Y-114583333D02*
X87357142Y-114583333D01*
X87071428Y-114726190D02*
X87238095Y-114226190D01*
X87404761Y-114726190D01*
X88654761Y-114702380D02*
X88726190Y-114726190D01*
X88845238Y-114726190D01*
X88892857Y-114702380D01*
X88916666Y-114678571D01*
X88940476Y-114630952D01*
X88940476Y-114583333D01*
X88916666Y-114535714D01*
X88892857Y-114511904D01*
X88845238Y-114488095D01*
X88750000Y-114464285D01*
X88702380Y-114440476D01*
X88678571Y-114416666D01*
X88654761Y-114369047D01*
X88654761Y-114321428D01*
X88678571Y-114273809D01*
X88702380Y-114250000D01*
X88750000Y-114226190D01*
X88869047Y-114226190D01*
X88940476Y-114250000D01*
X89440476Y-114678571D02*
X89416666Y-114702380D01*
X89345238Y-114726190D01*
X89297619Y-114726190D01*
X89226190Y-114702380D01*
X89178571Y-114654761D01*
X89154761Y-114607142D01*
X89130952Y-114511904D01*
X89130952Y-114440476D01*
X89154761Y-114345238D01*
X89178571Y-114297619D01*
X89226190Y-114250000D01*
X89297619Y-114226190D01*
X89345238Y-114226190D01*
X89416666Y-114250000D01*
X89440476Y-114273809D01*
X89892857Y-114726190D02*
X89654761Y-114726190D01*
X89654761Y-114226190D01*
X91476190Y-114726190D02*
X91309523Y-114488095D01*
X91190476Y-114726190D02*
X91190476Y-114226190D01*
X91380952Y-114226190D01*
X91428571Y-114250000D01*
X91452380Y-114273809D01*
X91476190Y-114321428D01*
X91476190Y-114392857D01*
X91452380Y-114440476D01*
X91428571Y-114464285D01*
X91380952Y-114488095D01*
X91190476Y-114488095D01*
X91666666Y-114702380D02*
X91738095Y-114726190D01*
X91857142Y-114726190D01*
X91904761Y-114702380D01*
X91928571Y-114678571D01*
X91952380Y-114630952D01*
X91952380Y-114583333D01*
X91928571Y-114535714D01*
X91904761Y-114511904D01*
X91857142Y-114488095D01*
X91761904Y-114464285D01*
X91714285Y-114440476D01*
X91690476Y-114416666D01*
X91666666Y-114369047D01*
X91666666Y-114321428D01*
X91690476Y-114273809D01*
X91714285Y-114250000D01*
X91761904Y-114226190D01*
X91880952Y-114226190D01*
X91952380Y-114250000D01*
X92095238Y-114226190D02*
X92380952Y-114226190D01*
X92238095Y-114726190D02*
X92238095Y-114226190D01*
X93662380Y-114226190D02*
X93829047Y-114726190D01*
X93995714Y-114226190D01*
X94162380Y-114726190D02*
X94162380Y-114226190D01*
X94400476Y-114726190D02*
X94400476Y-114226190D01*
X94686190Y-114726190D01*
X94686190Y-114226190D01*
X96369047Y-114250000D02*
X96321428Y-114226190D01*
X96250000Y-114226190D01*
X96178571Y-114250000D01*
X96130952Y-114297619D01*
X96107142Y-114345238D01*
X96083333Y-114440476D01*
X96083333Y-114511904D01*
X96107142Y-114607142D01*
X96130952Y-114654761D01*
X96178571Y-114702380D01*
X96250000Y-114726190D01*
X96297619Y-114726190D01*
X96369047Y-114702380D01*
X96392857Y-114678571D01*
X96392857Y-114511904D01*
X96297619Y-114511904D01*
X96607142Y-114726190D02*
X96607142Y-114226190D01*
X96892857Y-114726190D01*
X96892857Y-114226190D01*
X97130952Y-114726190D02*
X97130952Y-114226190D01*
X97250000Y-114226190D01*
X97321428Y-114250000D01*
X97369047Y-114297619D01*
X97392857Y-114345238D01*
X97416666Y-114440476D01*
X97416666Y-114511904D01*
X97392857Y-114607142D01*
X97369047Y-114654761D01*
X97321428Y-114702380D01*
X97250000Y-114726190D01*
X97130952Y-114726190D01*
D13*
X61300000Y-78200000D02*
X68900000Y-78200000D01*
X68900000Y-78200000D02*
X68900000Y-90600000D01*
X68900000Y-90600000D02*
X61300000Y-90600000D01*
X61300000Y-90600000D02*
X61300000Y-78200000D01*
D14*
X51270000Y-70370000D02*
X51270000Y-93230000D01*
X74130000Y-70370000D02*
X51270000Y-70370000D01*
X74130000Y-93230000D02*
X74130000Y-70370000D01*
X51270000Y-93230000D02*
X74130000Y-93230000D01*
D13*
X75974400Y-92229000D02*
X75974400Y-67845000D01*
D15*
X96092000Y-71209000D02*
G75*
G03X96092000Y-71209000I-200000J0D01*
G01*
D13*
X75974400Y-67845000D02*
X97081800Y-67845000D01*
X97081800Y-67845000D02*
X103609600Y-74372800D01*
X103609600Y-74372800D02*
X103609600Y-85701200D01*
X97081800Y-92229000D02*
X103609600Y-85701200D01*
X97081800Y-92229000D02*
X75974400Y-92229000D01*
D14*
X60210000Y-85061252D02*
X60210000Y-84538748D01*
X58790000Y-85061252D02*
X58790000Y-84538748D01*
D13*
X77895000Y-117495000D02*
X77895000Y-124495000D01*
X77895000Y-117475000D02*
X77895000Y-117495000D01*
X77797000Y-125095000D02*
G75*
G03X77797000Y-125095000I-200000J0D01*
G01*
X77895000Y-112995000D02*
X77895000Y-117475000D01*
X57995000Y-112995000D02*
X77895000Y-112995000D01*
X57995000Y-124495000D02*
X57995000Y-112995000D01*
X77895000Y-124495000D02*
X57995000Y-124495000D01*
X99200000Y-101100000D02*
X99200000Y-113500000D01*
X99200000Y-113500000D02*
X87700000Y-113500000D01*
X87700000Y-113500000D02*
X87700000Y-101100000D01*
X87700000Y-101100000D02*
X99200000Y-101100000D01*
D11*
X100414000Y-101458000D02*
G75*
G03X100414000Y-101458000I-254000J0D01*
G01*
D14*
X71868748Y-92560000D02*
X72391252Y-92560000D01*
X71868748Y-91140000D02*
X72391252Y-91140000D01*
D11*
G36*
X74298000Y-106453000D02*
G01*
X74044000Y-106199000D01*
X74425000Y-105945000D01*
X74679000Y-106199000D01*
X74298000Y-106453000D01*
G37*
X74298000Y-106453000D02*
X74044000Y-106199000D01*
X74425000Y-105945000D01*
X74679000Y-106199000D01*
X74298000Y-106453000D01*
G36*
X73282000Y-107215000D02*
G01*
X73028000Y-106961000D01*
X73409000Y-106707000D01*
X73663000Y-106961000D01*
X73282000Y-107215000D01*
G37*
X73282000Y-107215000D02*
X73028000Y-106961000D01*
X73409000Y-106707000D01*
X73663000Y-106961000D01*
X73282000Y-107215000D01*
G36*
X74044000Y-107977000D02*
G01*
X73790000Y-107723000D01*
X74171000Y-107469000D01*
X74425000Y-107723000D01*
X74044000Y-107977000D01*
G37*
X74044000Y-107977000D02*
X73790000Y-107723000D01*
X74171000Y-107469000D01*
X74425000Y-107723000D01*
X74044000Y-107977000D01*
G36*
X73917000Y-106072000D02*
G01*
X73663000Y-105818000D01*
X74044000Y-105564000D01*
X74298000Y-105818000D01*
X73917000Y-106072000D01*
G37*
X73917000Y-106072000D02*
X73663000Y-105818000D01*
X74044000Y-105564000D01*
X74298000Y-105818000D01*
X73917000Y-106072000D01*
G36*
X73663000Y-107596000D02*
G01*
X73409000Y-107342000D01*
X73790000Y-107088000D01*
X74044000Y-107342000D01*
X73663000Y-107596000D01*
G37*
X73663000Y-107596000D02*
X73409000Y-107342000D01*
X73790000Y-107088000D01*
X74044000Y-107342000D01*
X73663000Y-107596000D01*
G36*
X74425000Y-105691000D02*
G01*
X74171000Y-105437000D01*
X74552000Y-105183000D01*
X74806000Y-105437000D01*
X74425000Y-105691000D01*
G37*
X74425000Y-105691000D02*
X74171000Y-105437000D01*
X74552000Y-105183000D01*
X74806000Y-105437000D01*
X74425000Y-105691000D01*
G36*
X73790000Y-106834000D02*
G01*
X73536000Y-106580000D01*
X73917000Y-106326000D01*
X74171000Y-106580000D01*
X73790000Y-106834000D01*
G37*
X73790000Y-106834000D02*
X73536000Y-106580000D01*
X73917000Y-106326000D01*
X74171000Y-106580000D01*
X73790000Y-106834000D01*
G36*
X73409000Y-106453000D02*
G01*
X73155000Y-106199000D01*
X73536000Y-105945000D01*
X73790000Y-106199000D01*
X73409000Y-106453000D01*
G37*
X73409000Y-106453000D02*
X73155000Y-106199000D01*
X73536000Y-105945000D01*
X73790000Y-106199000D01*
X73409000Y-106453000D01*
D16*
X51692000Y-112422000D02*
X51692000Y-94642000D01*
X87252000Y-112422000D02*
X51692000Y-112422000D01*
X87252000Y-94642000D02*
X87252000Y-112422000D01*
X51692000Y-94642000D02*
X87252000Y-94642000D01*
X78362000Y-108612000D02*
X69472000Y-108612000D01*
X78362000Y-98452000D02*
X69472000Y-98452000D01*
X69472000Y-98452000D02*
X69472000Y-108612000D01*
X78362000Y-108612000D02*
X78362000Y-98452000D01*
X82172000Y-100992000D02*
X84712000Y-100992000D01*
X82172000Y-106072000D02*
X82172000Y-100992000D01*
X84712000Y-106072000D02*
X82172000Y-106072000D01*
X84712000Y-100992000D02*
X84712000Y-106072000D01*
X58042000Y-106072000D02*
X58042000Y-108612000D01*
X60582000Y-106072000D02*
X58042000Y-106072000D01*
X60582000Y-108612000D02*
X60582000Y-106072000D01*
X58042000Y-108612000D02*
X60582000Y-108612000D01*
X56772000Y-107342000D02*
X51692000Y-107342000D01*
X56772000Y-99722000D02*
X51692000Y-99722000D01*
X56772000Y-107342000D02*
X56772000Y-99722000D01*
X63122000Y-106072000D02*
X63122000Y-108612000D01*
X66932000Y-106072000D02*
X63122000Y-106072000D01*
X66932000Y-108612000D02*
X66932000Y-106072000D01*
X63122000Y-108612000D02*
X66932000Y-108612000D01*
X50422000Y-99722000D02*
X51692000Y-99722000D01*
X50422000Y-107342000D02*
X50422000Y-99722000D01*
X51692000Y-107342000D02*
X50422000Y-107342000D01*
D14*
X96340000Y-92920000D02*
X93480000Y-92920000D01*
X96340000Y-94840000D02*
X96340000Y-92920000D01*
X93480000Y-94840000D02*
X96340000Y-94840000D01*
X96340000Y-98600000D02*
X93480000Y-98600000D01*
X96340000Y-100520000D02*
X96340000Y-98600000D01*
X93480000Y-100520000D02*
X96340000Y-100520000D01*
X96340000Y-95760000D02*
X93480000Y-95760000D01*
X96340000Y-97680000D02*
X96340000Y-95760000D01*
X93480000Y-97680000D02*
X96340000Y-97680000D01*
D17*
X99136000Y-126050000D02*
G75*
G03X99136000Y-126050000I-100000J0D01*
G01*
D13*
X84300000Y-125450000D02*
X84300000Y-113950000D01*
X99200000Y-125450000D02*
X84300000Y-125450000D01*
X99200000Y-113950000D02*
X99200000Y-125450000D01*
X84300000Y-113950000D02*
X99200000Y-113950000D01*
D14*
X90423252Y-93170000D02*
X89900748Y-93170000D01*
X90423252Y-94590000D02*
X89900748Y-94590000D01*
X90423252Y-98850000D02*
X89900748Y-98850000D01*
X90423252Y-100270000D02*
X89900748Y-100270000D01*
X90423252Y-96010000D02*
X89900748Y-96010000D01*
X90423252Y-97430000D02*
X89900748Y-97430000D01*
X59107000Y-99941748D02*
X59107000Y-100464252D01*
X60527000Y-99941748D02*
X60527000Y-100464252D01*
X56040000Y-99941748D02*
X56040000Y-100464252D01*
X57460000Y-99941748D02*
X57460000Y-100464252D01*
D11*
X57531000Y-125222000D02*
G75*
G03X57531000Y-125222000I-254000J0D01*
G01*
D13*
X57675000Y-113016000D02*
X57675000Y-124516000D01*
X50275000Y-113016000D02*
X57675000Y-113016000D01*
X50275000Y-124516000D02*
X50275000Y-113016000D01*
X57675000Y-124516000D02*
X50275000Y-124516000D01*
D14*
X91861252Y-71840000D02*
X91338748Y-71840000D01*
X91861252Y-73260000D02*
X91338748Y-73260000D01*
X91861252Y-74590000D02*
X91338748Y-74590000D01*
X91861252Y-76010000D02*
X91338748Y-76010000D01*
D16*
X59952380Y-90509523D02*
X60952380Y-90176190D01*
X59952380Y-89842857D01*
X60952380Y-88938095D02*
X60476190Y-89271428D01*
X60952380Y-89509523D02*
X59952380Y-89509523D01*
X59952380Y-89128571D01*
X60000000Y-89033333D01*
X60047619Y-88985714D01*
X60142857Y-88938095D01*
X60285714Y-88938095D01*
X60380952Y-88985714D01*
X60428571Y-89033333D01*
X60476190Y-89128571D01*
X60476190Y-89509523D01*
X60952380Y-87985714D02*
X60952380Y-88557142D01*
X60952380Y-88271428D02*
X59952380Y-88271428D01*
X60095238Y-88366666D01*
X60190476Y-88461904D01*
X60238095Y-88557142D01*
X51528571Y-69652380D02*
X51528571Y-68652380D01*
X52004761Y-69652380D02*
X52004761Y-68652380D01*
X52338095Y-69366666D01*
X52671428Y-68652380D01*
X52671428Y-69652380D01*
X53147619Y-68652380D02*
X53147619Y-69461904D01*
X53195238Y-69557142D01*
X53242857Y-69604761D01*
X53338095Y-69652380D01*
X53528571Y-69652380D01*
X53623809Y-69604761D01*
X53671428Y-69557142D01*
X53719047Y-69461904D01*
X53719047Y-68652380D01*
X54719047Y-69652380D02*
X54147619Y-69652380D01*
X54433333Y-69652380D02*
X54433333Y-68652380D01*
X54338095Y-68795238D01*
X54242857Y-68890476D01*
X54147619Y-68938095D01*
X83412857Y-66342380D02*
X84079523Y-67342380D01*
X84079523Y-66342380D02*
X83412857Y-67342380D01*
X84793809Y-66818571D02*
X84936666Y-66866190D01*
X84984285Y-66913809D01*
X85031904Y-67009047D01*
X85031904Y-67151904D01*
X84984285Y-67247142D01*
X84936666Y-67294761D01*
X84841428Y-67342380D01*
X84460476Y-67342380D01*
X84460476Y-66342380D01*
X84793809Y-66342380D01*
X84889047Y-66390000D01*
X84936666Y-66437619D01*
X84984285Y-66532857D01*
X84984285Y-66628095D01*
X84936666Y-66723333D01*
X84889047Y-66770952D01*
X84793809Y-66818571D01*
X84460476Y-66818571D01*
X85841428Y-67294761D02*
X85746190Y-67342380D01*
X85555714Y-67342380D01*
X85460476Y-67294761D01*
X85412857Y-67199523D01*
X85412857Y-66818571D01*
X85460476Y-66723333D01*
X85555714Y-66675714D01*
X85746190Y-66675714D01*
X85841428Y-66723333D01*
X85889047Y-66818571D01*
X85889047Y-66913809D01*
X85412857Y-67009047D01*
X86698571Y-67294761D02*
X86603333Y-67342380D01*
X86412857Y-67342380D01*
X86317619Y-67294761D01*
X86270000Y-67199523D01*
X86270000Y-66818571D01*
X86317619Y-66723333D01*
X86412857Y-66675714D01*
X86603333Y-66675714D01*
X86698571Y-66723333D01*
X86746190Y-66818571D01*
X86746190Y-66913809D01*
X86270000Y-67009047D01*
X87841428Y-66342380D02*
X88460476Y-66342380D01*
X88127142Y-66723333D01*
X88270000Y-66723333D01*
X88365238Y-66770952D01*
X88412857Y-66818571D01*
X88460476Y-66913809D01*
X88460476Y-67151904D01*
X88412857Y-67247142D01*
X88365238Y-67294761D01*
X88270000Y-67342380D01*
X87984285Y-67342380D01*
X87889047Y-67294761D01*
X87841428Y-67247142D01*
X90222380Y-67342380D02*
X89889047Y-66866190D01*
X89650952Y-67342380D02*
X89650952Y-66342380D01*
X90031904Y-66342380D01*
X90127142Y-66390000D01*
X90174761Y-66437619D01*
X90222380Y-66532857D01*
X90222380Y-66675714D01*
X90174761Y-66770952D01*
X90127142Y-66818571D01*
X90031904Y-66866190D01*
X89650952Y-66866190D01*
X90984285Y-66818571D02*
X90650952Y-66818571D01*
X90650952Y-67342380D02*
X90650952Y-66342380D01*
X91127142Y-66342380D01*
X92270000Y-67342380D02*
X92270000Y-66342380D01*
X92603333Y-67056666D01*
X92936666Y-66342380D01*
X92936666Y-67342380D01*
X93555714Y-67342380D02*
X93460476Y-67294761D01*
X93412857Y-67247142D01*
X93365238Y-67151904D01*
X93365238Y-66866190D01*
X93412857Y-66770952D01*
X93460476Y-66723333D01*
X93555714Y-66675714D01*
X93698571Y-66675714D01*
X93793809Y-66723333D01*
X93841428Y-66770952D01*
X93889047Y-66866190D01*
X93889047Y-67151904D01*
X93841428Y-67247142D01*
X93793809Y-67294761D01*
X93698571Y-67342380D01*
X93555714Y-67342380D01*
X94746190Y-67342380D02*
X94746190Y-66342380D01*
X94746190Y-67294761D02*
X94650952Y-67342380D01*
X94460476Y-67342380D01*
X94365238Y-67294761D01*
X94317619Y-67247142D01*
X94270000Y-67151904D01*
X94270000Y-66866190D01*
X94317619Y-66770952D01*
X94365238Y-66723333D01*
X94460476Y-66675714D01*
X94650952Y-66675714D01*
X94746190Y-66723333D01*
X95650952Y-66675714D02*
X95650952Y-67342380D01*
X95222380Y-66675714D02*
X95222380Y-67199523D01*
X95270000Y-67294761D01*
X95365238Y-67342380D01*
X95508095Y-67342380D01*
X95603333Y-67294761D01*
X95650952Y-67247142D01*
X96270000Y-67342380D02*
X96174761Y-67294761D01*
X96127142Y-67199523D01*
X96127142Y-66342380D01*
X97031904Y-67294761D02*
X96936666Y-67342380D01*
X96746190Y-67342380D01*
X96650952Y-67294761D01*
X96603333Y-67199523D01*
X96603333Y-66818571D01*
X96650952Y-66723333D01*
X96746190Y-66675714D01*
X96936666Y-66675714D01*
X97031904Y-66723333D01*
X97079523Y-66818571D01*
X97079523Y-66913809D01*
X96603333Y-67009047D01*
X59333333Y-82357142D02*
X59285714Y-82404761D01*
X59142857Y-82452380D01*
X59047619Y-82452380D01*
X58904761Y-82404761D01*
X58809523Y-82309523D01*
X58761904Y-82214285D01*
X58714285Y-82023809D01*
X58714285Y-81880952D01*
X58761904Y-81690476D01*
X58809523Y-81595238D01*
X58904761Y-81500000D01*
X59047619Y-81452380D01*
X59142857Y-81452380D01*
X59285714Y-81500000D01*
X59333333Y-81547619D01*
X60285714Y-82452380D02*
X59714285Y-82452380D01*
X60000000Y-82452380D02*
X60000000Y-81452380D01*
X59904761Y-81595238D01*
X59809523Y-81690476D01*
X59714285Y-81738095D01*
X78141580Y-120226190D02*
X78855866Y-120226190D01*
X78998723Y-120273809D01*
X79093961Y-120369047D01*
X79141580Y-120511904D01*
X79141580Y-120607142D01*
X79093961Y-119797619D02*
X79141580Y-119654761D01*
X79141580Y-119416666D01*
X79093961Y-119321428D01*
X79046342Y-119273809D01*
X78951104Y-119226190D01*
X78855866Y-119226190D01*
X78760628Y-119273809D01*
X78713009Y-119321428D01*
X78665390Y-119416666D01*
X78617771Y-119607142D01*
X78570152Y-119702380D01*
X78522533Y-119750000D01*
X78427295Y-119797619D01*
X78332057Y-119797619D01*
X78236819Y-119750000D01*
X78189200Y-119702380D01*
X78141580Y-119607142D01*
X78141580Y-119369047D01*
X78189200Y-119226190D01*
X78141580Y-118940476D02*
X78141580Y-118369047D01*
X79141580Y-118654761D02*
X78141580Y-118654761D01*
X78760628Y-118035714D02*
X78760628Y-117273809D01*
X79141580Y-116226190D02*
X78665390Y-116559523D01*
X79141580Y-116797619D02*
X78141580Y-116797619D01*
X78141580Y-116416666D01*
X78189200Y-116321428D01*
X78236819Y-116273809D01*
X78332057Y-116226190D01*
X78474914Y-116226190D01*
X78570152Y-116273809D01*
X78617771Y-116321428D01*
X78665390Y-116416666D01*
X78665390Y-116797619D01*
X78617771Y-115464285D02*
X78617771Y-115797619D01*
X79141580Y-115797619D02*
X78141580Y-115797619D01*
X78141580Y-115321428D01*
X79141580Y-114940476D02*
X78141580Y-114940476D01*
X79141580Y-114464285D02*
X78141580Y-114464285D01*
X78141580Y-114226190D01*
X78189200Y-114083333D01*
X78284438Y-113988095D01*
X78379676Y-113940476D01*
X78570152Y-113892857D01*
X78713009Y-113892857D01*
X78903485Y-113940476D01*
X78998723Y-113988095D01*
X79093961Y-114083333D01*
X79141580Y-114226190D01*
X79141580Y-114464285D01*
X79141580Y-112940476D02*
X79141580Y-113511904D01*
X79141580Y-113226190D02*
X78141580Y-113226190D01*
X78284438Y-113321428D01*
X78379676Y-113416666D01*
X78427295Y-113511904D01*
X68963333Y-92307142D02*
X68915714Y-92354761D01*
X68772857Y-92402380D01*
X68677619Y-92402380D01*
X68534761Y-92354761D01*
X68439523Y-92259523D01*
X68391904Y-92164285D01*
X68344285Y-91973809D01*
X68344285Y-91830952D01*
X68391904Y-91640476D01*
X68439523Y-91545238D01*
X68534761Y-91450000D01*
X68677619Y-91402380D01*
X68772857Y-91402380D01*
X68915714Y-91450000D01*
X68963333Y-91497619D01*
X69344285Y-91497619D02*
X69391904Y-91450000D01*
X69487142Y-91402380D01*
X69725238Y-91402380D01*
X69820476Y-91450000D01*
X69868095Y-91497619D01*
X69915714Y-91592857D01*
X69915714Y-91688095D01*
X69868095Y-91830952D01*
X69296666Y-92402380D01*
X69915714Y-92402380D01*
X80561904Y-93052380D02*
X81133333Y-93052380D01*
X80847619Y-94052380D02*
X80847619Y-93052380D01*
X81371428Y-93052380D02*
X81990476Y-93052380D01*
X81657142Y-93433333D01*
X81800000Y-93433333D01*
X81895238Y-93480952D01*
X81942857Y-93528571D01*
X81990476Y-93623809D01*
X81990476Y-93861904D01*
X81942857Y-93957142D01*
X81895238Y-94004761D01*
X81800000Y-94052380D01*
X81514285Y-94052380D01*
X81419047Y-94004761D01*
X81371428Y-93957142D01*
X82371428Y-93147619D02*
X82419047Y-93100000D01*
X82514285Y-93052380D01*
X82752380Y-93052380D01*
X82847619Y-93100000D01*
X82895238Y-93147619D01*
X82942857Y-93242857D01*
X82942857Y-93338095D01*
X82895238Y-93480952D01*
X82323809Y-94052380D01*
X82942857Y-94052380D01*
X69700333Y-102324666D02*
X69700333Y-101624666D01*
X69933666Y-102124666D01*
X70167000Y-101624666D01*
X70167000Y-102324666D01*
X70500333Y-102324666D02*
X70500333Y-101624666D01*
X70900333Y-102324666D02*
X70600333Y-101924666D01*
X70900333Y-101624666D02*
X70500333Y-102024666D01*
X71167000Y-101691333D02*
X71200333Y-101658000D01*
X71267000Y-101624666D01*
X71433666Y-101624666D01*
X71500333Y-101658000D01*
X71533666Y-101691333D01*
X71567000Y-101758000D01*
X71567000Y-101824666D01*
X71533666Y-101924666D01*
X71133666Y-102324666D01*
X71567000Y-102324666D01*
X72000333Y-101624666D02*
X72067000Y-101624666D01*
X72133666Y-101658000D01*
X72167000Y-101691333D01*
X72200333Y-101758000D01*
X72233666Y-101891333D01*
X72233666Y-102058000D01*
X72200333Y-102191333D01*
X72167000Y-102258000D01*
X72133666Y-102291333D01*
X72067000Y-102324666D01*
X72000333Y-102324666D01*
X71933666Y-102291333D01*
X71900333Y-102258000D01*
X71867000Y-102191333D01*
X71833666Y-102058000D01*
X71833666Y-101891333D01*
X71867000Y-101758000D01*
X71900333Y-101691333D01*
X71933666Y-101658000D01*
X72000333Y-101624666D01*
X72533666Y-102324666D02*
X72533666Y-101624666D01*
X72700333Y-101624666D01*
X72800333Y-101658000D01*
X72867000Y-101724666D01*
X72900333Y-101791333D01*
X72933666Y-101924666D01*
X72933666Y-102024666D01*
X72900333Y-102158000D01*
X72867000Y-102224666D01*
X72800333Y-102291333D01*
X72700333Y-102324666D01*
X72533666Y-102324666D01*
X73167000Y-101624666D02*
X73633666Y-102324666D01*
X73633666Y-101624666D02*
X73167000Y-102324666D01*
X74267000Y-102324666D02*
X73867000Y-102324666D01*
X74067000Y-102324666D02*
X74067000Y-101624666D01*
X74000333Y-101724666D01*
X73933666Y-101791333D01*
X73867000Y-101824666D01*
X74533666Y-101691333D02*
X74567000Y-101658000D01*
X74633666Y-101624666D01*
X74800333Y-101624666D01*
X74867000Y-101658000D01*
X74900333Y-101691333D01*
X74933666Y-101758000D01*
X74933666Y-101824666D01*
X74900333Y-101924666D01*
X74500333Y-102324666D01*
X74933666Y-102324666D01*
X75333666Y-101924666D02*
X75267000Y-101891333D01*
X75233666Y-101858000D01*
X75200333Y-101791333D01*
X75200333Y-101758000D01*
X75233666Y-101691333D01*
X75267000Y-101658000D01*
X75333666Y-101624666D01*
X75467000Y-101624666D01*
X75533666Y-101658000D01*
X75567000Y-101691333D01*
X75600333Y-101758000D01*
X75600333Y-101791333D01*
X75567000Y-101858000D01*
X75533666Y-101891333D01*
X75467000Y-101924666D01*
X75333666Y-101924666D01*
X75267000Y-101958000D01*
X75233666Y-101991333D01*
X75200333Y-102058000D01*
X75200333Y-102191333D01*
X75233666Y-102258000D01*
X75267000Y-102291333D01*
X75333666Y-102324666D01*
X75467000Y-102324666D01*
X75533666Y-102291333D01*
X75567000Y-102258000D01*
X75600333Y-102191333D01*
X75600333Y-102058000D01*
X75567000Y-101991333D01*
X75533666Y-101958000D01*
X75467000Y-101924666D01*
X75800333Y-101624666D02*
X76033666Y-102324666D01*
X76267000Y-101624666D01*
X76833666Y-102324666D02*
X76500333Y-102324666D01*
X76500333Y-101624666D01*
X77067000Y-102324666D02*
X77067000Y-101624666D01*
X77067000Y-101958000D02*
X77467000Y-101958000D01*
X77467000Y-102324666D02*
X77467000Y-101624666D01*
X78133666Y-101624666D02*
X77800333Y-101624666D01*
X77767000Y-101958000D01*
X77800333Y-101924666D01*
X77867000Y-101891333D01*
X78033666Y-101891333D01*
X78100333Y-101924666D01*
X78133666Y-101958000D01*
X78167000Y-102024666D01*
X78167000Y-102191333D01*
X78133666Y-102258000D01*
X78100333Y-102291333D01*
X78033666Y-102324666D01*
X77867000Y-102324666D01*
X77800333Y-102291333D01*
X77767000Y-102258000D01*
X70183666Y-103594666D02*
X70183666Y-102894666D01*
X70417000Y-103394666D01*
X70650333Y-102894666D01*
X70650333Y-103594666D01*
X70983666Y-103594666D02*
X70983666Y-102894666D01*
X71383666Y-103594666D02*
X71083666Y-103194666D01*
X71383666Y-102894666D02*
X70983666Y-103294666D01*
X72017000Y-103594666D02*
X71683666Y-103594666D01*
X71683666Y-102894666D01*
X72217000Y-102961333D02*
X72250333Y-102928000D01*
X72317000Y-102894666D01*
X72483666Y-102894666D01*
X72550333Y-102928000D01*
X72583666Y-102961333D01*
X72617000Y-103028000D01*
X72617000Y-103094666D01*
X72583666Y-103194666D01*
X72183666Y-103594666D01*
X72617000Y-103594666D01*
X73217000Y-102894666D02*
X73083666Y-102894666D01*
X73017000Y-102928000D01*
X72983666Y-102961333D01*
X72917000Y-103061333D01*
X72883666Y-103194666D01*
X72883666Y-103461333D01*
X72917000Y-103528000D01*
X72950333Y-103561333D01*
X73017000Y-103594666D01*
X73150333Y-103594666D01*
X73217000Y-103561333D01*
X73250333Y-103528000D01*
X73283666Y-103461333D01*
X73283666Y-103294666D01*
X73250333Y-103228000D01*
X73217000Y-103194666D01*
X73150333Y-103161333D01*
X73017000Y-103161333D01*
X72950333Y-103194666D01*
X72917000Y-103228000D01*
X72883666Y-103294666D01*
X73517000Y-102894666D02*
X73983666Y-102894666D01*
X73517000Y-103594666D01*
X73983666Y-103594666D01*
X74550333Y-102894666D02*
X74417000Y-102894666D01*
X74350333Y-102928000D01*
X74317000Y-102961333D01*
X74250333Y-103061333D01*
X74217000Y-103194666D01*
X74217000Y-103461333D01*
X74250333Y-103528000D01*
X74283666Y-103561333D01*
X74350333Y-103594666D01*
X74483666Y-103594666D01*
X74550333Y-103561333D01*
X74583666Y-103528000D01*
X74617000Y-103461333D01*
X74617000Y-103294666D01*
X74583666Y-103228000D01*
X74550333Y-103194666D01*
X74483666Y-103161333D01*
X74350333Y-103161333D01*
X74283666Y-103194666D01*
X74250333Y-103228000D01*
X74217000Y-103294666D01*
X75217000Y-103128000D02*
X75217000Y-103594666D01*
X75050333Y-102861333D02*
X74883666Y-103361333D01*
X75317000Y-103361333D01*
X75483666Y-102894666D02*
X75717000Y-103594666D01*
X75950333Y-102894666D01*
X76417000Y-103228000D02*
X76183666Y-103228000D01*
X76183666Y-103594666D02*
X76183666Y-102894666D01*
X76517000Y-102894666D01*
X76683666Y-102894666D02*
X77083666Y-102894666D01*
X76883666Y-103594666D02*
X76883666Y-102894666D01*
X77617000Y-103128000D02*
X77617000Y-103594666D01*
X77450333Y-102861333D02*
X77283666Y-103361333D01*
X77717000Y-103361333D01*
X69700333Y-101054666D02*
X69700333Y-100354666D01*
X69933666Y-100854666D01*
X70167000Y-100354666D01*
X70167000Y-101054666D01*
X70500333Y-101054666D02*
X70500333Y-100354666D01*
X70900333Y-101054666D02*
X70600333Y-100654666D01*
X70900333Y-100354666D02*
X70500333Y-100754666D01*
X71167000Y-100421333D02*
X71200333Y-100388000D01*
X71267000Y-100354666D01*
X71433666Y-100354666D01*
X71500333Y-100388000D01*
X71533666Y-100421333D01*
X71567000Y-100488000D01*
X71567000Y-100554666D01*
X71533666Y-100654666D01*
X71133666Y-101054666D01*
X71567000Y-101054666D01*
X72000333Y-100354666D02*
X72067000Y-100354666D01*
X72133666Y-100388000D01*
X72167000Y-100421333D01*
X72200333Y-100488000D01*
X72233666Y-100621333D01*
X72233666Y-100788000D01*
X72200333Y-100921333D01*
X72167000Y-100988000D01*
X72133666Y-101021333D01*
X72067000Y-101054666D01*
X72000333Y-101054666D01*
X71933666Y-101021333D01*
X71900333Y-100988000D01*
X71867000Y-100921333D01*
X71833666Y-100788000D01*
X71833666Y-100621333D01*
X71867000Y-100488000D01*
X71900333Y-100421333D01*
X71933666Y-100388000D01*
X72000333Y-100354666D01*
X72533666Y-101054666D02*
X72533666Y-100354666D01*
X72700333Y-100354666D01*
X72800333Y-100388000D01*
X72867000Y-100454666D01*
X72900333Y-100521333D01*
X72933666Y-100654666D01*
X72933666Y-100754666D01*
X72900333Y-100888000D01*
X72867000Y-100954666D01*
X72800333Y-101021333D01*
X72700333Y-101054666D01*
X72533666Y-101054666D01*
X73167000Y-100354666D02*
X73633666Y-101054666D01*
X73633666Y-100354666D02*
X73167000Y-101054666D01*
X73867000Y-100421333D02*
X73900333Y-100388000D01*
X73967000Y-100354666D01*
X74133666Y-100354666D01*
X74200333Y-100388000D01*
X74233666Y-100421333D01*
X74267000Y-100488000D01*
X74267000Y-100554666D01*
X74233666Y-100654666D01*
X73833666Y-101054666D01*
X74267000Y-101054666D01*
X74900333Y-100354666D02*
X74567000Y-100354666D01*
X74533666Y-100688000D01*
X74567000Y-100654666D01*
X74633666Y-100621333D01*
X74800333Y-100621333D01*
X74867000Y-100654666D01*
X74900333Y-100688000D01*
X74933666Y-100754666D01*
X74933666Y-100921333D01*
X74900333Y-100988000D01*
X74867000Y-101021333D01*
X74800333Y-101054666D01*
X74633666Y-101054666D01*
X74567000Y-101021333D01*
X74533666Y-100988000D01*
X75533666Y-100354666D02*
X75400333Y-100354666D01*
X75333666Y-100388000D01*
X75300333Y-100421333D01*
X75233666Y-100521333D01*
X75200333Y-100654666D01*
X75200333Y-100921333D01*
X75233666Y-100988000D01*
X75267000Y-101021333D01*
X75333666Y-101054666D01*
X75467000Y-101054666D01*
X75533666Y-101021333D01*
X75567000Y-100988000D01*
X75600333Y-100921333D01*
X75600333Y-100754666D01*
X75567000Y-100688000D01*
X75533666Y-100654666D01*
X75467000Y-100621333D01*
X75333666Y-100621333D01*
X75267000Y-100654666D01*
X75233666Y-100688000D01*
X75200333Y-100754666D01*
X75800333Y-100354666D02*
X76033666Y-101054666D01*
X76267000Y-100354666D01*
X76833666Y-101054666D02*
X76500333Y-101054666D01*
X76500333Y-100354666D01*
X77067000Y-101054666D02*
X77067000Y-100354666D01*
X77067000Y-100688000D02*
X77467000Y-100688000D01*
X77467000Y-101054666D02*
X77467000Y-100354666D01*
X77733666Y-100354666D02*
X78200333Y-100354666D01*
X77900333Y-101054666D01*
X83069180Y-120023809D02*
X83783466Y-120023809D01*
X83926323Y-120071428D01*
X84021561Y-120166666D01*
X84069180Y-120309523D01*
X84069180Y-120404761D01*
X84021561Y-119595238D02*
X84069180Y-119452380D01*
X84069180Y-119214285D01*
X84021561Y-119119047D01*
X83973942Y-119071428D01*
X83878704Y-119023809D01*
X83783466Y-119023809D01*
X83688228Y-119071428D01*
X83640609Y-119119047D01*
X83592990Y-119214285D01*
X83545371Y-119404761D01*
X83497752Y-119500000D01*
X83450133Y-119547619D01*
X83354895Y-119595238D01*
X83259657Y-119595238D01*
X83164419Y-119547619D01*
X83116800Y-119500000D01*
X83069180Y-119404761D01*
X83069180Y-119166666D01*
X83116800Y-119023809D01*
X83069180Y-118738095D02*
X83069180Y-118166666D01*
X84069180Y-118452380D02*
X83069180Y-118452380D01*
X83688228Y-117833333D02*
X83688228Y-117071428D01*
X84069180Y-116595238D02*
X83069180Y-116595238D01*
X83069180Y-116357142D01*
X83116800Y-116214285D01*
X83212038Y-116119047D01*
X83307276Y-116071428D01*
X83497752Y-116023809D01*
X83640609Y-116023809D01*
X83831085Y-116071428D01*
X83926323Y-116119047D01*
X84021561Y-116214285D01*
X84069180Y-116357142D01*
X84069180Y-116595238D01*
X84069180Y-115595238D02*
X83069180Y-115595238D01*
X84021561Y-115166666D02*
X84069180Y-115023809D01*
X84069180Y-114785714D01*
X84021561Y-114690476D01*
X83973942Y-114642857D01*
X83878704Y-114595238D01*
X83783466Y-114595238D01*
X83688228Y-114642857D01*
X83640609Y-114690476D01*
X83592990Y-114785714D01*
X83545371Y-114976190D01*
X83497752Y-115071428D01*
X83450133Y-115119047D01*
X83354895Y-115166666D01*
X83259657Y-115166666D01*
X83164419Y-115119047D01*
X83116800Y-115071428D01*
X83069180Y-114976190D01*
X83069180Y-114738095D01*
X83116800Y-114595238D01*
X84069180Y-114166666D02*
X83069180Y-114166666D01*
X83069180Y-113785714D01*
X83116800Y-113690476D01*
X83164419Y-113642857D01*
X83259657Y-113595238D01*
X83402514Y-113595238D01*
X83497752Y-113642857D01*
X83545371Y-113690476D01*
X83592990Y-113785714D01*
X83592990Y-114166666D01*
X84069180Y-112642857D02*
X84069180Y-113214285D01*
X84069180Y-112928571D02*
X83069180Y-112928571D01*
X83212038Y-113023809D01*
X83307276Y-113119047D01*
X83354895Y-113214285D01*
X61555333Y-99512380D02*
X61222000Y-99036190D01*
X60983904Y-99512380D02*
X60983904Y-98512380D01*
X61364857Y-98512380D01*
X61460095Y-98560000D01*
X61507714Y-98607619D01*
X61555333Y-98702857D01*
X61555333Y-98845714D01*
X61507714Y-98940952D01*
X61460095Y-98988571D01*
X61364857Y-99036190D01*
X60983904Y-99036190D01*
X62412476Y-98845714D02*
X62412476Y-99512380D01*
X62174380Y-98464761D02*
X61936285Y-99179047D01*
X62555333Y-99179047D01*
X54678333Y-99385380D02*
X54345000Y-98909190D01*
X54106904Y-99385380D02*
X54106904Y-98385380D01*
X54487857Y-98385380D01*
X54583095Y-98433000D01*
X54630714Y-98480619D01*
X54678333Y-98575857D01*
X54678333Y-98718714D01*
X54630714Y-98813952D01*
X54583095Y-98861571D01*
X54487857Y-98909190D01*
X54106904Y-98909190D01*
X55583095Y-98385380D02*
X55106904Y-98385380D01*
X55059285Y-98861571D01*
X55106904Y-98813952D01*
X55202142Y-98766333D01*
X55440238Y-98766333D01*
X55535476Y-98813952D01*
X55583095Y-98861571D01*
X55630714Y-98956809D01*
X55630714Y-99194904D01*
X55583095Y-99290142D01*
X55535476Y-99337761D01*
X55440238Y-99385380D01*
X55202142Y-99385380D01*
X55106904Y-99337761D01*
X55059285Y-99290142D01*
X50315880Y-112680500D02*
X50315880Y-112109071D01*
X51315880Y-112394785D02*
X50315880Y-112394785D01*
X51315880Y-111204309D02*
X50839690Y-111537642D01*
X51315880Y-111775738D02*
X50315880Y-111775738D01*
X50315880Y-111394785D01*
X50363500Y-111299547D01*
X50411119Y-111251928D01*
X50506357Y-111204309D01*
X50649214Y-111204309D01*
X50744452Y-111251928D01*
X50792071Y-111299547D01*
X50839690Y-111394785D01*
X50839690Y-111775738D01*
X51315880Y-110775738D02*
X50315880Y-110775738D01*
X50363500Y-109775738D02*
X50315880Y-109870976D01*
X50315880Y-110013833D01*
X50363500Y-110156690D01*
X50458738Y-110251928D01*
X50553976Y-110299547D01*
X50744452Y-110347166D01*
X50887309Y-110347166D01*
X51077785Y-110299547D01*
X51173023Y-110251928D01*
X51268261Y-110156690D01*
X51315880Y-110013833D01*
X51315880Y-109918595D01*
X51268261Y-109775738D01*
X51220642Y-109728119D01*
X50887309Y-109728119D01*
X50887309Y-109918595D01*
X51315880Y-108775738D02*
X51315880Y-109347166D01*
X51315880Y-109061452D02*
X50315880Y-109061452D01*
X50458738Y-109156690D01*
X50553976Y-109251928D01*
X50601595Y-109347166D01*
X87457142Y-72657142D02*
X87409523Y-72704761D01*
X87266666Y-72752380D01*
X87171428Y-72752380D01*
X87028571Y-72704761D01*
X86933333Y-72609523D01*
X86885714Y-72514285D01*
X86838095Y-72323809D01*
X86838095Y-72180952D01*
X86885714Y-71990476D01*
X86933333Y-71895238D01*
X87028571Y-71800000D01*
X87171428Y-71752380D01*
X87266666Y-71752380D01*
X87409523Y-71800000D01*
X87457142Y-71847619D01*
X87790476Y-71752380D02*
X88457142Y-72752380D01*
X88457142Y-71752380D02*
X87790476Y-72752380D01*
X89361904Y-72752380D02*
X88790476Y-72752380D01*
X89076190Y-72752380D02*
X89076190Y-71752380D01*
X88980952Y-71895238D01*
X88885714Y-71990476D01*
X88790476Y-72038095D01*
X87457142Y-75657142D02*
X87409523Y-75704761D01*
X87266666Y-75752380D01*
X87171428Y-75752380D01*
X87028571Y-75704761D01*
X86933333Y-75609523D01*
X86885714Y-75514285D01*
X86838095Y-75323809D01*
X86838095Y-75180952D01*
X86885714Y-74990476D01*
X86933333Y-74895238D01*
X87028571Y-74800000D01*
X87171428Y-74752380D01*
X87266666Y-74752380D01*
X87409523Y-74800000D01*
X87457142Y-74847619D01*
X87790476Y-74752380D02*
X88457142Y-75752380D01*
X88457142Y-74752380D02*
X87790476Y-75752380D01*
X88790476Y-74847619D02*
X88838095Y-74800000D01*
X88933333Y-74752380D01*
X89171428Y-74752380D01*
X89266666Y-74800000D01*
X89314285Y-74847619D01*
X89361904Y-74942857D01*
X89361904Y-75038095D01*
X89314285Y-75180952D01*
X88742857Y-75752380D01*
X89361904Y-75752380D01*
M02*
