G04 #@! TF.GenerationSoftware,KiCad,Pcbnew,(5.1.2)-2*
G04 #@! TF.CreationDate,2019-09-19T18:24:46+10:00*
G04 #@! TF.ProjectId,Smart_eNERF_Gun,536d6172-745f-4654-9e45-52465f47756e,4.5*
G04 #@! TF.SameCoordinates,Original*
G04 #@! TF.FileFunction,Paste,Top*
G04 #@! TF.FilePolarity,Positive*
%FSLAX46Y46*%
G04 Gerber Fmt 4.6, Leading zero omitted, Abs format (unit mm)*
G04 Created by KiCad (PCBNEW (5.1.2)-2) date 2019-09-19 18:24:46*
%MOMM*%
%LPD*%
G04 APERTURE LIST*
%ADD10C,0.100000*%
%ADD11C,1.150000*%
%ADD12R,1.600000X3.000000*%
%ADD13R,6.700000X6.700000*%
G04 APERTURE END LIST*
D10*
G36*
X71470505Y-80606204D02*
G01*
X71494773Y-80609804D01*
X71518572Y-80615765D01*
X71541671Y-80624030D01*
X71563850Y-80634520D01*
X71584893Y-80647132D01*
X71604599Y-80661747D01*
X71622777Y-80678223D01*
X71639253Y-80696401D01*
X71653868Y-80716107D01*
X71666480Y-80737150D01*
X71676970Y-80759329D01*
X71685235Y-80782428D01*
X71691196Y-80806227D01*
X71694796Y-80830495D01*
X71696000Y-80854999D01*
X71696000Y-81505001D01*
X71694796Y-81529505D01*
X71691196Y-81553773D01*
X71685235Y-81577572D01*
X71676970Y-81600671D01*
X71666480Y-81622850D01*
X71653868Y-81643893D01*
X71639253Y-81663599D01*
X71622777Y-81681777D01*
X71604599Y-81698253D01*
X71584893Y-81712868D01*
X71563850Y-81725480D01*
X71541671Y-81735970D01*
X71518572Y-81744235D01*
X71494773Y-81750196D01*
X71470505Y-81753796D01*
X71446001Y-81755000D01*
X70545999Y-81755000D01*
X70521495Y-81753796D01*
X70497227Y-81750196D01*
X70473428Y-81744235D01*
X70450329Y-81735970D01*
X70428150Y-81725480D01*
X70407107Y-81712868D01*
X70387401Y-81698253D01*
X70369223Y-81681777D01*
X70352747Y-81663599D01*
X70338132Y-81643893D01*
X70325520Y-81622850D01*
X70315030Y-81600671D01*
X70306765Y-81577572D01*
X70300804Y-81553773D01*
X70297204Y-81529505D01*
X70296000Y-81505001D01*
X70296000Y-80854999D01*
X70297204Y-80830495D01*
X70300804Y-80806227D01*
X70306765Y-80782428D01*
X70315030Y-80759329D01*
X70325520Y-80737150D01*
X70338132Y-80716107D01*
X70352747Y-80696401D01*
X70369223Y-80678223D01*
X70387401Y-80661747D01*
X70407107Y-80647132D01*
X70428150Y-80634520D01*
X70450329Y-80624030D01*
X70473428Y-80615765D01*
X70497227Y-80609804D01*
X70521495Y-80606204D01*
X70545999Y-80605000D01*
X71446001Y-80605000D01*
X71470505Y-80606204D01*
X71470505Y-80606204D01*
G37*
D11*
X70996000Y-81180000D03*
D10*
G36*
X71470505Y-82656204D02*
G01*
X71494773Y-82659804D01*
X71518572Y-82665765D01*
X71541671Y-82674030D01*
X71563850Y-82684520D01*
X71584893Y-82697132D01*
X71604599Y-82711747D01*
X71622777Y-82728223D01*
X71639253Y-82746401D01*
X71653868Y-82766107D01*
X71666480Y-82787150D01*
X71676970Y-82809329D01*
X71685235Y-82832428D01*
X71691196Y-82856227D01*
X71694796Y-82880495D01*
X71696000Y-82904999D01*
X71696000Y-83555001D01*
X71694796Y-83579505D01*
X71691196Y-83603773D01*
X71685235Y-83627572D01*
X71676970Y-83650671D01*
X71666480Y-83672850D01*
X71653868Y-83693893D01*
X71639253Y-83713599D01*
X71622777Y-83731777D01*
X71604599Y-83748253D01*
X71584893Y-83762868D01*
X71563850Y-83775480D01*
X71541671Y-83785970D01*
X71518572Y-83794235D01*
X71494773Y-83800196D01*
X71470505Y-83803796D01*
X71446001Y-83805000D01*
X70545999Y-83805000D01*
X70521495Y-83803796D01*
X70497227Y-83800196D01*
X70473428Y-83794235D01*
X70450329Y-83785970D01*
X70428150Y-83775480D01*
X70407107Y-83762868D01*
X70387401Y-83748253D01*
X70369223Y-83731777D01*
X70352747Y-83713599D01*
X70338132Y-83693893D01*
X70325520Y-83672850D01*
X70315030Y-83650671D01*
X70306765Y-83627572D01*
X70300804Y-83603773D01*
X70297204Y-83579505D01*
X70296000Y-83555001D01*
X70296000Y-82904999D01*
X70297204Y-82880495D01*
X70300804Y-82856227D01*
X70306765Y-82832428D01*
X70315030Y-82809329D01*
X70325520Y-82787150D01*
X70338132Y-82766107D01*
X70352747Y-82746401D01*
X70369223Y-82728223D01*
X70387401Y-82711747D01*
X70407107Y-82697132D01*
X70428150Y-82684520D01*
X70450329Y-82674030D01*
X70473428Y-82665765D01*
X70497227Y-82659804D01*
X70521495Y-82656204D01*
X70545999Y-82655000D01*
X71446001Y-82655000D01*
X71470505Y-82656204D01*
X71470505Y-82656204D01*
G37*
D11*
X70996000Y-83230000D03*
D12*
X68089000Y-87957000D03*
X63489000Y-87957000D03*
D13*
X65789000Y-81307000D03*
D10*
G36*
X61183505Y-80597204D02*
G01*
X61207773Y-80600804D01*
X61231572Y-80606765D01*
X61254671Y-80615030D01*
X61276850Y-80625520D01*
X61297893Y-80638132D01*
X61317599Y-80652747D01*
X61335777Y-80669223D01*
X61352253Y-80687401D01*
X61366868Y-80707107D01*
X61379480Y-80728150D01*
X61389970Y-80750329D01*
X61398235Y-80773428D01*
X61404196Y-80797227D01*
X61407796Y-80821495D01*
X61409000Y-80845999D01*
X61409000Y-81496001D01*
X61407796Y-81520505D01*
X61404196Y-81544773D01*
X61398235Y-81568572D01*
X61389970Y-81591671D01*
X61379480Y-81613850D01*
X61366868Y-81634893D01*
X61352253Y-81654599D01*
X61335777Y-81672777D01*
X61317599Y-81689253D01*
X61297893Y-81703868D01*
X61276850Y-81716480D01*
X61254671Y-81726970D01*
X61231572Y-81735235D01*
X61207773Y-81741196D01*
X61183505Y-81744796D01*
X61159001Y-81746000D01*
X60258999Y-81746000D01*
X60234495Y-81744796D01*
X60210227Y-81741196D01*
X60186428Y-81735235D01*
X60163329Y-81726970D01*
X60141150Y-81716480D01*
X60120107Y-81703868D01*
X60100401Y-81689253D01*
X60082223Y-81672777D01*
X60065747Y-81654599D01*
X60051132Y-81634893D01*
X60038520Y-81613850D01*
X60028030Y-81591671D01*
X60019765Y-81568572D01*
X60013804Y-81544773D01*
X60010204Y-81520505D01*
X60009000Y-81496001D01*
X60009000Y-80845999D01*
X60010204Y-80821495D01*
X60013804Y-80797227D01*
X60019765Y-80773428D01*
X60028030Y-80750329D01*
X60038520Y-80728150D01*
X60051132Y-80707107D01*
X60065747Y-80687401D01*
X60082223Y-80669223D01*
X60100401Y-80652747D01*
X60120107Y-80638132D01*
X60141150Y-80625520D01*
X60163329Y-80615030D01*
X60186428Y-80606765D01*
X60210227Y-80600804D01*
X60234495Y-80597204D01*
X60258999Y-80596000D01*
X61159001Y-80596000D01*
X61183505Y-80597204D01*
X61183505Y-80597204D01*
G37*
D11*
X60709000Y-81171000D03*
D10*
G36*
X61183505Y-82647204D02*
G01*
X61207773Y-82650804D01*
X61231572Y-82656765D01*
X61254671Y-82665030D01*
X61276850Y-82675520D01*
X61297893Y-82688132D01*
X61317599Y-82702747D01*
X61335777Y-82719223D01*
X61352253Y-82737401D01*
X61366868Y-82757107D01*
X61379480Y-82778150D01*
X61389970Y-82800329D01*
X61398235Y-82823428D01*
X61404196Y-82847227D01*
X61407796Y-82871495D01*
X61409000Y-82895999D01*
X61409000Y-83546001D01*
X61407796Y-83570505D01*
X61404196Y-83594773D01*
X61398235Y-83618572D01*
X61389970Y-83641671D01*
X61379480Y-83663850D01*
X61366868Y-83684893D01*
X61352253Y-83704599D01*
X61335777Y-83722777D01*
X61317599Y-83739253D01*
X61297893Y-83753868D01*
X61276850Y-83766480D01*
X61254671Y-83776970D01*
X61231572Y-83785235D01*
X61207773Y-83791196D01*
X61183505Y-83794796D01*
X61159001Y-83796000D01*
X60258999Y-83796000D01*
X60234495Y-83794796D01*
X60210227Y-83791196D01*
X60186428Y-83785235D01*
X60163329Y-83776970D01*
X60141150Y-83766480D01*
X60120107Y-83753868D01*
X60100401Y-83739253D01*
X60082223Y-83722777D01*
X60065747Y-83704599D01*
X60051132Y-83684893D01*
X60038520Y-83663850D01*
X60028030Y-83641671D01*
X60019765Y-83618572D01*
X60013804Y-83594773D01*
X60010204Y-83570505D01*
X60009000Y-83546001D01*
X60009000Y-82895999D01*
X60010204Y-82871495D01*
X60013804Y-82847227D01*
X60019765Y-82823428D01*
X60028030Y-82800329D01*
X60038520Y-82778150D01*
X60051132Y-82757107D01*
X60065747Y-82737401D01*
X60082223Y-82719223D01*
X60100401Y-82702747D01*
X60120107Y-82688132D01*
X60141150Y-82675520D01*
X60163329Y-82665030D01*
X60186428Y-82656765D01*
X60210227Y-82650804D01*
X60234495Y-82647204D01*
X60258999Y-82646000D01*
X61159001Y-82646000D01*
X61183505Y-82647204D01*
X61183505Y-82647204D01*
G37*
D11*
X60709000Y-83221000D03*
D10*
G36*
X94704505Y-93181204D02*
G01*
X94728773Y-93184804D01*
X94752572Y-93190765D01*
X94775671Y-93199030D01*
X94797850Y-93209520D01*
X94818893Y-93222132D01*
X94838599Y-93236747D01*
X94856777Y-93253223D01*
X94873253Y-93271401D01*
X94887868Y-93291107D01*
X94900480Y-93312150D01*
X94910970Y-93334329D01*
X94919235Y-93357428D01*
X94925196Y-93381227D01*
X94928796Y-93405495D01*
X94930000Y-93429999D01*
X94930000Y-94330001D01*
X94928796Y-94354505D01*
X94925196Y-94378773D01*
X94919235Y-94402572D01*
X94910970Y-94425671D01*
X94900480Y-94447850D01*
X94887868Y-94468893D01*
X94873253Y-94488599D01*
X94856777Y-94506777D01*
X94838599Y-94523253D01*
X94818893Y-94537868D01*
X94797850Y-94550480D01*
X94775671Y-94560970D01*
X94752572Y-94569235D01*
X94728773Y-94575196D01*
X94704505Y-94578796D01*
X94680001Y-94580000D01*
X94029999Y-94580000D01*
X94005495Y-94578796D01*
X93981227Y-94575196D01*
X93957428Y-94569235D01*
X93934329Y-94560970D01*
X93912150Y-94550480D01*
X93891107Y-94537868D01*
X93871401Y-94523253D01*
X93853223Y-94506777D01*
X93836747Y-94488599D01*
X93822132Y-94468893D01*
X93809520Y-94447850D01*
X93799030Y-94425671D01*
X93790765Y-94402572D01*
X93784804Y-94378773D01*
X93781204Y-94354505D01*
X93780000Y-94330001D01*
X93780000Y-93429999D01*
X93781204Y-93405495D01*
X93784804Y-93381227D01*
X93790765Y-93357428D01*
X93799030Y-93334329D01*
X93809520Y-93312150D01*
X93822132Y-93291107D01*
X93836747Y-93271401D01*
X93853223Y-93253223D01*
X93871401Y-93236747D01*
X93891107Y-93222132D01*
X93912150Y-93209520D01*
X93934329Y-93199030D01*
X93957428Y-93190765D01*
X93981227Y-93184804D01*
X94005495Y-93181204D01*
X94029999Y-93180000D01*
X94680001Y-93180000D01*
X94704505Y-93181204D01*
X94704505Y-93181204D01*
G37*
D11*
X94355000Y-93880000D03*
D10*
G36*
X96754505Y-93181204D02*
G01*
X96778773Y-93184804D01*
X96802572Y-93190765D01*
X96825671Y-93199030D01*
X96847850Y-93209520D01*
X96868893Y-93222132D01*
X96888599Y-93236747D01*
X96906777Y-93253223D01*
X96923253Y-93271401D01*
X96937868Y-93291107D01*
X96950480Y-93312150D01*
X96960970Y-93334329D01*
X96969235Y-93357428D01*
X96975196Y-93381227D01*
X96978796Y-93405495D01*
X96980000Y-93429999D01*
X96980000Y-94330001D01*
X96978796Y-94354505D01*
X96975196Y-94378773D01*
X96969235Y-94402572D01*
X96960970Y-94425671D01*
X96950480Y-94447850D01*
X96937868Y-94468893D01*
X96923253Y-94488599D01*
X96906777Y-94506777D01*
X96888599Y-94523253D01*
X96868893Y-94537868D01*
X96847850Y-94550480D01*
X96825671Y-94560970D01*
X96802572Y-94569235D01*
X96778773Y-94575196D01*
X96754505Y-94578796D01*
X96730001Y-94580000D01*
X96079999Y-94580000D01*
X96055495Y-94578796D01*
X96031227Y-94575196D01*
X96007428Y-94569235D01*
X95984329Y-94560970D01*
X95962150Y-94550480D01*
X95941107Y-94537868D01*
X95921401Y-94523253D01*
X95903223Y-94506777D01*
X95886747Y-94488599D01*
X95872132Y-94468893D01*
X95859520Y-94447850D01*
X95849030Y-94425671D01*
X95840765Y-94402572D01*
X95834804Y-94378773D01*
X95831204Y-94354505D01*
X95830000Y-94330001D01*
X95830000Y-93429999D01*
X95831204Y-93405495D01*
X95834804Y-93381227D01*
X95840765Y-93357428D01*
X95849030Y-93334329D01*
X95859520Y-93312150D01*
X95872132Y-93291107D01*
X95886747Y-93271401D01*
X95903223Y-93253223D01*
X95921401Y-93236747D01*
X95941107Y-93222132D01*
X95962150Y-93209520D01*
X95984329Y-93199030D01*
X96007428Y-93190765D01*
X96031227Y-93184804D01*
X96055495Y-93181204D01*
X96079999Y-93180000D01*
X96730001Y-93180000D01*
X96754505Y-93181204D01*
X96754505Y-93181204D01*
G37*
D11*
X96405000Y-93880000D03*
D10*
G36*
X94704505Y-98261204D02*
G01*
X94728773Y-98264804D01*
X94752572Y-98270765D01*
X94775671Y-98279030D01*
X94797850Y-98289520D01*
X94818893Y-98302132D01*
X94838599Y-98316747D01*
X94856777Y-98333223D01*
X94873253Y-98351401D01*
X94887868Y-98371107D01*
X94900480Y-98392150D01*
X94910970Y-98414329D01*
X94919235Y-98437428D01*
X94925196Y-98461227D01*
X94928796Y-98485495D01*
X94930000Y-98509999D01*
X94930000Y-99410001D01*
X94928796Y-99434505D01*
X94925196Y-99458773D01*
X94919235Y-99482572D01*
X94910970Y-99505671D01*
X94900480Y-99527850D01*
X94887868Y-99548893D01*
X94873253Y-99568599D01*
X94856777Y-99586777D01*
X94838599Y-99603253D01*
X94818893Y-99617868D01*
X94797850Y-99630480D01*
X94775671Y-99640970D01*
X94752572Y-99649235D01*
X94728773Y-99655196D01*
X94704505Y-99658796D01*
X94680001Y-99660000D01*
X94029999Y-99660000D01*
X94005495Y-99658796D01*
X93981227Y-99655196D01*
X93957428Y-99649235D01*
X93934329Y-99640970D01*
X93912150Y-99630480D01*
X93891107Y-99617868D01*
X93871401Y-99603253D01*
X93853223Y-99586777D01*
X93836747Y-99568599D01*
X93822132Y-99548893D01*
X93809520Y-99527850D01*
X93799030Y-99505671D01*
X93790765Y-99482572D01*
X93784804Y-99458773D01*
X93781204Y-99434505D01*
X93780000Y-99410001D01*
X93780000Y-98509999D01*
X93781204Y-98485495D01*
X93784804Y-98461227D01*
X93790765Y-98437428D01*
X93799030Y-98414329D01*
X93809520Y-98392150D01*
X93822132Y-98371107D01*
X93836747Y-98351401D01*
X93853223Y-98333223D01*
X93871401Y-98316747D01*
X93891107Y-98302132D01*
X93912150Y-98289520D01*
X93934329Y-98279030D01*
X93957428Y-98270765D01*
X93981227Y-98264804D01*
X94005495Y-98261204D01*
X94029999Y-98260000D01*
X94680001Y-98260000D01*
X94704505Y-98261204D01*
X94704505Y-98261204D01*
G37*
D11*
X94355000Y-98960000D03*
D10*
G36*
X96754505Y-98261204D02*
G01*
X96778773Y-98264804D01*
X96802572Y-98270765D01*
X96825671Y-98279030D01*
X96847850Y-98289520D01*
X96868893Y-98302132D01*
X96888599Y-98316747D01*
X96906777Y-98333223D01*
X96923253Y-98351401D01*
X96937868Y-98371107D01*
X96950480Y-98392150D01*
X96960970Y-98414329D01*
X96969235Y-98437428D01*
X96975196Y-98461227D01*
X96978796Y-98485495D01*
X96980000Y-98509999D01*
X96980000Y-99410001D01*
X96978796Y-99434505D01*
X96975196Y-99458773D01*
X96969235Y-99482572D01*
X96960970Y-99505671D01*
X96950480Y-99527850D01*
X96937868Y-99548893D01*
X96923253Y-99568599D01*
X96906777Y-99586777D01*
X96888599Y-99603253D01*
X96868893Y-99617868D01*
X96847850Y-99630480D01*
X96825671Y-99640970D01*
X96802572Y-99649235D01*
X96778773Y-99655196D01*
X96754505Y-99658796D01*
X96730001Y-99660000D01*
X96079999Y-99660000D01*
X96055495Y-99658796D01*
X96031227Y-99655196D01*
X96007428Y-99649235D01*
X95984329Y-99640970D01*
X95962150Y-99630480D01*
X95941107Y-99617868D01*
X95921401Y-99603253D01*
X95903223Y-99586777D01*
X95886747Y-99568599D01*
X95872132Y-99548893D01*
X95859520Y-99527850D01*
X95849030Y-99505671D01*
X95840765Y-99482572D01*
X95834804Y-99458773D01*
X95831204Y-99434505D01*
X95830000Y-99410001D01*
X95830000Y-98509999D01*
X95831204Y-98485495D01*
X95834804Y-98461227D01*
X95840765Y-98437428D01*
X95849030Y-98414329D01*
X95859520Y-98392150D01*
X95872132Y-98371107D01*
X95886747Y-98351401D01*
X95903223Y-98333223D01*
X95921401Y-98316747D01*
X95941107Y-98302132D01*
X95962150Y-98289520D01*
X95984329Y-98279030D01*
X96007428Y-98270765D01*
X96031227Y-98264804D01*
X96055495Y-98261204D01*
X96079999Y-98260000D01*
X96730001Y-98260000D01*
X96754505Y-98261204D01*
X96754505Y-98261204D01*
G37*
D11*
X96405000Y-98960000D03*
D10*
G36*
X94704505Y-95721204D02*
G01*
X94728773Y-95724804D01*
X94752572Y-95730765D01*
X94775671Y-95739030D01*
X94797850Y-95749520D01*
X94818893Y-95762132D01*
X94838599Y-95776747D01*
X94856777Y-95793223D01*
X94873253Y-95811401D01*
X94887868Y-95831107D01*
X94900480Y-95852150D01*
X94910970Y-95874329D01*
X94919235Y-95897428D01*
X94925196Y-95921227D01*
X94928796Y-95945495D01*
X94930000Y-95969999D01*
X94930000Y-96870001D01*
X94928796Y-96894505D01*
X94925196Y-96918773D01*
X94919235Y-96942572D01*
X94910970Y-96965671D01*
X94900480Y-96987850D01*
X94887868Y-97008893D01*
X94873253Y-97028599D01*
X94856777Y-97046777D01*
X94838599Y-97063253D01*
X94818893Y-97077868D01*
X94797850Y-97090480D01*
X94775671Y-97100970D01*
X94752572Y-97109235D01*
X94728773Y-97115196D01*
X94704505Y-97118796D01*
X94680001Y-97120000D01*
X94029999Y-97120000D01*
X94005495Y-97118796D01*
X93981227Y-97115196D01*
X93957428Y-97109235D01*
X93934329Y-97100970D01*
X93912150Y-97090480D01*
X93891107Y-97077868D01*
X93871401Y-97063253D01*
X93853223Y-97046777D01*
X93836747Y-97028599D01*
X93822132Y-97008893D01*
X93809520Y-96987850D01*
X93799030Y-96965671D01*
X93790765Y-96942572D01*
X93784804Y-96918773D01*
X93781204Y-96894505D01*
X93780000Y-96870001D01*
X93780000Y-95969999D01*
X93781204Y-95945495D01*
X93784804Y-95921227D01*
X93790765Y-95897428D01*
X93799030Y-95874329D01*
X93809520Y-95852150D01*
X93822132Y-95831107D01*
X93836747Y-95811401D01*
X93853223Y-95793223D01*
X93871401Y-95776747D01*
X93891107Y-95762132D01*
X93912150Y-95749520D01*
X93934329Y-95739030D01*
X93957428Y-95730765D01*
X93981227Y-95724804D01*
X94005495Y-95721204D01*
X94029999Y-95720000D01*
X94680001Y-95720000D01*
X94704505Y-95721204D01*
X94704505Y-95721204D01*
G37*
D11*
X94355000Y-96420000D03*
D10*
G36*
X96754505Y-95721204D02*
G01*
X96778773Y-95724804D01*
X96802572Y-95730765D01*
X96825671Y-95739030D01*
X96847850Y-95749520D01*
X96868893Y-95762132D01*
X96888599Y-95776747D01*
X96906777Y-95793223D01*
X96923253Y-95811401D01*
X96937868Y-95831107D01*
X96950480Y-95852150D01*
X96960970Y-95874329D01*
X96969235Y-95897428D01*
X96975196Y-95921227D01*
X96978796Y-95945495D01*
X96980000Y-95969999D01*
X96980000Y-96870001D01*
X96978796Y-96894505D01*
X96975196Y-96918773D01*
X96969235Y-96942572D01*
X96960970Y-96965671D01*
X96950480Y-96987850D01*
X96937868Y-97008893D01*
X96923253Y-97028599D01*
X96906777Y-97046777D01*
X96888599Y-97063253D01*
X96868893Y-97077868D01*
X96847850Y-97090480D01*
X96825671Y-97100970D01*
X96802572Y-97109235D01*
X96778773Y-97115196D01*
X96754505Y-97118796D01*
X96730001Y-97120000D01*
X96079999Y-97120000D01*
X96055495Y-97118796D01*
X96031227Y-97115196D01*
X96007428Y-97109235D01*
X95984329Y-97100970D01*
X95962150Y-97090480D01*
X95941107Y-97077868D01*
X95921401Y-97063253D01*
X95903223Y-97046777D01*
X95886747Y-97028599D01*
X95872132Y-97008893D01*
X95859520Y-96987850D01*
X95849030Y-96965671D01*
X95840765Y-96942572D01*
X95834804Y-96918773D01*
X95831204Y-96894505D01*
X95830000Y-96870001D01*
X95830000Y-95969999D01*
X95831204Y-95945495D01*
X95834804Y-95921227D01*
X95840765Y-95897428D01*
X95849030Y-95874329D01*
X95859520Y-95852150D01*
X95872132Y-95831107D01*
X95886747Y-95811401D01*
X95903223Y-95793223D01*
X95921401Y-95776747D01*
X95941107Y-95762132D01*
X95962150Y-95749520D01*
X95984329Y-95739030D01*
X96007428Y-95730765D01*
X96031227Y-95724804D01*
X96055495Y-95721204D01*
X96079999Y-95720000D01*
X96730001Y-95720000D01*
X96754505Y-95721204D01*
X96754505Y-95721204D01*
G37*
D11*
X96405000Y-96420000D03*
D10*
G36*
X90386505Y-93181204D02*
G01*
X90410773Y-93184804D01*
X90434572Y-93190765D01*
X90457671Y-93199030D01*
X90479850Y-93209520D01*
X90500893Y-93222132D01*
X90520599Y-93236747D01*
X90538777Y-93253223D01*
X90555253Y-93271401D01*
X90569868Y-93291107D01*
X90582480Y-93312150D01*
X90592970Y-93334329D01*
X90601235Y-93357428D01*
X90607196Y-93381227D01*
X90610796Y-93405495D01*
X90612000Y-93429999D01*
X90612000Y-94330001D01*
X90610796Y-94354505D01*
X90607196Y-94378773D01*
X90601235Y-94402572D01*
X90592970Y-94425671D01*
X90582480Y-94447850D01*
X90569868Y-94468893D01*
X90555253Y-94488599D01*
X90538777Y-94506777D01*
X90520599Y-94523253D01*
X90500893Y-94537868D01*
X90479850Y-94550480D01*
X90457671Y-94560970D01*
X90434572Y-94569235D01*
X90410773Y-94575196D01*
X90386505Y-94578796D01*
X90362001Y-94580000D01*
X89711999Y-94580000D01*
X89687495Y-94578796D01*
X89663227Y-94575196D01*
X89639428Y-94569235D01*
X89616329Y-94560970D01*
X89594150Y-94550480D01*
X89573107Y-94537868D01*
X89553401Y-94523253D01*
X89535223Y-94506777D01*
X89518747Y-94488599D01*
X89504132Y-94468893D01*
X89491520Y-94447850D01*
X89481030Y-94425671D01*
X89472765Y-94402572D01*
X89466804Y-94378773D01*
X89463204Y-94354505D01*
X89462000Y-94330001D01*
X89462000Y-93429999D01*
X89463204Y-93405495D01*
X89466804Y-93381227D01*
X89472765Y-93357428D01*
X89481030Y-93334329D01*
X89491520Y-93312150D01*
X89504132Y-93291107D01*
X89518747Y-93271401D01*
X89535223Y-93253223D01*
X89553401Y-93236747D01*
X89573107Y-93222132D01*
X89594150Y-93209520D01*
X89616329Y-93199030D01*
X89639428Y-93190765D01*
X89663227Y-93184804D01*
X89687495Y-93181204D01*
X89711999Y-93180000D01*
X90362001Y-93180000D01*
X90386505Y-93181204D01*
X90386505Y-93181204D01*
G37*
D11*
X90037000Y-93880000D03*
D10*
G36*
X92436505Y-93181204D02*
G01*
X92460773Y-93184804D01*
X92484572Y-93190765D01*
X92507671Y-93199030D01*
X92529850Y-93209520D01*
X92550893Y-93222132D01*
X92570599Y-93236747D01*
X92588777Y-93253223D01*
X92605253Y-93271401D01*
X92619868Y-93291107D01*
X92632480Y-93312150D01*
X92642970Y-93334329D01*
X92651235Y-93357428D01*
X92657196Y-93381227D01*
X92660796Y-93405495D01*
X92662000Y-93429999D01*
X92662000Y-94330001D01*
X92660796Y-94354505D01*
X92657196Y-94378773D01*
X92651235Y-94402572D01*
X92642970Y-94425671D01*
X92632480Y-94447850D01*
X92619868Y-94468893D01*
X92605253Y-94488599D01*
X92588777Y-94506777D01*
X92570599Y-94523253D01*
X92550893Y-94537868D01*
X92529850Y-94550480D01*
X92507671Y-94560970D01*
X92484572Y-94569235D01*
X92460773Y-94575196D01*
X92436505Y-94578796D01*
X92412001Y-94580000D01*
X91761999Y-94580000D01*
X91737495Y-94578796D01*
X91713227Y-94575196D01*
X91689428Y-94569235D01*
X91666329Y-94560970D01*
X91644150Y-94550480D01*
X91623107Y-94537868D01*
X91603401Y-94523253D01*
X91585223Y-94506777D01*
X91568747Y-94488599D01*
X91554132Y-94468893D01*
X91541520Y-94447850D01*
X91531030Y-94425671D01*
X91522765Y-94402572D01*
X91516804Y-94378773D01*
X91513204Y-94354505D01*
X91512000Y-94330001D01*
X91512000Y-93429999D01*
X91513204Y-93405495D01*
X91516804Y-93381227D01*
X91522765Y-93357428D01*
X91531030Y-93334329D01*
X91541520Y-93312150D01*
X91554132Y-93291107D01*
X91568747Y-93271401D01*
X91585223Y-93253223D01*
X91603401Y-93236747D01*
X91623107Y-93222132D01*
X91644150Y-93209520D01*
X91666329Y-93199030D01*
X91689428Y-93190765D01*
X91713227Y-93184804D01*
X91737495Y-93181204D01*
X91761999Y-93180000D01*
X92412001Y-93180000D01*
X92436505Y-93181204D01*
X92436505Y-93181204D01*
G37*
D11*
X92087000Y-93880000D03*
D10*
G36*
X90386505Y-98261204D02*
G01*
X90410773Y-98264804D01*
X90434572Y-98270765D01*
X90457671Y-98279030D01*
X90479850Y-98289520D01*
X90500893Y-98302132D01*
X90520599Y-98316747D01*
X90538777Y-98333223D01*
X90555253Y-98351401D01*
X90569868Y-98371107D01*
X90582480Y-98392150D01*
X90592970Y-98414329D01*
X90601235Y-98437428D01*
X90607196Y-98461227D01*
X90610796Y-98485495D01*
X90612000Y-98509999D01*
X90612000Y-99410001D01*
X90610796Y-99434505D01*
X90607196Y-99458773D01*
X90601235Y-99482572D01*
X90592970Y-99505671D01*
X90582480Y-99527850D01*
X90569868Y-99548893D01*
X90555253Y-99568599D01*
X90538777Y-99586777D01*
X90520599Y-99603253D01*
X90500893Y-99617868D01*
X90479850Y-99630480D01*
X90457671Y-99640970D01*
X90434572Y-99649235D01*
X90410773Y-99655196D01*
X90386505Y-99658796D01*
X90362001Y-99660000D01*
X89711999Y-99660000D01*
X89687495Y-99658796D01*
X89663227Y-99655196D01*
X89639428Y-99649235D01*
X89616329Y-99640970D01*
X89594150Y-99630480D01*
X89573107Y-99617868D01*
X89553401Y-99603253D01*
X89535223Y-99586777D01*
X89518747Y-99568599D01*
X89504132Y-99548893D01*
X89491520Y-99527850D01*
X89481030Y-99505671D01*
X89472765Y-99482572D01*
X89466804Y-99458773D01*
X89463204Y-99434505D01*
X89462000Y-99410001D01*
X89462000Y-98509999D01*
X89463204Y-98485495D01*
X89466804Y-98461227D01*
X89472765Y-98437428D01*
X89481030Y-98414329D01*
X89491520Y-98392150D01*
X89504132Y-98371107D01*
X89518747Y-98351401D01*
X89535223Y-98333223D01*
X89553401Y-98316747D01*
X89573107Y-98302132D01*
X89594150Y-98289520D01*
X89616329Y-98279030D01*
X89639428Y-98270765D01*
X89663227Y-98264804D01*
X89687495Y-98261204D01*
X89711999Y-98260000D01*
X90362001Y-98260000D01*
X90386505Y-98261204D01*
X90386505Y-98261204D01*
G37*
D11*
X90037000Y-98960000D03*
D10*
G36*
X92436505Y-98261204D02*
G01*
X92460773Y-98264804D01*
X92484572Y-98270765D01*
X92507671Y-98279030D01*
X92529850Y-98289520D01*
X92550893Y-98302132D01*
X92570599Y-98316747D01*
X92588777Y-98333223D01*
X92605253Y-98351401D01*
X92619868Y-98371107D01*
X92632480Y-98392150D01*
X92642970Y-98414329D01*
X92651235Y-98437428D01*
X92657196Y-98461227D01*
X92660796Y-98485495D01*
X92662000Y-98509999D01*
X92662000Y-99410001D01*
X92660796Y-99434505D01*
X92657196Y-99458773D01*
X92651235Y-99482572D01*
X92642970Y-99505671D01*
X92632480Y-99527850D01*
X92619868Y-99548893D01*
X92605253Y-99568599D01*
X92588777Y-99586777D01*
X92570599Y-99603253D01*
X92550893Y-99617868D01*
X92529850Y-99630480D01*
X92507671Y-99640970D01*
X92484572Y-99649235D01*
X92460773Y-99655196D01*
X92436505Y-99658796D01*
X92412001Y-99660000D01*
X91761999Y-99660000D01*
X91737495Y-99658796D01*
X91713227Y-99655196D01*
X91689428Y-99649235D01*
X91666329Y-99640970D01*
X91644150Y-99630480D01*
X91623107Y-99617868D01*
X91603401Y-99603253D01*
X91585223Y-99586777D01*
X91568747Y-99568599D01*
X91554132Y-99548893D01*
X91541520Y-99527850D01*
X91531030Y-99505671D01*
X91522765Y-99482572D01*
X91516804Y-99458773D01*
X91513204Y-99434505D01*
X91512000Y-99410001D01*
X91512000Y-98509999D01*
X91513204Y-98485495D01*
X91516804Y-98461227D01*
X91522765Y-98437428D01*
X91531030Y-98414329D01*
X91541520Y-98392150D01*
X91554132Y-98371107D01*
X91568747Y-98351401D01*
X91585223Y-98333223D01*
X91603401Y-98316747D01*
X91623107Y-98302132D01*
X91644150Y-98289520D01*
X91666329Y-98279030D01*
X91689428Y-98270765D01*
X91713227Y-98264804D01*
X91737495Y-98261204D01*
X91761999Y-98260000D01*
X92412001Y-98260000D01*
X92436505Y-98261204D01*
X92436505Y-98261204D01*
G37*
D11*
X92087000Y-98960000D03*
D10*
G36*
X90386505Y-95721204D02*
G01*
X90410773Y-95724804D01*
X90434572Y-95730765D01*
X90457671Y-95739030D01*
X90479850Y-95749520D01*
X90500893Y-95762132D01*
X90520599Y-95776747D01*
X90538777Y-95793223D01*
X90555253Y-95811401D01*
X90569868Y-95831107D01*
X90582480Y-95852150D01*
X90592970Y-95874329D01*
X90601235Y-95897428D01*
X90607196Y-95921227D01*
X90610796Y-95945495D01*
X90612000Y-95969999D01*
X90612000Y-96870001D01*
X90610796Y-96894505D01*
X90607196Y-96918773D01*
X90601235Y-96942572D01*
X90592970Y-96965671D01*
X90582480Y-96987850D01*
X90569868Y-97008893D01*
X90555253Y-97028599D01*
X90538777Y-97046777D01*
X90520599Y-97063253D01*
X90500893Y-97077868D01*
X90479850Y-97090480D01*
X90457671Y-97100970D01*
X90434572Y-97109235D01*
X90410773Y-97115196D01*
X90386505Y-97118796D01*
X90362001Y-97120000D01*
X89711999Y-97120000D01*
X89687495Y-97118796D01*
X89663227Y-97115196D01*
X89639428Y-97109235D01*
X89616329Y-97100970D01*
X89594150Y-97090480D01*
X89573107Y-97077868D01*
X89553401Y-97063253D01*
X89535223Y-97046777D01*
X89518747Y-97028599D01*
X89504132Y-97008893D01*
X89491520Y-96987850D01*
X89481030Y-96965671D01*
X89472765Y-96942572D01*
X89466804Y-96918773D01*
X89463204Y-96894505D01*
X89462000Y-96870001D01*
X89462000Y-95969999D01*
X89463204Y-95945495D01*
X89466804Y-95921227D01*
X89472765Y-95897428D01*
X89481030Y-95874329D01*
X89491520Y-95852150D01*
X89504132Y-95831107D01*
X89518747Y-95811401D01*
X89535223Y-95793223D01*
X89553401Y-95776747D01*
X89573107Y-95762132D01*
X89594150Y-95749520D01*
X89616329Y-95739030D01*
X89639428Y-95730765D01*
X89663227Y-95724804D01*
X89687495Y-95721204D01*
X89711999Y-95720000D01*
X90362001Y-95720000D01*
X90386505Y-95721204D01*
X90386505Y-95721204D01*
G37*
D11*
X90037000Y-96420000D03*
D10*
G36*
X92436505Y-95721204D02*
G01*
X92460773Y-95724804D01*
X92484572Y-95730765D01*
X92507671Y-95739030D01*
X92529850Y-95749520D01*
X92550893Y-95762132D01*
X92570599Y-95776747D01*
X92588777Y-95793223D01*
X92605253Y-95811401D01*
X92619868Y-95831107D01*
X92632480Y-95852150D01*
X92642970Y-95874329D01*
X92651235Y-95897428D01*
X92657196Y-95921227D01*
X92660796Y-95945495D01*
X92662000Y-95969999D01*
X92662000Y-96870001D01*
X92660796Y-96894505D01*
X92657196Y-96918773D01*
X92651235Y-96942572D01*
X92642970Y-96965671D01*
X92632480Y-96987850D01*
X92619868Y-97008893D01*
X92605253Y-97028599D01*
X92588777Y-97046777D01*
X92570599Y-97063253D01*
X92550893Y-97077868D01*
X92529850Y-97090480D01*
X92507671Y-97100970D01*
X92484572Y-97109235D01*
X92460773Y-97115196D01*
X92436505Y-97118796D01*
X92412001Y-97120000D01*
X91761999Y-97120000D01*
X91737495Y-97118796D01*
X91713227Y-97115196D01*
X91689428Y-97109235D01*
X91666329Y-97100970D01*
X91644150Y-97090480D01*
X91623107Y-97077868D01*
X91603401Y-97063253D01*
X91585223Y-97046777D01*
X91568747Y-97028599D01*
X91554132Y-97008893D01*
X91541520Y-96987850D01*
X91531030Y-96965671D01*
X91522765Y-96942572D01*
X91516804Y-96918773D01*
X91513204Y-96894505D01*
X91512000Y-96870001D01*
X91512000Y-95969999D01*
X91513204Y-95945495D01*
X91516804Y-95921227D01*
X91522765Y-95897428D01*
X91531030Y-95874329D01*
X91541520Y-95852150D01*
X91554132Y-95831107D01*
X91568747Y-95811401D01*
X91585223Y-95793223D01*
X91603401Y-95776747D01*
X91623107Y-95762132D01*
X91644150Y-95749520D01*
X91666329Y-95739030D01*
X91689428Y-95730765D01*
X91713227Y-95724804D01*
X91737495Y-95721204D01*
X91761999Y-95720000D01*
X92412001Y-95720000D01*
X92436505Y-95721204D01*
X92436505Y-95721204D01*
G37*
D11*
X92087000Y-96420000D03*
D10*
G36*
X60291505Y-100654204D02*
G01*
X60315773Y-100657804D01*
X60339572Y-100663765D01*
X60362671Y-100672030D01*
X60384850Y-100682520D01*
X60405893Y-100695132D01*
X60425599Y-100709747D01*
X60443777Y-100726223D01*
X60460253Y-100744401D01*
X60474868Y-100764107D01*
X60487480Y-100785150D01*
X60497970Y-100807329D01*
X60506235Y-100830428D01*
X60512196Y-100854227D01*
X60515796Y-100878495D01*
X60517000Y-100902999D01*
X60517000Y-101553001D01*
X60515796Y-101577505D01*
X60512196Y-101601773D01*
X60506235Y-101625572D01*
X60497970Y-101648671D01*
X60487480Y-101670850D01*
X60474868Y-101691893D01*
X60460253Y-101711599D01*
X60443777Y-101729777D01*
X60425599Y-101746253D01*
X60405893Y-101760868D01*
X60384850Y-101773480D01*
X60362671Y-101783970D01*
X60339572Y-101792235D01*
X60315773Y-101798196D01*
X60291505Y-101801796D01*
X60267001Y-101803000D01*
X59366999Y-101803000D01*
X59342495Y-101801796D01*
X59318227Y-101798196D01*
X59294428Y-101792235D01*
X59271329Y-101783970D01*
X59249150Y-101773480D01*
X59228107Y-101760868D01*
X59208401Y-101746253D01*
X59190223Y-101729777D01*
X59173747Y-101711599D01*
X59159132Y-101691893D01*
X59146520Y-101670850D01*
X59136030Y-101648671D01*
X59127765Y-101625572D01*
X59121804Y-101601773D01*
X59118204Y-101577505D01*
X59117000Y-101553001D01*
X59117000Y-100902999D01*
X59118204Y-100878495D01*
X59121804Y-100854227D01*
X59127765Y-100830428D01*
X59136030Y-100807329D01*
X59146520Y-100785150D01*
X59159132Y-100764107D01*
X59173747Y-100744401D01*
X59190223Y-100726223D01*
X59208401Y-100709747D01*
X59228107Y-100695132D01*
X59249150Y-100682520D01*
X59271329Y-100672030D01*
X59294428Y-100663765D01*
X59318227Y-100657804D01*
X59342495Y-100654204D01*
X59366999Y-100653000D01*
X60267001Y-100653000D01*
X60291505Y-100654204D01*
X60291505Y-100654204D01*
G37*
D11*
X59817000Y-101228000D03*
D10*
G36*
X60291505Y-98604204D02*
G01*
X60315773Y-98607804D01*
X60339572Y-98613765D01*
X60362671Y-98622030D01*
X60384850Y-98632520D01*
X60405893Y-98645132D01*
X60425599Y-98659747D01*
X60443777Y-98676223D01*
X60460253Y-98694401D01*
X60474868Y-98714107D01*
X60487480Y-98735150D01*
X60497970Y-98757329D01*
X60506235Y-98780428D01*
X60512196Y-98804227D01*
X60515796Y-98828495D01*
X60517000Y-98852999D01*
X60517000Y-99503001D01*
X60515796Y-99527505D01*
X60512196Y-99551773D01*
X60506235Y-99575572D01*
X60497970Y-99598671D01*
X60487480Y-99620850D01*
X60474868Y-99641893D01*
X60460253Y-99661599D01*
X60443777Y-99679777D01*
X60425599Y-99696253D01*
X60405893Y-99710868D01*
X60384850Y-99723480D01*
X60362671Y-99733970D01*
X60339572Y-99742235D01*
X60315773Y-99748196D01*
X60291505Y-99751796D01*
X60267001Y-99753000D01*
X59366999Y-99753000D01*
X59342495Y-99751796D01*
X59318227Y-99748196D01*
X59294428Y-99742235D01*
X59271329Y-99733970D01*
X59249150Y-99723480D01*
X59228107Y-99710868D01*
X59208401Y-99696253D01*
X59190223Y-99679777D01*
X59173747Y-99661599D01*
X59159132Y-99641893D01*
X59146520Y-99620850D01*
X59136030Y-99598671D01*
X59127765Y-99575572D01*
X59121804Y-99551773D01*
X59118204Y-99527505D01*
X59117000Y-99503001D01*
X59117000Y-98852999D01*
X59118204Y-98828495D01*
X59121804Y-98804227D01*
X59127765Y-98780428D01*
X59136030Y-98757329D01*
X59146520Y-98735150D01*
X59159132Y-98714107D01*
X59173747Y-98694401D01*
X59190223Y-98676223D01*
X59208401Y-98659747D01*
X59228107Y-98645132D01*
X59249150Y-98632520D01*
X59271329Y-98622030D01*
X59294428Y-98613765D01*
X59318227Y-98607804D01*
X59342495Y-98604204D01*
X59366999Y-98603000D01*
X60267001Y-98603000D01*
X60291505Y-98604204D01*
X60291505Y-98604204D01*
G37*
D11*
X59817000Y-99178000D03*
D10*
G36*
X57224505Y-100654204D02*
G01*
X57248773Y-100657804D01*
X57272572Y-100663765D01*
X57295671Y-100672030D01*
X57317850Y-100682520D01*
X57338893Y-100695132D01*
X57358599Y-100709747D01*
X57376777Y-100726223D01*
X57393253Y-100744401D01*
X57407868Y-100764107D01*
X57420480Y-100785150D01*
X57430970Y-100807329D01*
X57439235Y-100830428D01*
X57445196Y-100854227D01*
X57448796Y-100878495D01*
X57450000Y-100902999D01*
X57450000Y-101553001D01*
X57448796Y-101577505D01*
X57445196Y-101601773D01*
X57439235Y-101625572D01*
X57430970Y-101648671D01*
X57420480Y-101670850D01*
X57407868Y-101691893D01*
X57393253Y-101711599D01*
X57376777Y-101729777D01*
X57358599Y-101746253D01*
X57338893Y-101760868D01*
X57317850Y-101773480D01*
X57295671Y-101783970D01*
X57272572Y-101792235D01*
X57248773Y-101798196D01*
X57224505Y-101801796D01*
X57200001Y-101803000D01*
X56299999Y-101803000D01*
X56275495Y-101801796D01*
X56251227Y-101798196D01*
X56227428Y-101792235D01*
X56204329Y-101783970D01*
X56182150Y-101773480D01*
X56161107Y-101760868D01*
X56141401Y-101746253D01*
X56123223Y-101729777D01*
X56106747Y-101711599D01*
X56092132Y-101691893D01*
X56079520Y-101670850D01*
X56069030Y-101648671D01*
X56060765Y-101625572D01*
X56054804Y-101601773D01*
X56051204Y-101577505D01*
X56050000Y-101553001D01*
X56050000Y-100902999D01*
X56051204Y-100878495D01*
X56054804Y-100854227D01*
X56060765Y-100830428D01*
X56069030Y-100807329D01*
X56079520Y-100785150D01*
X56092132Y-100764107D01*
X56106747Y-100744401D01*
X56123223Y-100726223D01*
X56141401Y-100709747D01*
X56161107Y-100695132D01*
X56182150Y-100682520D01*
X56204329Y-100672030D01*
X56227428Y-100663765D01*
X56251227Y-100657804D01*
X56275495Y-100654204D01*
X56299999Y-100653000D01*
X57200001Y-100653000D01*
X57224505Y-100654204D01*
X57224505Y-100654204D01*
G37*
D11*
X56750000Y-101228000D03*
D10*
G36*
X57224505Y-98604204D02*
G01*
X57248773Y-98607804D01*
X57272572Y-98613765D01*
X57295671Y-98622030D01*
X57317850Y-98632520D01*
X57338893Y-98645132D01*
X57358599Y-98659747D01*
X57376777Y-98676223D01*
X57393253Y-98694401D01*
X57407868Y-98714107D01*
X57420480Y-98735150D01*
X57430970Y-98757329D01*
X57439235Y-98780428D01*
X57445196Y-98804227D01*
X57448796Y-98828495D01*
X57450000Y-98852999D01*
X57450000Y-99503001D01*
X57448796Y-99527505D01*
X57445196Y-99551773D01*
X57439235Y-99575572D01*
X57430970Y-99598671D01*
X57420480Y-99620850D01*
X57407868Y-99641893D01*
X57393253Y-99661599D01*
X57376777Y-99679777D01*
X57358599Y-99696253D01*
X57338893Y-99710868D01*
X57317850Y-99723480D01*
X57295671Y-99733970D01*
X57272572Y-99742235D01*
X57248773Y-99748196D01*
X57224505Y-99751796D01*
X57200001Y-99753000D01*
X56299999Y-99753000D01*
X56275495Y-99751796D01*
X56251227Y-99748196D01*
X56227428Y-99742235D01*
X56204329Y-99733970D01*
X56182150Y-99723480D01*
X56161107Y-99710868D01*
X56141401Y-99696253D01*
X56123223Y-99679777D01*
X56106747Y-99661599D01*
X56092132Y-99641893D01*
X56079520Y-99620850D01*
X56069030Y-99598671D01*
X56060765Y-99575572D01*
X56054804Y-99551773D01*
X56051204Y-99527505D01*
X56050000Y-99503001D01*
X56050000Y-98852999D01*
X56051204Y-98828495D01*
X56054804Y-98804227D01*
X56060765Y-98780428D01*
X56069030Y-98757329D01*
X56079520Y-98735150D01*
X56092132Y-98714107D01*
X56106747Y-98694401D01*
X56123223Y-98676223D01*
X56141401Y-98659747D01*
X56161107Y-98645132D01*
X56182150Y-98632520D01*
X56204329Y-98622030D01*
X56227428Y-98613765D01*
X56251227Y-98607804D01*
X56275495Y-98604204D01*
X56299999Y-98603000D01*
X57200001Y-98603000D01*
X57224505Y-98604204D01*
X57224505Y-98604204D01*
G37*
D11*
X56750000Y-99178000D03*
D10*
G36*
X97374505Y-72051204D02*
G01*
X97398773Y-72054804D01*
X97422572Y-72060765D01*
X97445671Y-72069030D01*
X97467850Y-72079520D01*
X97488893Y-72092132D01*
X97508599Y-72106747D01*
X97526777Y-72123223D01*
X97543253Y-72141401D01*
X97557868Y-72161107D01*
X97570480Y-72182150D01*
X97580970Y-72204329D01*
X97589235Y-72227428D01*
X97595196Y-72251227D01*
X97598796Y-72275495D01*
X97600000Y-72299999D01*
X97600000Y-73200001D01*
X97598796Y-73224505D01*
X97595196Y-73248773D01*
X97589235Y-73272572D01*
X97580970Y-73295671D01*
X97570480Y-73317850D01*
X97557868Y-73338893D01*
X97543253Y-73358599D01*
X97526777Y-73376777D01*
X97508599Y-73393253D01*
X97488893Y-73407868D01*
X97467850Y-73420480D01*
X97445671Y-73430970D01*
X97422572Y-73439235D01*
X97398773Y-73445196D01*
X97374505Y-73448796D01*
X97350001Y-73450000D01*
X96699999Y-73450000D01*
X96675495Y-73448796D01*
X96651227Y-73445196D01*
X96627428Y-73439235D01*
X96604329Y-73430970D01*
X96582150Y-73420480D01*
X96561107Y-73407868D01*
X96541401Y-73393253D01*
X96523223Y-73376777D01*
X96506747Y-73358599D01*
X96492132Y-73338893D01*
X96479520Y-73317850D01*
X96469030Y-73295671D01*
X96460765Y-73272572D01*
X96454804Y-73248773D01*
X96451204Y-73224505D01*
X96450000Y-73200001D01*
X96450000Y-72299999D01*
X96451204Y-72275495D01*
X96454804Y-72251227D01*
X96460765Y-72227428D01*
X96469030Y-72204329D01*
X96479520Y-72182150D01*
X96492132Y-72161107D01*
X96506747Y-72141401D01*
X96523223Y-72123223D01*
X96541401Y-72106747D01*
X96561107Y-72092132D01*
X96582150Y-72079520D01*
X96604329Y-72069030D01*
X96627428Y-72060765D01*
X96651227Y-72054804D01*
X96675495Y-72051204D01*
X96699999Y-72050000D01*
X97350001Y-72050000D01*
X97374505Y-72051204D01*
X97374505Y-72051204D01*
G37*
D11*
X97025000Y-72750000D03*
D10*
G36*
X95324505Y-72051204D02*
G01*
X95348773Y-72054804D01*
X95372572Y-72060765D01*
X95395671Y-72069030D01*
X95417850Y-72079520D01*
X95438893Y-72092132D01*
X95458599Y-72106747D01*
X95476777Y-72123223D01*
X95493253Y-72141401D01*
X95507868Y-72161107D01*
X95520480Y-72182150D01*
X95530970Y-72204329D01*
X95539235Y-72227428D01*
X95545196Y-72251227D01*
X95548796Y-72275495D01*
X95550000Y-72299999D01*
X95550000Y-73200001D01*
X95548796Y-73224505D01*
X95545196Y-73248773D01*
X95539235Y-73272572D01*
X95530970Y-73295671D01*
X95520480Y-73317850D01*
X95507868Y-73338893D01*
X95493253Y-73358599D01*
X95476777Y-73376777D01*
X95458599Y-73393253D01*
X95438893Y-73407868D01*
X95417850Y-73420480D01*
X95395671Y-73430970D01*
X95372572Y-73439235D01*
X95348773Y-73445196D01*
X95324505Y-73448796D01*
X95300001Y-73450000D01*
X94649999Y-73450000D01*
X94625495Y-73448796D01*
X94601227Y-73445196D01*
X94577428Y-73439235D01*
X94554329Y-73430970D01*
X94532150Y-73420480D01*
X94511107Y-73407868D01*
X94491401Y-73393253D01*
X94473223Y-73376777D01*
X94456747Y-73358599D01*
X94442132Y-73338893D01*
X94429520Y-73317850D01*
X94419030Y-73295671D01*
X94410765Y-73272572D01*
X94404804Y-73248773D01*
X94401204Y-73224505D01*
X94400000Y-73200001D01*
X94400000Y-72299999D01*
X94401204Y-72275495D01*
X94404804Y-72251227D01*
X94410765Y-72227428D01*
X94419030Y-72204329D01*
X94429520Y-72182150D01*
X94442132Y-72161107D01*
X94456747Y-72141401D01*
X94473223Y-72123223D01*
X94491401Y-72106747D01*
X94511107Y-72092132D01*
X94532150Y-72079520D01*
X94554329Y-72069030D01*
X94577428Y-72060765D01*
X94601227Y-72054804D01*
X94625495Y-72051204D01*
X94649999Y-72050000D01*
X95300001Y-72050000D01*
X95324505Y-72051204D01*
X95324505Y-72051204D01*
G37*
D11*
X94975000Y-72750000D03*
D10*
G36*
X95324505Y-74801204D02*
G01*
X95348773Y-74804804D01*
X95372572Y-74810765D01*
X95395671Y-74819030D01*
X95417850Y-74829520D01*
X95438893Y-74842132D01*
X95458599Y-74856747D01*
X95476777Y-74873223D01*
X95493253Y-74891401D01*
X95507868Y-74911107D01*
X95520480Y-74932150D01*
X95530970Y-74954329D01*
X95539235Y-74977428D01*
X95545196Y-75001227D01*
X95548796Y-75025495D01*
X95550000Y-75049999D01*
X95550000Y-75950001D01*
X95548796Y-75974505D01*
X95545196Y-75998773D01*
X95539235Y-76022572D01*
X95530970Y-76045671D01*
X95520480Y-76067850D01*
X95507868Y-76088893D01*
X95493253Y-76108599D01*
X95476777Y-76126777D01*
X95458599Y-76143253D01*
X95438893Y-76157868D01*
X95417850Y-76170480D01*
X95395671Y-76180970D01*
X95372572Y-76189235D01*
X95348773Y-76195196D01*
X95324505Y-76198796D01*
X95300001Y-76200000D01*
X94649999Y-76200000D01*
X94625495Y-76198796D01*
X94601227Y-76195196D01*
X94577428Y-76189235D01*
X94554329Y-76180970D01*
X94532150Y-76170480D01*
X94511107Y-76157868D01*
X94491401Y-76143253D01*
X94473223Y-76126777D01*
X94456747Y-76108599D01*
X94442132Y-76088893D01*
X94429520Y-76067850D01*
X94419030Y-76045671D01*
X94410765Y-76022572D01*
X94404804Y-75998773D01*
X94401204Y-75974505D01*
X94400000Y-75950001D01*
X94400000Y-75049999D01*
X94401204Y-75025495D01*
X94404804Y-75001227D01*
X94410765Y-74977428D01*
X94419030Y-74954329D01*
X94429520Y-74932150D01*
X94442132Y-74911107D01*
X94456747Y-74891401D01*
X94473223Y-74873223D01*
X94491401Y-74856747D01*
X94511107Y-74842132D01*
X94532150Y-74829520D01*
X94554329Y-74819030D01*
X94577428Y-74810765D01*
X94601227Y-74804804D01*
X94625495Y-74801204D01*
X94649999Y-74800000D01*
X95300001Y-74800000D01*
X95324505Y-74801204D01*
X95324505Y-74801204D01*
G37*
D11*
X94975000Y-75500000D03*
D10*
G36*
X97374505Y-74801204D02*
G01*
X97398773Y-74804804D01*
X97422572Y-74810765D01*
X97445671Y-74819030D01*
X97467850Y-74829520D01*
X97488893Y-74842132D01*
X97508599Y-74856747D01*
X97526777Y-74873223D01*
X97543253Y-74891401D01*
X97557868Y-74911107D01*
X97570480Y-74932150D01*
X97580970Y-74954329D01*
X97589235Y-74977428D01*
X97595196Y-75001227D01*
X97598796Y-75025495D01*
X97600000Y-75049999D01*
X97600000Y-75950001D01*
X97598796Y-75974505D01*
X97595196Y-75998773D01*
X97589235Y-76022572D01*
X97580970Y-76045671D01*
X97570480Y-76067850D01*
X97557868Y-76088893D01*
X97543253Y-76108599D01*
X97526777Y-76126777D01*
X97508599Y-76143253D01*
X97488893Y-76157868D01*
X97467850Y-76170480D01*
X97445671Y-76180970D01*
X97422572Y-76189235D01*
X97398773Y-76195196D01*
X97374505Y-76198796D01*
X97350001Y-76200000D01*
X96699999Y-76200000D01*
X96675495Y-76198796D01*
X96651227Y-76195196D01*
X96627428Y-76189235D01*
X96604329Y-76180970D01*
X96582150Y-76170480D01*
X96561107Y-76157868D01*
X96541401Y-76143253D01*
X96523223Y-76126777D01*
X96506747Y-76108599D01*
X96492132Y-76088893D01*
X96479520Y-76067850D01*
X96469030Y-76045671D01*
X96460765Y-76022572D01*
X96454804Y-75998773D01*
X96451204Y-75974505D01*
X96450000Y-75950001D01*
X96450000Y-75049999D01*
X96451204Y-75025495D01*
X96454804Y-75001227D01*
X96460765Y-74977428D01*
X96469030Y-74954329D01*
X96479520Y-74932150D01*
X96492132Y-74911107D01*
X96506747Y-74891401D01*
X96523223Y-74873223D01*
X96541401Y-74856747D01*
X96561107Y-74842132D01*
X96582150Y-74829520D01*
X96604329Y-74819030D01*
X96627428Y-74810765D01*
X96651227Y-74804804D01*
X96675495Y-74801204D01*
X96699999Y-74800000D01*
X97350001Y-74800000D01*
X97374505Y-74801204D01*
X97374505Y-74801204D01*
G37*
D11*
X97025000Y-75500000D03*
M02*
