G04 #@! TF.GenerationSoftware,KiCad,Pcbnew,(5.1.2)-2*
G04 #@! TF.CreationDate,2019-09-30T00:10:56+10:00*
G04 #@! TF.ProjectId,Smart_eNERF_Gun,536d6172-745f-4654-9e45-52465f47756e,6.2*
G04 #@! TF.SameCoordinates,Original*
G04 #@! TF.FileFunction,Soldermask,Bot*
G04 #@! TF.FilePolarity,Negative*
%FSLAX46Y46*%
G04 Gerber Fmt 4.6, Leading zero omitted, Abs format (unit mm)*
G04 Created by KiCad (PCBNEW (5.1.2)-2) date 2019-09-30 00:10:56*
%MOMM*%
%LPD*%
G04 APERTURE LIST*
%ADD10R,1.625600X2.133600*%
%ADD11O,1.625600X2.133600*%
%ADD12C,4.673600*%
%ADD13C,1.930400*%
%ADD14R,1.498600X1.879600*%
%ADD15C,0.100000*%
%ADD16C,1.498600*%
%ADD17O,1.752600X2.133600*%
%ADD18R,1.752600X2.133600*%
%ADD19R,2.133600X1.625600*%
%ADD20O,2.133600X1.625600*%
%ADD21C,3.863599*%
G04 APERTURE END LIST*
D10*
X67440000Y-107342000D03*
D11*
X69980000Y-107342000D03*
X72520000Y-107342000D03*
X75060000Y-107342000D03*
D12*
X60836000Y-106580000D03*
X81664000Y-106580000D03*
X60836000Y-75592000D03*
X81664000Y-75592000D03*
X71590000Y-86880000D03*
X71590000Y-76720000D03*
D13*
X52540000Y-71640000D03*
D11*
X55080000Y-71640000D03*
X57620000Y-71640000D03*
X60160000Y-71640000D03*
X62700000Y-71640000D03*
X65240000Y-71640000D03*
X67780000Y-71640000D03*
X70320000Y-71640000D03*
X72860000Y-71640000D03*
X66510000Y-91960000D03*
X63970000Y-91960000D03*
X61430000Y-91960000D03*
D10*
X58890000Y-91960000D03*
D14*
X95888000Y-69038800D03*
D15*
G36*
X94292772Y-68100804D02*
G01*
X94329141Y-68106199D01*
X94364805Y-68115132D01*
X94399422Y-68127519D01*
X94432659Y-68143238D01*
X94464194Y-68162140D01*
X94493725Y-68184042D01*
X94520968Y-68208732D01*
X94545658Y-68235975D01*
X94567560Y-68265506D01*
X94586462Y-68297041D01*
X94602181Y-68330278D01*
X94614568Y-68364895D01*
X94623501Y-68400559D01*
X94628896Y-68436928D01*
X94630700Y-68473650D01*
X94630700Y-69603950D01*
X94628896Y-69640672D01*
X94623501Y-69677041D01*
X94614568Y-69712705D01*
X94602181Y-69747322D01*
X94586462Y-69780559D01*
X94567560Y-69812094D01*
X94545658Y-69841625D01*
X94520968Y-69868868D01*
X94493725Y-69893558D01*
X94464194Y-69915460D01*
X94432659Y-69934362D01*
X94399422Y-69950081D01*
X94364805Y-69962468D01*
X94329141Y-69971401D01*
X94292772Y-69976796D01*
X94256050Y-69978600D01*
X93506750Y-69978600D01*
X93470028Y-69976796D01*
X93433659Y-69971401D01*
X93397995Y-69962468D01*
X93363378Y-69950081D01*
X93330141Y-69934362D01*
X93298606Y-69915460D01*
X93269075Y-69893558D01*
X93241832Y-69868868D01*
X93217142Y-69841625D01*
X93195240Y-69812094D01*
X93176338Y-69780559D01*
X93160619Y-69747322D01*
X93148232Y-69712705D01*
X93139299Y-69677041D01*
X93133904Y-69640672D01*
X93132100Y-69603950D01*
X93132100Y-68473650D01*
X93133904Y-68436928D01*
X93139299Y-68400559D01*
X93148232Y-68364895D01*
X93160619Y-68330278D01*
X93176338Y-68297041D01*
X93195240Y-68265506D01*
X93217142Y-68235975D01*
X93241832Y-68208732D01*
X93269075Y-68184042D01*
X93298606Y-68162140D01*
X93330141Y-68143238D01*
X93363378Y-68127519D01*
X93397995Y-68115132D01*
X93433659Y-68106199D01*
X93470028Y-68100804D01*
X93506750Y-68099000D01*
X94256050Y-68099000D01*
X94292772Y-68100804D01*
X94292772Y-68100804D01*
G37*
D16*
X93881400Y-69038800D03*
D15*
G36*
X92286172Y-68100804D02*
G01*
X92322541Y-68106199D01*
X92358205Y-68115132D01*
X92392822Y-68127519D01*
X92426059Y-68143238D01*
X92457594Y-68162140D01*
X92487125Y-68184042D01*
X92514368Y-68208732D01*
X92539058Y-68235975D01*
X92560960Y-68265506D01*
X92579862Y-68297041D01*
X92595581Y-68330278D01*
X92607968Y-68364895D01*
X92616901Y-68400559D01*
X92622296Y-68436928D01*
X92624100Y-68473650D01*
X92624100Y-69603950D01*
X92622296Y-69640672D01*
X92616901Y-69677041D01*
X92607968Y-69712705D01*
X92595581Y-69747322D01*
X92579862Y-69780559D01*
X92560960Y-69812094D01*
X92539058Y-69841625D01*
X92514368Y-69868868D01*
X92487125Y-69893558D01*
X92457594Y-69915460D01*
X92426059Y-69934362D01*
X92392822Y-69950081D01*
X92358205Y-69962468D01*
X92322541Y-69971401D01*
X92286172Y-69976796D01*
X92249450Y-69978600D01*
X91500150Y-69978600D01*
X91463428Y-69976796D01*
X91427059Y-69971401D01*
X91391395Y-69962468D01*
X91356778Y-69950081D01*
X91323541Y-69934362D01*
X91292006Y-69915460D01*
X91262475Y-69893558D01*
X91235232Y-69868868D01*
X91210542Y-69841625D01*
X91188640Y-69812094D01*
X91169738Y-69780559D01*
X91154019Y-69747322D01*
X91141632Y-69712705D01*
X91132699Y-69677041D01*
X91127304Y-69640672D01*
X91125500Y-69603950D01*
X91125500Y-68473650D01*
X91127304Y-68436928D01*
X91132699Y-68400559D01*
X91141632Y-68364895D01*
X91154019Y-68330278D01*
X91169738Y-68297041D01*
X91188640Y-68265506D01*
X91210542Y-68235975D01*
X91235232Y-68208732D01*
X91262475Y-68184042D01*
X91292006Y-68162140D01*
X91323541Y-68143238D01*
X91356778Y-68127519D01*
X91391395Y-68115132D01*
X91427059Y-68106199D01*
X91463428Y-68100804D01*
X91500150Y-68099000D01*
X92249450Y-68099000D01*
X92286172Y-68100804D01*
X92286172Y-68100804D01*
G37*
D16*
X91874800Y-69038800D03*
D15*
G36*
X90279572Y-68100804D02*
G01*
X90315941Y-68106199D01*
X90351605Y-68115132D01*
X90386222Y-68127519D01*
X90419459Y-68143238D01*
X90450994Y-68162140D01*
X90480525Y-68184042D01*
X90507768Y-68208732D01*
X90532458Y-68235975D01*
X90554360Y-68265506D01*
X90573262Y-68297041D01*
X90588981Y-68330278D01*
X90601368Y-68364895D01*
X90610301Y-68400559D01*
X90615696Y-68436928D01*
X90617500Y-68473650D01*
X90617500Y-69603950D01*
X90615696Y-69640672D01*
X90610301Y-69677041D01*
X90601368Y-69712705D01*
X90588981Y-69747322D01*
X90573262Y-69780559D01*
X90554360Y-69812094D01*
X90532458Y-69841625D01*
X90507768Y-69868868D01*
X90480525Y-69893558D01*
X90450994Y-69915460D01*
X90419459Y-69934362D01*
X90386222Y-69950081D01*
X90351605Y-69962468D01*
X90315941Y-69971401D01*
X90279572Y-69976796D01*
X90242850Y-69978600D01*
X89493550Y-69978600D01*
X89456828Y-69976796D01*
X89420459Y-69971401D01*
X89384795Y-69962468D01*
X89350178Y-69950081D01*
X89316941Y-69934362D01*
X89285406Y-69915460D01*
X89255875Y-69893558D01*
X89228632Y-69868868D01*
X89203942Y-69841625D01*
X89182040Y-69812094D01*
X89163138Y-69780559D01*
X89147419Y-69747322D01*
X89135032Y-69712705D01*
X89126099Y-69677041D01*
X89120704Y-69640672D01*
X89118900Y-69603950D01*
X89118900Y-68473650D01*
X89120704Y-68436928D01*
X89126099Y-68400559D01*
X89135032Y-68364895D01*
X89147419Y-68330278D01*
X89163138Y-68297041D01*
X89182040Y-68265506D01*
X89203942Y-68235975D01*
X89228632Y-68208732D01*
X89255875Y-68184042D01*
X89285406Y-68162140D01*
X89316941Y-68143238D01*
X89350178Y-68127519D01*
X89384795Y-68115132D01*
X89420459Y-68106199D01*
X89456828Y-68100804D01*
X89493550Y-68099000D01*
X90242850Y-68099000D01*
X90279572Y-68100804D01*
X90279572Y-68100804D01*
G37*
D16*
X89868200Y-69038800D03*
D15*
G36*
X88272972Y-68100804D02*
G01*
X88309341Y-68106199D01*
X88345005Y-68115132D01*
X88379622Y-68127519D01*
X88412859Y-68143238D01*
X88444394Y-68162140D01*
X88473925Y-68184042D01*
X88501168Y-68208732D01*
X88525858Y-68235975D01*
X88547760Y-68265506D01*
X88566662Y-68297041D01*
X88582381Y-68330278D01*
X88594768Y-68364895D01*
X88603701Y-68400559D01*
X88609096Y-68436928D01*
X88610900Y-68473650D01*
X88610900Y-69603950D01*
X88609096Y-69640672D01*
X88603701Y-69677041D01*
X88594768Y-69712705D01*
X88582381Y-69747322D01*
X88566662Y-69780559D01*
X88547760Y-69812094D01*
X88525858Y-69841625D01*
X88501168Y-69868868D01*
X88473925Y-69893558D01*
X88444394Y-69915460D01*
X88412859Y-69934362D01*
X88379622Y-69950081D01*
X88345005Y-69962468D01*
X88309341Y-69971401D01*
X88272972Y-69976796D01*
X88236250Y-69978600D01*
X87486950Y-69978600D01*
X87450228Y-69976796D01*
X87413859Y-69971401D01*
X87378195Y-69962468D01*
X87343578Y-69950081D01*
X87310341Y-69934362D01*
X87278806Y-69915460D01*
X87249275Y-69893558D01*
X87222032Y-69868868D01*
X87197342Y-69841625D01*
X87175440Y-69812094D01*
X87156538Y-69780559D01*
X87140819Y-69747322D01*
X87128432Y-69712705D01*
X87119499Y-69677041D01*
X87114104Y-69640672D01*
X87112300Y-69603950D01*
X87112300Y-68473650D01*
X87114104Y-68436928D01*
X87119499Y-68400559D01*
X87128432Y-68364895D01*
X87140819Y-68330278D01*
X87156538Y-68297041D01*
X87175440Y-68265506D01*
X87197342Y-68235975D01*
X87222032Y-68208732D01*
X87249275Y-68184042D01*
X87278806Y-68162140D01*
X87310341Y-68143238D01*
X87343578Y-68127519D01*
X87378195Y-68115132D01*
X87413859Y-68106199D01*
X87450228Y-68100804D01*
X87486950Y-68099000D01*
X88236250Y-68099000D01*
X88272972Y-68100804D01*
X88272972Y-68100804D01*
G37*
D16*
X87861600Y-69038800D03*
D15*
G36*
X86266372Y-68100804D02*
G01*
X86302741Y-68106199D01*
X86338405Y-68115132D01*
X86373022Y-68127519D01*
X86406259Y-68143238D01*
X86437794Y-68162140D01*
X86467325Y-68184042D01*
X86494568Y-68208732D01*
X86519258Y-68235975D01*
X86541160Y-68265506D01*
X86560062Y-68297041D01*
X86575781Y-68330278D01*
X86588168Y-68364895D01*
X86597101Y-68400559D01*
X86602496Y-68436928D01*
X86604300Y-68473650D01*
X86604300Y-69603950D01*
X86602496Y-69640672D01*
X86597101Y-69677041D01*
X86588168Y-69712705D01*
X86575781Y-69747322D01*
X86560062Y-69780559D01*
X86541160Y-69812094D01*
X86519258Y-69841625D01*
X86494568Y-69868868D01*
X86467325Y-69893558D01*
X86437794Y-69915460D01*
X86406259Y-69934362D01*
X86373022Y-69950081D01*
X86338405Y-69962468D01*
X86302741Y-69971401D01*
X86266372Y-69976796D01*
X86229650Y-69978600D01*
X85480350Y-69978600D01*
X85443628Y-69976796D01*
X85407259Y-69971401D01*
X85371595Y-69962468D01*
X85336978Y-69950081D01*
X85303741Y-69934362D01*
X85272206Y-69915460D01*
X85242675Y-69893558D01*
X85215432Y-69868868D01*
X85190742Y-69841625D01*
X85168840Y-69812094D01*
X85149938Y-69780559D01*
X85134219Y-69747322D01*
X85121832Y-69712705D01*
X85112899Y-69677041D01*
X85107504Y-69640672D01*
X85105700Y-69603950D01*
X85105700Y-68473650D01*
X85107504Y-68436928D01*
X85112899Y-68400559D01*
X85121832Y-68364895D01*
X85134219Y-68330278D01*
X85149938Y-68297041D01*
X85168840Y-68265506D01*
X85190742Y-68235975D01*
X85215432Y-68208732D01*
X85242675Y-68184042D01*
X85272206Y-68162140D01*
X85303741Y-68143238D01*
X85336978Y-68127519D01*
X85371595Y-68115132D01*
X85407259Y-68106199D01*
X85443628Y-68100804D01*
X85480350Y-68099000D01*
X86229650Y-68099000D01*
X86266372Y-68100804D01*
X86266372Y-68100804D01*
G37*
D16*
X85855000Y-69038800D03*
D15*
G36*
X84259772Y-68100804D02*
G01*
X84296141Y-68106199D01*
X84331805Y-68115132D01*
X84366422Y-68127519D01*
X84399659Y-68143238D01*
X84431194Y-68162140D01*
X84460725Y-68184042D01*
X84487968Y-68208732D01*
X84512658Y-68235975D01*
X84534560Y-68265506D01*
X84553462Y-68297041D01*
X84569181Y-68330278D01*
X84581568Y-68364895D01*
X84590501Y-68400559D01*
X84595896Y-68436928D01*
X84597700Y-68473650D01*
X84597700Y-69603950D01*
X84595896Y-69640672D01*
X84590501Y-69677041D01*
X84581568Y-69712705D01*
X84569181Y-69747322D01*
X84553462Y-69780559D01*
X84534560Y-69812094D01*
X84512658Y-69841625D01*
X84487968Y-69868868D01*
X84460725Y-69893558D01*
X84431194Y-69915460D01*
X84399659Y-69934362D01*
X84366422Y-69950081D01*
X84331805Y-69962468D01*
X84296141Y-69971401D01*
X84259772Y-69976796D01*
X84223050Y-69978600D01*
X83473750Y-69978600D01*
X83437028Y-69976796D01*
X83400659Y-69971401D01*
X83364995Y-69962468D01*
X83330378Y-69950081D01*
X83297141Y-69934362D01*
X83265606Y-69915460D01*
X83236075Y-69893558D01*
X83208832Y-69868868D01*
X83184142Y-69841625D01*
X83162240Y-69812094D01*
X83143338Y-69780559D01*
X83127619Y-69747322D01*
X83115232Y-69712705D01*
X83106299Y-69677041D01*
X83100904Y-69640672D01*
X83099100Y-69603950D01*
X83099100Y-68473650D01*
X83100904Y-68436928D01*
X83106299Y-68400559D01*
X83115232Y-68364895D01*
X83127619Y-68330278D01*
X83143338Y-68297041D01*
X83162240Y-68265506D01*
X83184142Y-68235975D01*
X83208832Y-68208732D01*
X83236075Y-68184042D01*
X83265606Y-68162140D01*
X83297141Y-68143238D01*
X83330378Y-68127519D01*
X83364995Y-68115132D01*
X83400659Y-68106199D01*
X83437028Y-68100804D01*
X83473750Y-68099000D01*
X84223050Y-68099000D01*
X84259772Y-68100804D01*
X84259772Y-68100804D01*
G37*
D16*
X83848400Y-69038800D03*
D15*
G36*
X82253172Y-68100804D02*
G01*
X82289541Y-68106199D01*
X82325205Y-68115132D01*
X82359822Y-68127519D01*
X82393059Y-68143238D01*
X82424594Y-68162140D01*
X82454125Y-68184042D01*
X82481368Y-68208732D01*
X82506058Y-68235975D01*
X82527960Y-68265506D01*
X82546862Y-68297041D01*
X82562581Y-68330278D01*
X82574968Y-68364895D01*
X82583901Y-68400559D01*
X82589296Y-68436928D01*
X82591100Y-68473650D01*
X82591100Y-69603950D01*
X82589296Y-69640672D01*
X82583901Y-69677041D01*
X82574968Y-69712705D01*
X82562581Y-69747322D01*
X82546862Y-69780559D01*
X82527960Y-69812094D01*
X82506058Y-69841625D01*
X82481368Y-69868868D01*
X82454125Y-69893558D01*
X82424594Y-69915460D01*
X82393059Y-69934362D01*
X82359822Y-69950081D01*
X82325205Y-69962468D01*
X82289541Y-69971401D01*
X82253172Y-69976796D01*
X82216450Y-69978600D01*
X81467150Y-69978600D01*
X81430428Y-69976796D01*
X81394059Y-69971401D01*
X81358395Y-69962468D01*
X81323778Y-69950081D01*
X81290541Y-69934362D01*
X81259006Y-69915460D01*
X81229475Y-69893558D01*
X81202232Y-69868868D01*
X81177542Y-69841625D01*
X81155640Y-69812094D01*
X81136738Y-69780559D01*
X81121019Y-69747322D01*
X81108632Y-69712705D01*
X81099699Y-69677041D01*
X81094304Y-69640672D01*
X81092500Y-69603950D01*
X81092500Y-68473650D01*
X81094304Y-68436928D01*
X81099699Y-68400559D01*
X81108632Y-68364895D01*
X81121019Y-68330278D01*
X81136738Y-68297041D01*
X81155640Y-68265506D01*
X81177542Y-68235975D01*
X81202232Y-68208732D01*
X81229475Y-68184042D01*
X81259006Y-68162140D01*
X81290541Y-68143238D01*
X81323778Y-68127519D01*
X81358395Y-68115132D01*
X81394059Y-68106199D01*
X81430428Y-68100804D01*
X81467150Y-68099000D01*
X82216450Y-68099000D01*
X82253172Y-68100804D01*
X82253172Y-68100804D01*
G37*
D16*
X81841800Y-69038800D03*
D15*
G36*
X80246572Y-68100804D02*
G01*
X80282941Y-68106199D01*
X80318605Y-68115132D01*
X80353222Y-68127519D01*
X80386459Y-68143238D01*
X80417994Y-68162140D01*
X80447525Y-68184042D01*
X80474768Y-68208732D01*
X80499458Y-68235975D01*
X80521360Y-68265506D01*
X80540262Y-68297041D01*
X80555981Y-68330278D01*
X80568368Y-68364895D01*
X80577301Y-68400559D01*
X80582696Y-68436928D01*
X80584500Y-68473650D01*
X80584500Y-69603950D01*
X80582696Y-69640672D01*
X80577301Y-69677041D01*
X80568368Y-69712705D01*
X80555981Y-69747322D01*
X80540262Y-69780559D01*
X80521360Y-69812094D01*
X80499458Y-69841625D01*
X80474768Y-69868868D01*
X80447525Y-69893558D01*
X80417994Y-69915460D01*
X80386459Y-69934362D01*
X80353222Y-69950081D01*
X80318605Y-69962468D01*
X80282941Y-69971401D01*
X80246572Y-69976796D01*
X80209850Y-69978600D01*
X79460550Y-69978600D01*
X79423828Y-69976796D01*
X79387459Y-69971401D01*
X79351795Y-69962468D01*
X79317178Y-69950081D01*
X79283941Y-69934362D01*
X79252406Y-69915460D01*
X79222875Y-69893558D01*
X79195632Y-69868868D01*
X79170942Y-69841625D01*
X79149040Y-69812094D01*
X79130138Y-69780559D01*
X79114419Y-69747322D01*
X79102032Y-69712705D01*
X79093099Y-69677041D01*
X79087704Y-69640672D01*
X79085900Y-69603950D01*
X79085900Y-68473650D01*
X79087704Y-68436928D01*
X79093099Y-68400559D01*
X79102032Y-68364895D01*
X79114419Y-68330278D01*
X79130138Y-68297041D01*
X79149040Y-68265506D01*
X79170942Y-68235975D01*
X79195632Y-68208732D01*
X79222875Y-68184042D01*
X79252406Y-68162140D01*
X79283941Y-68143238D01*
X79317178Y-68127519D01*
X79351795Y-68115132D01*
X79387459Y-68106199D01*
X79423828Y-68100804D01*
X79460550Y-68099000D01*
X80209850Y-68099000D01*
X80246572Y-68100804D01*
X80246572Y-68100804D01*
G37*
D16*
X79835200Y-69038800D03*
D15*
G36*
X78239972Y-68100804D02*
G01*
X78276341Y-68106199D01*
X78312005Y-68115132D01*
X78346622Y-68127519D01*
X78379859Y-68143238D01*
X78411394Y-68162140D01*
X78440925Y-68184042D01*
X78468168Y-68208732D01*
X78492858Y-68235975D01*
X78514760Y-68265506D01*
X78533662Y-68297041D01*
X78549381Y-68330278D01*
X78561768Y-68364895D01*
X78570701Y-68400559D01*
X78576096Y-68436928D01*
X78577900Y-68473650D01*
X78577900Y-69603950D01*
X78576096Y-69640672D01*
X78570701Y-69677041D01*
X78561768Y-69712705D01*
X78549381Y-69747322D01*
X78533662Y-69780559D01*
X78514760Y-69812094D01*
X78492858Y-69841625D01*
X78468168Y-69868868D01*
X78440925Y-69893558D01*
X78411394Y-69915460D01*
X78379859Y-69934362D01*
X78346622Y-69950081D01*
X78312005Y-69962468D01*
X78276341Y-69971401D01*
X78239972Y-69976796D01*
X78203250Y-69978600D01*
X77453950Y-69978600D01*
X77417228Y-69976796D01*
X77380859Y-69971401D01*
X77345195Y-69962468D01*
X77310578Y-69950081D01*
X77277341Y-69934362D01*
X77245806Y-69915460D01*
X77216275Y-69893558D01*
X77189032Y-69868868D01*
X77164342Y-69841625D01*
X77142440Y-69812094D01*
X77123538Y-69780559D01*
X77107819Y-69747322D01*
X77095432Y-69712705D01*
X77086499Y-69677041D01*
X77081104Y-69640672D01*
X77079300Y-69603950D01*
X77079300Y-68473650D01*
X77081104Y-68436928D01*
X77086499Y-68400559D01*
X77095432Y-68364895D01*
X77107819Y-68330278D01*
X77123538Y-68297041D01*
X77142440Y-68265506D01*
X77164342Y-68235975D01*
X77189032Y-68208732D01*
X77216275Y-68184042D01*
X77245806Y-68162140D01*
X77277341Y-68143238D01*
X77310578Y-68127519D01*
X77345195Y-68115132D01*
X77380859Y-68106199D01*
X77417228Y-68100804D01*
X77453950Y-68099000D01*
X78203250Y-68099000D01*
X78239972Y-68100804D01*
X78239972Y-68100804D01*
G37*
D16*
X77828600Y-69038800D03*
D15*
G36*
X78239972Y-90097204D02*
G01*
X78276341Y-90102599D01*
X78312005Y-90111532D01*
X78346622Y-90123919D01*
X78379859Y-90139638D01*
X78411394Y-90158540D01*
X78440925Y-90180442D01*
X78468168Y-90205132D01*
X78492858Y-90232375D01*
X78514760Y-90261906D01*
X78533662Y-90293441D01*
X78549381Y-90326678D01*
X78561768Y-90361295D01*
X78570701Y-90396959D01*
X78576096Y-90433328D01*
X78577900Y-90470050D01*
X78577900Y-91600350D01*
X78576096Y-91637072D01*
X78570701Y-91673441D01*
X78561768Y-91709105D01*
X78549381Y-91743722D01*
X78533662Y-91776959D01*
X78514760Y-91808494D01*
X78492858Y-91838025D01*
X78468168Y-91865268D01*
X78440925Y-91889958D01*
X78411394Y-91911860D01*
X78379859Y-91930762D01*
X78346622Y-91946481D01*
X78312005Y-91958868D01*
X78276341Y-91967801D01*
X78239972Y-91973196D01*
X78203250Y-91975000D01*
X77453950Y-91975000D01*
X77417228Y-91973196D01*
X77380859Y-91967801D01*
X77345195Y-91958868D01*
X77310578Y-91946481D01*
X77277341Y-91930762D01*
X77245806Y-91911860D01*
X77216275Y-91889958D01*
X77189032Y-91865268D01*
X77164342Y-91838025D01*
X77142440Y-91808494D01*
X77123538Y-91776959D01*
X77107819Y-91743722D01*
X77095432Y-91709105D01*
X77086499Y-91673441D01*
X77081104Y-91637072D01*
X77079300Y-91600350D01*
X77079300Y-90470050D01*
X77081104Y-90433328D01*
X77086499Y-90396959D01*
X77095432Y-90361295D01*
X77107819Y-90326678D01*
X77123538Y-90293441D01*
X77142440Y-90261906D01*
X77164342Y-90232375D01*
X77189032Y-90205132D01*
X77216275Y-90180442D01*
X77245806Y-90158540D01*
X77277341Y-90139638D01*
X77310578Y-90123919D01*
X77345195Y-90111532D01*
X77380859Y-90102599D01*
X77417228Y-90097204D01*
X77453950Y-90095400D01*
X78203250Y-90095400D01*
X78239972Y-90097204D01*
X78239972Y-90097204D01*
G37*
D16*
X77828600Y-91035200D03*
D15*
G36*
X80246572Y-90097204D02*
G01*
X80282941Y-90102599D01*
X80318605Y-90111532D01*
X80353222Y-90123919D01*
X80386459Y-90139638D01*
X80417994Y-90158540D01*
X80447525Y-90180442D01*
X80474768Y-90205132D01*
X80499458Y-90232375D01*
X80521360Y-90261906D01*
X80540262Y-90293441D01*
X80555981Y-90326678D01*
X80568368Y-90361295D01*
X80577301Y-90396959D01*
X80582696Y-90433328D01*
X80584500Y-90470050D01*
X80584500Y-91600350D01*
X80582696Y-91637072D01*
X80577301Y-91673441D01*
X80568368Y-91709105D01*
X80555981Y-91743722D01*
X80540262Y-91776959D01*
X80521360Y-91808494D01*
X80499458Y-91838025D01*
X80474768Y-91865268D01*
X80447525Y-91889958D01*
X80417994Y-91911860D01*
X80386459Y-91930762D01*
X80353222Y-91946481D01*
X80318605Y-91958868D01*
X80282941Y-91967801D01*
X80246572Y-91973196D01*
X80209850Y-91975000D01*
X79460550Y-91975000D01*
X79423828Y-91973196D01*
X79387459Y-91967801D01*
X79351795Y-91958868D01*
X79317178Y-91946481D01*
X79283941Y-91930762D01*
X79252406Y-91911860D01*
X79222875Y-91889958D01*
X79195632Y-91865268D01*
X79170942Y-91838025D01*
X79149040Y-91808494D01*
X79130138Y-91776959D01*
X79114419Y-91743722D01*
X79102032Y-91709105D01*
X79093099Y-91673441D01*
X79087704Y-91637072D01*
X79085900Y-91600350D01*
X79085900Y-90470050D01*
X79087704Y-90433328D01*
X79093099Y-90396959D01*
X79102032Y-90361295D01*
X79114419Y-90326678D01*
X79130138Y-90293441D01*
X79149040Y-90261906D01*
X79170942Y-90232375D01*
X79195632Y-90205132D01*
X79222875Y-90180442D01*
X79252406Y-90158540D01*
X79283941Y-90139638D01*
X79317178Y-90123919D01*
X79351795Y-90111532D01*
X79387459Y-90102599D01*
X79423828Y-90097204D01*
X79460550Y-90095400D01*
X80209850Y-90095400D01*
X80246572Y-90097204D01*
X80246572Y-90097204D01*
G37*
D16*
X79835200Y-91035200D03*
D15*
G36*
X82253172Y-90097204D02*
G01*
X82289541Y-90102599D01*
X82325205Y-90111532D01*
X82359822Y-90123919D01*
X82393059Y-90139638D01*
X82424594Y-90158540D01*
X82454125Y-90180442D01*
X82481368Y-90205132D01*
X82506058Y-90232375D01*
X82527960Y-90261906D01*
X82546862Y-90293441D01*
X82562581Y-90326678D01*
X82574968Y-90361295D01*
X82583901Y-90396959D01*
X82589296Y-90433328D01*
X82591100Y-90470050D01*
X82591100Y-91600350D01*
X82589296Y-91637072D01*
X82583901Y-91673441D01*
X82574968Y-91709105D01*
X82562581Y-91743722D01*
X82546862Y-91776959D01*
X82527960Y-91808494D01*
X82506058Y-91838025D01*
X82481368Y-91865268D01*
X82454125Y-91889958D01*
X82424594Y-91911860D01*
X82393059Y-91930762D01*
X82359822Y-91946481D01*
X82325205Y-91958868D01*
X82289541Y-91967801D01*
X82253172Y-91973196D01*
X82216450Y-91975000D01*
X81467150Y-91975000D01*
X81430428Y-91973196D01*
X81394059Y-91967801D01*
X81358395Y-91958868D01*
X81323778Y-91946481D01*
X81290541Y-91930762D01*
X81259006Y-91911860D01*
X81229475Y-91889958D01*
X81202232Y-91865268D01*
X81177542Y-91838025D01*
X81155640Y-91808494D01*
X81136738Y-91776959D01*
X81121019Y-91743722D01*
X81108632Y-91709105D01*
X81099699Y-91673441D01*
X81094304Y-91637072D01*
X81092500Y-91600350D01*
X81092500Y-90470050D01*
X81094304Y-90433328D01*
X81099699Y-90396959D01*
X81108632Y-90361295D01*
X81121019Y-90326678D01*
X81136738Y-90293441D01*
X81155640Y-90261906D01*
X81177542Y-90232375D01*
X81202232Y-90205132D01*
X81229475Y-90180442D01*
X81259006Y-90158540D01*
X81290541Y-90139638D01*
X81323778Y-90123919D01*
X81358395Y-90111532D01*
X81394059Y-90102599D01*
X81430428Y-90097204D01*
X81467150Y-90095400D01*
X82216450Y-90095400D01*
X82253172Y-90097204D01*
X82253172Y-90097204D01*
G37*
D16*
X81841800Y-91035200D03*
D15*
G36*
X84259772Y-90097204D02*
G01*
X84296141Y-90102599D01*
X84331805Y-90111532D01*
X84366422Y-90123919D01*
X84399659Y-90139638D01*
X84431194Y-90158540D01*
X84460725Y-90180442D01*
X84487968Y-90205132D01*
X84512658Y-90232375D01*
X84534560Y-90261906D01*
X84553462Y-90293441D01*
X84569181Y-90326678D01*
X84581568Y-90361295D01*
X84590501Y-90396959D01*
X84595896Y-90433328D01*
X84597700Y-90470050D01*
X84597700Y-91600350D01*
X84595896Y-91637072D01*
X84590501Y-91673441D01*
X84581568Y-91709105D01*
X84569181Y-91743722D01*
X84553462Y-91776959D01*
X84534560Y-91808494D01*
X84512658Y-91838025D01*
X84487968Y-91865268D01*
X84460725Y-91889958D01*
X84431194Y-91911860D01*
X84399659Y-91930762D01*
X84366422Y-91946481D01*
X84331805Y-91958868D01*
X84296141Y-91967801D01*
X84259772Y-91973196D01*
X84223050Y-91975000D01*
X83473750Y-91975000D01*
X83437028Y-91973196D01*
X83400659Y-91967801D01*
X83364995Y-91958868D01*
X83330378Y-91946481D01*
X83297141Y-91930762D01*
X83265606Y-91911860D01*
X83236075Y-91889958D01*
X83208832Y-91865268D01*
X83184142Y-91838025D01*
X83162240Y-91808494D01*
X83143338Y-91776959D01*
X83127619Y-91743722D01*
X83115232Y-91709105D01*
X83106299Y-91673441D01*
X83100904Y-91637072D01*
X83099100Y-91600350D01*
X83099100Y-90470050D01*
X83100904Y-90433328D01*
X83106299Y-90396959D01*
X83115232Y-90361295D01*
X83127619Y-90326678D01*
X83143338Y-90293441D01*
X83162240Y-90261906D01*
X83184142Y-90232375D01*
X83208832Y-90205132D01*
X83236075Y-90180442D01*
X83265606Y-90158540D01*
X83297141Y-90139638D01*
X83330378Y-90123919D01*
X83364995Y-90111532D01*
X83400659Y-90102599D01*
X83437028Y-90097204D01*
X83473750Y-90095400D01*
X84223050Y-90095400D01*
X84259772Y-90097204D01*
X84259772Y-90097204D01*
G37*
D16*
X83848400Y-91035200D03*
D15*
G36*
X86266372Y-90097204D02*
G01*
X86302741Y-90102599D01*
X86338405Y-90111532D01*
X86373022Y-90123919D01*
X86406259Y-90139638D01*
X86437794Y-90158540D01*
X86467325Y-90180442D01*
X86494568Y-90205132D01*
X86519258Y-90232375D01*
X86541160Y-90261906D01*
X86560062Y-90293441D01*
X86575781Y-90326678D01*
X86588168Y-90361295D01*
X86597101Y-90396959D01*
X86602496Y-90433328D01*
X86604300Y-90470050D01*
X86604300Y-91600350D01*
X86602496Y-91637072D01*
X86597101Y-91673441D01*
X86588168Y-91709105D01*
X86575781Y-91743722D01*
X86560062Y-91776959D01*
X86541160Y-91808494D01*
X86519258Y-91838025D01*
X86494568Y-91865268D01*
X86467325Y-91889958D01*
X86437794Y-91911860D01*
X86406259Y-91930762D01*
X86373022Y-91946481D01*
X86338405Y-91958868D01*
X86302741Y-91967801D01*
X86266372Y-91973196D01*
X86229650Y-91975000D01*
X85480350Y-91975000D01*
X85443628Y-91973196D01*
X85407259Y-91967801D01*
X85371595Y-91958868D01*
X85336978Y-91946481D01*
X85303741Y-91930762D01*
X85272206Y-91911860D01*
X85242675Y-91889958D01*
X85215432Y-91865268D01*
X85190742Y-91838025D01*
X85168840Y-91808494D01*
X85149938Y-91776959D01*
X85134219Y-91743722D01*
X85121832Y-91709105D01*
X85112899Y-91673441D01*
X85107504Y-91637072D01*
X85105700Y-91600350D01*
X85105700Y-90470050D01*
X85107504Y-90433328D01*
X85112899Y-90396959D01*
X85121832Y-90361295D01*
X85134219Y-90326678D01*
X85149938Y-90293441D01*
X85168840Y-90261906D01*
X85190742Y-90232375D01*
X85215432Y-90205132D01*
X85242675Y-90180442D01*
X85272206Y-90158540D01*
X85303741Y-90139638D01*
X85336978Y-90123919D01*
X85371595Y-90111532D01*
X85407259Y-90102599D01*
X85443628Y-90097204D01*
X85480350Y-90095400D01*
X86229650Y-90095400D01*
X86266372Y-90097204D01*
X86266372Y-90097204D01*
G37*
D16*
X85855000Y-91035200D03*
D15*
G36*
X88272972Y-90097204D02*
G01*
X88309341Y-90102599D01*
X88345005Y-90111532D01*
X88379622Y-90123919D01*
X88412859Y-90139638D01*
X88444394Y-90158540D01*
X88473925Y-90180442D01*
X88501168Y-90205132D01*
X88525858Y-90232375D01*
X88547760Y-90261906D01*
X88566662Y-90293441D01*
X88582381Y-90326678D01*
X88594768Y-90361295D01*
X88603701Y-90396959D01*
X88609096Y-90433328D01*
X88610900Y-90470050D01*
X88610900Y-91600350D01*
X88609096Y-91637072D01*
X88603701Y-91673441D01*
X88594768Y-91709105D01*
X88582381Y-91743722D01*
X88566662Y-91776959D01*
X88547760Y-91808494D01*
X88525858Y-91838025D01*
X88501168Y-91865268D01*
X88473925Y-91889958D01*
X88444394Y-91911860D01*
X88412859Y-91930762D01*
X88379622Y-91946481D01*
X88345005Y-91958868D01*
X88309341Y-91967801D01*
X88272972Y-91973196D01*
X88236250Y-91975000D01*
X87486950Y-91975000D01*
X87450228Y-91973196D01*
X87413859Y-91967801D01*
X87378195Y-91958868D01*
X87343578Y-91946481D01*
X87310341Y-91930762D01*
X87278806Y-91911860D01*
X87249275Y-91889958D01*
X87222032Y-91865268D01*
X87197342Y-91838025D01*
X87175440Y-91808494D01*
X87156538Y-91776959D01*
X87140819Y-91743722D01*
X87128432Y-91709105D01*
X87119499Y-91673441D01*
X87114104Y-91637072D01*
X87112300Y-91600350D01*
X87112300Y-90470050D01*
X87114104Y-90433328D01*
X87119499Y-90396959D01*
X87128432Y-90361295D01*
X87140819Y-90326678D01*
X87156538Y-90293441D01*
X87175440Y-90261906D01*
X87197342Y-90232375D01*
X87222032Y-90205132D01*
X87249275Y-90180442D01*
X87278806Y-90158540D01*
X87310341Y-90139638D01*
X87343578Y-90123919D01*
X87378195Y-90111532D01*
X87413859Y-90102599D01*
X87450228Y-90097204D01*
X87486950Y-90095400D01*
X88236250Y-90095400D01*
X88272972Y-90097204D01*
X88272972Y-90097204D01*
G37*
D16*
X87861600Y-91035200D03*
D15*
G36*
X90279572Y-90097204D02*
G01*
X90315941Y-90102599D01*
X90351605Y-90111532D01*
X90386222Y-90123919D01*
X90419459Y-90139638D01*
X90450994Y-90158540D01*
X90480525Y-90180442D01*
X90507768Y-90205132D01*
X90532458Y-90232375D01*
X90554360Y-90261906D01*
X90573262Y-90293441D01*
X90588981Y-90326678D01*
X90601368Y-90361295D01*
X90610301Y-90396959D01*
X90615696Y-90433328D01*
X90617500Y-90470050D01*
X90617500Y-91600350D01*
X90615696Y-91637072D01*
X90610301Y-91673441D01*
X90601368Y-91709105D01*
X90588981Y-91743722D01*
X90573262Y-91776959D01*
X90554360Y-91808494D01*
X90532458Y-91838025D01*
X90507768Y-91865268D01*
X90480525Y-91889958D01*
X90450994Y-91911860D01*
X90419459Y-91930762D01*
X90386222Y-91946481D01*
X90351605Y-91958868D01*
X90315941Y-91967801D01*
X90279572Y-91973196D01*
X90242850Y-91975000D01*
X89493550Y-91975000D01*
X89456828Y-91973196D01*
X89420459Y-91967801D01*
X89384795Y-91958868D01*
X89350178Y-91946481D01*
X89316941Y-91930762D01*
X89285406Y-91911860D01*
X89255875Y-91889958D01*
X89228632Y-91865268D01*
X89203942Y-91838025D01*
X89182040Y-91808494D01*
X89163138Y-91776959D01*
X89147419Y-91743722D01*
X89135032Y-91709105D01*
X89126099Y-91673441D01*
X89120704Y-91637072D01*
X89118900Y-91600350D01*
X89118900Y-90470050D01*
X89120704Y-90433328D01*
X89126099Y-90396959D01*
X89135032Y-90361295D01*
X89147419Y-90326678D01*
X89163138Y-90293441D01*
X89182040Y-90261906D01*
X89203942Y-90232375D01*
X89228632Y-90205132D01*
X89255875Y-90180442D01*
X89285406Y-90158540D01*
X89316941Y-90139638D01*
X89350178Y-90123919D01*
X89384795Y-90111532D01*
X89420459Y-90102599D01*
X89456828Y-90097204D01*
X89493550Y-90095400D01*
X90242850Y-90095400D01*
X90279572Y-90097204D01*
X90279572Y-90097204D01*
G37*
D16*
X89868200Y-91035200D03*
D15*
G36*
X92286172Y-90097204D02*
G01*
X92322541Y-90102599D01*
X92358205Y-90111532D01*
X92392822Y-90123919D01*
X92426059Y-90139638D01*
X92457594Y-90158540D01*
X92487125Y-90180442D01*
X92514368Y-90205132D01*
X92539058Y-90232375D01*
X92560960Y-90261906D01*
X92579862Y-90293441D01*
X92595581Y-90326678D01*
X92607968Y-90361295D01*
X92616901Y-90396959D01*
X92622296Y-90433328D01*
X92624100Y-90470050D01*
X92624100Y-91600350D01*
X92622296Y-91637072D01*
X92616901Y-91673441D01*
X92607968Y-91709105D01*
X92595581Y-91743722D01*
X92579862Y-91776959D01*
X92560960Y-91808494D01*
X92539058Y-91838025D01*
X92514368Y-91865268D01*
X92487125Y-91889958D01*
X92457594Y-91911860D01*
X92426059Y-91930762D01*
X92392822Y-91946481D01*
X92358205Y-91958868D01*
X92322541Y-91967801D01*
X92286172Y-91973196D01*
X92249450Y-91975000D01*
X91500150Y-91975000D01*
X91463428Y-91973196D01*
X91427059Y-91967801D01*
X91391395Y-91958868D01*
X91356778Y-91946481D01*
X91323541Y-91930762D01*
X91292006Y-91911860D01*
X91262475Y-91889958D01*
X91235232Y-91865268D01*
X91210542Y-91838025D01*
X91188640Y-91808494D01*
X91169738Y-91776959D01*
X91154019Y-91743722D01*
X91141632Y-91709105D01*
X91132699Y-91673441D01*
X91127304Y-91637072D01*
X91125500Y-91600350D01*
X91125500Y-90470050D01*
X91127304Y-90433328D01*
X91132699Y-90396959D01*
X91141632Y-90361295D01*
X91154019Y-90326678D01*
X91169738Y-90293441D01*
X91188640Y-90261906D01*
X91210542Y-90232375D01*
X91235232Y-90205132D01*
X91262475Y-90180442D01*
X91292006Y-90158540D01*
X91323541Y-90139638D01*
X91356778Y-90123919D01*
X91391395Y-90111532D01*
X91427059Y-90102599D01*
X91463428Y-90097204D01*
X91500150Y-90095400D01*
X92249450Y-90095400D01*
X92286172Y-90097204D01*
X92286172Y-90097204D01*
G37*
D16*
X91874800Y-91035200D03*
D15*
G36*
X94292772Y-90097204D02*
G01*
X94329141Y-90102599D01*
X94364805Y-90111532D01*
X94399422Y-90123919D01*
X94432659Y-90139638D01*
X94464194Y-90158540D01*
X94493725Y-90180442D01*
X94520968Y-90205132D01*
X94545658Y-90232375D01*
X94567560Y-90261906D01*
X94586462Y-90293441D01*
X94602181Y-90326678D01*
X94614568Y-90361295D01*
X94623501Y-90396959D01*
X94628896Y-90433328D01*
X94630700Y-90470050D01*
X94630700Y-91600350D01*
X94628896Y-91637072D01*
X94623501Y-91673441D01*
X94614568Y-91709105D01*
X94602181Y-91743722D01*
X94586462Y-91776959D01*
X94567560Y-91808494D01*
X94545658Y-91838025D01*
X94520968Y-91865268D01*
X94493725Y-91889958D01*
X94464194Y-91911860D01*
X94432659Y-91930762D01*
X94399422Y-91946481D01*
X94364805Y-91958868D01*
X94329141Y-91967801D01*
X94292772Y-91973196D01*
X94256050Y-91975000D01*
X93506750Y-91975000D01*
X93470028Y-91973196D01*
X93433659Y-91967801D01*
X93397995Y-91958868D01*
X93363378Y-91946481D01*
X93330141Y-91930762D01*
X93298606Y-91911860D01*
X93269075Y-91889958D01*
X93241832Y-91865268D01*
X93217142Y-91838025D01*
X93195240Y-91808494D01*
X93176338Y-91776959D01*
X93160619Y-91743722D01*
X93148232Y-91709105D01*
X93139299Y-91673441D01*
X93133904Y-91637072D01*
X93132100Y-91600350D01*
X93132100Y-90470050D01*
X93133904Y-90433328D01*
X93139299Y-90396959D01*
X93148232Y-90361295D01*
X93160619Y-90326678D01*
X93176338Y-90293441D01*
X93195240Y-90261906D01*
X93217142Y-90232375D01*
X93241832Y-90205132D01*
X93269075Y-90180442D01*
X93298606Y-90158540D01*
X93330141Y-90139638D01*
X93363378Y-90123919D01*
X93397995Y-90111532D01*
X93433659Y-90102599D01*
X93470028Y-90097204D01*
X93506750Y-90095400D01*
X94256050Y-90095400D01*
X94292772Y-90097204D01*
X94292772Y-90097204D01*
G37*
D16*
X93881400Y-91035200D03*
D15*
G36*
X96299372Y-90097204D02*
G01*
X96335741Y-90102599D01*
X96371405Y-90111532D01*
X96406022Y-90123919D01*
X96439259Y-90139638D01*
X96470794Y-90158540D01*
X96500325Y-90180442D01*
X96527568Y-90205132D01*
X96552258Y-90232375D01*
X96574160Y-90261906D01*
X96593062Y-90293441D01*
X96608781Y-90326678D01*
X96621168Y-90361295D01*
X96630101Y-90396959D01*
X96635496Y-90433328D01*
X96637300Y-90470050D01*
X96637300Y-91600350D01*
X96635496Y-91637072D01*
X96630101Y-91673441D01*
X96621168Y-91709105D01*
X96608781Y-91743722D01*
X96593062Y-91776959D01*
X96574160Y-91808494D01*
X96552258Y-91838025D01*
X96527568Y-91865268D01*
X96500325Y-91889958D01*
X96470794Y-91911860D01*
X96439259Y-91930762D01*
X96406022Y-91946481D01*
X96371405Y-91958868D01*
X96335741Y-91967801D01*
X96299372Y-91973196D01*
X96262650Y-91975000D01*
X95513350Y-91975000D01*
X95476628Y-91973196D01*
X95440259Y-91967801D01*
X95404595Y-91958868D01*
X95369978Y-91946481D01*
X95336741Y-91930762D01*
X95305206Y-91911860D01*
X95275675Y-91889958D01*
X95248432Y-91865268D01*
X95223742Y-91838025D01*
X95201840Y-91808494D01*
X95182938Y-91776959D01*
X95167219Y-91743722D01*
X95154832Y-91709105D01*
X95145899Y-91673441D01*
X95140504Y-91637072D01*
X95138700Y-91600350D01*
X95138700Y-90470050D01*
X95140504Y-90433328D01*
X95145899Y-90396959D01*
X95154832Y-90361295D01*
X95167219Y-90326678D01*
X95182938Y-90293441D01*
X95201840Y-90261906D01*
X95223742Y-90232375D01*
X95248432Y-90205132D01*
X95275675Y-90180442D01*
X95305206Y-90158540D01*
X95336741Y-90139638D01*
X95369978Y-90123919D01*
X95404595Y-90111532D01*
X95440259Y-90102599D01*
X95476628Y-90097204D01*
X95513350Y-90095400D01*
X96262650Y-90095400D01*
X96299372Y-90097204D01*
X96299372Y-90097204D01*
G37*
D16*
X95888000Y-91035200D03*
D17*
X60445000Y-115285000D03*
X62945000Y-115285000D03*
X65445000Y-115285000D03*
X67945000Y-115285000D03*
X70445000Y-115285000D03*
X72945000Y-115285000D03*
D18*
X75445000Y-115285000D03*
D19*
X90000000Y-103550000D03*
D20*
X90000000Y-106050000D03*
X90000000Y-108550000D03*
X90000000Y-111050000D03*
D11*
X52725000Y-87700000D03*
D10*
X55225000Y-87700000D03*
D11*
X52962000Y-111152000D03*
X55502000Y-111152000D03*
X58042000Y-111152000D03*
X60582000Y-111152000D03*
X63122000Y-111152000D03*
X65662000Y-111152000D03*
X68202000Y-111152000D03*
X70742000Y-111152000D03*
X73282000Y-111152000D03*
X75822000Y-111152000D03*
X78362000Y-111152000D03*
X80902000Y-111152000D03*
X83442000Y-111152000D03*
X52962000Y-95912000D03*
X55502000Y-95912000D03*
X58042000Y-95912000D03*
X60582000Y-95912000D03*
X63122000Y-95912000D03*
X65662000Y-95912000D03*
X68202000Y-95912000D03*
X70742000Y-95912000D03*
X73282000Y-95912000D03*
X75822000Y-95912000D03*
X78362000Y-95912000D03*
X80902000Y-95912000D03*
X83442000Y-95912000D03*
X85982000Y-111152000D03*
D20*
X85982000Y-108612000D03*
X85982000Y-106072000D03*
D11*
X85982000Y-95912000D03*
D20*
X85982000Y-98452000D03*
X85982000Y-100992000D03*
X85982000Y-103532000D03*
D11*
X86750000Y-116250000D03*
X89250000Y-116250000D03*
X91750000Y-116250000D03*
X94250000Y-116250000D03*
D10*
X96750000Y-116250000D03*
D11*
X52725000Y-115316000D03*
D10*
X55225000Y-115316000D03*
D21*
X82000000Y-122000000D03*
X62000000Y-68000000D03*
X102000000Y-68000000D03*
M02*
