G04 #@! TF.GenerationSoftware,KiCad,Pcbnew,(5.1.2)-2*
G04 #@! TF.CreationDate,2019-09-30T00:10:55+10:00*
G04 #@! TF.ProjectId,Smart_eNERF_Gun,536d6172-745f-4654-9e45-52465f47756e,6.2*
G04 #@! TF.SameCoordinates,Original*
G04 #@! TF.FileFunction,Copper,L2,Bot*
G04 #@! TF.FilePolarity,Positive*
%FSLAX46Y46*%
G04 Gerber Fmt 4.6, Leading zero omitted, Abs format (unit mm)*
G04 Created by KiCad (PCBNEW (5.1.2)-2) date 2019-09-30 00:10:55*
%MOMM*%
%LPD*%
G04 APERTURE LIST*
%ADD10R,1.524000X2.032000*%
%ADD11O,1.524000X2.032000*%
%ADD12C,4.572000*%
%ADD13C,1.828800*%
%ADD14R,1.397000X1.778000*%
%ADD15C,0.100000*%
%ADD16C,1.397000*%
%ADD17O,1.651000X2.032000*%
%ADD18R,1.651000X2.032000*%
%ADD19R,2.032000X1.524000*%
%ADD20O,2.032000X1.524000*%
%ADD21C,3.761999*%
%ADD22C,0.762000*%
%ADD23C,0.254000*%
G04 APERTURE END LIST*
D10*
X67440000Y-107342000D03*
D11*
X69980000Y-107342000D03*
X72520000Y-107342000D03*
X75060000Y-107342000D03*
D12*
X60836000Y-106580000D03*
X81664000Y-106580000D03*
X60836000Y-75592000D03*
X81664000Y-75592000D03*
X71590000Y-86880000D03*
X71590000Y-76720000D03*
D13*
X52540000Y-71640000D03*
D11*
X55080000Y-71640000D03*
X57620000Y-71640000D03*
X60160000Y-71640000D03*
X62700000Y-71640000D03*
X65240000Y-71640000D03*
X67780000Y-71640000D03*
X70320000Y-71640000D03*
X72860000Y-71640000D03*
X66510000Y-91960000D03*
X63970000Y-91960000D03*
X61430000Y-91960000D03*
D10*
X58890000Y-91960000D03*
D14*
X95888000Y-69038800D03*
D15*
G36*
X94264882Y-68151482D02*
G01*
X94298785Y-68156511D01*
X94332032Y-68164839D01*
X94364302Y-68176385D01*
X94395285Y-68191039D01*
X94424683Y-68208659D01*
X94452212Y-68229076D01*
X94477607Y-68252093D01*
X94500624Y-68277488D01*
X94521041Y-68305017D01*
X94538661Y-68334415D01*
X94553315Y-68365398D01*
X94564861Y-68397668D01*
X94573189Y-68430915D01*
X94578218Y-68464818D01*
X94579900Y-68499050D01*
X94579900Y-69578550D01*
X94578218Y-69612782D01*
X94573189Y-69646685D01*
X94564861Y-69679932D01*
X94553315Y-69712202D01*
X94538661Y-69743185D01*
X94521041Y-69772583D01*
X94500624Y-69800112D01*
X94477607Y-69825507D01*
X94452212Y-69848524D01*
X94424683Y-69868941D01*
X94395285Y-69886561D01*
X94364302Y-69901215D01*
X94332032Y-69912761D01*
X94298785Y-69921089D01*
X94264882Y-69926118D01*
X94230650Y-69927800D01*
X93532150Y-69927800D01*
X93497918Y-69926118D01*
X93464015Y-69921089D01*
X93430768Y-69912761D01*
X93398498Y-69901215D01*
X93367515Y-69886561D01*
X93338117Y-69868941D01*
X93310588Y-69848524D01*
X93285193Y-69825507D01*
X93262176Y-69800112D01*
X93241759Y-69772583D01*
X93224139Y-69743185D01*
X93209485Y-69712202D01*
X93197939Y-69679932D01*
X93189611Y-69646685D01*
X93184582Y-69612782D01*
X93182900Y-69578550D01*
X93182900Y-68499050D01*
X93184582Y-68464818D01*
X93189611Y-68430915D01*
X93197939Y-68397668D01*
X93209485Y-68365398D01*
X93224139Y-68334415D01*
X93241759Y-68305017D01*
X93262176Y-68277488D01*
X93285193Y-68252093D01*
X93310588Y-68229076D01*
X93338117Y-68208659D01*
X93367515Y-68191039D01*
X93398498Y-68176385D01*
X93430768Y-68164839D01*
X93464015Y-68156511D01*
X93497918Y-68151482D01*
X93532150Y-68149800D01*
X94230650Y-68149800D01*
X94264882Y-68151482D01*
X94264882Y-68151482D01*
G37*
D16*
X93881400Y-69038800D03*
D15*
G36*
X92258282Y-68151482D02*
G01*
X92292185Y-68156511D01*
X92325432Y-68164839D01*
X92357702Y-68176385D01*
X92388685Y-68191039D01*
X92418083Y-68208659D01*
X92445612Y-68229076D01*
X92471007Y-68252093D01*
X92494024Y-68277488D01*
X92514441Y-68305017D01*
X92532061Y-68334415D01*
X92546715Y-68365398D01*
X92558261Y-68397668D01*
X92566589Y-68430915D01*
X92571618Y-68464818D01*
X92573300Y-68499050D01*
X92573300Y-69578550D01*
X92571618Y-69612782D01*
X92566589Y-69646685D01*
X92558261Y-69679932D01*
X92546715Y-69712202D01*
X92532061Y-69743185D01*
X92514441Y-69772583D01*
X92494024Y-69800112D01*
X92471007Y-69825507D01*
X92445612Y-69848524D01*
X92418083Y-69868941D01*
X92388685Y-69886561D01*
X92357702Y-69901215D01*
X92325432Y-69912761D01*
X92292185Y-69921089D01*
X92258282Y-69926118D01*
X92224050Y-69927800D01*
X91525550Y-69927800D01*
X91491318Y-69926118D01*
X91457415Y-69921089D01*
X91424168Y-69912761D01*
X91391898Y-69901215D01*
X91360915Y-69886561D01*
X91331517Y-69868941D01*
X91303988Y-69848524D01*
X91278593Y-69825507D01*
X91255576Y-69800112D01*
X91235159Y-69772583D01*
X91217539Y-69743185D01*
X91202885Y-69712202D01*
X91191339Y-69679932D01*
X91183011Y-69646685D01*
X91177982Y-69612782D01*
X91176300Y-69578550D01*
X91176300Y-68499050D01*
X91177982Y-68464818D01*
X91183011Y-68430915D01*
X91191339Y-68397668D01*
X91202885Y-68365398D01*
X91217539Y-68334415D01*
X91235159Y-68305017D01*
X91255576Y-68277488D01*
X91278593Y-68252093D01*
X91303988Y-68229076D01*
X91331517Y-68208659D01*
X91360915Y-68191039D01*
X91391898Y-68176385D01*
X91424168Y-68164839D01*
X91457415Y-68156511D01*
X91491318Y-68151482D01*
X91525550Y-68149800D01*
X92224050Y-68149800D01*
X92258282Y-68151482D01*
X92258282Y-68151482D01*
G37*
D16*
X91874800Y-69038800D03*
D15*
G36*
X90251682Y-68151482D02*
G01*
X90285585Y-68156511D01*
X90318832Y-68164839D01*
X90351102Y-68176385D01*
X90382085Y-68191039D01*
X90411483Y-68208659D01*
X90439012Y-68229076D01*
X90464407Y-68252093D01*
X90487424Y-68277488D01*
X90507841Y-68305017D01*
X90525461Y-68334415D01*
X90540115Y-68365398D01*
X90551661Y-68397668D01*
X90559989Y-68430915D01*
X90565018Y-68464818D01*
X90566700Y-68499050D01*
X90566700Y-69578550D01*
X90565018Y-69612782D01*
X90559989Y-69646685D01*
X90551661Y-69679932D01*
X90540115Y-69712202D01*
X90525461Y-69743185D01*
X90507841Y-69772583D01*
X90487424Y-69800112D01*
X90464407Y-69825507D01*
X90439012Y-69848524D01*
X90411483Y-69868941D01*
X90382085Y-69886561D01*
X90351102Y-69901215D01*
X90318832Y-69912761D01*
X90285585Y-69921089D01*
X90251682Y-69926118D01*
X90217450Y-69927800D01*
X89518950Y-69927800D01*
X89484718Y-69926118D01*
X89450815Y-69921089D01*
X89417568Y-69912761D01*
X89385298Y-69901215D01*
X89354315Y-69886561D01*
X89324917Y-69868941D01*
X89297388Y-69848524D01*
X89271993Y-69825507D01*
X89248976Y-69800112D01*
X89228559Y-69772583D01*
X89210939Y-69743185D01*
X89196285Y-69712202D01*
X89184739Y-69679932D01*
X89176411Y-69646685D01*
X89171382Y-69612782D01*
X89169700Y-69578550D01*
X89169700Y-68499050D01*
X89171382Y-68464818D01*
X89176411Y-68430915D01*
X89184739Y-68397668D01*
X89196285Y-68365398D01*
X89210939Y-68334415D01*
X89228559Y-68305017D01*
X89248976Y-68277488D01*
X89271993Y-68252093D01*
X89297388Y-68229076D01*
X89324917Y-68208659D01*
X89354315Y-68191039D01*
X89385298Y-68176385D01*
X89417568Y-68164839D01*
X89450815Y-68156511D01*
X89484718Y-68151482D01*
X89518950Y-68149800D01*
X90217450Y-68149800D01*
X90251682Y-68151482D01*
X90251682Y-68151482D01*
G37*
D16*
X89868200Y-69038800D03*
D15*
G36*
X88245082Y-68151482D02*
G01*
X88278985Y-68156511D01*
X88312232Y-68164839D01*
X88344502Y-68176385D01*
X88375485Y-68191039D01*
X88404883Y-68208659D01*
X88432412Y-68229076D01*
X88457807Y-68252093D01*
X88480824Y-68277488D01*
X88501241Y-68305017D01*
X88518861Y-68334415D01*
X88533515Y-68365398D01*
X88545061Y-68397668D01*
X88553389Y-68430915D01*
X88558418Y-68464818D01*
X88560100Y-68499050D01*
X88560100Y-69578550D01*
X88558418Y-69612782D01*
X88553389Y-69646685D01*
X88545061Y-69679932D01*
X88533515Y-69712202D01*
X88518861Y-69743185D01*
X88501241Y-69772583D01*
X88480824Y-69800112D01*
X88457807Y-69825507D01*
X88432412Y-69848524D01*
X88404883Y-69868941D01*
X88375485Y-69886561D01*
X88344502Y-69901215D01*
X88312232Y-69912761D01*
X88278985Y-69921089D01*
X88245082Y-69926118D01*
X88210850Y-69927800D01*
X87512350Y-69927800D01*
X87478118Y-69926118D01*
X87444215Y-69921089D01*
X87410968Y-69912761D01*
X87378698Y-69901215D01*
X87347715Y-69886561D01*
X87318317Y-69868941D01*
X87290788Y-69848524D01*
X87265393Y-69825507D01*
X87242376Y-69800112D01*
X87221959Y-69772583D01*
X87204339Y-69743185D01*
X87189685Y-69712202D01*
X87178139Y-69679932D01*
X87169811Y-69646685D01*
X87164782Y-69612782D01*
X87163100Y-69578550D01*
X87163100Y-68499050D01*
X87164782Y-68464818D01*
X87169811Y-68430915D01*
X87178139Y-68397668D01*
X87189685Y-68365398D01*
X87204339Y-68334415D01*
X87221959Y-68305017D01*
X87242376Y-68277488D01*
X87265393Y-68252093D01*
X87290788Y-68229076D01*
X87318317Y-68208659D01*
X87347715Y-68191039D01*
X87378698Y-68176385D01*
X87410968Y-68164839D01*
X87444215Y-68156511D01*
X87478118Y-68151482D01*
X87512350Y-68149800D01*
X88210850Y-68149800D01*
X88245082Y-68151482D01*
X88245082Y-68151482D01*
G37*
D16*
X87861600Y-69038800D03*
D15*
G36*
X86238482Y-68151482D02*
G01*
X86272385Y-68156511D01*
X86305632Y-68164839D01*
X86337902Y-68176385D01*
X86368885Y-68191039D01*
X86398283Y-68208659D01*
X86425812Y-68229076D01*
X86451207Y-68252093D01*
X86474224Y-68277488D01*
X86494641Y-68305017D01*
X86512261Y-68334415D01*
X86526915Y-68365398D01*
X86538461Y-68397668D01*
X86546789Y-68430915D01*
X86551818Y-68464818D01*
X86553500Y-68499050D01*
X86553500Y-69578550D01*
X86551818Y-69612782D01*
X86546789Y-69646685D01*
X86538461Y-69679932D01*
X86526915Y-69712202D01*
X86512261Y-69743185D01*
X86494641Y-69772583D01*
X86474224Y-69800112D01*
X86451207Y-69825507D01*
X86425812Y-69848524D01*
X86398283Y-69868941D01*
X86368885Y-69886561D01*
X86337902Y-69901215D01*
X86305632Y-69912761D01*
X86272385Y-69921089D01*
X86238482Y-69926118D01*
X86204250Y-69927800D01*
X85505750Y-69927800D01*
X85471518Y-69926118D01*
X85437615Y-69921089D01*
X85404368Y-69912761D01*
X85372098Y-69901215D01*
X85341115Y-69886561D01*
X85311717Y-69868941D01*
X85284188Y-69848524D01*
X85258793Y-69825507D01*
X85235776Y-69800112D01*
X85215359Y-69772583D01*
X85197739Y-69743185D01*
X85183085Y-69712202D01*
X85171539Y-69679932D01*
X85163211Y-69646685D01*
X85158182Y-69612782D01*
X85156500Y-69578550D01*
X85156500Y-68499050D01*
X85158182Y-68464818D01*
X85163211Y-68430915D01*
X85171539Y-68397668D01*
X85183085Y-68365398D01*
X85197739Y-68334415D01*
X85215359Y-68305017D01*
X85235776Y-68277488D01*
X85258793Y-68252093D01*
X85284188Y-68229076D01*
X85311717Y-68208659D01*
X85341115Y-68191039D01*
X85372098Y-68176385D01*
X85404368Y-68164839D01*
X85437615Y-68156511D01*
X85471518Y-68151482D01*
X85505750Y-68149800D01*
X86204250Y-68149800D01*
X86238482Y-68151482D01*
X86238482Y-68151482D01*
G37*
D16*
X85855000Y-69038800D03*
D15*
G36*
X84231882Y-68151482D02*
G01*
X84265785Y-68156511D01*
X84299032Y-68164839D01*
X84331302Y-68176385D01*
X84362285Y-68191039D01*
X84391683Y-68208659D01*
X84419212Y-68229076D01*
X84444607Y-68252093D01*
X84467624Y-68277488D01*
X84488041Y-68305017D01*
X84505661Y-68334415D01*
X84520315Y-68365398D01*
X84531861Y-68397668D01*
X84540189Y-68430915D01*
X84545218Y-68464818D01*
X84546900Y-68499050D01*
X84546900Y-69578550D01*
X84545218Y-69612782D01*
X84540189Y-69646685D01*
X84531861Y-69679932D01*
X84520315Y-69712202D01*
X84505661Y-69743185D01*
X84488041Y-69772583D01*
X84467624Y-69800112D01*
X84444607Y-69825507D01*
X84419212Y-69848524D01*
X84391683Y-69868941D01*
X84362285Y-69886561D01*
X84331302Y-69901215D01*
X84299032Y-69912761D01*
X84265785Y-69921089D01*
X84231882Y-69926118D01*
X84197650Y-69927800D01*
X83499150Y-69927800D01*
X83464918Y-69926118D01*
X83431015Y-69921089D01*
X83397768Y-69912761D01*
X83365498Y-69901215D01*
X83334515Y-69886561D01*
X83305117Y-69868941D01*
X83277588Y-69848524D01*
X83252193Y-69825507D01*
X83229176Y-69800112D01*
X83208759Y-69772583D01*
X83191139Y-69743185D01*
X83176485Y-69712202D01*
X83164939Y-69679932D01*
X83156611Y-69646685D01*
X83151582Y-69612782D01*
X83149900Y-69578550D01*
X83149900Y-68499050D01*
X83151582Y-68464818D01*
X83156611Y-68430915D01*
X83164939Y-68397668D01*
X83176485Y-68365398D01*
X83191139Y-68334415D01*
X83208759Y-68305017D01*
X83229176Y-68277488D01*
X83252193Y-68252093D01*
X83277588Y-68229076D01*
X83305117Y-68208659D01*
X83334515Y-68191039D01*
X83365498Y-68176385D01*
X83397768Y-68164839D01*
X83431015Y-68156511D01*
X83464918Y-68151482D01*
X83499150Y-68149800D01*
X84197650Y-68149800D01*
X84231882Y-68151482D01*
X84231882Y-68151482D01*
G37*
D16*
X83848400Y-69038800D03*
D15*
G36*
X82225282Y-68151482D02*
G01*
X82259185Y-68156511D01*
X82292432Y-68164839D01*
X82324702Y-68176385D01*
X82355685Y-68191039D01*
X82385083Y-68208659D01*
X82412612Y-68229076D01*
X82438007Y-68252093D01*
X82461024Y-68277488D01*
X82481441Y-68305017D01*
X82499061Y-68334415D01*
X82513715Y-68365398D01*
X82525261Y-68397668D01*
X82533589Y-68430915D01*
X82538618Y-68464818D01*
X82540300Y-68499050D01*
X82540300Y-69578550D01*
X82538618Y-69612782D01*
X82533589Y-69646685D01*
X82525261Y-69679932D01*
X82513715Y-69712202D01*
X82499061Y-69743185D01*
X82481441Y-69772583D01*
X82461024Y-69800112D01*
X82438007Y-69825507D01*
X82412612Y-69848524D01*
X82385083Y-69868941D01*
X82355685Y-69886561D01*
X82324702Y-69901215D01*
X82292432Y-69912761D01*
X82259185Y-69921089D01*
X82225282Y-69926118D01*
X82191050Y-69927800D01*
X81492550Y-69927800D01*
X81458318Y-69926118D01*
X81424415Y-69921089D01*
X81391168Y-69912761D01*
X81358898Y-69901215D01*
X81327915Y-69886561D01*
X81298517Y-69868941D01*
X81270988Y-69848524D01*
X81245593Y-69825507D01*
X81222576Y-69800112D01*
X81202159Y-69772583D01*
X81184539Y-69743185D01*
X81169885Y-69712202D01*
X81158339Y-69679932D01*
X81150011Y-69646685D01*
X81144982Y-69612782D01*
X81143300Y-69578550D01*
X81143300Y-68499050D01*
X81144982Y-68464818D01*
X81150011Y-68430915D01*
X81158339Y-68397668D01*
X81169885Y-68365398D01*
X81184539Y-68334415D01*
X81202159Y-68305017D01*
X81222576Y-68277488D01*
X81245593Y-68252093D01*
X81270988Y-68229076D01*
X81298517Y-68208659D01*
X81327915Y-68191039D01*
X81358898Y-68176385D01*
X81391168Y-68164839D01*
X81424415Y-68156511D01*
X81458318Y-68151482D01*
X81492550Y-68149800D01*
X82191050Y-68149800D01*
X82225282Y-68151482D01*
X82225282Y-68151482D01*
G37*
D16*
X81841800Y-69038800D03*
D15*
G36*
X80218682Y-68151482D02*
G01*
X80252585Y-68156511D01*
X80285832Y-68164839D01*
X80318102Y-68176385D01*
X80349085Y-68191039D01*
X80378483Y-68208659D01*
X80406012Y-68229076D01*
X80431407Y-68252093D01*
X80454424Y-68277488D01*
X80474841Y-68305017D01*
X80492461Y-68334415D01*
X80507115Y-68365398D01*
X80518661Y-68397668D01*
X80526989Y-68430915D01*
X80532018Y-68464818D01*
X80533700Y-68499050D01*
X80533700Y-69578550D01*
X80532018Y-69612782D01*
X80526989Y-69646685D01*
X80518661Y-69679932D01*
X80507115Y-69712202D01*
X80492461Y-69743185D01*
X80474841Y-69772583D01*
X80454424Y-69800112D01*
X80431407Y-69825507D01*
X80406012Y-69848524D01*
X80378483Y-69868941D01*
X80349085Y-69886561D01*
X80318102Y-69901215D01*
X80285832Y-69912761D01*
X80252585Y-69921089D01*
X80218682Y-69926118D01*
X80184450Y-69927800D01*
X79485950Y-69927800D01*
X79451718Y-69926118D01*
X79417815Y-69921089D01*
X79384568Y-69912761D01*
X79352298Y-69901215D01*
X79321315Y-69886561D01*
X79291917Y-69868941D01*
X79264388Y-69848524D01*
X79238993Y-69825507D01*
X79215976Y-69800112D01*
X79195559Y-69772583D01*
X79177939Y-69743185D01*
X79163285Y-69712202D01*
X79151739Y-69679932D01*
X79143411Y-69646685D01*
X79138382Y-69612782D01*
X79136700Y-69578550D01*
X79136700Y-68499050D01*
X79138382Y-68464818D01*
X79143411Y-68430915D01*
X79151739Y-68397668D01*
X79163285Y-68365398D01*
X79177939Y-68334415D01*
X79195559Y-68305017D01*
X79215976Y-68277488D01*
X79238993Y-68252093D01*
X79264388Y-68229076D01*
X79291917Y-68208659D01*
X79321315Y-68191039D01*
X79352298Y-68176385D01*
X79384568Y-68164839D01*
X79417815Y-68156511D01*
X79451718Y-68151482D01*
X79485950Y-68149800D01*
X80184450Y-68149800D01*
X80218682Y-68151482D01*
X80218682Y-68151482D01*
G37*
D16*
X79835200Y-69038800D03*
D15*
G36*
X78212082Y-68151482D02*
G01*
X78245985Y-68156511D01*
X78279232Y-68164839D01*
X78311502Y-68176385D01*
X78342485Y-68191039D01*
X78371883Y-68208659D01*
X78399412Y-68229076D01*
X78424807Y-68252093D01*
X78447824Y-68277488D01*
X78468241Y-68305017D01*
X78485861Y-68334415D01*
X78500515Y-68365398D01*
X78512061Y-68397668D01*
X78520389Y-68430915D01*
X78525418Y-68464818D01*
X78527100Y-68499050D01*
X78527100Y-69578550D01*
X78525418Y-69612782D01*
X78520389Y-69646685D01*
X78512061Y-69679932D01*
X78500515Y-69712202D01*
X78485861Y-69743185D01*
X78468241Y-69772583D01*
X78447824Y-69800112D01*
X78424807Y-69825507D01*
X78399412Y-69848524D01*
X78371883Y-69868941D01*
X78342485Y-69886561D01*
X78311502Y-69901215D01*
X78279232Y-69912761D01*
X78245985Y-69921089D01*
X78212082Y-69926118D01*
X78177850Y-69927800D01*
X77479350Y-69927800D01*
X77445118Y-69926118D01*
X77411215Y-69921089D01*
X77377968Y-69912761D01*
X77345698Y-69901215D01*
X77314715Y-69886561D01*
X77285317Y-69868941D01*
X77257788Y-69848524D01*
X77232393Y-69825507D01*
X77209376Y-69800112D01*
X77188959Y-69772583D01*
X77171339Y-69743185D01*
X77156685Y-69712202D01*
X77145139Y-69679932D01*
X77136811Y-69646685D01*
X77131782Y-69612782D01*
X77130100Y-69578550D01*
X77130100Y-68499050D01*
X77131782Y-68464818D01*
X77136811Y-68430915D01*
X77145139Y-68397668D01*
X77156685Y-68365398D01*
X77171339Y-68334415D01*
X77188959Y-68305017D01*
X77209376Y-68277488D01*
X77232393Y-68252093D01*
X77257788Y-68229076D01*
X77285317Y-68208659D01*
X77314715Y-68191039D01*
X77345698Y-68176385D01*
X77377968Y-68164839D01*
X77411215Y-68156511D01*
X77445118Y-68151482D01*
X77479350Y-68149800D01*
X78177850Y-68149800D01*
X78212082Y-68151482D01*
X78212082Y-68151482D01*
G37*
D16*
X77828600Y-69038800D03*
D15*
G36*
X78212082Y-90147882D02*
G01*
X78245985Y-90152911D01*
X78279232Y-90161239D01*
X78311502Y-90172785D01*
X78342485Y-90187439D01*
X78371883Y-90205059D01*
X78399412Y-90225476D01*
X78424807Y-90248493D01*
X78447824Y-90273888D01*
X78468241Y-90301417D01*
X78485861Y-90330815D01*
X78500515Y-90361798D01*
X78512061Y-90394068D01*
X78520389Y-90427315D01*
X78525418Y-90461218D01*
X78527100Y-90495450D01*
X78527100Y-91574950D01*
X78525418Y-91609182D01*
X78520389Y-91643085D01*
X78512061Y-91676332D01*
X78500515Y-91708602D01*
X78485861Y-91739585D01*
X78468241Y-91768983D01*
X78447824Y-91796512D01*
X78424807Y-91821907D01*
X78399412Y-91844924D01*
X78371883Y-91865341D01*
X78342485Y-91882961D01*
X78311502Y-91897615D01*
X78279232Y-91909161D01*
X78245985Y-91917489D01*
X78212082Y-91922518D01*
X78177850Y-91924200D01*
X77479350Y-91924200D01*
X77445118Y-91922518D01*
X77411215Y-91917489D01*
X77377968Y-91909161D01*
X77345698Y-91897615D01*
X77314715Y-91882961D01*
X77285317Y-91865341D01*
X77257788Y-91844924D01*
X77232393Y-91821907D01*
X77209376Y-91796512D01*
X77188959Y-91768983D01*
X77171339Y-91739585D01*
X77156685Y-91708602D01*
X77145139Y-91676332D01*
X77136811Y-91643085D01*
X77131782Y-91609182D01*
X77130100Y-91574950D01*
X77130100Y-90495450D01*
X77131782Y-90461218D01*
X77136811Y-90427315D01*
X77145139Y-90394068D01*
X77156685Y-90361798D01*
X77171339Y-90330815D01*
X77188959Y-90301417D01*
X77209376Y-90273888D01*
X77232393Y-90248493D01*
X77257788Y-90225476D01*
X77285317Y-90205059D01*
X77314715Y-90187439D01*
X77345698Y-90172785D01*
X77377968Y-90161239D01*
X77411215Y-90152911D01*
X77445118Y-90147882D01*
X77479350Y-90146200D01*
X78177850Y-90146200D01*
X78212082Y-90147882D01*
X78212082Y-90147882D01*
G37*
D16*
X77828600Y-91035200D03*
D15*
G36*
X80218682Y-90147882D02*
G01*
X80252585Y-90152911D01*
X80285832Y-90161239D01*
X80318102Y-90172785D01*
X80349085Y-90187439D01*
X80378483Y-90205059D01*
X80406012Y-90225476D01*
X80431407Y-90248493D01*
X80454424Y-90273888D01*
X80474841Y-90301417D01*
X80492461Y-90330815D01*
X80507115Y-90361798D01*
X80518661Y-90394068D01*
X80526989Y-90427315D01*
X80532018Y-90461218D01*
X80533700Y-90495450D01*
X80533700Y-91574950D01*
X80532018Y-91609182D01*
X80526989Y-91643085D01*
X80518661Y-91676332D01*
X80507115Y-91708602D01*
X80492461Y-91739585D01*
X80474841Y-91768983D01*
X80454424Y-91796512D01*
X80431407Y-91821907D01*
X80406012Y-91844924D01*
X80378483Y-91865341D01*
X80349085Y-91882961D01*
X80318102Y-91897615D01*
X80285832Y-91909161D01*
X80252585Y-91917489D01*
X80218682Y-91922518D01*
X80184450Y-91924200D01*
X79485950Y-91924200D01*
X79451718Y-91922518D01*
X79417815Y-91917489D01*
X79384568Y-91909161D01*
X79352298Y-91897615D01*
X79321315Y-91882961D01*
X79291917Y-91865341D01*
X79264388Y-91844924D01*
X79238993Y-91821907D01*
X79215976Y-91796512D01*
X79195559Y-91768983D01*
X79177939Y-91739585D01*
X79163285Y-91708602D01*
X79151739Y-91676332D01*
X79143411Y-91643085D01*
X79138382Y-91609182D01*
X79136700Y-91574950D01*
X79136700Y-90495450D01*
X79138382Y-90461218D01*
X79143411Y-90427315D01*
X79151739Y-90394068D01*
X79163285Y-90361798D01*
X79177939Y-90330815D01*
X79195559Y-90301417D01*
X79215976Y-90273888D01*
X79238993Y-90248493D01*
X79264388Y-90225476D01*
X79291917Y-90205059D01*
X79321315Y-90187439D01*
X79352298Y-90172785D01*
X79384568Y-90161239D01*
X79417815Y-90152911D01*
X79451718Y-90147882D01*
X79485950Y-90146200D01*
X80184450Y-90146200D01*
X80218682Y-90147882D01*
X80218682Y-90147882D01*
G37*
D16*
X79835200Y-91035200D03*
D15*
G36*
X82225282Y-90147882D02*
G01*
X82259185Y-90152911D01*
X82292432Y-90161239D01*
X82324702Y-90172785D01*
X82355685Y-90187439D01*
X82385083Y-90205059D01*
X82412612Y-90225476D01*
X82438007Y-90248493D01*
X82461024Y-90273888D01*
X82481441Y-90301417D01*
X82499061Y-90330815D01*
X82513715Y-90361798D01*
X82525261Y-90394068D01*
X82533589Y-90427315D01*
X82538618Y-90461218D01*
X82540300Y-90495450D01*
X82540300Y-91574950D01*
X82538618Y-91609182D01*
X82533589Y-91643085D01*
X82525261Y-91676332D01*
X82513715Y-91708602D01*
X82499061Y-91739585D01*
X82481441Y-91768983D01*
X82461024Y-91796512D01*
X82438007Y-91821907D01*
X82412612Y-91844924D01*
X82385083Y-91865341D01*
X82355685Y-91882961D01*
X82324702Y-91897615D01*
X82292432Y-91909161D01*
X82259185Y-91917489D01*
X82225282Y-91922518D01*
X82191050Y-91924200D01*
X81492550Y-91924200D01*
X81458318Y-91922518D01*
X81424415Y-91917489D01*
X81391168Y-91909161D01*
X81358898Y-91897615D01*
X81327915Y-91882961D01*
X81298517Y-91865341D01*
X81270988Y-91844924D01*
X81245593Y-91821907D01*
X81222576Y-91796512D01*
X81202159Y-91768983D01*
X81184539Y-91739585D01*
X81169885Y-91708602D01*
X81158339Y-91676332D01*
X81150011Y-91643085D01*
X81144982Y-91609182D01*
X81143300Y-91574950D01*
X81143300Y-90495450D01*
X81144982Y-90461218D01*
X81150011Y-90427315D01*
X81158339Y-90394068D01*
X81169885Y-90361798D01*
X81184539Y-90330815D01*
X81202159Y-90301417D01*
X81222576Y-90273888D01*
X81245593Y-90248493D01*
X81270988Y-90225476D01*
X81298517Y-90205059D01*
X81327915Y-90187439D01*
X81358898Y-90172785D01*
X81391168Y-90161239D01*
X81424415Y-90152911D01*
X81458318Y-90147882D01*
X81492550Y-90146200D01*
X82191050Y-90146200D01*
X82225282Y-90147882D01*
X82225282Y-90147882D01*
G37*
D16*
X81841800Y-91035200D03*
D15*
G36*
X84231882Y-90147882D02*
G01*
X84265785Y-90152911D01*
X84299032Y-90161239D01*
X84331302Y-90172785D01*
X84362285Y-90187439D01*
X84391683Y-90205059D01*
X84419212Y-90225476D01*
X84444607Y-90248493D01*
X84467624Y-90273888D01*
X84488041Y-90301417D01*
X84505661Y-90330815D01*
X84520315Y-90361798D01*
X84531861Y-90394068D01*
X84540189Y-90427315D01*
X84545218Y-90461218D01*
X84546900Y-90495450D01*
X84546900Y-91574950D01*
X84545218Y-91609182D01*
X84540189Y-91643085D01*
X84531861Y-91676332D01*
X84520315Y-91708602D01*
X84505661Y-91739585D01*
X84488041Y-91768983D01*
X84467624Y-91796512D01*
X84444607Y-91821907D01*
X84419212Y-91844924D01*
X84391683Y-91865341D01*
X84362285Y-91882961D01*
X84331302Y-91897615D01*
X84299032Y-91909161D01*
X84265785Y-91917489D01*
X84231882Y-91922518D01*
X84197650Y-91924200D01*
X83499150Y-91924200D01*
X83464918Y-91922518D01*
X83431015Y-91917489D01*
X83397768Y-91909161D01*
X83365498Y-91897615D01*
X83334515Y-91882961D01*
X83305117Y-91865341D01*
X83277588Y-91844924D01*
X83252193Y-91821907D01*
X83229176Y-91796512D01*
X83208759Y-91768983D01*
X83191139Y-91739585D01*
X83176485Y-91708602D01*
X83164939Y-91676332D01*
X83156611Y-91643085D01*
X83151582Y-91609182D01*
X83149900Y-91574950D01*
X83149900Y-90495450D01*
X83151582Y-90461218D01*
X83156611Y-90427315D01*
X83164939Y-90394068D01*
X83176485Y-90361798D01*
X83191139Y-90330815D01*
X83208759Y-90301417D01*
X83229176Y-90273888D01*
X83252193Y-90248493D01*
X83277588Y-90225476D01*
X83305117Y-90205059D01*
X83334515Y-90187439D01*
X83365498Y-90172785D01*
X83397768Y-90161239D01*
X83431015Y-90152911D01*
X83464918Y-90147882D01*
X83499150Y-90146200D01*
X84197650Y-90146200D01*
X84231882Y-90147882D01*
X84231882Y-90147882D01*
G37*
D16*
X83848400Y-91035200D03*
D15*
G36*
X86238482Y-90147882D02*
G01*
X86272385Y-90152911D01*
X86305632Y-90161239D01*
X86337902Y-90172785D01*
X86368885Y-90187439D01*
X86398283Y-90205059D01*
X86425812Y-90225476D01*
X86451207Y-90248493D01*
X86474224Y-90273888D01*
X86494641Y-90301417D01*
X86512261Y-90330815D01*
X86526915Y-90361798D01*
X86538461Y-90394068D01*
X86546789Y-90427315D01*
X86551818Y-90461218D01*
X86553500Y-90495450D01*
X86553500Y-91574950D01*
X86551818Y-91609182D01*
X86546789Y-91643085D01*
X86538461Y-91676332D01*
X86526915Y-91708602D01*
X86512261Y-91739585D01*
X86494641Y-91768983D01*
X86474224Y-91796512D01*
X86451207Y-91821907D01*
X86425812Y-91844924D01*
X86398283Y-91865341D01*
X86368885Y-91882961D01*
X86337902Y-91897615D01*
X86305632Y-91909161D01*
X86272385Y-91917489D01*
X86238482Y-91922518D01*
X86204250Y-91924200D01*
X85505750Y-91924200D01*
X85471518Y-91922518D01*
X85437615Y-91917489D01*
X85404368Y-91909161D01*
X85372098Y-91897615D01*
X85341115Y-91882961D01*
X85311717Y-91865341D01*
X85284188Y-91844924D01*
X85258793Y-91821907D01*
X85235776Y-91796512D01*
X85215359Y-91768983D01*
X85197739Y-91739585D01*
X85183085Y-91708602D01*
X85171539Y-91676332D01*
X85163211Y-91643085D01*
X85158182Y-91609182D01*
X85156500Y-91574950D01*
X85156500Y-90495450D01*
X85158182Y-90461218D01*
X85163211Y-90427315D01*
X85171539Y-90394068D01*
X85183085Y-90361798D01*
X85197739Y-90330815D01*
X85215359Y-90301417D01*
X85235776Y-90273888D01*
X85258793Y-90248493D01*
X85284188Y-90225476D01*
X85311717Y-90205059D01*
X85341115Y-90187439D01*
X85372098Y-90172785D01*
X85404368Y-90161239D01*
X85437615Y-90152911D01*
X85471518Y-90147882D01*
X85505750Y-90146200D01*
X86204250Y-90146200D01*
X86238482Y-90147882D01*
X86238482Y-90147882D01*
G37*
D16*
X85855000Y-91035200D03*
D15*
G36*
X88245082Y-90147882D02*
G01*
X88278985Y-90152911D01*
X88312232Y-90161239D01*
X88344502Y-90172785D01*
X88375485Y-90187439D01*
X88404883Y-90205059D01*
X88432412Y-90225476D01*
X88457807Y-90248493D01*
X88480824Y-90273888D01*
X88501241Y-90301417D01*
X88518861Y-90330815D01*
X88533515Y-90361798D01*
X88545061Y-90394068D01*
X88553389Y-90427315D01*
X88558418Y-90461218D01*
X88560100Y-90495450D01*
X88560100Y-91574950D01*
X88558418Y-91609182D01*
X88553389Y-91643085D01*
X88545061Y-91676332D01*
X88533515Y-91708602D01*
X88518861Y-91739585D01*
X88501241Y-91768983D01*
X88480824Y-91796512D01*
X88457807Y-91821907D01*
X88432412Y-91844924D01*
X88404883Y-91865341D01*
X88375485Y-91882961D01*
X88344502Y-91897615D01*
X88312232Y-91909161D01*
X88278985Y-91917489D01*
X88245082Y-91922518D01*
X88210850Y-91924200D01*
X87512350Y-91924200D01*
X87478118Y-91922518D01*
X87444215Y-91917489D01*
X87410968Y-91909161D01*
X87378698Y-91897615D01*
X87347715Y-91882961D01*
X87318317Y-91865341D01*
X87290788Y-91844924D01*
X87265393Y-91821907D01*
X87242376Y-91796512D01*
X87221959Y-91768983D01*
X87204339Y-91739585D01*
X87189685Y-91708602D01*
X87178139Y-91676332D01*
X87169811Y-91643085D01*
X87164782Y-91609182D01*
X87163100Y-91574950D01*
X87163100Y-90495450D01*
X87164782Y-90461218D01*
X87169811Y-90427315D01*
X87178139Y-90394068D01*
X87189685Y-90361798D01*
X87204339Y-90330815D01*
X87221959Y-90301417D01*
X87242376Y-90273888D01*
X87265393Y-90248493D01*
X87290788Y-90225476D01*
X87318317Y-90205059D01*
X87347715Y-90187439D01*
X87378698Y-90172785D01*
X87410968Y-90161239D01*
X87444215Y-90152911D01*
X87478118Y-90147882D01*
X87512350Y-90146200D01*
X88210850Y-90146200D01*
X88245082Y-90147882D01*
X88245082Y-90147882D01*
G37*
D16*
X87861600Y-91035200D03*
D15*
G36*
X90251682Y-90147882D02*
G01*
X90285585Y-90152911D01*
X90318832Y-90161239D01*
X90351102Y-90172785D01*
X90382085Y-90187439D01*
X90411483Y-90205059D01*
X90439012Y-90225476D01*
X90464407Y-90248493D01*
X90487424Y-90273888D01*
X90507841Y-90301417D01*
X90525461Y-90330815D01*
X90540115Y-90361798D01*
X90551661Y-90394068D01*
X90559989Y-90427315D01*
X90565018Y-90461218D01*
X90566700Y-90495450D01*
X90566700Y-91574950D01*
X90565018Y-91609182D01*
X90559989Y-91643085D01*
X90551661Y-91676332D01*
X90540115Y-91708602D01*
X90525461Y-91739585D01*
X90507841Y-91768983D01*
X90487424Y-91796512D01*
X90464407Y-91821907D01*
X90439012Y-91844924D01*
X90411483Y-91865341D01*
X90382085Y-91882961D01*
X90351102Y-91897615D01*
X90318832Y-91909161D01*
X90285585Y-91917489D01*
X90251682Y-91922518D01*
X90217450Y-91924200D01*
X89518950Y-91924200D01*
X89484718Y-91922518D01*
X89450815Y-91917489D01*
X89417568Y-91909161D01*
X89385298Y-91897615D01*
X89354315Y-91882961D01*
X89324917Y-91865341D01*
X89297388Y-91844924D01*
X89271993Y-91821907D01*
X89248976Y-91796512D01*
X89228559Y-91768983D01*
X89210939Y-91739585D01*
X89196285Y-91708602D01*
X89184739Y-91676332D01*
X89176411Y-91643085D01*
X89171382Y-91609182D01*
X89169700Y-91574950D01*
X89169700Y-90495450D01*
X89171382Y-90461218D01*
X89176411Y-90427315D01*
X89184739Y-90394068D01*
X89196285Y-90361798D01*
X89210939Y-90330815D01*
X89228559Y-90301417D01*
X89248976Y-90273888D01*
X89271993Y-90248493D01*
X89297388Y-90225476D01*
X89324917Y-90205059D01*
X89354315Y-90187439D01*
X89385298Y-90172785D01*
X89417568Y-90161239D01*
X89450815Y-90152911D01*
X89484718Y-90147882D01*
X89518950Y-90146200D01*
X90217450Y-90146200D01*
X90251682Y-90147882D01*
X90251682Y-90147882D01*
G37*
D16*
X89868200Y-91035200D03*
D15*
G36*
X92258282Y-90147882D02*
G01*
X92292185Y-90152911D01*
X92325432Y-90161239D01*
X92357702Y-90172785D01*
X92388685Y-90187439D01*
X92418083Y-90205059D01*
X92445612Y-90225476D01*
X92471007Y-90248493D01*
X92494024Y-90273888D01*
X92514441Y-90301417D01*
X92532061Y-90330815D01*
X92546715Y-90361798D01*
X92558261Y-90394068D01*
X92566589Y-90427315D01*
X92571618Y-90461218D01*
X92573300Y-90495450D01*
X92573300Y-91574950D01*
X92571618Y-91609182D01*
X92566589Y-91643085D01*
X92558261Y-91676332D01*
X92546715Y-91708602D01*
X92532061Y-91739585D01*
X92514441Y-91768983D01*
X92494024Y-91796512D01*
X92471007Y-91821907D01*
X92445612Y-91844924D01*
X92418083Y-91865341D01*
X92388685Y-91882961D01*
X92357702Y-91897615D01*
X92325432Y-91909161D01*
X92292185Y-91917489D01*
X92258282Y-91922518D01*
X92224050Y-91924200D01*
X91525550Y-91924200D01*
X91491318Y-91922518D01*
X91457415Y-91917489D01*
X91424168Y-91909161D01*
X91391898Y-91897615D01*
X91360915Y-91882961D01*
X91331517Y-91865341D01*
X91303988Y-91844924D01*
X91278593Y-91821907D01*
X91255576Y-91796512D01*
X91235159Y-91768983D01*
X91217539Y-91739585D01*
X91202885Y-91708602D01*
X91191339Y-91676332D01*
X91183011Y-91643085D01*
X91177982Y-91609182D01*
X91176300Y-91574950D01*
X91176300Y-90495450D01*
X91177982Y-90461218D01*
X91183011Y-90427315D01*
X91191339Y-90394068D01*
X91202885Y-90361798D01*
X91217539Y-90330815D01*
X91235159Y-90301417D01*
X91255576Y-90273888D01*
X91278593Y-90248493D01*
X91303988Y-90225476D01*
X91331517Y-90205059D01*
X91360915Y-90187439D01*
X91391898Y-90172785D01*
X91424168Y-90161239D01*
X91457415Y-90152911D01*
X91491318Y-90147882D01*
X91525550Y-90146200D01*
X92224050Y-90146200D01*
X92258282Y-90147882D01*
X92258282Y-90147882D01*
G37*
D16*
X91874800Y-91035200D03*
D15*
G36*
X94264882Y-90147882D02*
G01*
X94298785Y-90152911D01*
X94332032Y-90161239D01*
X94364302Y-90172785D01*
X94395285Y-90187439D01*
X94424683Y-90205059D01*
X94452212Y-90225476D01*
X94477607Y-90248493D01*
X94500624Y-90273888D01*
X94521041Y-90301417D01*
X94538661Y-90330815D01*
X94553315Y-90361798D01*
X94564861Y-90394068D01*
X94573189Y-90427315D01*
X94578218Y-90461218D01*
X94579900Y-90495450D01*
X94579900Y-91574950D01*
X94578218Y-91609182D01*
X94573189Y-91643085D01*
X94564861Y-91676332D01*
X94553315Y-91708602D01*
X94538661Y-91739585D01*
X94521041Y-91768983D01*
X94500624Y-91796512D01*
X94477607Y-91821907D01*
X94452212Y-91844924D01*
X94424683Y-91865341D01*
X94395285Y-91882961D01*
X94364302Y-91897615D01*
X94332032Y-91909161D01*
X94298785Y-91917489D01*
X94264882Y-91922518D01*
X94230650Y-91924200D01*
X93532150Y-91924200D01*
X93497918Y-91922518D01*
X93464015Y-91917489D01*
X93430768Y-91909161D01*
X93398498Y-91897615D01*
X93367515Y-91882961D01*
X93338117Y-91865341D01*
X93310588Y-91844924D01*
X93285193Y-91821907D01*
X93262176Y-91796512D01*
X93241759Y-91768983D01*
X93224139Y-91739585D01*
X93209485Y-91708602D01*
X93197939Y-91676332D01*
X93189611Y-91643085D01*
X93184582Y-91609182D01*
X93182900Y-91574950D01*
X93182900Y-90495450D01*
X93184582Y-90461218D01*
X93189611Y-90427315D01*
X93197939Y-90394068D01*
X93209485Y-90361798D01*
X93224139Y-90330815D01*
X93241759Y-90301417D01*
X93262176Y-90273888D01*
X93285193Y-90248493D01*
X93310588Y-90225476D01*
X93338117Y-90205059D01*
X93367515Y-90187439D01*
X93398498Y-90172785D01*
X93430768Y-90161239D01*
X93464015Y-90152911D01*
X93497918Y-90147882D01*
X93532150Y-90146200D01*
X94230650Y-90146200D01*
X94264882Y-90147882D01*
X94264882Y-90147882D01*
G37*
D16*
X93881400Y-91035200D03*
D15*
G36*
X96271482Y-90147882D02*
G01*
X96305385Y-90152911D01*
X96338632Y-90161239D01*
X96370902Y-90172785D01*
X96401885Y-90187439D01*
X96431283Y-90205059D01*
X96458812Y-90225476D01*
X96484207Y-90248493D01*
X96507224Y-90273888D01*
X96527641Y-90301417D01*
X96545261Y-90330815D01*
X96559915Y-90361798D01*
X96571461Y-90394068D01*
X96579789Y-90427315D01*
X96584818Y-90461218D01*
X96586500Y-90495450D01*
X96586500Y-91574950D01*
X96584818Y-91609182D01*
X96579789Y-91643085D01*
X96571461Y-91676332D01*
X96559915Y-91708602D01*
X96545261Y-91739585D01*
X96527641Y-91768983D01*
X96507224Y-91796512D01*
X96484207Y-91821907D01*
X96458812Y-91844924D01*
X96431283Y-91865341D01*
X96401885Y-91882961D01*
X96370902Y-91897615D01*
X96338632Y-91909161D01*
X96305385Y-91917489D01*
X96271482Y-91922518D01*
X96237250Y-91924200D01*
X95538750Y-91924200D01*
X95504518Y-91922518D01*
X95470615Y-91917489D01*
X95437368Y-91909161D01*
X95405098Y-91897615D01*
X95374115Y-91882961D01*
X95344717Y-91865341D01*
X95317188Y-91844924D01*
X95291793Y-91821907D01*
X95268776Y-91796512D01*
X95248359Y-91768983D01*
X95230739Y-91739585D01*
X95216085Y-91708602D01*
X95204539Y-91676332D01*
X95196211Y-91643085D01*
X95191182Y-91609182D01*
X95189500Y-91574950D01*
X95189500Y-90495450D01*
X95191182Y-90461218D01*
X95196211Y-90427315D01*
X95204539Y-90394068D01*
X95216085Y-90361798D01*
X95230739Y-90330815D01*
X95248359Y-90301417D01*
X95268776Y-90273888D01*
X95291793Y-90248493D01*
X95317188Y-90225476D01*
X95344717Y-90205059D01*
X95374115Y-90187439D01*
X95405098Y-90172785D01*
X95437368Y-90161239D01*
X95470615Y-90152911D01*
X95504518Y-90147882D01*
X95538750Y-90146200D01*
X96237250Y-90146200D01*
X96271482Y-90147882D01*
X96271482Y-90147882D01*
G37*
D16*
X95888000Y-91035200D03*
D17*
X60445000Y-115285000D03*
X62945000Y-115285000D03*
X65445000Y-115285000D03*
X67945000Y-115285000D03*
X70445000Y-115285000D03*
X72945000Y-115285000D03*
D18*
X75445000Y-115285000D03*
D19*
X90000000Y-103550000D03*
D20*
X90000000Y-106050000D03*
X90000000Y-108550000D03*
X90000000Y-111050000D03*
D11*
X52725000Y-87700000D03*
D10*
X55225000Y-87700000D03*
D11*
X52962000Y-111152000D03*
X55502000Y-111152000D03*
X58042000Y-111152000D03*
X60582000Y-111152000D03*
X63122000Y-111152000D03*
X65662000Y-111152000D03*
X68202000Y-111152000D03*
X70742000Y-111152000D03*
X73282000Y-111152000D03*
X75822000Y-111152000D03*
X78362000Y-111152000D03*
X80902000Y-111152000D03*
X83442000Y-111152000D03*
X52962000Y-95912000D03*
X55502000Y-95912000D03*
X58042000Y-95912000D03*
X60582000Y-95912000D03*
X63122000Y-95912000D03*
X65662000Y-95912000D03*
X68202000Y-95912000D03*
X70742000Y-95912000D03*
X73282000Y-95912000D03*
X75822000Y-95912000D03*
X78362000Y-95912000D03*
X80902000Y-95912000D03*
X83442000Y-95912000D03*
X85982000Y-111152000D03*
D20*
X85982000Y-108612000D03*
X85982000Y-106072000D03*
D11*
X85982000Y-95912000D03*
D20*
X85982000Y-98452000D03*
X85982000Y-100992000D03*
X85982000Y-103532000D03*
D11*
X86750000Y-116250000D03*
X89250000Y-116250000D03*
X91750000Y-116250000D03*
X94250000Y-116250000D03*
D10*
X96750000Y-116250000D03*
D11*
X52725000Y-115316000D03*
D10*
X55225000Y-115316000D03*
D21*
X82000000Y-122000000D03*
X62000000Y-68000000D03*
X102000000Y-68000000D03*
D22*
X78359000Y-108585000D03*
X83439000Y-116205000D03*
X68000000Y-98500000D03*
X75060000Y-97690000D03*
X62856000Y-101228000D03*
X71249991Y-99722009D03*
X78750000Y-99500000D03*
X73406000Y-100965000D03*
X83055000Y-99695000D03*
X74549000Y-102108000D03*
D23*
X90000000Y-111050000D02*
X88666500Y-111050000D01*
X87315500Y-103532000D02*
X88022510Y-104239010D01*
X85982000Y-103532000D02*
X87315500Y-103532000D01*
X88249250Y-104465750D02*
X88022510Y-104239010D01*
X88249250Y-110632750D02*
X88249250Y-104465750D01*
X88666500Y-111050000D02*
X88249250Y-110632750D01*
X70445000Y-115031000D02*
X70445000Y-115285000D01*
X71938000Y-113538000D02*
X70445000Y-115031000D01*
X78460600Y-113538000D02*
X71938000Y-113538000D01*
X79629000Y-112369600D02*
X78460600Y-113538000D01*
X79629000Y-109855000D02*
X79629000Y-112369600D01*
X78359000Y-108585000D02*
X79629000Y-109855000D01*
X87514500Y-105314500D02*
X87514500Y-106014500D01*
X87000000Y-104800000D02*
X87514500Y-105314500D01*
X87514500Y-106014500D02*
X87514500Y-105644238D01*
X84950000Y-104800000D02*
X87000000Y-104800000D01*
X86750000Y-113783000D02*
X87514500Y-113018500D01*
X86750000Y-116250000D02*
X86750000Y-113783000D01*
X87514500Y-113018500D02*
X87514500Y-106014500D01*
X83737500Y-103587500D02*
X84950000Y-104800000D01*
X73282000Y-98428000D02*
X73282000Y-95912000D01*
X78441500Y-103587500D02*
X73282000Y-98428000D01*
X83737500Y-103587500D02*
X78441500Y-103587500D01*
X73282000Y-95658000D02*
X73300000Y-95640000D01*
X73282000Y-95912000D02*
X73282000Y-95658000D01*
X73300000Y-95640000D02*
X73300000Y-94500000D01*
X69018422Y-90218422D02*
X69100000Y-90300000D01*
X73300000Y-94500000D02*
X69100000Y-90300000D01*
X63970000Y-91960000D02*
X63970000Y-91330000D01*
X65081578Y-90218422D02*
X65418422Y-90218422D01*
X63970000Y-91330000D02*
X65081578Y-90218422D01*
X65418422Y-90218422D02*
X69018422Y-90218422D01*
X70742000Y-96166000D02*
X70742000Y-95912000D01*
X89750000Y-116504000D02*
X89750000Y-116250000D01*
X84712000Y-110233000D02*
X84712000Y-117097000D01*
X70742000Y-95912000D02*
X70742000Y-97043370D01*
X70742000Y-97043370D02*
X78743000Y-105044370D01*
X88660009Y-118173491D02*
X89250000Y-117583500D01*
X78743000Y-105044370D02*
X78743000Y-107850000D01*
X84712000Y-117097000D02*
X84712018Y-117097000D01*
X78743000Y-107850000D02*
X80367000Y-109474000D01*
X89250000Y-117583500D02*
X89250000Y-116250000D01*
X84712018Y-117097000D02*
X85788509Y-118173491D01*
X80367000Y-109474000D02*
X83953000Y-109474000D01*
X85788509Y-118173491D02*
X88660009Y-118173491D01*
X83953000Y-109474000D02*
X84712000Y-110233000D01*
X68760000Y-91960000D02*
X66510000Y-91960000D01*
X70742000Y-95912000D02*
X70742000Y-93942000D01*
X70742000Y-93942000D02*
X68760000Y-91960000D01*
X92250000Y-116250000D02*
X92250000Y-116504000D01*
X91750000Y-117583500D02*
X91750000Y-116250000D01*
X60582000Y-112422000D02*
X59017000Y-113987000D01*
X59017000Y-113987000D02*
X59017000Y-116929000D01*
X60788250Y-118700250D02*
X90633250Y-118700250D01*
X90633250Y-118700250D02*
X91750000Y-117583500D01*
X59017000Y-116929000D02*
X60788250Y-118700250D01*
X60582000Y-111152000D02*
X60582000Y-112422000D01*
X83442000Y-111152000D02*
X83442000Y-116202000D01*
X84204000Y-97690000D02*
X85982000Y-95912000D01*
X75060000Y-97690000D02*
X84204000Y-97690000D01*
X64389000Y-102111000D02*
X68000000Y-98500000D01*
X62945000Y-115031000D02*
X64389000Y-113587000D01*
X62945000Y-115285000D02*
X62945000Y-115031000D01*
X64389000Y-113587000D02*
X64389000Y-102111000D01*
X80902000Y-114932000D02*
X80902000Y-111152000D01*
X78359000Y-117475000D02*
X80902000Y-114932000D01*
X60445000Y-115285000D02*
X60445000Y-116555000D01*
X61365000Y-117475000D02*
X78359000Y-117475000D01*
X60445000Y-116555000D02*
X61365000Y-117475000D01*
X68202000Y-95912000D02*
X60863000Y-103251000D01*
X59055000Y-103251000D02*
X60071000Y-103251000D01*
X60071000Y-103251000D02*
X59847000Y-103251000D01*
X60863000Y-103251000D02*
X60071000Y-103251000D01*
X56772000Y-105534000D02*
X59055000Y-103251000D01*
X56772000Y-114785000D02*
X56772000Y-112228000D01*
X56241000Y-115316000D02*
X56772000Y-114785000D01*
X55225000Y-115316000D02*
X56241000Y-115316000D01*
X56772000Y-112772000D02*
X56772000Y-112228000D01*
X56772000Y-112228000D02*
X56772000Y-105534000D01*
X65662000Y-112422000D02*
X66168400Y-112928400D01*
X65662000Y-111152000D02*
X65662000Y-112422000D01*
X77855600Y-112928400D02*
X66168400Y-112928400D01*
X78362000Y-112422000D02*
X77855600Y-112928400D01*
X78362000Y-111152000D02*
X78362000Y-112422000D01*
X70742000Y-110020630D02*
X70742000Y-111152000D01*
X71250000Y-109512630D02*
X70742000Y-110020630D01*
X71249991Y-99722009D02*
X71249991Y-109512621D01*
X71249991Y-109512621D02*
X71250000Y-109512630D01*
X73282000Y-111152000D02*
X73282000Y-110020630D01*
X73812400Y-109490230D02*
X73630015Y-109672615D01*
X73812400Y-104952800D02*
X73812400Y-109490230D01*
X73406000Y-104546400D02*
X73812400Y-104952800D01*
X73406000Y-100965000D02*
X73406000Y-104546400D01*
X73282000Y-110020630D02*
X73630015Y-109672615D01*
X81500000Y-102250000D02*
X92250000Y-102250000D01*
X92250000Y-102250000D02*
X97808010Y-96691990D01*
X78750000Y-99500000D02*
X81500000Y-102250000D01*
X97808010Y-96691990D02*
X97808009Y-89689575D01*
X96869641Y-88751207D02*
X95551207Y-88751207D01*
X97808009Y-89689575D02*
X96869641Y-88751207D01*
X93881400Y-87081400D02*
X93881400Y-85481400D01*
X95551207Y-88751207D02*
X93881400Y-87081400D01*
X93881400Y-85762966D02*
X93881400Y-85481400D01*
X93881400Y-85481400D02*
X93881400Y-69038800D01*
X76835000Y-104394000D02*
X74549000Y-102108000D01*
X76835000Y-108805500D02*
X76835000Y-104394000D01*
X75822000Y-111152000D02*
X75822000Y-109818500D01*
X75822000Y-109818500D02*
X76835000Y-108805500D01*
X83055000Y-99695000D02*
X90297000Y-99695000D01*
X96967510Y-93024490D02*
X96975510Y-93024490D01*
X97146756Y-92845244D02*
X96546000Y-93446000D01*
X97146756Y-89765190D02*
X97146756Y-92845244D01*
X90297000Y-99695000D02*
X96546000Y-93446000D01*
X96546000Y-93446000D02*
X96967510Y-93024490D01*
X96640783Y-89259217D02*
X94159217Y-89259217D01*
X96640783Y-89259217D02*
X97146756Y-89765190D01*
X91874800Y-86974800D02*
X91874800Y-83325200D01*
X94159217Y-89259217D02*
X91874800Y-86974800D01*
X91874800Y-69038800D02*
X91874800Y-83325200D01*
X78362000Y-94780630D02*
X78359000Y-94777630D01*
X78362000Y-95912000D02*
X78362000Y-94780630D01*
X78359000Y-94777630D02*
X78359000Y-94361000D01*
X76372685Y-88854315D02*
X76390500Y-88836500D01*
X76390500Y-88836500D02*
X87861600Y-77365400D01*
X87861600Y-77365400D02*
X87861600Y-77193600D01*
X78359000Y-94361000D02*
X76372685Y-92374685D01*
X87861600Y-77193600D02*
X87861600Y-69038800D01*
X76372685Y-92374685D02*
X76372685Y-88854315D01*
X87861600Y-92638400D02*
X87861600Y-91035200D01*
X86753185Y-93746815D02*
X87861600Y-92638400D01*
X84475815Y-93746815D02*
X86753185Y-93746815D01*
X83442000Y-94780630D02*
X84475815Y-93746815D01*
X83442000Y-95912000D02*
X83442000Y-94780630D01*
X62700000Y-71740000D02*
X62700000Y-71994000D01*
X75822000Y-94642000D02*
X75822000Y-95912000D01*
X67800000Y-77094000D02*
X67800000Y-78200000D01*
X67800000Y-78200000D02*
X75300000Y-85700000D01*
X75300000Y-85700000D02*
X75300000Y-94120000D01*
X62700000Y-71994000D02*
X67800000Y-77094000D01*
X75300000Y-94120000D02*
X75822000Y-94642000D01*
X65662000Y-94362000D02*
X65662000Y-95912000D01*
X57620000Y-71640000D02*
X57620000Y-89298434D01*
X57620000Y-89298434D02*
X56909217Y-90009217D01*
X56909217Y-90009217D02*
X56909217Y-93109217D01*
X56909217Y-93109217D02*
X57491990Y-93691990D01*
X57491990Y-93691990D02*
X64991990Y-93691990D01*
X64991990Y-93691990D02*
X65662000Y-94362000D01*
X62680000Y-94200000D02*
X63122000Y-94642000D01*
X55080000Y-71640000D02*
X55080000Y-74780000D01*
X55080000Y-74780000D02*
X56700000Y-76400000D01*
X56700000Y-76400000D02*
X56700000Y-89500000D01*
X57100000Y-94200000D02*
X62680000Y-94200000D01*
X56700000Y-89500000D02*
X56250000Y-89950000D01*
X63122000Y-94642000D02*
X63122000Y-95912000D01*
X56250000Y-89950000D02*
X56250000Y-93350000D01*
X56250000Y-93350000D02*
X57100000Y-94200000D01*
G36*
X102503463Y-65457312D02*
G01*
X102987756Y-65603529D01*
X103434422Y-65841025D01*
X103826450Y-66160755D01*
X104148907Y-66550539D01*
X104389518Y-66995540D01*
X104539111Y-67478796D01*
X104591990Y-67981905D01*
X104546141Y-68485704D01*
X104403309Y-68971002D01*
X104168936Y-69419315D01*
X103851953Y-69813563D01*
X103464424Y-70138738D01*
X103021118Y-70382448D01*
X102538921Y-70535410D01*
X102017773Y-70593866D01*
X101998604Y-70594000D01*
X98480059Y-70594000D01*
X98461367Y-70595841D01*
X98445751Y-70595732D01*
X98440109Y-70596285D01*
X97954866Y-70647286D01*
X97918793Y-70654691D01*
X97882675Y-70661581D01*
X97877247Y-70663219D01*
X97411154Y-70807499D01*
X97377191Y-70821776D01*
X97343113Y-70835544D01*
X97338112Y-70838202D01*
X97338108Y-70838204D01*
X97338107Y-70838205D01*
X96908914Y-71070269D01*
X96878400Y-71090851D01*
X96847618Y-71110994D01*
X96843230Y-71114573D01*
X96843224Y-71114577D01*
X96843219Y-71114582D01*
X96467279Y-71425585D01*
X96441309Y-71451737D01*
X96415060Y-71477442D01*
X96411451Y-71481804D01*
X96411446Y-71481809D01*
X96411442Y-71481814D01*
X96103069Y-71859917D01*
X96082688Y-71890593D01*
X96061917Y-71920929D01*
X96059220Y-71925915D01*
X95830158Y-72356719D01*
X95816130Y-72390754D01*
X95801640Y-72424562D01*
X95799963Y-72429977D01*
X95658940Y-72897067D01*
X95651785Y-72933205D01*
X95644143Y-72969157D01*
X95643550Y-72974795D01*
X95595938Y-73460381D01*
X95594000Y-73480062D01*
X95594081Y-86319943D01*
X95595850Y-86337905D01*
X95595785Y-86347167D01*
X95596338Y-86352809D01*
X95626923Y-86643956D01*
X95634328Y-86680041D01*
X95641214Y-86716148D01*
X95642850Y-86721568D01*
X95642851Y-86721575D01*
X95642854Y-86721581D01*
X95729405Y-87001237D01*
X95743676Y-87035194D01*
X95757446Y-87069279D01*
X95760102Y-87074276D01*
X95760106Y-87074285D01*
X95760111Y-87074292D01*
X95899332Y-87331808D01*
X95919900Y-87362306D01*
X95940054Y-87393107D01*
X95943633Y-87397495D01*
X95943637Y-87397501D01*
X95943642Y-87397506D01*
X96130230Y-87623077D01*
X96156346Y-87649014D01*
X96182083Y-87675299D01*
X96186451Y-87678914D01*
X96413305Y-87863952D01*
X96444018Y-87884360D01*
X96474315Y-87905107D01*
X96479293Y-87907800D01*
X96479301Y-87907805D01*
X96479309Y-87907808D01*
X96737775Y-88045255D01*
X96771767Y-88059268D01*
X96805618Y-88073778D01*
X96811033Y-88075455D01*
X97091283Y-88160083D01*
X97127387Y-88167233D01*
X97163372Y-88174884D01*
X97169010Y-88175477D01*
X97460360Y-88204060D01*
X97460362Y-88204060D01*
X97480059Y-88206000D01*
X97980147Y-88206000D01*
X98212111Y-88228744D01*
X98416148Y-88290347D01*
X98604336Y-88390408D01*
X98769495Y-88525109D01*
X98905352Y-88689331D01*
X99006724Y-88876814D01*
X99069748Y-89080411D01*
X99094001Y-89311167D01*
X99094000Y-125344000D01*
X84019851Y-125344000D01*
X83982122Y-125340301D01*
X83964921Y-125335107D01*
X83949056Y-125326672D01*
X83935140Y-125315322D01*
X83923682Y-125301472D01*
X83915139Y-125285672D01*
X83909827Y-125268511D01*
X83904275Y-125215689D01*
X83904317Y-125209714D01*
X83903764Y-125204072D01*
X83893564Y-125107023D01*
X83886161Y-125070957D01*
X83879269Y-125034831D01*
X83877631Y-125029404D01*
X83848775Y-124936185D01*
X83834505Y-124902238D01*
X83820729Y-124868142D01*
X83818068Y-124863136D01*
X83771655Y-124777299D01*
X83751078Y-124746793D01*
X83730930Y-124716003D01*
X83727347Y-124711609D01*
X83665145Y-124636420D01*
X83638995Y-124610452D01*
X83613291Y-124584204D01*
X83608929Y-124580595D01*
X83608921Y-124580587D01*
X83608912Y-124580581D01*
X83533302Y-124518914D01*
X83502658Y-124498553D01*
X83472286Y-124477758D01*
X83467299Y-124475061D01*
X83381138Y-124429249D01*
X83347102Y-124415221D01*
X83313299Y-124400733D01*
X83307884Y-124399056D01*
X83214466Y-124370851D01*
X83178345Y-124363699D01*
X83142372Y-124356053D01*
X83136743Y-124355461D01*
X83136738Y-124355460D01*
X83136734Y-124355460D01*
X83039740Y-124345950D01*
X83019941Y-124344000D01*
X50406000Y-124344000D01*
X50406000Y-121777213D01*
X79738001Y-121777213D01*
X79738001Y-122222787D01*
X79824928Y-122659801D01*
X79995442Y-123071458D01*
X80242991Y-123441940D01*
X80558060Y-123757009D01*
X80928542Y-124004558D01*
X81340199Y-124175072D01*
X81777213Y-124261999D01*
X82222787Y-124261999D01*
X82659801Y-124175072D01*
X83071458Y-124004558D01*
X83441940Y-123757009D01*
X83757009Y-123441940D01*
X84004558Y-123071458D01*
X84175072Y-122659801D01*
X84261999Y-122222787D01*
X84261999Y-121777213D01*
X84175072Y-121340199D01*
X84004558Y-120928542D01*
X83757009Y-120558060D01*
X83441940Y-120242991D01*
X83071458Y-119995442D01*
X82659801Y-119824928D01*
X82222787Y-119738001D01*
X81777213Y-119738001D01*
X81340199Y-119824928D01*
X80928542Y-119995442D01*
X80558060Y-120242991D01*
X80242991Y-120558060D01*
X79995442Y-120928542D01*
X79824928Y-121340199D01*
X79738001Y-121777213D01*
X50406000Y-121777213D01*
X50406000Y-115005854D01*
X51582000Y-115005854D01*
X51582000Y-115626145D01*
X51598539Y-115794066D01*
X51663897Y-116009522D01*
X51770032Y-116208088D01*
X51912867Y-116382133D01*
X52086911Y-116524968D01*
X52285477Y-116631103D01*
X52500933Y-116696461D01*
X52725000Y-116718530D01*
X52949066Y-116696461D01*
X53164522Y-116631103D01*
X53363088Y-116524968D01*
X53537133Y-116382133D01*
X53679968Y-116208089D01*
X53786103Y-116009523D01*
X53851461Y-115794067D01*
X53868000Y-115626146D01*
X53868000Y-115005855D01*
X53851461Y-114837934D01*
X53786103Y-114622478D01*
X53679968Y-114423911D01*
X53537133Y-114249867D01*
X53363089Y-114107032D01*
X53164523Y-114000897D01*
X52949067Y-113935539D01*
X52725000Y-113913470D01*
X52500934Y-113935539D01*
X52285478Y-114000897D01*
X52086912Y-114107032D01*
X51912868Y-114249867D01*
X51770033Y-114423911D01*
X51663897Y-114622477D01*
X51598539Y-114837933D01*
X51582000Y-115005854D01*
X50406000Y-115005854D01*
X50406000Y-110841855D01*
X51819000Y-110841855D01*
X51819000Y-111462146D01*
X51835539Y-111630067D01*
X51900897Y-111845523D01*
X52007033Y-112044089D01*
X52149868Y-112218133D01*
X52323912Y-112360968D01*
X52522478Y-112467103D01*
X52737934Y-112532461D01*
X52962000Y-112554530D01*
X53186067Y-112532461D01*
X53401523Y-112467103D01*
X53600089Y-112360968D01*
X53774133Y-112218133D01*
X53916968Y-112044089D01*
X54023103Y-111845522D01*
X54088461Y-111630066D01*
X54105000Y-111462145D01*
X54105000Y-110841854D01*
X54088461Y-110673933D01*
X54023103Y-110458477D01*
X53916968Y-110259911D01*
X53774133Y-110085867D01*
X53600088Y-109943032D01*
X53401522Y-109836897D01*
X53186066Y-109771539D01*
X52962000Y-109749470D01*
X52737933Y-109771539D01*
X52522477Y-109836897D01*
X52323911Y-109943032D01*
X52149867Y-110085867D01*
X52007032Y-110259912D01*
X51900897Y-110458478D01*
X51835539Y-110673934D01*
X51819000Y-110841855D01*
X50406000Y-110841855D01*
X50406000Y-95601855D01*
X51819000Y-95601855D01*
X51819000Y-96222146D01*
X51835539Y-96390067D01*
X51900897Y-96605523D01*
X52007033Y-96804089D01*
X52149868Y-96978133D01*
X52323912Y-97120968D01*
X52522478Y-97227103D01*
X52737934Y-97292461D01*
X52962000Y-97314530D01*
X53186067Y-97292461D01*
X53401523Y-97227103D01*
X53600089Y-97120968D01*
X53774133Y-96978133D01*
X53916968Y-96804089D01*
X54023103Y-96605522D01*
X54088461Y-96390066D01*
X54105000Y-96222145D01*
X54105000Y-95601854D01*
X54088461Y-95433933D01*
X54023103Y-95218477D01*
X53916968Y-95019911D01*
X53774133Y-94845867D01*
X53600088Y-94703032D01*
X53401522Y-94596897D01*
X53186066Y-94531539D01*
X52962000Y-94509470D01*
X52737933Y-94531539D01*
X52522477Y-94596897D01*
X52323911Y-94703032D01*
X52149867Y-94845867D01*
X52007032Y-95019912D01*
X51900897Y-95218478D01*
X51835539Y-95433934D01*
X51819000Y-95601855D01*
X50406000Y-95601855D01*
X50406000Y-87389854D01*
X51582000Y-87389854D01*
X51582000Y-88010145D01*
X51598539Y-88178066D01*
X51663897Y-88393522D01*
X51770032Y-88592088D01*
X51912867Y-88766133D01*
X52086911Y-88908968D01*
X52285477Y-89015103D01*
X52500933Y-89080461D01*
X52725000Y-89102530D01*
X52949066Y-89080461D01*
X53164522Y-89015103D01*
X53363088Y-88908968D01*
X53537133Y-88766133D01*
X53679968Y-88592089D01*
X53786103Y-88393523D01*
X53851461Y-88178067D01*
X53868000Y-88010146D01*
X53868000Y-87389855D01*
X53851461Y-87221934D01*
X53786103Y-87006478D01*
X53679968Y-86807911D01*
X53537133Y-86633867D01*
X53363089Y-86491032D01*
X53164523Y-86384897D01*
X52949067Y-86319539D01*
X52725000Y-86297470D01*
X52500934Y-86319539D01*
X52285478Y-86384897D01*
X52086912Y-86491032D01*
X51912868Y-86633867D01*
X51770033Y-86807911D01*
X51663897Y-87006477D01*
X51598539Y-87221933D01*
X51582000Y-87389854D01*
X50406000Y-87389854D01*
X50406000Y-71512414D01*
X51244600Y-71512414D01*
X51244600Y-71767586D01*
X51294381Y-72017854D01*
X51392031Y-72253602D01*
X51533797Y-72465769D01*
X51714231Y-72646203D01*
X51926398Y-72787969D01*
X52162146Y-72885619D01*
X52412414Y-72935400D01*
X52667586Y-72935400D01*
X52917854Y-72885619D01*
X53153602Y-72787969D01*
X53365769Y-72646203D01*
X53546203Y-72465769D01*
X53687969Y-72253602D01*
X53785619Y-72017854D01*
X53835400Y-71767586D01*
X53835400Y-71512414D01*
X53799088Y-71329855D01*
X53937000Y-71329855D01*
X53937000Y-71950146D01*
X53953539Y-72118067D01*
X54018897Y-72333523D01*
X54125033Y-72532089D01*
X54267868Y-72706133D01*
X54441912Y-72848968D01*
X54572000Y-72918501D01*
X54572001Y-74755046D01*
X54569543Y-74780000D01*
X54579352Y-74879584D01*
X54608400Y-74975343D01*
X54655571Y-75063595D01*
X54703150Y-75121570D01*
X54719053Y-75140948D01*
X54738430Y-75156850D01*
X56192000Y-76610421D01*
X56192001Y-86361565D01*
X56133508Y-86330299D01*
X56061689Y-86308513D01*
X55987000Y-86301157D01*
X54463000Y-86301157D01*
X54388311Y-86308513D01*
X54316492Y-86330299D01*
X54250304Y-86365678D01*
X54192289Y-86413289D01*
X54144678Y-86471304D01*
X54109299Y-86537492D01*
X54087513Y-86609311D01*
X54080157Y-86684000D01*
X54080157Y-88716000D01*
X54087513Y-88790689D01*
X54109299Y-88862508D01*
X54144678Y-88928696D01*
X54192289Y-88986711D01*
X54250304Y-89034322D01*
X54316492Y-89069701D01*
X54388311Y-89091487D01*
X54463000Y-89098843D01*
X55987000Y-89098843D01*
X56061689Y-89091487D01*
X56133508Y-89069701D01*
X56192001Y-89038435D01*
X56192001Y-89289578D01*
X55908434Y-89573145D01*
X55889052Y-89589052D01*
X55825571Y-89666405D01*
X55778399Y-89754658D01*
X55749351Y-89850416D01*
X55746874Y-89875571D01*
X55739543Y-89950000D01*
X55742000Y-89974944D01*
X55742001Y-93325046D01*
X55739543Y-93350000D01*
X55744985Y-93405245D01*
X55749352Y-93449585D01*
X55772271Y-93525139D01*
X55778400Y-93545343D01*
X55825571Y-93633595D01*
X55873150Y-93691570D01*
X55889053Y-93710948D01*
X55908430Y-93726850D01*
X56723145Y-94541565D01*
X56739052Y-94560948D01*
X56816405Y-94624429D01*
X56904657Y-94671601D01*
X57000415Y-94700649D01*
X57023270Y-94702900D01*
X56950994Y-94776271D01*
X56799941Y-95006058D01*
X56696619Y-95260899D01*
X56645000Y-95531000D01*
X56645000Y-95601854D01*
X56628461Y-95433933D01*
X56563103Y-95218477D01*
X56456968Y-95019911D01*
X56314133Y-94845867D01*
X56140088Y-94703032D01*
X55941522Y-94596897D01*
X55726066Y-94531539D01*
X55502000Y-94509470D01*
X55277933Y-94531539D01*
X55062477Y-94596897D01*
X54863911Y-94703032D01*
X54689867Y-94845867D01*
X54547032Y-95019912D01*
X54440897Y-95218478D01*
X54375539Y-95433934D01*
X54359000Y-95601855D01*
X54359000Y-96222146D01*
X54375539Y-96390067D01*
X54440897Y-96605523D01*
X54547033Y-96804089D01*
X54689868Y-96978133D01*
X54863912Y-97120968D01*
X55062478Y-97227103D01*
X55277934Y-97292461D01*
X55502000Y-97314530D01*
X55726067Y-97292461D01*
X55941523Y-97227103D01*
X56140089Y-97120968D01*
X56314133Y-96978133D01*
X56456968Y-96804089D01*
X56563103Y-96605522D01*
X56628461Y-96390066D01*
X56645000Y-96222146D01*
X56645000Y-96293000D01*
X56696619Y-96563101D01*
X56799941Y-96817942D01*
X56950994Y-97047729D01*
X57143974Y-97243632D01*
X57371465Y-97398122D01*
X57624724Y-97505262D01*
X57698930Y-97520220D01*
X57915000Y-97397720D01*
X57915000Y-96039000D01*
X56645000Y-96039000D01*
X56645000Y-95785000D01*
X57915000Y-95785000D01*
X57915000Y-95765000D01*
X58169000Y-95765000D01*
X58169000Y-95785000D01*
X59439000Y-95785000D01*
X59439000Y-96039000D01*
X58169000Y-96039000D01*
X58169000Y-97397720D01*
X58385070Y-97520220D01*
X58459276Y-97505262D01*
X58712535Y-97398122D01*
X58940026Y-97243632D01*
X59133006Y-97047729D01*
X59284059Y-96817942D01*
X59387381Y-96563101D01*
X59439000Y-96293000D01*
X59439000Y-96222146D01*
X59455539Y-96390067D01*
X59520897Y-96605523D01*
X59627033Y-96804089D01*
X59769868Y-96978133D01*
X59943912Y-97120968D01*
X60142478Y-97227103D01*
X60357934Y-97292461D01*
X60582000Y-97314530D01*
X60806067Y-97292461D01*
X61021523Y-97227103D01*
X61220089Y-97120968D01*
X61394133Y-96978133D01*
X61536968Y-96804089D01*
X61643103Y-96605522D01*
X61708461Y-96390066D01*
X61725000Y-96222145D01*
X61725000Y-95601854D01*
X61708461Y-95433933D01*
X61643103Y-95218477D01*
X61536968Y-95019911D01*
X61394133Y-94845867D01*
X61226142Y-94708000D01*
X62469580Y-94708000D01*
X62473311Y-94711731D01*
X62309867Y-94845867D01*
X62167032Y-95019912D01*
X62060897Y-95218478D01*
X61995539Y-95433934D01*
X61979000Y-95601855D01*
X61979000Y-96222146D01*
X61995539Y-96390067D01*
X62060897Y-96605523D01*
X62167033Y-96804089D01*
X62309868Y-96978133D01*
X62483912Y-97120968D01*
X62682478Y-97227103D01*
X62897934Y-97292461D01*
X63122000Y-97314530D01*
X63346067Y-97292461D01*
X63561523Y-97227103D01*
X63760089Y-97120968D01*
X63934133Y-96978133D01*
X64076968Y-96804089D01*
X64183103Y-96605522D01*
X64248461Y-96390066D01*
X64265000Y-96222145D01*
X64265000Y-95601854D01*
X64248461Y-95433933D01*
X64183103Y-95218477D01*
X64076968Y-95019911D01*
X63934133Y-94845867D01*
X63760088Y-94703032D01*
X63631710Y-94634413D01*
X63630000Y-94617053D01*
X63622649Y-94542415D01*
X63593601Y-94446657D01*
X63582494Y-94425878D01*
X63546429Y-94358404D01*
X63498850Y-94300429D01*
X63482948Y-94281052D01*
X63463570Y-94265149D01*
X63398411Y-94199990D01*
X64781570Y-94199990D01*
X65154000Y-94572421D01*
X65154000Y-94633498D01*
X65023911Y-94703032D01*
X64849867Y-94845867D01*
X64707032Y-95019912D01*
X64600897Y-95218478D01*
X64535539Y-95433934D01*
X64519000Y-95601855D01*
X64519000Y-96222146D01*
X64535539Y-96390067D01*
X64600897Y-96605523D01*
X64707033Y-96804089D01*
X64849868Y-96978133D01*
X65023912Y-97120968D01*
X65222478Y-97227103D01*
X65437934Y-97292461D01*
X65662000Y-97314530D01*
X65886067Y-97292461D01*
X66101523Y-97227103D01*
X66245356Y-97150223D01*
X62929580Y-100466000D01*
X62780950Y-100466000D01*
X62633733Y-100495283D01*
X62495058Y-100552724D01*
X62370253Y-100636116D01*
X62264116Y-100742253D01*
X62180724Y-100867058D01*
X62123283Y-101005733D01*
X62094000Y-101152950D01*
X62094000Y-101301580D01*
X60652580Y-102743000D01*
X59079944Y-102743000D01*
X59055000Y-102740543D01*
X59030056Y-102743000D01*
X59030053Y-102743000D01*
X58955415Y-102750351D01*
X58859657Y-102779399D01*
X58771405Y-102826571D01*
X58694052Y-102890052D01*
X58678145Y-102909435D01*
X56430430Y-105157150D01*
X56411053Y-105173052D01*
X56395151Y-105192429D01*
X56395150Y-105192430D01*
X56347571Y-105250405D01*
X56313312Y-105314500D01*
X56300400Y-105338657D01*
X56277520Y-105414084D01*
X56271352Y-105434416D01*
X56261543Y-105534000D01*
X56264001Y-105558954D01*
X56264000Y-110044724D01*
X56140088Y-109943032D01*
X55941522Y-109836897D01*
X55726066Y-109771539D01*
X55502000Y-109749470D01*
X55277933Y-109771539D01*
X55062477Y-109836897D01*
X54863911Y-109943032D01*
X54689867Y-110085867D01*
X54547032Y-110259912D01*
X54440897Y-110458478D01*
X54375539Y-110673934D01*
X54359000Y-110841855D01*
X54359000Y-111462146D01*
X54375539Y-111630067D01*
X54440897Y-111845523D01*
X54547033Y-112044089D01*
X54689868Y-112218133D01*
X54863912Y-112360968D01*
X55062478Y-112467103D01*
X55277934Y-112532461D01*
X55502000Y-112554530D01*
X55726067Y-112532461D01*
X55941523Y-112467103D01*
X56140089Y-112360968D01*
X56264001Y-112259276D01*
X56264000Y-112796946D01*
X56264001Y-112796954D01*
X56264000Y-114036953D01*
X56257711Y-114029289D01*
X56199696Y-113981678D01*
X56133508Y-113946299D01*
X56061689Y-113924513D01*
X55987000Y-113917157D01*
X54463000Y-113917157D01*
X54388311Y-113924513D01*
X54316492Y-113946299D01*
X54250304Y-113981678D01*
X54192289Y-114029289D01*
X54144678Y-114087304D01*
X54109299Y-114153492D01*
X54087513Y-114225311D01*
X54080157Y-114300000D01*
X54080157Y-116332000D01*
X54087513Y-116406689D01*
X54109299Y-116478508D01*
X54144678Y-116544696D01*
X54192289Y-116602711D01*
X54250304Y-116650322D01*
X54316492Y-116685701D01*
X54388311Y-116707487D01*
X54463000Y-116714843D01*
X55987000Y-116714843D01*
X56061689Y-116707487D01*
X56133508Y-116685701D01*
X56199696Y-116650322D01*
X56257711Y-116602711D01*
X56305322Y-116544696D01*
X56340701Y-116478508D01*
X56362487Y-116406689D01*
X56369843Y-116332000D01*
X56369843Y-115807774D01*
X56436343Y-115787601D01*
X56524595Y-115740429D01*
X56601948Y-115676948D01*
X56617855Y-115657565D01*
X57113570Y-115161851D01*
X57132948Y-115145948D01*
X57151624Y-115123190D01*
X57196429Y-115068596D01*
X57243600Y-114980345D01*
X57243601Y-114980342D01*
X57272649Y-114884585D01*
X57280000Y-114809947D01*
X57280000Y-114809945D01*
X57282457Y-114785001D01*
X57280000Y-114760057D01*
X57280000Y-112259275D01*
X57403912Y-112360968D01*
X57602478Y-112467103D01*
X57817934Y-112532461D01*
X58042000Y-112554530D01*
X58266067Y-112532461D01*
X58481523Y-112467103D01*
X58680089Y-112360968D01*
X58854133Y-112218133D01*
X58996968Y-112044089D01*
X59103103Y-111845522D01*
X59168461Y-111630066D01*
X59185000Y-111462145D01*
X59185000Y-110841854D01*
X59168461Y-110673933D01*
X59103103Y-110458477D01*
X58996968Y-110259911D01*
X58854133Y-110085867D01*
X58680088Y-109943032D01*
X58481522Y-109836897D01*
X58266066Y-109771539D01*
X58042000Y-109749470D01*
X57817933Y-109771539D01*
X57602477Y-109836897D01*
X57403911Y-109943032D01*
X57280000Y-110044724D01*
X57280000Y-106317323D01*
X58169000Y-106317323D01*
X58169000Y-106842677D01*
X58271492Y-107357935D01*
X58472536Y-107843298D01*
X58764406Y-108280113D01*
X59135887Y-108651594D01*
X59572702Y-108943464D01*
X60058065Y-109144508D01*
X60573323Y-109247000D01*
X61098677Y-109247000D01*
X61613935Y-109144508D01*
X62099298Y-108943464D01*
X62536113Y-108651594D01*
X62907594Y-108280113D01*
X63199464Y-107843298D01*
X63400508Y-107357935D01*
X63503000Y-106842677D01*
X63503000Y-106317323D01*
X63400508Y-105802065D01*
X63199464Y-105316702D01*
X62907594Y-104879887D01*
X62536113Y-104508406D01*
X62099298Y-104216536D01*
X61613935Y-104015492D01*
X61098677Y-103913000D01*
X60573323Y-103913000D01*
X60058065Y-104015492D01*
X59572702Y-104216536D01*
X59135887Y-104508406D01*
X58764406Y-104879887D01*
X58472536Y-105316702D01*
X58271492Y-105802065D01*
X58169000Y-106317323D01*
X57280000Y-106317323D01*
X57280000Y-105744420D01*
X59265420Y-103759000D01*
X60838056Y-103759000D01*
X60863000Y-103761457D01*
X60887944Y-103759000D01*
X60887947Y-103759000D01*
X60962585Y-103751649D01*
X61058343Y-103722601D01*
X61146595Y-103675429D01*
X61223948Y-103611948D01*
X61239855Y-103592565D01*
X62842420Y-101990000D01*
X62931050Y-101990000D01*
X63078267Y-101960717D01*
X63216942Y-101903276D01*
X63341747Y-101819884D01*
X63447884Y-101713747D01*
X63531276Y-101588942D01*
X63588717Y-101450267D01*
X63618000Y-101303050D01*
X63618000Y-101214420D01*
X67660061Y-97172360D01*
X67762478Y-97227103D01*
X67977934Y-97292461D01*
X68202000Y-97314530D01*
X68426067Y-97292461D01*
X68641523Y-97227103D01*
X68840089Y-97120968D01*
X69014133Y-96978133D01*
X69156968Y-96804089D01*
X69263103Y-96605522D01*
X69328461Y-96390066D01*
X69345000Y-96222145D01*
X69345000Y-95601854D01*
X69328461Y-95433933D01*
X69263103Y-95218477D01*
X69156968Y-95019911D01*
X69014133Y-94845867D01*
X68840088Y-94703032D01*
X68641522Y-94596897D01*
X68426066Y-94531539D01*
X68202000Y-94509470D01*
X67977933Y-94531539D01*
X67762477Y-94596897D01*
X67563911Y-94703032D01*
X67389867Y-94845867D01*
X67247032Y-95019912D01*
X67140897Y-95218478D01*
X67075539Y-95433934D01*
X67059000Y-95601855D01*
X67059000Y-96222146D01*
X67069260Y-96326319D01*
X66646223Y-96749356D01*
X66723103Y-96605522D01*
X66788461Y-96390066D01*
X66805000Y-96222145D01*
X66805000Y-95601854D01*
X66788461Y-95433933D01*
X66723103Y-95218477D01*
X66616968Y-95019911D01*
X66474133Y-94845867D01*
X66300088Y-94703032D01*
X66170000Y-94633499D01*
X66170000Y-94386943D01*
X66172457Y-94361999D01*
X66170000Y-94337053D01*
X66162649Y-94262415D01*
X66133601Y-94166657D01*
X66133600Y-94166655D01*
X66086429Y-94078404D01*
X66038850Y-94020429D01*
X66022948Y-94001052D01*
X66003570Y-93985149D01*
X65368845Y-93350425D01*
X65352938Y-93331042D01*
X65275585Y-93267561D01*
X65187333Y-93220389D01*
X65091575Y-93191341D01*
X65016937Y-93183990D01*
X65016934Y-93183990D01*
X64991990Y-93181533D01*
X64967046Y-93183990D01*
X64579985Y-93183990D01*
X64608089Y-93168968D01*
X64782133Y-93026133D01*
X64924968Y-92852089D01*
X65031103Y-92653522D01*
X65096461Y-92438066D01*
X65113000Y-92270145D01*
X65113000Y-91649854D01*
X65096461Y-91481933D01*
X65031103Y-91266477D01*
X64933865Y-91084555D01*
X65291998Y-90726422D01*
X65917953Y-90726422D01*
X65871911Y-90751032D01*
X65697867Y-90893867D01*
X65555032Y-91067912D01*
X65448897Y-91266478D01*
X65383539Y-91481934D01*
X65367000Y-91649855D01*
X65367000Y-92270146D01*
X65383539Y-92438067D01*
X65448897Y-92653523D01*
X65555033Y-92852089D01*
X65697868Y-93026133D01*
X65871912Y-93168968D01*
X66070478Y-93275103D01*
X66285934Y-93340461D01*
X66510000Y-93362530D01*
X66734067Y-93340461D01*
X66949523Y-93275103D01*
X67148089Y-93168968D01*
X67322133Y-93026133D01*
X67464968Y-92852089D01*
X67571103Y-92653522D01*
X67627381Y-92468000D01*
X68549580Y-92468000D01*
X70234001Y-94152422D01*
X70234001Y-94633498D01*
X70103911Y-94703032D01*
X69929867Y-94845867D01*
X69787032Y-95019912D01*
X69680897Y-95218478D01*
X69615539Y-95433934D01*
X69599000Y-95601855D01*
X69599000Y-96222146D01*
X69615539Y-96390067D01*
X69680897Y-96605523D01*
X69787033Y-96804089D01*
X69929868Y-96978133D01*
X70103912Y-97120968D01*
X70259989Y-97204392D01*
X70270400Y-97238713D01*
X70317571Y-97326965D01*
X70365150Y-97384940D01*
X70381053Y-97404318D01*
X70400430Y-97420220D01*
X73207721Y-100227511D01*
X73183733Y-100232283D01*
X73045058Y-100289724D01*
X72920253Y-100373116D01*
X72814116Y-100479253D01*
X72730724Y-100604058D01*
X72673283Y-100742733D01*
X72644000Y-100889950D01*
X72644000Y-101040050D01*
X72673283Y-101187267D01*
X72730724Y-101325942D01*
X72814116Y-101450747D01*
X72898000Y-101534631D01*
X72898001Y-104521446D01*
X72895543Y-104546400D01*
X72901929Y-104611229D01*
X72905352Y-104645985D01*
X72921863Y-104700415D01*
X72934400Y-104741743D01*
X72981571Y-104829995D01*
X73029150Y-104887970D01*
X73045053Y-104907348D01*
X73064430Y-104923250D01*
X73304400Y-105163221D01*
X73304400Y-106253107D01*
X73158088Y-106133032D01*
X72959522Y-106026897D01*
X72744066Y-105961539D01*
X72520000Y-105939470D01*
X72295933Y-105961539D01*
X72080477Y-106026897D01*
X71881911Y-106133032D01*
X71757991Y-106234731D01*
X71757991Y-100291640D01*
X71841875Y-100207756D01*
X71925267Y-100082951D01*
X71982708Y-99944276D01*
X72011991Y-99797059D01*
X72011991Y-99646959D01*
X71982708Y-99499742D01*
X71925267Y-99361067D01*
X71841875Y-99236262D01*
X71735738Y-99130125D01*
X71610933Y-99046733D01*
X71472258Y-98989292D01*
X71325041Y-98960009D01*
X71174941Y-98960009D01*
X71027724Y-98989292D01*
X70889049Y-99046733D01*
X70764244Y-99130125D01*
X70658107Y-99236262D01*
X70574715Y-99361067D01*
X70517274Y-99499742D01*
X70487991Y-99646959D01*
X70487991Y-99797059D01*
X70517274Y-99944276D01*
X70574715Y-100082951D01*
X70658107Y-100207756D01*
X70741991Y-100291640D01*
X70741992Y-106234717D01*
X70618088Y-106133032D01*
X70419522Y-106026897D01*
X70204066Y-105961539D01*
X69980000Y-105939470D01*
X69755933Y-105961539D01*
X69540477Y-106026897D01*
X69341911Y-106133032D01*
X69167867Y-106275867D01*
X69025032Y-106449912D01*
X68918897Y-106648478D01*
X68853539Y-106863934D01*
X68837107Y-107030767D01*
X68840072Y-106326000D01*
X68827812Y-106201518D01*
X68791502Y-106081820D01*
X68732537Y-105971506D01*
X68653185Y-105874815D01*
X68556494Y-105795463D01*
X68446180Y-105736498D01*
X68326482Y-105700188D01*
X68202000Y-105687928D01*
X67725750Y-105691000D01*
X67567000Y-105849750D01*
X67567000Y-107215000D01*
X68678250Y-107215000D01*
X68837000Y-107056250D01*
X68837000Y-107627750D01*
X68678250Y-107469000D01*
X67567000Y-107469000D01*
X67567000Y-108834250D01*
X67725750Y-108993000D01*
X68202000Y-108996072D01*
X68326482Y-108983812D01*
X68446180Y-108947502D01*
X68556494Y-108888537D01*
X68653185Y-108809185D01*
X68732537Y-108712494D01*
X68791502Y-108602180D01*
X68827812Y-108482482D01*
X68840072Y-108358000D01*
X68837107Y-107653234D01*
X68853539Y-107820067D01*
X68918897Y-108035523D01*
X69025033Y-108234089D01*
X69167868Y-108408133D01*
X69341912Y-108550968D01*
X69540478Y-108657103D01*
X69755934Y-108722461D01*
X69980000Y-108744530D01*
X70204067Y-108722461D01*
X70419523Y-108657103D01*
X70618089Y-108550968D01*
X70741992Y-108449283D01*
X70741992Y-109302217D01*
X70400434Y-109643775D01*
X70381052Y-109659682D01*
X70317571Y-109737035D01*
X70270399Y-109825288D01*
X70259988Y-109859608D01*
X70103911Y-109943032D01*
X69929867Y-110085867D01*
X69787032Y-110259912D01*
X69680897Y-110458478D01*
X69615539Y-110673934D01*
X69599000Y-110841855D01*
X69599000Y-111462146D01*
X69615539Y-111630067D01*
X69680897Y-111845523D01*
X69787033Y-112044089D01*
X69929868Y-112218133D01*
X70103912Y-112360968D01*
X70215102Y-112420400D01*
X68728899Y-112420400D01*
X68840089Y-112360968D01*
X69014133Y-112218133D01*
X69156968Y-112044089D01*
X69263103Y-111845522D01*
X69328461Y-111630066D01*
X69345000Y-111462145D01*
X69345000Y-110841854D01*
X69328461Y-110673933D01*
X69263103Y-110458477D01*
X69156968Y-110259911D01*
X69014133Y-110085867D01*
X68840088Y-109943032D01*
X68641522Y-109836897D01*
X68426066Y-109771539D01*
X68202000Y-109749470D01*
X67977933Y-109771539D01*
X67762477Y-109836897D01*
X67563911Y-109943032D01*
X67389867Y-110085867D01*
X67247032Y-110259912D01*
X67140897Y-110458478D01*
X67075539Y-110673934D01*
X67059000Y-110841855D01*
X67059000Y-111462146D01*
X67075539Y-111630067D01*
X67140897Y-111845523D01*
X67247033Y-112044089D01*
X67389868Y-112218133D01*
X67563912Y-112360968D01*
X67675102Y-112420400D01*
X66378820Y-112420400D01*
X66310689Y-112352269D01*
X66474133Y-112218133D01*
X66616968Y-112044089D01*
X66723103Y-111845522D01*
X66788461Y-111630066D01*
X66805000Y-111462145D01*
X66805000Y-110841854D01*
X66788461Y-110673933D01*
X66723103Y-110458477D01*
X66616968Y-110259911D01*
X66474133Y-110085867D01*
X66300088Y-109943032D01*
X66101522Y-109836897D01*
X65886066Y-109771539D01*
X65662000Y-109749470D01*
X65437933Y-109771539D01*
X65222477Y-109836897D01*
X65023911Y-109943032D01*
X64897000Y-110047186D01*
X64897000Y-108358000D01*
X66039928Y-108358000D01*
X66052188Y-108482482D01*
X66088498Y-108602180D01*
X66147463Y-108712494D01*
X66226815Y-108809185D01*
X66323506Y-108888537D01*
X66433820Y-108947502D01*
X66553518Y-108983812D01*
X66678000Y-108996072D01*
X67154250Y-108993000D01*
X67313000Y-108834250D01*
X67313000Y-107469000D01*
X66201750Y-107469000D01*
X66043000Y-107627750D01*
X66039928Y-108358000D01*
X64897000Y-108358000D01*
X64897000Y-106326000D01*
X66039928Y-106326000D01*
X66043000Y-107056250D01*
X66201750Y-107215000D01*
X67313000Y-107215000D01*
X67313000Y-105849750D01*
X67154250Y-105691000D01*
X66678000Y-105687928D01*
X66553518Y-105700188D01*
X66433820Y-105736498D01*
X66323506Y-105795463D01*
X66226815Y-105874815D01*
X66147463Y-105971506D01*
X66088498Y-106081820D01*
X66052188Y-106201518D01*
X66039928Y-106326000D01*
X64897000Y-106326000D01*
X64897000Y-102321420D01*
X67956421Y-99262000D01*
X68075050Y-99262000D01*
X68222267Y-99232717D01*
X68360942Y-99175276D01*
X68485747Y-99091884D01*
X68591884Y-98985747D01*
X68675276Y-98860942D01*
X68732717Y-98722267D01*
X68762000Y-98575050D01*
X68762000Y-98424950D01*
X68732717Y-98277733D01*
X68675276Y-98139058D01*
X68591884Y-98014253D01*
X68485747Y-97908116D01*
X68360942Y-97824724D01*
X68222267Y-97767283D01*
X68075050Y-97738000D01*
X67924950Y-97738000D01*
X67777733Y-97767283D01*
X67639058Y-97824724D01*
X67514253Y-97908116D01*
X67408116Y-98014253D01*
X67324724Y-98139058D01*
X67267283Y-98277733D01*
X67238000Y-98424950D01*
X67238000Y-98543579D01*
X64047430Y-101734150D01*
X64028053Y-101750052D01*
X64012151Y-101769429D01*
X64012150Y-101769430D01*
X63964571Y-101827405D01*
X63917400Y-101915657D01*
X63888352Y-102011416D01*
X63878543Y-102111000D01*
X63881001Y-102135954D01*
X63881000Y-110042262D01*
X63760088Y-109943032D01*
X63561522Y-109836897D01*
X63346066Y-109771539D01*
X63122000Y-109749470D01*
X62897933Y-109771539D01*
X62682477Y-109836897D01*
X62483911Y-109943032D01*
X62309867Y-110085867D01*
X62167032Y-110259912D01*
X62060897Y-110458478D01*
X61995539Y-110673934D01*
X61979000Y-110841855D01*
X61979000Y-111462146D01*
X61995539Y-111630067D01*
X62060897Y-111845523D01*
X62167033Y-112044089D01*
X62309868Y-112218133D01*
X62483912Y-112360968D01*
X62682478Y-112467103D01*
X62897934Y-112532461D01*
X63122000Y-112554530D01*
X63346067Y-112532461D01*
X63561523Y-112467103D01*
X63760089Y-112360968D01*
X63881000Y-112261738D01*
X63881000Y-113376579D01*
X63312414Y-113945166D01*
X63181515Y-113905458D01*
X62945000Y-113882163D01*
X62708486Y-113905458D01*
X62481060Y-113974447D01*
X62271463Y-114086479D01*
X62087749Y-114237248D01*
X61936980Y-114420962D01*
X61824947Y-114630559D01*
X61755958Y-114857985D01*
X61738500Y-115035237D01*
X61738500Y-115534762D01*
X61755958Y-115712014D01*
X61824947Y-115939440D01*
X61936979Y-116149037D01*
X62087748Y-116332752D01*
X62271462Y-116483521D01*
X62481059Y-116595553D01*
X62708485Y-116664542D01*
X62945000Y-116687837D01*
X63181514Y-116664542D01*
X63408940Y-116595553D01*
X63618537Y-116483521D01*
X63802252Y-116332752D01*
X63953021Y-116149038D01*
X64065053Y-115939441D01*
X64134042Y-115712015D01*
X64151500Y-115534763D01*
X64151500Y-115035238D01*
X64151500Y-115035237D01*
X64238500Y-115035237D01*
X64238500Y-115534762D01*
X64255958Y-115712014D01*
X64324947Y-115939440D01*
X64436979Y-116149037D01*
X64587748Y-116332752D01*
X64771462Y-116483521D01*
X64981059Y-116595553D01*
X65208485Y-116664542D01*
X65445000Y-116687837D01*
X65681514Y-116664542D01*
X65908940Y-116595553D01*
X66118537Y-116483521D01*
X66302252Y-116332752D01*
X66453021Y-116149038D01*
X66565053Y-115939441D01*
X66634042Y-115712015D01*
X66651500Y-115534763D01*
X66651500Y-115035238D01*
X66651500Y-115035237D01*
X66738500Y-115035237D01*
X66738500Y-115534762D01*
X66755958Y-115712014D01*
X66824947Y-115939440D01*
X66936979Y-116149037D01*
X67087748Y-116332752D01*
X67271462Y-116483521D01*
X67481059Y-116595553D01*
X67708485Y-116664542D01*
X67945000Y-116687837D01*
X68181514Y-116664542D01*
X68408940Y-116595553D01*
X68618537Y-116483521D01*
X68802252Y-116332752D01*
X68953021Y-116149038D01*
X69065053Y-115939441D01*
X69134042Y-115712015D01*
X69151500Y-115534763D01*
X69151500Y-115035238D01*
X69134042Y-114857986D01*
X69065053Y-114630560D01*
X68953021Y-114420962D01*
X68802252Y-114237248D01*
X68618538Y-114086479D01*
X68408941Y-113974447D01*
X68181515Y-113905458D01*
X67945000Y-113882163D01*
X67708486Y-113905458D01*
X67481060Y-113974447D01*
X67271463Y-114086479D01*
X67087749Y-114237248D01*
X66936980Y-114420962D01*
X66824947Y-114630559D01*
X66755958Y-114857985D01*
X66738500Y-115035237D01*
X66651500Y-115035237D01*
X66634042Y-114857986D01*
X66565053Y-114630560D01*
X66453021Y-114420962D01*
X66302252Y-114237248D01*
X66118538Y-114086479D01*
X65908941Y-113974447D01*
X65681515Y-113905458D01*
X65445000Y-113882163D01*
X65208486Y-113905458D01*
X64981060Y-113974447D01*
X64771463Y-114086479D01*
X64587749Y-114237248D01*
X64436980Y-114420962D01*
X64324947Y-114630559D01*
X64255958Y-114857985D01*
X64238500Y-115035237D01*
X64151500Y-115035237D01*
X64134042Y-114857986D01*
X64065053Y-114630560D01*
X64064638Y-114629783D01*
X64730571Y-113963850D01*
X64749948Y-113947948D01*
X64775217Y-113917157D01*
X64813429Y-113870596D01*
X64860600Y-113782345D01*
X64867969Y-113758053D01*
X64889649Y-113686585D01*
X64897000Y-113611947D01*
X64897000Y-113611945D01*
X64899457Y-113587001D01*
X64897000Y-113562057D01*
X64897000Y-112256813D01*
X65023912Y-112360968D01*
X65152290Y-112429587D01*
X65154971Y-112456799D01*
X65161352Y-112521585D01*
X65190400Y-112617343D01*
X65237571Y-112705595D01*
X65285150Y-112763570D01*
X65301053Y-112782948D01*
X65320430Y-112798850D01*
X65791545Y-113269965D01*
X65807452Y-113289348D01*
X65884805Y-113352829D01*
X65973057Y-113400001D01*
X66068815Y-113429049D01*
X66143453Y-113436400D01*
X66143456Y-113436400D01*
X66168400Y-113438857D01*
X66193344Y-113436400D01*
X71321180Y-113436400D01*
X70812414Y-113945166D01*
X70681515Y-113905458D01*
X70445000Y-113882163D01*
X70208486Y-113905458D01*
X69981060Y-113974447D01*
X69771463Y-114086479D01*
X69587749Y-114237248D01*
X69436980Y-114420962D01*
X69324947Y-114630559D01*
X69255958Y-114857985D01*
X69238500Y-115035237D01*
X69238500Y-115534762D01*
X69255958Y-115712014D01*
X69324947Y-115939440D01*
X69436979Y-116149037D01*
X69587748Y-116332752D01*
X69771462Y-116483521D01*
X69981059Y-116595553D01*
X70208485Y-116664542D01*
X70445000Y-116687837D01*
X70681514Y-116664542D01*
X70908940Y-116595553D01*
X71118537Y-116483521D01*
X71302252Y-116332752D01*
X71453021Y-116149038D01*
X71565053Y-115939441D01*
X71634042Y-115712015D01*
X71651500Y-115534763D01*
X71651500Y-115035238D01*
X71634042Y-114857986D01*
X71565053Y-114630560D01*
X71564637Y-114629783D01*
X72148420Y-114046000D01*
X72347194Y-114046000D01*
X72271463Y-114086479D01*
X72087749Y-114237248D01*
X71936980Y-114420962D01*
X71824947Y-114630559D01*
X71755958Y-114857985D01*
X71738500Y-115035237D01*
X71738500Y-115534762D01*
X71755958Y-115712014D01*
X71824947Y-115939440D01*
X71936979Y-116149037D01*
X72087748Y-116332752D01*
X72271462Y-116483521D01*
X72481059Y-116595553D01*
X72708485Y-116664542D01*
X72945000Y-116687837D01*
X73181514Y-116664542D01*
X73408940Y-116595553D01*
X73618537Y-116483521D01*
X73802252Y-116332752D01*
X73953021Y-116149038D01*
X73982298Y-116094265D01*
X73981428Y-116301000D01*
X73993688Y-116425482D01*
X74029998Y-116545180D01*
X74088963Y-116655494D01*
X74168315Y-116752185D01*
X74265006Y-116831537D01*
X74375320Y-116890502D01*
X74495018Y-116926812D01*
X74619500Y-116939072D01*
X75159250Y-116936000D01*
X75318000Y-116777250D01*
X75318000Y-115412000D01*
X75572000Y-115412000D01*
X75572000Y-116777250D01*
X75730750Y-116936000D01*
X76270500Y-116939072D01*
X76394982Y-116926812D01*
X76514680Y-116890502D01*
X76624994Y-116831537D01*
X76721685Y-116752185D01*
X76801037Y-116655494D01*
X76860002Y-116545180D01*
X76896312Y-116425482D01*
X76908572Y-116301000D01*
X76905500Y-115570750D01*
X76746750Y-115412000D01*
X75572000Y-115412000D01*
X75318000Y-115412000D01*
X75298000Y-115412000D01*
X75298000Y-115158000D01*
X75318000Y-115158000D01*
X75318000Y-115138000D01*
X75572000Y-115138000D01*
X75572000Y-115158000D01*
X76746750Y-115158000D01*
X76905500Y-114999250D01*
X76908572Y-114269000D01*
X76896312Y-114144518D01*
X76866427Y-114046000D01*
X78435656Y-114046000D01*
X78460600Y-114048457D01*
X78485544Y-114046000D01*
X78485547Y-114046000D01*
X78560185Y-114038649D01*
X78655943Y-114009601D01*
X78744195Y-113962429D01*
X78821548Y-113898948D01*
X78837455Y-113879565D01*
X79970571Y-112746450D01*
X79989948Y-112730548D01*
X80049853Y-112657553D01*
X80053429Y-112653196D01*
X80088902Y-112586830D01*
X80100601Y-112564943D01*
X80129649Y-112469185D01*
X80137000Y-112394547D01*
X80137000Y-112394545D01*
X80139457Y-112369601D01*
X80137000Y-112344657D01*
X80137000Y-112256813D01*
X80263912Y-112360968D01*
X80394001Y-112430501D01*
X80394000Y-114721579D01*
X78148580Y-116967000D01*
X61575421Y-116967000D01*
X61101205Y-116492785D01*
X61118537Y-116483521D01*
X61302252Y-116332752D01*
X61453021Y-116149038D01*
X61565053Y-115939441D01*
X61634042Y-115712015D01*
X61651500Y-115534763D01*
X61651500Y-115035238D01*
X61634042Y-114857986D01*
X61565053Y-114630560D01*
X61453021Y-114420962D01*
X61302252Y-114237248D01*
X61118538Y-114086479D01*
X60908941Y-113974447D01*
X60681515Y-113905458D01*
X60445000Y-113882163D01*
X60208486Y-113905458D01*
X59981060Y-113974447D01*
X59771463Y-114086479D01*
X59587749Y-114237248D01*
X59525000Y-114313708D01*
X59525000Y-114197420D01*
X60923571Y-112798850D01*
X60942948Y-112782948D01*
X60961624Y-112760190D01*
X61006429Y-112705596D01*
X61053600Y-112617345D01*
X61053601Y-112617343D01*
X61082649Y-112521585D01*
X61090000Y-112446947D01*
X61090000Y-112446945D01*
X61091710Y-112429588D01*
X61220089Y-112360968D01*
X61394133Y-112218133D01*
X61536968Y-112044089D01*
X61643103Y-111845522D01*
X61708461Y-111630066D01*
X61725000Y-111462145D01*
X61725000Y-110841854D01*
X61708461Y-110673933D01*
X61643103Y-110458477D01*
X61536968Y-110259911D01*
X61394133Y-110085867D01*
X61220088Y-109943032D01*
X61021522Y-109836897D01*
X60806066Y-109771539D01*
X60582000Y-109749470D01*
X60357933Y-109771539D01*
X60142477Y-109836897D01*
X59943911Y-109943032D01*
X59769867Y-110085867D01*
X59627032Y-110259912D01*
X59520897Y-110458478D01*
X59455539Y-110673934D01*
X59439000Y-110841855D01*
X59439000Y-111462146D01*
X59455539Y-111630067D01*
X59520897Y-111845523D01*
X59627033Y-112044089D01*
X59769868Y-112218133D01*
X59933311Y-112352268D01*
X58675435Y-113610145D01*
X58656052Y-113626052D01*
X58592571Y-113703405D01*
X58545399Y-113791658D01*
X58516351Y-113887416D01*
X58509000Y-113962053D01*
X58506543Y-113987000D01*
X58509000Y-114011944D01*
X58509001Y-116904046D01*
X58506543Y-116929000D01*
X58515474Y-117019674D01*
X58516352Y-117028585D01*
X58524562Y-117055649D01*
X58545400Y-117124343D01*
X58592571Y-117212595D01*
X58640150Y-117270570D01*
X58656053Y-117289948D01*
X58675430Y-117305850D01*
X60411395Y-119041815D01*
X60427302Y-119061198D01*
X60504655Y-119124679D01*
X60592907Y-119171851D01*
X60688665Y-119200899D01*
X60763303Y-119208250D01*
X60763306Y-119208250D01*
X60788250Y-119210707D01*
X60813194Y-119208250D01*
X90608306Y-119208250D01*
X90633250Y-119210707D01*
X90658194Y-119208250D01*
X90658197Y-119208250D01*
X90732835Y-119200899D01*
X90828593Y-119171851D01*
X90916845Y-119124679D01*
X90994198Y-119061198D01*
X91010105Y-119041815D01*
X92091571Y-117960350D01*
X92110948Y-117944448D01*
X92155718Y-117889895D01*
X92174429Y-117867096D01*
X92203588Y-117812543D01*
X92221601Y-117778843D01*
X92250649Y-117683085D01*
X92258000Y-117608447D01*
X92258000Y-117608444D01*
X92260457Y-117583500D01*
X92258000Y-117558556D01*
X92258000Y-117528501D01*
X92388088Y-117458968D01*
X92562133Y-117316133D01*
X92704968Y-117142089D01*
X92811103Y-116943523D01*
X92873448Y-116737998D01*
X92904619Y-116901101D01*
X93007941Y-117155942D01*
X93158994Y-117385729D01*
X93351974Y-117581632D01*
X93579465Y-117736122D01*
X93832724Y-117843262D01*
X93906930Y-117858220D01*
X94123000Y-117735720D01*
X94123000Y-116377000D01*
X94103000Y-116377000D01*
X94103000Y-116123000D01*
X94123000Y-116123000D01*
X94123000Y-114764280D01*
X94377000Y-114764280D01*
X94377000Y-116123000D01*
X94397000Y-116123000D01*
X94397000Y-116377000D01*
X94377000Y-116377000D01*
X94377000Y-117735720D01*
X94593070Y-117858220D01*
X94667276Y-117843262D01*
X94920535Y-117736122D01*
X95148026Y-117581632D01*
X95341006Y-117385729D01*
X95492059Y-117155942D01*
X95595381Y-116901101D01*
X95605157Y-116849947D01*
X95605157Y-117266000D01*
X95612513Y-117340689D01*
X95634299Y-117412508D01*
X95669678Y-117478696D01*
X95717289Y-117536711D01*
X95775304Y-117584322D01*
X95841492Y-117619701D01*
X95913311Y-117641487D01*
X95988000Y-117648843D01*
X97512000Y-117648843D01*
X97586689Y-117641487D01*
X97658508Y-117619701D01*
X97724696Y-117584322D01*
X97782711Y-117536711D01*
X97830322Y-117478696D01*
X97865701Y-117412508D01*
X97887487Y-117340689D01*
X97894843Y-117266000D01*
X97894843Y-115234000D01*
X97887487Y-115159311D01*
X97865701Y-115087492D01*
X97830322Y-115021304D01*
X97782711Y-114963289D01*
X97724696Y-114915678D01*
X97658508Y-114880299D01*
X97586689Y-114858513D01*
X97512000Y-114851157D01*
X95988000Y-114851157D01*
X95913311Y-114858513D01*
X95841492Y-114880299D01*
X95775304Y-114915678D01*
X95717289Y-114963289D01*
X95669678Y-115021304D01*
X95634299Y-115087492D01*
X95612513Y-115159311D01*
X95605157Y-115234000D01*
X95605157Y-115650053D01*
X95595381Y-115598899D01*
X95492059Y-115344058D01*
X95341006Y-115114271D01*
X95148026Y-114918368D01*
X94920535Y-114763878D01*
X94667276Y-114656738D01*
X94593070Y-114641780D01*
X94377000Y-114764280D01*
X94123000Y-114764280D01*
X93906930Y-114641780D01*
X93832724Y-114656738D01*
X93579465Y-114763878D01*
X93351974Y-114918368D01*
X93158994Y-115114271D01*
X93007941Y-115344058D01*
X92904619Y-115598899D01*
X92873448Y-115762002D01*
X92811103Y-115556478D01*
X92704968Y-115357911D01*
X92562133Y-115183867D01*
X92388089Y-115041032D01*
X92189523Y-114934897D01*
X91974067Y-114869539D01*
X91750000Y-114847470D01*
X91525934Y-114869539D01*
X91310478Y-114934897D01*
X91111912Y-115041032D01*
X90937868Y-115183867D01*
X90795033Y-115357911D01*
X90688897Y-115556477D01*
X90623539Y-115771933D01*
X90607000Y-115939854D01*
X90607000Y-116560145D01*
X90623539Y-116728066D01*
X90688897Y-116943522D01*
X90795032Y-117142088D01*
X90937867Y-117316133D01*
X91111911Y-117458968D01*
X91140715Y-117474364D01*
X90422830Y-118192250D01*
X89359671Y-118192250D01*
X89591570Y-117960351D01*
X89610948Y-117944448D01*
X89655718Y-117889895D01*
X89674429Y-117867096D01*
X89721600Y-117778845D01*
X89727743Y-117758594D01*
X89750649Y-117683085D01*
X89758000Y-117608447D01*
X89758000Y-117608445D01*
X89760457Y-117583501D01*
X89758000Y-117558557D01*
X89758000Y-117528501D01*
X89888088Y-117458968D01*
X90062133Y-117316133D01*
X90204968Y-117142089D01*
X90311103Y-116943523D01*
X90376461Y-116728067D01*
X90393000Y-116560146D01*
X90393000Y-115939855D01*
X90376461Y-115771934D01*
X90311103Y-115556478D01*
X90204968Y-115357911D01*
X90062133Y-115183867D01*
X89888089Y-115041032D01*
X89689523Y-114934897D01*
X89474067Y-114869539D01*
X89250000Y-114847470D01*
X89025934Y-114869539D01*
X88810478Y-114934897D01*
X88611912Y-115041032D01*
X88437868Y-115183867D01*
X88295033Y-115357911D01*
X88188897Y-115556477D01*
X88123539Y-115771933D01*
X88107000Y-115939854D01*
X88107000Y-116560145D01*
X88123539Y-116728066D01*
X88188897Y-116943522D01*
X88295032Y-117142088D01*
X88437867Y-117316133D01*
X88611911Y-117458968D01*
X88640715Y-117474364D01*
X88449589Y-117665491D01*
X85998930Y-117665491D01*
X85220000Y-116886562D01*
X85220000Y-112259275D01*
X85343912Y-112360968D01*
X85542478Y-112467103D01*
X85757934Y-112532461D01*
X85982000Y-112554530D01*
X86206067Y-112532461D01*
X86421523Y-112467103D01*
X86620089Y-112360968D01*
X86794133Y-112218133D01*
X86936968Y-112044089D01*
X87006500Y-111914002D01*
X87006500Y-112808079D01*
X86408430Y-113406150D01*
X86389053Y-113422052D01*
X86373151Y-113441429D01*
X86373150Y-113441430D01*
X86325571Y-113499405D01*
X86304942Y-113538000D01*
X86278400Y-113587657D01*
X86250541Y-113679498D01*
X86249352Y-113683416D01*
X86239543Y-113783000D01*
X86242001Y-113807954D01*
X86242001Y-114971499D01*
X86111912Y-115041032D01*
X85937868Y-115183867D01*
X85795033Y-115357911D01*
X85688897Y-115556477D01*
X85623539Y-115771933D01*
X85607000Y-115939854D01*
X85607000Y-116560145D01*
X85623539Y-116728066D01*
X85688897Y-116943522D01*
X85795032Y-117142088D01*
X85937867Y-117316133D01*
X86111911Y-117458968D01*
X86310477Y-117565103D01*
X86525933Y-117630461D01*
X86750000Y-117652530D01*
X86974066Y-117630461D01*
X87189522Y-117565103D01*
X87388088Y-117458968D01*
X87562133Y-117316133D01*
X87704968Y-117142089D01*
X87811103Y-116943523D01*
X87876461Y-116728067D01*
X87893000Y-116560146D01*
X87893000Y-115939855D01*
X87876461Y-115771934D01*
X87811103Y-115556478D01*
X87704968Y-115357911D01*
X87562133Y-115183867D01*
X87388089Y-115041032D01*
X87258000Y-114971498D01*
X87258000Y-113993420D01*
X87856070Y-113395350D01*
X87875448Y-113379448D01*
X87931294Y-113311399D01*
X87938929Y-113302096D01*
X87986100Y-113213845D01*
X87986101Y-113213842D01*
X88015149Y-113118085D01*
X88022500Y-113043447D01*
X88022500Y-113043445D01*
X88024957Y-113018501D01*
X88022500Y-112993557D01*
X88022500Y-111124420D01*
X88289645Y-111391565D01*
X88305552Y-111410948D01*
X88382905Y-111474429D01*
X88471157Y-111521601D01*
X88566915Y-111550649D01*
X88641553Y-111558000D01*
X88641556Y-111558000D01*
X88666500Y-111560457D01*
X88691444Y-111558000D01*
X88721498Y-111558000D01*
X88791032Y-111688089D01*
X88933867Y-111862133D01*
X89107911Y-112004968D01*
X89306477Y-112111103D01*
X89521933Y-112176461D01*
X89689854Y-112193000D01*
X90310146Y-112193000D01*
X90478067Y-112176461D01*
X90693523Y-112111103D01*
X90892089Y-112004968D01*
X91066133Y-111862133D01*
X91208968Y-111688089D01*
X91315103Y-111489523D01*
X91380461Y-111274067D01*
X91402530Y-111050000D01*
X91380461Y-110825933D01*
X91315103Y-110610477D01*
X91208968Y-110411911D01*
X91066133Y-110237867D01*
X90892089Y-110095032D01*
X90693523Y-109988897D01*
X90478067Y-109923539D01*
X90310146Y-109907000D01*
X89689854Y-109907000D01*
X89521933Y-109923539D01*
X89306477Y-109988897D01*
X89107911Y-110095032D01*
X88933867Y-110237867D01*
X88791032Y-110411911D01*
X88775636Y-110440716D01*
X88757250Y-110422330D01*
X88757250Y-109124887D01*
X88791032Y-109188089D01*
X88933867Y-109362133D01*
X89107911Y-109504968D01*
X89306477Y-109611103D01*
X89521933Y-109676461D01*
X89689854Y-109693000D01*
X90310146Y-109693000D01*
X90478067Y-109676461D01*
X90693523Y-109611103D01*
X90892089Y-109504968D01*
X91066133Y-109362133D01*
X91208968Y-109188089D01*
X91315103Y-108989523D01*
X91380461Y-108774067D01*
X91402530Y-108550000D01*
X91380461Y-108325933D01*
X91315103Y-108110477D01*
X91208968Y-107911911D01*
X91066133Y-107737867D01*
X90892089Y-107595032D01*
X90693523Y-107488897D01*
X90478067Y-107423539D01*
X90310146Y-107407000D01*
X89689854Y-107407000D01*
X89521933Y-107423539D01*
X89306477Y-107488897D01*
X89107911Y-107595032D01*
X88933867Y-107737867D01*
X88791032Y-107911911D01*
X88757250Y-107975113D01*
X88757250Y-106624887D01*
X88791032Y-106688089D01*
X88933867Y-106862133D01*
X89107911Y-107004968D01*
X89306477Y-107111103D01*
X89521933Y-107176461D01*
X89689854Y-107193000D01*
X90310146Y-107193000D01*
X90478067Y-107176461D01*
X90693523Y-107111103D01*
X90892089Y-107004968D01*
X91066133Y-106862133D01*
X91208968Y-106688089D01*
X91315103Y-106489523D01*
X91380461Y-106274067D01*
X91402530Y-106050000D01*
X91380461Y-105825933D01*
X91315103Y-105610477D01*
X91208968Y-105411911D01*
X91066133Y-105237867D01*
X90892089Y-105095032D01*
X90693523Y-104988897D01*
X90559200Y-104948150D01*
X91016000Y-104950072D01*
X91140482Y-104937812D01*
X91260180Y-104901502D01*
X91370494Y-104842537D01*
X91467185Y-104763185D01*
X91546537Y-104666494D01*
X91605502Y-104556180D01*
X91641812Y-104436482D01*
X91654072Y-104312000D01*
X91651000Y-103835750D01*
X91492250Y-103677000D01*
X90127000Y-103677000D01*
X90127000Y-103697000D01*
X89873000Y-103697000D01*
X89873000Y-103677000D01*
X88507750Y-103677000D01*
X88349000Y-103835750D01*
X88348927Y-103847006D01*
X87692355Y-103190435D01*
X87676448Y-103171052D01*
X87599095Y-103107571D01*
X87510843Y-103060399D01*
X87415085Y-103031351D01*
X87340447Y-103024000D01*
X87340444Y-103024000D01*
X87315500Y-103021543D01*
X87290556Y-103024000D01*
X87260502Y-103024000D01*
X87190968Y-102893911D01*
X87079428Y-102758000D01*
X88348883Y-102758000D01*
X88345928Y-102788000D01*
X88349000Y-103264250D01*
X88507750Y-103423000D01*
X89873000Y-103423000D01*
X89873000Y-103403000D01*
X90127000Y-103403000D01*
X90127000Y-103423000D01*
X91492250Y-103423000D01*
X91651000Y-103264250D01*
X91654072Y-102788000D01*
X91651117Y-102758000D01*
X92225056Y-102758000D01*
X92250000Y-102760457D01*
X92274944Y-102758000D01*
X92274947Y-102758000D01*
X92349585Y-102750649D01*
X92445343Y-102721601D01*
X92533595Y-102674429D01*
X92610948Y-102610948D01*
X92626855Y-102591565D01*
X98149586Y-97068835D01*
X98168958Y-97052937D01*
X98184856Y-97033565D01*
X98184860Y-97033561D01*
X98232439Y-96975586D01*
X98279610Y-96887334D01*
X98300660Y-96817942D01*
X98308659Y-96791574D01*
X98316010Y-96716936D01*
X98316010Y-96716935D01*
X98318467Y-96691991D01*
X98316010Y-96667046D01*
X98316008Y-89714529D01*
X98318466Y-89689575D01*
X98308657Y-89589990D01*
X98279609Y-89494231D01*
X98232438Y-89405980D01*
X98184859Y-89348005D01*
X98184858Y-89348004D01*
X98168956Y-89328627D01*
X98149579Y-89312725D01*
X97246496Y-88409642D01*
X97230589Y-88390259D01*
X97153236Y-88326778D01*
X97064984Y-88279606D01*
X96969226Y-88250558D01*
X96894588Y-88243207D01*
X96894585Y-88243207D01*
X96869641Y-88240750D01*
X96844697Y-88243207D01*
X95761627Y-88243207D01*
X94389400Y-86870980D01*
X94389400Y-70291745D01*
X94510810Y-70254916D01*
X94614659Y-70199407D01*
X94658963Y-70282294D01*
X94738315Y-70378985D01*
X94835006Y-70458337D01*
X94945320Y-70517302D01*
X95065018Y-70553612D01*
X95189500Y-70565872D01*
X95602250Y-70562800D01*
X95761000Y-70404050D01*
X95761000Y-69165800D01*
X96015000Y-69165800D01*
X96015000Y-70404050D01*
X96173750Y-70562800D01*
X96586500Y-70565872D01*
X96710982Y-70553612D01*
X96830680Y-70517302D01*
X96940994Y-70458337D01*
X97037685Y-70378985D01*
X97117037Y-70282294D01*
X97176002Y-70171980D01*
X97212312Y-70052282D01*
X97224572Y-69927800D01*
X97221500Y-69324550D01*
X97062750Y-69165800D01*
X96015000Y-69165800D01*
X95761000Y-69165800D01*
X95741000Y-69165800D01*
X95741000Y-68911800D01*
X95761000Y-68911800D01*
X95761000Y-67673550D01*
X96015000Y-67673550D01*
X96015000Y-68911800D01*
X97062750Y-68911800D01*
X97221500Y-68753050D01*
X97224572Y-68149800D01*
X97212312Y-68025318D01*
X97176002Y-67905620D01*
X97117037Y-67795306D01*
X97102189Y-67777213D01*
X99738001Y-67777213D01*
X99738001Y-68222787D01*
X99824928Y-68659801D01*
X99995442Y-69071458D01*
X100242991Y-69441940D01*
X100558060Y-69757009D01*
X100928542Y-70004558D01*
X101340199Y-70175072D01*
X101777213Y-70261999D01*
X102222787Y-70261999D01*
X102659801Y-70175072D01*
X103071458Y-70004558D01*
X103441940Y-69757009D01*
X103757009Y-69441940D01*
X104004558Y-69071458D01*
X104175072Y-68659801D01*
X104261999Y-68222787D01*
X104261999Y-67777213D01*
X104175072Y-67340199D01*
X104004558Y-66928542D01*
X103757009Y-66558060D01*
X103441940Y-66242991D01*
X103071458Y-65995442D01*
X102659801Y-65824928D01*
X102222787Y-65738001D01*
X101777213Y-65738001D01*
X101340199Y-65824928D01*
X100928542Y-65995442D01*
X100558060Y-66242991D01*
X100242991Y-66558060D01*
X99995442Y-66928542D01*
X99824928Y-67340199D01*
X99738001Y-67777213D01*
X97102189Y-67777213D01*
X97037685Y-67698615D01*
X96940994Y-67619263D01*
X96830680Y-67560298D01*
X96710982Y-67523988D01*
X96586500Y-67511728D01*
X96173750Y-67514800D01*
X96015000Y-67673550D01*
X95761000Y-67673550D01*
X95602250Y-67514800D01*
X95189500Y-67511728D01*
X95065018Y-67523988D01*
X94945320Y-67560298D01*
X94835006Y-67619263D01*
X94738315Y-67698615D01*
X94658963Y-67795306D01*
X94614659Y-67878193D01*
X94510810Y-67822684D01*
X94373474Y-67781024D01*
X94230650Y-67766957D01*
X93532150Y-67766957D01*
X93389326Y-67781024D01*
X93251990Y-67822684D01*
X93125421Y-67890337D01*
X93014482Y-67981382D01*
X92923437Y-68092321D01*
X92878100Y-68177140D01*
X92832763Y-68092321D01*
X92741718Y-67981382D01*
X92630779Y-67890337D01*
X92504210Y-67822684D01*
X92366874Y-67781024D01*
X92224050Y-67766957D01*
X91525550Y-67766957D01*
X91382726Y-67781024D01*
X91245390Y-67822684D01*
X91118821Y-67890337D01*
X91007882Y-67981382D01*
X90916837Y-68092321D01*
X90871500Y-68177140D01*
X90826163Y-68092321D01*
X90735118Y-67981382D01*
X90624179Y-67890337D01*
X90497610Y-67822684D01*
X90360274Y-67781024D01*
X90217450Y-67766957D01*
X89518950Y-67766957D01*
X89376126Y-67781024D01*
X89238790Y-67822684D01*
X89112221Y-67890337D01*
X89001282Y-67981382D01*
X88910237Y-68092321D01*
X88864900Y-68177140D01*
X88819563Y-68092321D01*
X88728518Y-67981382D01*
X88617579Y-67890337D01*
X88491010Y-67822684D01*
X88353674Y-67781024D01*
X88210850Y-67766957D01*
X87512350Y-67766957D01*
X87369526Y-67781024D01*
X87232190Y-67822684D01*
X87105621Y-67890337D01*
X86994682Y-67981382D01*
X86903637Y-68092321D01*
X86858300Y-68177140D01*
X86812963Y-68092321D01*
X86721918Y-67981382D01*
X86610979Y-67890337D01*
X86484410Y-67822684D01*
X86347074Y-67781024D01*
X86204250Y-67766957D01*
X85505750Y-67766957D01*
X85362926Y-67781024D01*
X85225590Y-67822684D01*
X85099021Y-67890337D01*
X84988082Y-67981382D01*
X84897037Y-68092321D01*
X84851700Y-68177140D01*
X84806363Y-68092321D01*
X84715318Y-67981382D01*
X84604379Y-67890337D01*
X84477810Y-67822684D01*
X84340474Y-67781024D01*
X84197650Y-67766957D01*
X83499150Y-67766957D01*
X83356326Y-67781024D01*
X83218990Y-67822684D01*
X83092421Y-67890337D01*
X82981482Y-67981382D01*
X82890437Y-68092321D01*
X82845100Y-68177140D01*
X82799763Y-68092321D01*
X82708718Y-67981382D01*
X82597779Y-67890337D01*
X82471210Y-67822684D01*
X82333874Y-67781024D01*
X82191050Y-67766957D01*
X81492550Y-67766957D01*
X81349726Y-67781024D01*
X81212390Y-67822684D01*
X81085821Y-67890337D01*
X80974882Y-67981382D01*
X80883837Y-68092321D01*
X80838500Y-68177140D01*
X80793163Y-68092321D01*
X80702118Y-67981382D01*
X80591179Y-67890337D01*
X80464610Y-67822684D01*
X80327274Y-67781024D01*
X80184450Y-67766957D01*
X79485950Y-67766957D01*
X79343126Y-67781024D01*
X79205790Y-67822684D01*
X79079221Y-67890337D01*
X78968282Y-67981382D01*
X78877237Y-68092321D01*
X78831900Y-68177140D01*
X78786563Y-68092321D01*
X78695518Y-67981382D01*
X78584579Y-67890337D01*
X78458010Y-67822684D01*
X78320674Y-67781024D01*
X78177850Y-67766957D01*
X77479350Y-67766957D01*
X77336526Y-67781024D01*
X77199190Y-67822684D01*
X77072621Y-67890337D01*
X76961682Y-67981382D01*
X76870637Y-68092321D01*
X76802984Y-68218890D01*
X76761324Y-68356226D01*
X76747257Y-68499050D01*
X76747257Y-69578550D01*
X76761324Y-69721374D01*
X76802984Y-69858710D01*
X76870637Y-69985279D01*
X76961682Y-70096218D01*
X77072621Y-70187263D01*
X77199190Y-70254916D01*
X77336526Y-70296576D01*
X77479350Y-70310643D01*
X78177850Y-70310643D01*
X78320674Y-70296576D01*
X78458010Y-70254916D01*
X78584579Y-70187263D01*
X78695518Y-70096218D01*
X78786563Y-69985279D01*
X78831900Y-69900460D01*
X78877237Y-69985279D01*
X78968282Y-70096218D01*
X79079221Y-70187263D01*
X79205790Y-70254916D01*
X79343126Y-70296576D01*
X79485950Y-70310643D01*
X80184450Y-70310643D01*
X80327274Y-70296576D01*
X80464610Y-70254916D01*
X80591179Y-70187263D01*
X80702118Y-70096218D01*
X80793163Y-69985279D01*
X80838500Y-69900460D01*
X80883837Y-69985279D01*
X80974882Y-70096218D01*
X81085821Y-70187263D01*
X81212390Y-70254916D01*
X81349726Y-70296576D01*
X81492550Y-70310643D01*
X82191050Y-70310643D01*
X82333874Y-70296576D01*
X82471210Y-70254916D01*
X82597779Y-70187263D01*
X82708718Y-70096218D01*
X82799763Y-69985279D01*
X82845100Y-69900460D01*
X82890437Y-69985279D01*
X82981482Y-70096218D01*
X83092421Y-70187263D01*
X83218990Y-70254916D01*
X83356326Y-70296576D01*
X83499150Y-70310643D01*
X84197650Y-70310643D01*
X84340474Y-70296576D01*
X84477810Y-70254916D01*
X84604379Y-70187263D01*
X84715318Y-70096218D01*
X84806363Y-69985279D01*
X84851700Y-69900460D01*
X84897037Y-69985279D01*
X84988082Y-70096218D01*
X85099021Y-70187263D01*
X85225590Y-70254916D01*
X85362926Y-70296576D01*
X85505750Y-70310643D01*
X86204250Y-70310643D01*
X86347074Y-70296576D01*
X86484410Y-70254916D01*
X86610979Y-70187263D01*
X86721918Y-70096218D01*
X86812963Y-69985279D01*
X86858300Y-69900460D01*
X86903637Y-69985279D01*
X86994682Y-70096218D01*
X87105621Y-70187263D01*
X87232190Y-70254916D01*
X87353601Y-70291745D01*
X87353600Y-77154979D01*
X76048930Y-88459650D01*
X76031115Y-88477465D01*
X76011738Y-88493367D01*
X75995836Y-88512744D01*
X75995835Y-88512745D01*
X75948256Y-88570720D01*
X75910607Y-88641157D01*
X75901085Y-88658972D01*
X75876631Y-88739588D01*
X75872037Y-88754731D01*
X75862228Y-88854315D01*
X75864686Y-88879269D01*
X75864685Y-92349741D01*
X75862228Y-92374685D01*
X75864685Y-92399629D01*
X75864685Y-92399631D01*
X75872036Y-92474269D01*
X75901084Y-92570027D01*
X75948256Y-92658280D01*
X76011737Y-92735633D01*
X76031120Y-92751540D01*
X77851000Y-94571420D01*
X77851000Y-94635102D01*
X77723911Y-94703032D01*
X77549867Y-94845867D01*
X77407032Y-95019912D01*
X77300897Y-95218478D01*
X77235539Y-95433934D01*
X77219000Y-95601855D01*
X77219000Y-96222146D01*
X77235539Y-96390067D01*
X77300897Y-96605523D01*
X77407033Y-96804089D01*
X77549868Y-96978133D01*
X77723912Y-97120968D01*
X77838096Y-97182000D01*
X76345905Y-97182000D01*
X76460089Y-97120968D01*
X76634133Y-96978133D01*
X76776968Y-96804089D01*
X76883103Y-96605522D01*
X76948461Y-96390066D01*
X76965000Y-96222145D01*
X76965000Y-95601854D01*
X76948461Y-95433933D01*
X76883103Y-95218477D01*
X76776968Y-95019911D01*
X76634133Y-94845867D01*
X76460088Y-94703032D01*
X76331710Y-94634413D01*
X76330000Y-94617053D01*
X76322649Y-94542415D01*
X76293601Y-94446657D01*
X76282494Y-94425878D01*
X76246429Y-94358404D01*
X76198850Y-94300429D01*
X76182948Y-94281052D01*
X76163570Y-94265149D01*
X75808000Y-93909580D01*
X75808000Y-85724944D01*
X75810457Y-85700000D01*
X75808000Y-85675053D01*
X75800649Y-85600415D01*
X75771601Y-85504657D01*
X75724429Y-85416405D01*
X75660948Y-85339052D01*
X75641565Y-85323145D01*
X68308000Y-77989580D01*
X68308000Y-77118943D01*
X68310457Y-77093999D01*
X68308000Y-77069053D01*
X68300649Y-76994415D01*
X68271601Y-76898657D01*
X68257139Y-76871600D01*
X68224429Y-76810404D01*
X68176850Y-76752429D01*
X68160948Y-76733052D01*
X68141571Y-76717150D01*
X67881744Y-76457323D01*
X68923000Y-76457323D01*
X68923000Y-76982677D01*
X69025492Y-77497935D01*
X69226536Y-77983298D01*
X69518406Y-78420113D01*
X69889887Y-78791594D01*
X70326702Y-79083464D01*
X70812065Y-79284508D01*
X71327323Y-79387000D01*
X71852677Y-79387000D01*
X72367935Y-79284508D01*
X72853298Y-79083464D01*
X73290113Y-78791594D01*
X73661594Y-78420113D01*
X73953464Y-77983298D01*
X74154508Y-77497935D01*
X74257000Y-76982677D01*
X74257000Y-76457323D01*
X74154508Y-75942065D01*
X73953464Y-75456702D01*
X73868353Y-75329323D01*
X78997000Y-75329323D01*
X78997000Y-75854677D01*
X79099492Y-76369935D01*
X79300536Y-76855298D01*
X79592406Y-77292113D01*
X79963887Y-77663594D01*
X80400702Y-77955464D01*
X80886065Y-78156508D01*
X81401323Y-78259000D01*
X81926677Y-78259000D01*
X82441935Y-78156508D01*
X82927298Y-77955464D01*
X83364113Y-77663594D01*
X83735594Y-77292113D01*
X84027464Y-76855298D01*
X84228508Y-76369935D01*
X84331000Y-75854677D01*
X84331000Y-75329323D01*
X84228508Y-74814065D01*
X84027464Y-74328702D01*
X83735594Y-73891887D01*
X83364113Y-73520406D01*
X82927298Y-73228536D01*
X82441935Y-73027492D01*
X81926677Y-72925000D01*
X81401323Y-72925000D01*
X80886065Y-73027492D01*
X80400702Y-73228536D01*
X79963887Y-73520406D01*
X79592406Y-73891887D01*
X79300536Y-74328702D01*
X79099492Y-74814065D01*
X78997000Y-75329323D01*
X73868353Y-75329323D01*
X73661594Y-75019887D01*
X73290113Y-74648406D01*
X72853298Y-74356536D01*
X72367935Y-74155492D01*
X71852677Y-74053000D01*
X71327323Y-74053000D01*
X70812065Y-74155492D01*
X70326702Y-74356536D01*
X69889887Y-74648406D01*
X69518406Y-75019887D01*
X69226536Y-75456702D01*
X69025492Y-75942065D01*
X68923000Y-76457323D01*
X67881744Y-76457323D01*
X63760002Y-72335582D01*
X63761103Y-72333522D01*
X63826461Y-72118066D01*
X63843000Y-71950145D01*
X63843000Y-71329855D01*
X64097000Y-71329855D01*
X64097000Y-71950146D01*
X64113539Y-72118067D01*
X64178897Y-72333523D01*
X64285033Y-72532089D01*
X64427868Y-72706133D01*
X64601912Y-72848968D01*
X64800478Y-72955103D01*
X65015934Y-73020461D01*
X65240000Y-73042530D01*
X65464067Y-73020461D01*
X65679523Y-72955103D01*
X65878089Y-72848968D01*
X66052133Y-72706133D01*
X66194968Y-72532089D01*
X66301103Y-72333522D01*
X66366461Y-72118066D01*
X66383000Y-71950145D01*
X66383000Y-71329855D01*
X66637000Y-71329855D01*
X66637000Y-71950146D01*
X66653539Y-72118067D01*
X66718897Y-72333523D01*
X66825033Y-72532089D01*
X66967868Y-72706133D01*
X67141912Y-72848968D01*
X67340478Y-72955103D01*
X67555934Y-73020461D01*
X67780000Y-73042530D01*
X68004067Y-73020461D01*
X68219523Y-72955103D01*
X68418089Y-72848968D01*
X68592133Y-72706133D01*
X68734968Y-72532089D01*
X68841103Y-72333522D01*
X68906461Y-72118066D01*
X68923000Y-71950145D01*
X68923000Y-71329855D01*
X69177000Y-71329855D01*
X69177000Y-71950146D01*
X69193539Y-72118067D01*
X69258897Y-72333523D01*
X69365033Y-72532089D01*
X69507868Y-72706133D01*
X69681912Y-72848968D01*
X69880478Y-72955103D01*
X70095934Y-73020461D01*
X70320000Y-73042530D01*
X70544067Y-73020461D01*
X70759523Y-72955103D01*
X70958089Y-72848968D01*
X71132133Y-72706133D01*
X71274968Y-72532089D01*
X71381103Y-72333522D01*
X71446461Y-72118066D01*
X71463000Y-71950145D01*
X71463000Y-71329855D01*
X71717000Y-71329855D01*
X71717000Y-71950146D01*
X71733539Y-72118067D01*
X71798897Y-72333523D01*
X71905033Y-72532089D01*
X72047868Y-72706133D01*
X72221912Y-72848968D01*
X72420478Y-72955103D01*
X72635934Y-73020461D01*
X72860000Y-73042530D01*
X73084067Y-73020461D01*
X73299523Y-72955103D01*
X73498089Y-72848968D01*
X73672133Y-72706133D01*
X73814968Y-72532089D01*
X73921103Y-72333522D01*
X73986461Y-72118066D01*
X74003000Y-71950145D01*
X74003000Y-71329854D01*
X73986461Y-71161933D01*
X73921103Y-70946477D01*
X73814968Y-70747911D01*
X73672133Y-70573867D01*
X73498088Y-70431032D01*
X73299522Y-70324897D01*
X73084066Y-70259539D01*
X72860000Y-70237470D01*
X72635933Y-70259539D01*
X72420477Y-70324897D01*
X72221911Y-70431032D01*
X72047867Y-70573867D01*
X71905032Y-70747912D01*
X71798897Y-70946478D01*
X71733539Y-71161934D01*
X71717000Y-71329855D01*
X71463000Y-71329855D01*
X71463000Y-71329854D01*
X71446461Y-71161933D01*
X71381103Y-70946477D01*
X71274968Y-70747911D01*
X71132133Y-70573867D01*
X70958088Y-70431032D01*
X70759522Y-70324897D01*
X70544066Y-70259539D01*
X70320000Y-70237470D01*
X70095933Y-70259539D01*
X69880477Y-70324897D01*
X69681911Y-70431032D01*
X69507867Y-70573867D01*
X69365032Y-70747912D01*
X69258897Y-70946478D01*
X69193539Y-71161934D01*
X69177000Y-71329855D01*
X68923000Y-71329855D01*
X68923000Y-71329854D01*
X68906461Y-71161933D01*
X68841103Y-70946477D01*
X68734968Y-70747911D01*
X68592133Y-70573867D01*
X68418088Y-70431032D01*
X68219522Y-70324897D01*
X68004066Y-70259539D01*
X67780000Y-70237470D01*
X67555933Y-70259539D01*
X67340477Y-70324897D01*
X67141911Y-70431032D01*
X66967867Y-70573867D01*
X66825032Y-70747912D01*
X66718897Y-70946478D01*
X66653539Y-71161934D01*
X66637000Y-71329855D01*
X66383000Y-71329855D01*
X66383000Y-71329854D01*
X66366461Y-71161933D01*
X66301103Y-70946477D01*
X66194968Y-70747911D01*
X66052133Y-70573867D01*
X65878088Y-70431032D01*
X65679522Y-70324897D01*
X65464066Y-70259539D01*
X65240000Y-70237470D01*
X65015933Y-70259539D01*
X64800477Y-70324897D01*
X64601911Y-70431032D01*
X64427867Y-70573867D01*
X64285032Y-70747912D01*
X64178897Y-70946478D01*
X64113539Y-71161934D01*
X64097000Y-71329855D01*
X63843000Y-71329855D01*
X63843000Y-71329854D01*
X63826461Y-71161933D01*
X63761103Y-70946477D01*
X63654968Y-70747911D01*
X63512133Y-70573867D01*
X63338088Y-70431032D01*
X63139522Y-70324897D01*
X62924066Y-70259539D01*
X62700000Y-70237470D01*
X62475933Y-70259539D01*
X62260477Y-70324897D01*
X62061911Y-70431032D01*
X61887867Y-70573867D01*
X61745032Y-70747912D01*
X61638897Y-70946478D01*
X61573539Y-71161934D01*
X61557000Y-71329855D01*
X61557000Y-71950146D01*
X61573539Y-72118067D01*
X61638897Y-72333523D01*
X61745033Y-72532089D01*
X61887868Y-72706133D01*
X62061912Y-72848968D01*
X62260478Y-72955103D01*
X62475934Y-73020461D01*
X62700000Y-73042530D01*
X62924067Y-73020461D01*
X62988496Y-73000917D01*
X67292000Y-77304421D01*
X67292001Y-78175046D01*
X67289543Y-78200000D01*
X67299352Y-78299584D01*
X67328400Y-78395343D01*
X67375571Y-78483595D01*
X67423150Y-78541570D01*
X67439053Y-78560948D01*
X67458430Y-78576850D01*
X74792000Y-85910420D01*
X74792001Y-94095046D01*
X74789543Y-94120000D01*
X74794591Y-94171244D01*
X74799352Y-94219585D01*
X74812345Y-94262416D01*
X74828400Y-94315343D01*
X74875571Y-94403595D01*
X74910912Y-94446658D01*
X74939053Y-94480948D01*
X74958430Y-94496850D01*
X75173311Y-94711731D01*
X75009867Y-94845867D01*
X74867032Y-95019912D01*
X74760897Y-95218478D01*
X74695539Y-95433934D01*
X74679000Y-95601855D01*
X74679000Y-96222146D01*
X74695539Y-96390067D01*
X74760897Y-96605523D01*
X74867033Y-96804089D01*
X74971002Y-96930774D01*
X74837733Y-96957283D01*
X74699058Y-97014724D01*
X74574253Y-97098116D01*
X74468116Y-97204253D01*
X74384724Y-97329058D01*
X74327283Y-97467733D01*
X74298000Y-97614950D01*
X74298000Y-97765050D01*
X74327283Y-97912267D01*
X74384724Y-98050942D01*
X74468116Y-98175747D01*
X74574253Y-98281884D01*
X74699058Y-98365276D01*
X74837733Y-98422717D01*
X74984950Y-98452000D01*
X75135050Y-98452000D01*
X75282267Y-98422717D01*
X75420942Y-98365276D01*
X75545747Y-98281884D01*
X75629631Y-98198000D01*
X84179056Y-98198000D01*
X84204000Y-98200457D01*
X84228944Y-98198000D01*
X84228947Y-98198000D01*
X84303585Y-98190649D01*
X84399343Y-98161601D01*
X84487595Y-98114429D01*
X84564948Y-98050948D01*
X84580855Y-98031565D01*
X84743778Y-97868642D01*
X84666897Y-98012477D01*
X84601539Y-98227933D01*
X84579470Y-98452000D01*
X84601539Y-98676067D01*
X84666897Y-98891523D01*
X84773032Y-99090089D01*
X84852565Y-99187000D01*
X83624631Y-99187000D01*
X83540747Y-99103116D01*
X83415942Y-99019724D01*
X83277267Y-98962283D01*
X83130050Y-98933000D01*
X82979950Y-98933000D01*
X82832733Y-98962283D01*
X82694058Y-99019724D01*
X82569253Y-99103116D01*
X82463116Y-99209253D01*
X82379724Y-99334058D01*
X82322283Y-99472733D01*
X82293000Y-99619950D01*
X82293000Y-99770050D01*
X82322283Y-99917267D01*
X82379724Y-100055942D01*
X82463116Y-100180747D01*
X82569253Y-100286884D01*
X82694058Y-100370276D01*
X82832733Y-100427717D01*
X82979950Y-100457000D01*
X83130050Y-100457000D01*
X83277267Y-100427717D01*
X83415942Y-100370276D01*
X83540747Y-100286884D01*
X83624631Y-100203000D01*
X84896882Y-100203000D01*
X84773032Y-100353911D01*
X84666897Y-100552477D01*
X84601539Y-100767933D01*
X84579470Y-100992000D01*
X84601539Y-101216067D01*
X84666897Y-101431523D01*
X84773032Y-101630089D01*
X84864875Y-101742000D01*
X81710421Y-101742000D01*
X79512000Y-99543580D01*
X79512000Y-99424950D01*
X79482717Y-99277733D01*
X79425276Y-99139058D01*
X79341884Y-99014253D01*
X79235747Y-98908116D01*
X79110942Y-98824724D01*
X78972267Y-98767283D01*
X78825050Y-98738000D01*
X78674950Y-98738000D01*
X78527733Y-98767283D01*
X78389058Y-98824724D01*
X78264253Y-98908116D01*
X78158116Y-99014253D01*
X78074724Y-99139058D01*
X78017283Y-99277733D01*
X77988000Y-99424950D01*
X77988000Y-99575050D01*
X78017283Y-99722267D01*
X78074724Y-99860942D01*
X78158116Y-99985747D01*
X78264253Y-100091884D01*
X78389058Y-100175276D01*
X78527733Y-100232717D01*
X78674950Y-100262000D01*
X78793580Y-100262000D01*
X81123150Y-102591571D01*
X81139052Y-102610948D01*
X81158429Y-102626850D01*
X81216404Y-102674429D01*
X81301413Y-102719867D01*
X81304657Y-102721601D01*
X81400415Y-102750649D01*
X81475053Y-102758000D01*
X81475055Y-102758000D01*
X81499999Y-102760457D01*
X81524943Y-102758000D01*
X84884572Y-102758000D01*
X84773032Y-102893911D01*
X84666897Y-103092477D01*
X84601539Y-103307933D01*
X84579470Y-103532000D01*
X84599032Y-103730611D01*
X84114355Y-103245935D01*
X84098448Y-103226552D01*
X84021095Y-103163071D01*
X83932843Y-103115899D01*
X83837085Y-103086851D01*
X83762447Y-103079500D01*
X83762444Y-103079500D01*
X83737500Y-103077043D01*
X83712556Y-103079500D01*
X78651920Y-103079500D01*
X73790000Y-98217580D01*
X73790000Y-97190502D01*
X73920089Y-97120968D01*
X74094133Y-96978133D01*
X74236968Y-96804089D01*
X74343103Y-96605522D01*
X74408461Y-96390066D01*
X74425000Y-96222145D01*
X74425000Y-95601854D01*
X74408461Y-95433933D01*
X74343103Y-95218477D01*
X74236968Y-95019911D01*
X74094133Y-94845867D01*
X73920088Y-94703032D01*
X73808000Y-94643120D01*
X73808000Y-94524944D01*
X73810457Y-94500000D01*
X73806575Y-94460584D01*
X73800649Y-94400415D01*
X73771601Y-94304657D01*
X73744960Y-94254815D01*
X73724429Y-94216404D01*
X73676850Y-94158429D01*
X73660948Y-94139052D01*
X73641571Y-94123150D01*
X69441570Y-89923150D01*
X69441566Y-89923147D01*
X69395278Y-89876859D01*
X69379370Y-89857474D01*
X69302017Y-89793993D01*
X69213765Y-89746821D01*
X69118007Y-89717773D01*
X69043369Y-89710422D01*
X69043366Y-89710422D01*
X69018422Y-89707965D01*
X68993478Y-89710422D01*
X65106522Y-89710422D01*
X65081578Y-89707965D01*
X65056634Y-89710422D01*
X65056631Y-89710422D01*
X64981993Y-89717773D01*
X64886235Y-89746821D01*
X64797983Y-89793993D01*
X64720630Y-89857474D01*
X64704723Y-89876857D01*
X64019258Y-90562322D01*
X63970000Y-90557470D01*
X63745933Y-90579539D01*
X63530477Y-90644897D01*
X63331911Y-90751032D01*
X63157867Y-90893867D01*
X63015032Y-91067912D01*
X62908897Y-91266478D01*
X62843539Y-91481934D01*
X62827000Y-91649854D01*
X62827000Y-91579000D01*
X62775381Y-91308899D01*
X62672059Y-91054058D01*
X62521006Y-90824271D01*
X62328026Y-90628368D01*
X62100535Y-90473878D01*
X61847276Y-90366738D01*
X61773070Y-90351780D01*
X61557000Y-90474280D01*
X61557000Y-91833000D01*
X62827000Y-91833000D01*
X62827000Y-92087000D01*
X61557000Y-92087000D01*
X61557000Y-92107000D01*
X61303000Y-92107000D01*
X61303000Y-92087000D01*
X61283000Y-92087000D01*
X61283000Y-91833000D01*
X61303000Y-91833000D01*
X61303000Y-90474280D01*
X61086930Y-90351780D01*
X61012724Y-90366738D01*
X60759465Y-90473878D01*
X60531974Y-90628368D01*
X60338994Y-90824271D01*
X60187941Y-91054058D01*
X60084619Y-91308899D01*
X60034843Y-91569356D01*
X60034843Y-90944000D01*
X60027487Y-90869311D01*
X60005701Y-90797492D01*
X59970322Y-90731304D01*
X59922711Y-90673289D01*
X59864696Y-90625678D01*
X59798508Y-90590299D01*
X59726689Y-90568513D01*
X59652000Y-90561157D01*
X58128000Y-90561157D01*
X58053311Y-90568513D01*
X57981492Y-90590299D01*
X57915304Y-90625678D01*
X57857289Y-90673289D01*
X57809678Y-90731304D01*
X57774299Y-90797492D01*
X57752513Y-90869311D01*
X57745157Y-90944000D01*
X57745157Y-92976000D01*
X57752513Y-93050689D01*
X57774299Y-93122508D01*
X57807163Y-93183990D01*
X57702411Y-93183990D01*
X57417217Y-92898797D01*
X57417217Y-90219637D01*
X57961570Y-89675284D01*
X57980948Y-89659382D01*
X58022763Y-89608430D01*
X58044429Y-89582030D01*
X58088274Y-89500001D01*
X58091601Y-89493777D01*
X58120649Y-89398019D01*
X58128000Y-89323381D01*
X58128000Y-89323378D01*
X58130457Y-89298434D01*
X58128000Y-89273490D01*
X58128000Y-86617323D01*
X68923000Y-86617323D01*
X68923000Y-87142677D01*
X69025492Y-87657935D01*
X69226536Y-88143298D01*
X69518406Y-88580113D01*
X69889887Y-88951594D01*
X70326702Y-89243464D01*
X70812065Y-89444508D01*
X71327323Y-89547000D01*
X71852677Y-89547000D01*
X72367935Y-89444508D01*
X72853298Y-89243464D01*
X73290113Y-88951594D01*
X73661594Y-88580113D01*
X73953464Y-88143298D01*
X74154508Y-87657935D01*
X74257000Y-87142677D01*
X74257000Y-86617323D01*
X74154508Y-86102065D01*
X73953464Y-85616702D01*
X73661594Y-85179887D01*
X73290113Y-84808406D01*
X72853298Y-84516536D01*
X72367935Y-84315492D01*
X71852677Y-84213000D01*
X71327323Y-84213000D01*
X70812065Y-84315492D01*
X70326702Y-84516536D01*
X69889887Y-84808406D01*
X69518406Y-85179887D01*
X69226536Y-85616702D01*
X69025492Y-86102065D01*
X68923000Y-86617323D01*
X58128000Y-86617323D01*
X58128000Y-75329323D01*
X58169000Y-75329323D01*
X58169000Y-75854677D01*
X58271492Y-76369935D01*
X58472536Y-76855298D01*
X58764406Y-77292113D01*
X59135887Y-77663594D01*
X59572702Y-77955464D01*
X60058065Y-78156508D01*
X60573323Y-78259000D01*
X61098677Y-78259000D01*
X61613935Y-78156508D01*
X62099298Y-77955464D01*
X62536113Y-77663594D01*
X62907594Y-77292113D01*
X63199464Y-76855298D01*
X63400508Y-76369935D01*
X63503000Y-75854677D01*
X63503000Y-75329323D01*
X63400508Y-74814065D01*
X63199464Y-74328702D01*
X62907594Y-73891887D01*
X62536113Y-73520406D01*
X62099298Y-73228536D01*
X61613935Y-73027492D01*
X61098677Y-72925000D01*
X60655842Y-72925000D01*
X60798089Y-72848968D01*
X60972133Y-72706133D01*
X61114968Y-72532089D01*
X61221103Y-72333522D01*
X61286461Y-72118066D01*
X61303000Y-71950145D01*
X61303000Y-71329854D01*
X61286461Y-71161933D01*
X61221103Y-70946477D01*
X61114968Y-70747911D01*
X60972133Y-70573867D01*
X60798088Y-70431032D01*
X60599522Y-70324897D01*
X60384066Y-70259539D01*
X60160000Y-70237470D01*
X59935933Y-70259539D01*
X59720477Y-70324897D01*
X59521911Y-70431032D01*
X59347867Y-70573867D01*
X59205032Y-70747912D01*
X59098897Y-70946478D01*
X59033539Y-71161934D01*
X59017000Y-71329855D01*
X59017000Y-71950146D01*
X59033539Y-72118067D01*
X59098897Y-72333523D01*
X59205033Y-72532089D01*
X59347868Y-72706133D01*
X59521912Y-72848968D01*
X59720478Y-72955103D01*
X59935934Y-73020461D01*
X60048317Y-73031530D01*
X59572702Y-73228536D01*
X59135887Y-73520406D01*
X58764406Y-73891887D01*
X58472536Y-74328702D01*
X58271492Y-74814065D01*
X58169000Y-75329323D01*
X58128000Y-75329323D01*
X58128000Y-72918502D01*
X58258089Y-72848968D01*
X58432133Y-72706133D01*
X58574968Y-72532089D01*
X58681103Y-72333522D01*
X58746461Y-72118066D01*
X58763000Y-71950145D01*
X58763000Y-71329854D01*
X58746461Y-71161933D01*
X58681103Y-70946477D01*
X58574968Y-70747911D01*
X58432133Y-70573867D01*
X58258088Y-70431032D01*
X58059522Y-70324897D01*
X57844066Y-70259539D01*
X57620000Y-70237470D01*
X57395933Y-70259539D01*
X57180477Y-70324897D01*
X56981911Y-70431032D01*
X56807867Y-70573867D01*
X56665032Y-70747912D01*
X56558897Y-70946478D01*
X56493539Y-71161934D01*
X56477000Y-71329855D01*
X56477000Y-71950146D01*
X56493539Y-72118067D01*
X56558897Y-72333523D01*
X56665033Y-72532089D01*
X56807868Y-72706133D01*
X56981912Y-72848968D01*
X57112000Y-72918501D01*
X57112000Y-76101260D01*
X57076850Y-76058429D01*
X57060948Y-76039052D01*
X57041571Y-76023150D01*
X55588000Y-74569580D01*
X55588000Y-72918502D01*
X55718089Y-72848968D01*
X55892133Y-72706133D01*
X56034968Y-72532089D01*
X56141103Y-72333522D01*
X56206461Y-72118066D01*
X56223000Y-71950145D01*
X56223000Y-71329854D01*
X56206461Y-71161933D01*
X56141103Y-70946477D01*
X56034968Y-70747911D01*
X55892133Y-70573867D01*
X55718088Y-70431032D01*
X55519522Y-70324897D01*
X55304066Y-70259539D01*
X55080000Y-70237470D01*
X54855933Y-70259539D01*
X54640477Y-70324897D01*
X54441911Y-70431032D01*
X54267867Y-70573867D01*
X54125032Y-70747912D01*
X54018897Y-70946478D01*
X53953539Y-71161934D01*
X53937000Y-71329855D01*
X53799088Y-71329855D01*
X53785619Y-71262146D01*
X53687969Y-71026398D01*
X53546203Y-70814231D01*
X53365769Y-70633797D01*
X53153602Y-70492031D01*
X52917854Y-70394381D01*
X52667586Y-70344600D01*
X52412414Y-70344600D01*
X52162146Y-70394381D01*
X51926398Y-70492031D01*
X51714231Y-70633797D01*
X51533797Y-70814231D01*
X51392031Y-71026398D01*
X51294381Y-71262146D01*
X51244600Y-71512414D01*
X50406000Y-71512414D01*
X50406000Y-68019854D01*
X50429791Y-67777213D01*
X59738001Y-67777213D01*
X59738001Y-68222787D01*
X59824928Y-68659801D01*
X59995442Y-69071458D01*
X60242991Y-69441940D01*
X60558060Y-69757009D01*
X60928542Y-70004558D01*
X61340199Y-70175072D01*
X61777213Y-70261999D01*
X62222787Y-70261999D01*
X62659801Y-70175072D01*
X63071458Y-70004558D01*
X63441940Y-69757009D01*
X63757009Y-69441940D01*
X64004558Y-69071458D01*
X64175072Y-68659801D01*
X64261999Y-68222787D01*
X64261999Y-67777213D01*
X64175072Y-67340199D01*
X64004558Y-66928542D01*
X63757009Y-66558060D01*
X63441940Y-66242991D01*
X63071458Y-65995442D01*
X62659801Y-65824928D01*
X62222787Y-65738001D01*
X61777213Y-65738001D01*
X61340199Y-65824928D01*
X60928542Y-65995442D01*
X60558060Y-66242991D01*
X60242991Y-66558060D01*
X59995442Y-66928542D01*
X59824928Y-67340199D01*
X59738001Y-67777213D01*
X50429791Y-67777213D01*
X50457312Y-67496537D01*
X50603529Y-67012244D01*
X50841025Y-66565578D01*
X51160755Y-66173550D01*
X51550539Y-65851093D01*
X51995540Y-65610482D01*
X52478796Y-65460889D01*
X53001029Y-65406000D01*
X101980146Y-65406000D01*
X102503463Y-65457312D01*
X102503463Y-65457312D01*
G37*
X102503463Y-65457312D02*
X102987756Y-65603529D01*
X103434422Y-65841025D01*
X103826450Y-66160755D01*
X104148907Y-66550539D01*
X104389518Y-66995540D01*
X104539111Y-67478796D01*
X104591990Y-67981905D01*
X104546141Y-68485704D01*
X104403309Y-68971002D01*
X104168936Y-69419315D01*
X103851953Y-69813563D01*
X103464424Y-70138738D01*
X103021118Y-70382448D01*
X102538921Y-70535410D01*
X102017773Y-70593866D01*
X101998604Y-70594000D01*
X98480059Y-70594000D01*
X98461367Y-70595841D01*
X98445751Y-70595732D01*
X98440109Y-70596285D01*
X97954866Y-70647286D01*
X97918793Y-70654691D01*
X97882675Y-70661581D01*
X97877247Y-70663219D01*
X97411154Y-70807499D01*
X97377191Y-70821776D01*
X97343113Y-70835544D01*
X97338112Y-70838202D01*
X97338108Y-70838204D01*
X97338107Y-70838205D01*
X96908914Y-71070269D01*
X96878400Y-71090851D01*
X96847618Y-71110994D01*
X96843230Y-71114573D01*
X96843224Y-71114577D01*
X96843219Y-71114582D01*
X96467279Y-71425585D01*
X96441309Y-71451737D01*
X96415060Y-71477442D01*
X96411451Y-71481804D01*
X96411446Y-71481809D01*
X96411442Y-71481814D01*
X96103069Y-71859917D01*
X96082688Y-71890593D01*
X96061917Y-71920929D01*
X96059220Y-71925915D01*
X95830158Y-72356719D01*
X95816130Y-72390754D01*
X95801640Y-72424562D01*
X95799963Y-72429977D01*
X95658940Y-72897067D01*
X95651785Y-72933205D01*
X95644143Y-72969157D01*
X95643550Y-72974795D01*
X95595938Y-73460381D01*
X95594000Y-73480062D01*
X95594081Y-86319943D01*
X95595850Y-86337905D01*
X95595785Y-86347167D01*
X95596338Y-86352809D01*
X95626923Y-86643956D01*
X95634328Y-86680041D01*
X95641214Y-86716148D01*
X95642850Y-86721568D01*
X95642851Y-86721575D01*
X95642854Y-86721581D01*
X95729405Y-87001237D01*
X95743676Y-87035194D01*
X95757446Y-87069279D01*
X95760102Y-87074276D01*
X95760106Y-87074285D01*
X95760111Y-87074292D01*
X95899332Y-87331808D01*
X95919900Y-87362306D01*
X95940054Y-87393107D01*
X95943633Y-87397495D01*
X95943637Y-87397501D01*
X95943642Y-87397506D01*
X96130230Y-87623077D01*
X96156346Y-87649014D01*
X96182083Y-87675299D01*
X96186451Y-87678914D01*
X96413305Y-87863952D01*
X96444018Y-87884360D01*
X96474315Y-87905107D01*
X96479293Y-87907800D01*
X96479301Y-87907805D01*
X96479309Y-87907808D01*
X96737775Y-88045255D01*
X96771767Y-88059268D01*
X96805618Y-88073778D01*
X96811033Y-88075455D01*
X97091283Y-88160083D01*
X97127387Y-88167233D01*
X97163372Y-88174884D01*
X97169010Y-88175477D01*
X97460360Y-88204060D01*
X97460362Y-88204060D01*
X97480059Y-88206000D01*
X97980147Y-88206000D01*
X98212111Y-88228744D01*
X98416148Y-88290347D01*
X98604336Y-88390408D01*
X98769495Y-88525109D01*
X98905352Y-88689331D01*
X99006724Y-88876814D01*
X99069748Y-89080411D01*
X99094001Y-89311167D01*
X99094000Y-125344000D01*
X84019851Y-125344000D01*
X83982122Y-125340301D01*
X83964921Y-125335107D01*
X83949056Y-125326672D01*
X83935140Y-125315322D01*
X83923682Y-125301472D01*
X83915139Y-125285672D01*
X83909827Y-125268511D01*
X83904275Y-125215689D01*
X83904317Y-125209714D01*
X83903764Y-125204072D01*
X83893564Y-125107023D01*
X83886161Y-125070957D01*
X83879269Y-125034831D01*
X83877631Y-125029404D01*
X83848775Y-124936185D01*
X83834505Y-124902238D01*
X83820729Y-124868142D01*
X83818068Y-124863136D01*
X83771655Y-124777299D01*
X83751078Y-124746793D01*
X83730930Y-124716003D01*
X83727347Y-124711609D01*
X83665145Y-124636420D01*
X83638995Y-124610452D01*
X83613291Y-124584204D01*
X83608929Y-124580595D01*
X83608921Y-124580587D01*
X83608912Y-124580581D01*
X83533302Y-124518914D01*
X83502658Y-124498553D01*
X83472286Y-124477758D01*
X83467299Y-124475061D01*
X83381138Y-124429249D01*
X83347102Y-124415221D01*
X83313299Y-124400733D01*
X83307884Y-124399056D01*
X83214466Y-124370851D01*
X83178345Y-124363699D01*
X83142372Y-124356053D01*
X83136743Y-124355461D01*
X83136738Y-124355460D01*
X83136734Y-124355460D01*
X83039740Y-124345950D01*
X83019941Y-124344000D01*
X50406000Y-124344000D01*
X50406000Y-121777213D01*
X79738001Y-121777213D01*
X79738001Y-122222787D01*
X79824928Y-122659801D01*
X79995442Y-123071458D01*
X80242991Y-123441940D01*
X80558060Y-123757009D01*
X80928542Y-124004558D01*
X81340199Y-124175072D01*
X81777213Y-124261999D01*
X82222787Y-124261999D01*
X82659801Y-124175072D01*
X83071458Y-124004558D01*
X83441940Y-123757009D01*
X83757009Y-123441940D01*
X84004558Y-123071458D01*
X84175072Y-122659801D01*
X84261999Y-122222787D01*
X84261999Y-121777213D01*
X84175072Y-121340199D01*
X84004558Y-120928542D01*
X83757009Y-120558060D01*
X83441940Y-120242991D01*
X83071458Y-119995442D01*
X82659801Y-119824928D01*
X82222787Y-119738001D01*
X81777213Y-119738001D01*
X81340199Y-119824928D01*
X80928542Y-119995442D01*
X80558060Y-120242991D01*
X80242991Y-120558060D01*
X79995442Y-120928542D01*
X79824928Y-121340199D01*
X79738001Y-121777213D01*
X50406000Y-121777213D01*
X50406000Y-115005854D01*
X51582000Y-115005854D01*
X51582000Y-115626145D01*
X51598539Y-115794066D01*
X51663897Y-116009522D01*
X51770032Y-116208088D01*
X51912867Y-116382133D01*
X52086911Y-116524968D01*
X52285477Y-116631103D01*
X52500933Y-116696461D01*
X52725000Y-116718530D01*
X52949066Y-116696461D01*
X53164522Y-116631103D01*
X53363088Y-116524968D01*
X53537133Y-116382133D01*
X53679968Y-116208089D01*
X53786103Y-116009523D01*
X53851461Y-115794067D01*
X53868000Y-115626146D01*
X53868000Y-115005855D01*
X53851461Y-114837934D01*
X53786103Y-114622478D01*
X53679968Y-114423911D01*
X53537133Y-114249867D01*
X53363089Y-114107032D01*
X53164523Y-114000897D01*
X52949067Y-113935539D01*
X52725000Y-113913470D01*
X52500934Y-113935539D01*
X52285478Y-114000897D01*
X52086912Y-114107032D01*
X51912868Y-114249867D01*
X51770033Y-114423911D01*
X51663897Y-114622477D01*
X51598539Y-114837933D01*
X51582000Y-115005854D01*
X50406000Y-115005854D01*
X50406000Y-110841855D01*
X51819000Y-110841855D01*
X51819000Y-111462146D01*
X51835539Y-111630067D01*
X51900897Y-111845523D01*
X52007033Y-112044089D01*
X52149868Y-112218133D01*
X52323912Y-112360968D01*
X52522478Y-112467103D01*
X52737934Y-112532461D01*
X52962000Y-112554530D01*
X53186067Y-112532461D01*
X53401523Y-112467103D01*
X53600089Y-112360968D01*
X53774133Y-112218133D01*
X53916968Y-112044089D01*
X54023103Y-111845522D01*
X54088461Y-111630066D01*
X54105000Y-111462145D01*
X54105000Y-110841854D01*
X54088461Y-110673933D01*
X54023103Y-110458477D01*
X53916968Y-110259911D01*
X53774133Y-110085867D01*
X53600088Y-109943032D01*
X53401522Y-109836897D01*
X53186066Y-109771539D01*
X52962000Y-109749470D01*
X52737933Y-109771539D01*
X52522477Y-109836897D01*
X52323911Y-109943032D01*
X52149867Y-110085867D01*
X52007032Y-110259912D01*
X51900897Y-110458478D01*
X51835539Y-110673934D01*
X51819000Y-110841855D01*
X50406000Y-110841855D01*
X50406000Y-95601855D01*
X51819000Y-95601855D01*
X51819000Y-96222146D01*
X51835539Y-96390067D01*
X51900897Y-96605523D01*
X52007033Y-96804089D01*
X52149868Y-96978133D01*
X52323912Y-97120968D01*
X52522478Y-97227103D01*
X52737934Y-97292461D01*
X52962000Y-97314530D01*
X53186067Y-97292461D01*
X53401523Y-97227103D01*
X53600089Y-97120968D01*
X53774133Y-96978133D01*
X53916968Y-96804089D01*
X54023103Y-96605522D01*
X54088461Y-96390066D01*
X54105000Y-96222145D01*
X54105000Y-95601854D01*
X54088461Y-95433933D01*
X54023103Y-95218477D01*
X53916968Y-95019911D01*
X53774133Y-94845867D01*
X53600088Y-94703032D01*
X53401522Y-94596897D01*
X53186066Y-94531539D01*
X52962000Y-94509470D01*
X52737933Y-94531539D01*
X52522477Y-94596897D01*
X52323911Y-94703032D01*
X52149867Y-94845867D01*
X52007032Y-95019912D01*
X51900897Y-95218478D01*
X51835539Y-95433934D01*
X51819000Y-95601855D01*
X50406000Y-95601855D01*
X50406000Y-87389854D01*
X51582000Y-87389854D01*
X51582000Y-88010145D01*
X51598539Y-88178066D01*
X51663897Y-88393522D01*
X51770032Y-88592088D01*
X51912867Y-88766133D01*
X52086911Y-88908968D01*
X52285477Y-89015103D01*
X52500933Y-89080461D01*
X52725000Y-89102530D01*
X52949066Y-89080461D01*
X53164522Y-89015103D01*
X53363088Y-88908968D01*
X53537133Y-88766133D01*
X53679968Y-88592089D01*
X53786103Y-88393523D01*
X53851461Y-88178067D01*
X53868000Y-88010146D01*
X53868000Y-87389855D01*
X53851461Y-87221934D01*
X53786103Y-87006478D01*
X53679968Y-86807911D01*
X53537133Y-86633867D01*
X53363089Y-86491032D01*
X53164523Y-86384897D01*
X52949067Y-86319539D01*
X52725000Y-86297470D01*
X52500934Y-86319539D01*
X52285478Y-86384897D01*
X52086912Y-86491032D01*
X51912868Y-86633867D01*
X51770033Y-86807911D01*
X51663897Y-87006477D01*
X51598539Y-87221933D01*
X51582000Y-87389854D01*
X50406000Y-87389854D01*
X50406000Y-71512414D01*
X51244600Y-71512414D01*
X51244600Y-71767586D01*
X51294381Y-72017854D01*
X51392031Y-72253602D01*
X51533797Y-72465769D01*
X51714231Y-72646203D01*
X51926398Y-72787969D01*
X52162146Y-72885619D01*
X52412414Y-72935400D01*
X52667586Y-72935400D01*
X52917854Y-72885619D01*
X53153602Y-72787969D01*
X53365769Y-72646203D01*
X53546203Y-72465769D01*
X53687969Y-72253602D01*
X53785619Y-72017854D01*
X53835400Y-71767586D01*
X53835400Y-71512414D01*
X53799088Y-71329855D01*
X53937000Y-71329855D01*
X53937000Y-71950146D01*
X53953539Y-72118067D01*
X54018897Y-72333523D01*
X54125033Y-72532089D01*
X54267868Y-72706133D01*
X54441912Y-72848968D01*
X54572000Y-72918501D01*
X54572001Y-74755046D01*
X54569543Y-74780000D01*
X54579352Y-74879584D01*
X54608400Y-74975343D01*
X54655571Y-75063595D01*
X54703150Y-75121570D01*
X54719053Y-75140948D01*
X54738430Y-75156850D01*
X56192000Y-76610421D01*
X56192001Y-86361565D01*
X56133508Y-86330299D01*
X56061689Y-86308513D01*
X55987000Y-86301157D01*
X54463000Y-86301157D01*
X54388311Y-86308513D01*
X54316492Y-86330299D01*
X54250304Y-86365678D01*
X54192289Y-86413289D01*
X54144678Y-86471304D01*
X54109299Y-86537492D01*
X54087513Y-86609311D01*
X54080157Y-86684000D01*
X54080157Y-88716000D01*
X54087513Y-88790689D01*
X54109299Y-88862508D01*
X54144678Y-88928696D01*
X54192289Y-88986711D01*
X54250304Y-89034322D01*
X54316492Y-89069701D01*
X54388311Y-89091487D01*
X54463000Y-89098843D01*
X55987000Y-89098843D01*
X56061689Y-89091487D01*
X56133508Y-89069701D01*
X56192001Y-89038435D01*
X56192001Y-89289578D01*
X55908434Y-89573145D01*
X55889052Y-89589052D01*
X55825571Y-89666405D01*
X55778399Y-89754658D01*
X55749351Y-89850416D01*
X55746874Y-89875571D01*
X55739543Y-89950000D01*
X55742000Y-89974944D01*
X55742001Y-93325046D01*
X55739543Y-93350000D01*
X55744985Y-93405245D01*
X55749352Y-93449585D01*
X55772271Y-93525139D01*
X55778400Y-93545343D01*
X55825571Y-93633595D01*
X55873150Y-93691570D01*
X55889053Y-93710948D01*
X55908430Y-93726850D01*
X56723145Y-94541565D01*
X56739052Y-94560948D01*
X56816405Y-94624429D01*
X56904657Y-94671601D01*
X57000415Y-94700649D01*
X57023270Y-94702900D01*
X56950994Y-94776271D01*
X56799941Y-95006058D01*
X56696619Y-95260899D01*
X56645000Y-95531000D01*
X56645000Y-95601854D01*
X56628461Y-95433933D01*
X56563103Y-95218477D01*
X56456968Y-95019911D01*
X56314133Y-94845867D01*
X56140088Y-94703032D01*
X55941522Y-94596897D01*
X55726066Y-94531539D01*
X55502000Y-94509470D01*
X55277933Y-94531539D01*
X55062477Y-94596897D01*
X54863911Y-94703032D01*
X54689867Y-94845867D01*
X54547032Y-95019912D01*
X54440897Y-95218478D01*
X54375539Y-95433934D01*
X54359000Y-95601855D01*
X54359000Y-96222146D01*
X54375539Y-96390067D01*
X54440897Y-96605523D01*
X54547033Y-96804089D01*
X54689868Y-96978133D01*
X54863912Y-97120968D01*
X55062478Y-97227103D01*
X55277934Y-97292461D01*
X55502000Y-97314530D01*
X55726067Y-97292461D01*
X55941523Y-97227103D01*
X56140089Y-97120968D01*
X56314133Y-96978133D01*
X56456968Y-96804089D01*
X56563103Y-96605522D01*
X56628461Y-96390066D01*
X56645000Y-96222146D01*
X56645000Y-96293000D01*
X56696619Y-96563101D01*
X56799941Y-96817942D01*
X56950994Y-97047729D01*
X57143974Y-97243632D01*
X57371465Y-97398122D01*
X57624724Y-97505262D01*
X57698930Y-97520220D01*
X57915000Y-97397720D01*
X57915000Y-96039000D01*
X56645000Y-96039000D01*
X56645000Y-95785000D01*
X57915000Y-95785000D01*
X57915000Y-95765000D01*
X58169000Y-95765000D01*
X58169000Y-95785000D01*
X59439000Y-95785000D01*
X59439000Y-96039000D01*
X58169000Y-96039000D01*
X58169000Y-97397720D01*
X58385070Y-97520220D01*
X58459276Y-97505262D01*
X58712535Y-97398122D01*
X58940026Y-97243632D01*
X59133006Y-97047729D01*
X59284059Y-96817942D01*
X59387381Y-96563101D01*
X59439000Y-96293000D01*
X59439000Y-96222146D01*
X59455539Y-96390067D01*
X59520897Y-96605523D01*
X59627033Y-96804089D01*
X59769868Y-96978133D01*
X59943912Y-97120968D01*
X60142478Y-97227103D01*
X60357934Y-97292461D01*
X60582000Y-97314530D01*
X60806067Y-97292461D01*
X61021523Y-97227103D01*
X61220089Y-97120968D01*
X61394133Y-96978133D01*
X61536968Y-96804089D01*
X61643103Y-96605522D01*
X61708461Y-96390066D01*
X61725000Y-96222145D01*
X61725000Y-95601854D01*
X61708461Y-95433933D01*
X61643103Y-95218477D01*
X61536968Y-95019911D01*
X61394133Y-94845867D01*
X61226142Y-94708000D01*
X62469580Y-94708000D01*
X62473311Y-94711731D01*
X62309867Y-94845867D01*
X62167032Y-95019912D01*
X62060897Y-95218478D01*
X61995539Y-95433934D01*
X61979000Y-95601855D01*
X61979000Y-96222146D01*
X61995539Y-96390067D01*
X62060897Y-96605523D01*
X62167033Y-96804089D01*
X62309868Y-96978133D01*
X62483912Y-97120968D01*
X62682478Y-97227103D01*
X62897934Y-97292461D01*
X63122000Y-97314530D01*
X63346067Y-97292461D01*
X63561523Y-97227103D01*
X63760089Y-97120968D01*
X63934133Y-96978133D01*
X64076968Y-96804089D01*
X64183103Y-96605522D01*
X64248461Y-96390066D01*
X64265000Y-96222145D01*
X64265000Y-95601854D01*
X64248461Y-95433933D01*
X64183103Y-95218477D01*
X64076968Y-95019911D01*
X63934133Y-94845867D01*
X63760088Y-94703032D01*
X63631710Y-94634413D01*
X63630000Y-94617053D01*
X63622649Y-94542415D01*
X63593601Y-94446657D01*
X63582494Y-94425878D01*
X63546429Y-94358404D01*
X63498850Y-94300429D01*
X63482948Y-94281052D01*
X63463570Y-94265149D01*
X63398411Y-94199990D01*
X64781570Y-94199990D01*
X65154000Y-94572421D01*
X65154000Y-94633498D01*
X65023911Y-94703032D01*
X64849867Y-94845867D01*
X64707032Y-95019912D01*
X64600897Y-95218478D01*
X64535539Y-95433934D01*
X64519000Y-95601855D01*
X64519000Y-96222146D01*
X64535539Y-96390067D01*
X64600897Y-96605523D01*
X64707033Y-96804089D01*
X64849868Y-96978133D01*
X65023912Y-97120968D01*
X65222478Y-97227103D01*
X65437934Y-97292461D01*
X65662000Y-97314530D01*
X65886067Y-97292461D01*
X66101523Y-97227103D01*
X66245356Y-97150223D01*
X62929580Y-100466000D01*
X62780950Y-100466000D01*
X62633733Y-100495283D01*
X62495058Y-100552724D01*
X62370253Y-100636116D01*
X62264116Y-100742253D01*
X62180724Y-100867058D01*
X62123283Y-101005733D01*
X62094000Y-101152950D01*
X62094000Y-101301580D01*
X60652580Y-102743000D01*
X59079944Y-102743000D01*
X59055000Y-102740543D01*
X59030056Y-102743000D01*
X59030053Y-102743000D01*
X58955415Y-102750351D01*
X58859657Y-102779399D01*
X58771405Y-102826571D01*
X58694052Y-102890052D01*
X58678145Y-102909435D01*
X56430430Y-105157150D01*
X56411053Y-105173052D01*
X56395151Y-105192429D01*
X56395150Y-105192430D01*
X56347571Y-105250405D01*
X56313312Y-105314500D01*
X56300400Y-105338657D01*
X56277520Y-105414084D01*
X56271352Y-105434416D01*
X56261543Y-105534000D01*
X56264001Y-105558954D01*
X56264000Y-110044724D01*
X56140088Y-109943032D01*
X55941522Y-109836897D01*
X55726066Y-109771539D01*
X55502000Y-109749470D01*
X55277933Y-109771539D01*
X55062477Y-109836897D01*
X54863911Y-109943032D01*
X54689867Y-110085867D01*
X54547032Y-110259912D01*
X54440897Y-110458478D01*
X54375539Y-110673934D01*
X54359000Y-110841855D01*
X54359000Y-111462146D01*
X54375539Y-111630067D01*
X54440897Y-111845523D01*
X54547033Y-112044089D01*
X54689868Y-112218133D01*
X54863912Y-112360968D01*
X55062478Y-112467103D01*
X55277934Y-112532461D01*
X55502000Y-112554530D01*
X55726067Y-112532461D01*
X55941523Y-112467103D01*
X56140089Y-112360968D01*
X56264001Y-112259276D01*
X56264000Y-112796946D01*
X56264001Y-112796954D01*
X56264000Y-114036953D01*
X56257711Y-114029289D01*
X56199696Y-113981678D01*
X56133508Y-113946299D01*
X56061689Y-113924513D01*
X55987000Y-113917157D01*
X54463000Y-113917157D01*
X54388311Y-113924513D01*
X54316492Y-113946299D01*
X54250304Y-113981678D01*
X54192289Y-114029289D01*
X54144678Y-114087304D01*
X54109299Y-114153492D01*
X54087513Y-114225311D01*
X54080157Y-114300000D01*
X54080157Y-116332000D01*
X54087513Y-116406689D01*
X54109299Y-116478508D01*
X54144678Y-116544696D01*
X54192289Y-116602711D01*
X54250304Y-116650322D01*
X54316492Y-116685701D01*
X54388311Y-116707487D01*
X54463000Y-116714843D01*
X55987000Y-116714843D01*
X56061689Y-116707487D01*
X56133508Y-116685701D01*
X56199696Y-116650322D01*
X56257711Y-116602711D01*
X56305322Y-116544696D01*
X56340701Y-116478508D01*
X56362487Y-116406689D01*
X56369843Y-116332000D01*
X56369843Y-115807774D01*
X56436343Y-115787601D01*
X56524595Y-115740429D01*
X56601948Y-115676948D01*
X56617855Y-115657565D01*
X57113570Y-115161851D01*
X57132948Y-115145948D01*
X57151624Y-115123190D01*
X57196429Y-115068596D01*
X57243600Y-114980345D01*
X57243601Y-114980342D01*
X57272649Y-114884585D01*
X57280000Y-114809947D01*
X57280000Y-114809945D01*
X57282457Y-114785001D01*
X57280000Y-114760057D01*
X57280000Y-112259275D01*
X57403912Y-112360968D01*
X57602478Y-112467103D01*
X57817934Y-112532461D01*
X58042000Y-112554530D01*
X58266067Y-112532461D01*
X58481523Y-112467103D01*
X58680089Y-112360968D01*
X58854133Y-112218133D01*
X58996968Y-112044089D01*
X59103103Y-111845522D01*
X59168461Y-111630066D01*
X59185000Y-111462145D01*
X59185000Y-110841854D01*
X59168461Y-110673933D01*
X59103103Y-110458477D01*
X58996968Y-110259911D01*
X58854133Y-110085867D01*
X58680088Y-109943032D01*
X58481522Y-109836897D01*
X58266066Y-109771539D01*
X58042000Y-109749470D01*
X57817933Y-109771539D01*
X57602477Y-109836897D01*
X57403911Y-109943032D01*
X57280000Y-110044724D01*
X57280000Y-106317323D01*
X58169000Y-106317323D01*
X58169000Y-106842677D01*
X58271492Y-107357935D01*
X58472536Y-107843298D01*
X58764406Y-108280113D01*
X59135887Y-108651594D01*
X59572702Y-108943464D01*
X60058065Y-109144508D01*
X60573323Y-109247000D01*
X61098677Y-109247000D01*
X61613935Y-109144508D01*
X62099298Y-108943464D01*
X62536113Y-108651594D01*
X62907594Y-108280113D01*
X63199464Y-107843298D01*
X63400508Y-107357935D01*
X63503000Y-106842677D01*
X63503000Y-106317323D01*
X63400508Y-105802065D01*
X63199464Y-105316702D01*
X62907594Y-104879887D01*
X62536113Y-104508406D01*
X62099298Y-104216536D01*
X61613935Y-104015492D01*
X61098677Y-103913000D01*
X60573323Y-103913000D01*
X60058065Y-104015492D01*
X59572702Y-104216536D01*
X59135887Y-104508406D01*
X58764406Y-104879887D01*
X58472536Y-105316702D01*
X58271492Y-105802065D01*
X58169000Y-106317323D01*
X57280000Y-106317323D01*
X57280000Y-105744420D01*
X59265420Y-103759000D01*
X60838056Y-103759000D01*
X60863000Y-103761457D01*
X60887944Y-103759000D01*
X60887947Y-103759000D01*
X60962585Y-103751649D01*
X61058343Y-103722601D01*
X61146595Y-103675429D01*
X61223948Y-103611948D01*
X61239855Y-103592565D01*
X62842420Y-101990000D01*
X62931050Y-101990000D01*
X63078267Y-101960717D01*
X63216942Y-101903276D01*
X63341747Y-101819884D01*
X63447884Y-101713747D01*
X63531276Y-101588942D01*
X63588717Y-101450267D01*
X63618000Y-101303050D01*
X63618000Y-101214420D01*
X67660061Y-97172360D01*
X67762478Y-97227103D01*
X67977934Y-97292461D01*
X68202000Y-97314530D01*
X68426067Y-97292461D01*
X68641523Y-97227103D01*
X68840089Y-97120968D01*
X69014133Y-96978133D01*
X69156968Y-96804089D01*
X69263103Y-96605522D01*
X69328461Y-96390066D01*
X69345000Y-96222145D01*
X69345000Y-95601854D01*
X69328461Y-95433933D01*
X69263103Y-95218477D01*
X69156968Y-95019911D01*
X69014133Y-94845867D01*
X68840088Y-94703032D01*
X68641522Y-94596897D01*
X68426066Y-94531539D01*
X68202000Y-94509470D01*
X67977933Y-94531539D01*
X67762477Y-94596897D01*
X67563911Y-94703032D01*
X67389867Y-94845867D01*
X67247032Y-95019912D01*
X67140897Y-95218478D01*
X67075539Y-95433934D01*
X67059000Y-95601855D01*
X67059000Y-96222146D01*
X67069260Y-96326319D01*
X66646223Y-96749356D01*
X66723103Y-96605522D01*
X66788461Y-96390066D01*
X66805000Y-96222145D01*
X66805000Y-95601854D01*
X66788461Y-95433933D01*
X66723103Y-95218477D01*
X66616968Y-95019911D01*
X66474133Y-94845867D01*
X66300088Y-94703032D01*
X66170000Y-94633499D01*
X66170000Y-94386943D01*
X66172457Y-94361999D01*
X66170000Y-94337053D01*
X66162649Y-94262415D01*
X66133601Y-94166657D01*
X66133600Y-94166655D01*
X66086429Y-94078404D01*
X66038850Y-94020429D01*
X66022948Y-94001052D01*
X66003570Y-93985149D01*
X65368845Y-93350425D01*
X65352938Y-93331042D01*
X65275585Y-93267561D01*
X65187333Y-93220389D01*
X65091575Y-93191341D01*
X65016937Y-93183990D01*
X65016934Y-93183990D01*
X64991990Y-93181533D01*
X64967046Y-93183990D01*
X64579985Y-93183990D01*
X64608089Y-93168968D01*
X64782133Y-93026133D01*
X64924968Y-92852089D01*
X65031103Y-92653522D01*
X65096461Y-92438066D01*
X65113000Y-92270145D01*
X65113000Y-91649854D01*
X65096461Y-91481933D01*
X65031103Y-91266477D01*
X64933865Y-91084555D01*
X65291998Y-90726422D01*
X65917953Y-90726422D01*
X65871911Y-90751032D01*
X65697867Y-90893867D01*
X65555032Y-91067912D01*
X65448897Y-91266478D01*
X65383539Y-91481934D01*
X65367000Y-91649855D01*
X65367000Y-92270146D01*
X65383539Y-92438067D01*
X65448897Y-92653523D01*
X65555033Y-92852089D01*
X65697868Y-93026133D01*
X65871912Y-93168968D01*
X66070478Y-93275103D01*
X66285934Y-93340461D01*
X66510000Y-93362530D01*
X66734067Y-93340461D01*
X66949523Y-93275103D01*
X67148089Y-93168968D01*
X67322133Y-93026133D01*
X67464968Y-92852089D01*
X67571103Y-92653522D01*
X67627381Y-92468000D01*
X68549580Y-92468000D01*
X70234001Y-94152422D01*
X70234001Y-94633498D01*
X70103911Y-94703032D01*
X69929867Y-94845867D01*
X69787032Y-95019912D01*
X69680897Y-95218478D01*
X69615539Y-95433934D01*
X69599000Y-95601855D01*
X69599000Y-96222146D01*
X69615539Y-96390067D01*
X69680897Y-96605523D01*
X69787033Y-96804089D01*
X69929868Y-96978133D01*
X70103912Y-97120968D01*
X70259989Y-97204392D01*
X70270400Y-97238713D01*
X70317571Y-97326965D01*
X70365150Y-97384940D01*
X70381053Y-97404318D01*
X70400430Y-97420220D01*
X73207721Y-100227511D01*
X73183733Y-100232283D01*
X73045058Y-100289724D01*
X72920253Y-100373116D01*
X72814116Y-100479253D01*
X72730724Y-100604058D01*
X72673283Y-100742733D01*
X72644000Y-100889950D01*
X72644000Y-101040050D01*
X72673283Y-101187267D01*
X72730724Y-101325942D01*
X72814116Y-101450747D01*
X72898000Y-101534631D01*
X72898001Y-104521446D01*
X72895543Y-104546400D01*
X72901929Y-104611229D01*
X72905352Y-104645985D01*
X72921863Y-104700415D01*
X72934400Y-104741743D01*
X72981571Y-104829995D01*
X73029150Y-104887970D01*
X73045053Y-104907348D01*
X73064430Y-104923250D01*
X73304400Y-105163221D01*
X73304400Y-106253107D01*
X73158088Y-106133032D01*
X72959522Y-106026897D01*
X72744066Y-105961539D01*
X72520000Y-105939470D01*
X72295933Y-105961539D01*
X72080477Y-106026897D01*
X71881911Y-106133032D01*
X71757991Y-106234731D01*
X71757991Y-100291640D01*
X71841875Y-100207756D01*
X71925267Y-100082951D01*
X71982708Y-99944276D01*
X72011991Y-99797059D01*
X72011991Y-99646959D01*
X71982708Y-99499742D01*
X71925267Y-99361067D01*
X71841875Y-99236262D01*
X71735738Y-99130125D01*
X71610933Y-99046733D01*
X71472258Y-98989292D01*
X71325041Y-98960009D01*
X71174941Y-98960009D01*
X71027724Y-98989292D01*
X70889049Y-99046733D01*
X70764244Y-99130125D01*
X70658107Y-99236262D01*
X70574715Y-99361067D01*
X70517274Y-99499742D01*
X70487991Y-99646959D01*
X70487991Y-99797059D01*
X70517274Y-99944276D01*
X70574715Y-100082951D01*
X70658107Y-100207756D01*
X70741991Y-100291640D01*
X70741992Y-106234717D01*
X70618088Y-106133032D01*
X70419522Y-106026897D01*
X70204066Y-105961539D01*
X69980000Y-105939470D01*
X69755933Y-105961539D01*
X69540477Y-106026897D01*
X69341911Y-106133032D01*
X69167867Y-106275867D01*
X69025032Y-106449912D01*
X68918897Y-106648478D01*
X68853539Y-106863934D01*
X68837107Y-107030767D01*
X68840072Y-106326000D01*
X68827812Y-106201518D01*
X68791502Y-106081820D01*
X68732537Y-105971506D01*
X68653185Y-105874815D01*
X68556494Y-105795463D01*
X68446180Y-105736498D01*
X68326482Y-105700188D01*
X68202000Y-105687928D01*
X67725750Y-105691000D01*
X67567000Y-105849750D01*
X67567000Y-107215000D01*
X68678250Y-107215000D01*
X68837000Y-107056250D01*
X68837000Y-107627750D01*
X68678250Y-107469000D01*
X67567000Y-107469000D01*
X67567000Y-108834250D01*
X67725750Y-108993000D01*
X68202000Y-108996072D01*
X68326482Y-108983812D01*
X68446180Y-108947502D01*
X68556494Y-108888537D01*
X68653185Y-108809185D01*
X68732537Y-108712494D01*
X68791502Y-108602180D01*
X68827812Y-108482482D01*
X68840072Y-108358000D01*
X68837107Y-107653234D01*
X68853539Y-107820067D01*
X68918897Y-108035523D01*
X69025033Y-108234089D01*
X69167868Y-108408133D01*
X69341912Y-108550968D01*
X69540478Y-108657103D01*
X69755934Y-108722461D01*
X69980000Y-108744530D01*
X70204067Y-108722461D01*
X70419523Y-108657103D01*
X70618089Y-108550968D01*
X70741992Y-108449283D01*
X70741992Y-109302217D01*
X70400434Y-109643775D01*
X70381052Y-109659682D01*
X70317571Y-109737035D01*
X70270399Y-109825288D01*
X70259988Y-109859608D01*
X70103911Y-109943032D01*
X69929867Y-110085867D01*
X69787032Y-110259912D01*
X69680897Y-110458478D01*
X69615539Y-110673934D01*
X69599000Y-110841855D01*
X69599000Y-111462146D01*
X69615539Y-111630067D01*
X69680897Y-111845523D01*
X69787033Y-112044089D01*
X69929868Y-112218133D01*
X70103912Y-112360968D01*
X70215102Y-112420400D01*
X68728899Y-112420400D01*
X68840089Y-112360968D01*
X69014133Y-112218133D01*
X69156968Y-112044089D01*
X69263103Y-111845522D01*
X69328461Y-111630066D01*
X69345000Y-111462145D01*
X69345000Y-110841854D01*
X69328461Y-110673933D01*
X69263103Y-110458477D01*
X69156968Y-110259911D01*
X69014133Y-110085867D01*
X68840088Y-109943032D01*
X68641522Y-109836897D01*
X68426066Y-109771539D01*
X68202000Y-109749470D01*
X67977933Y-109771539D01*
X67762477Y-109836897D01*
X67563911Y-109943032D01*
X67389867Y-110085867D01*
X67247032Y-110259912D01*
X67140897Y-110458478D01*
X67075539Y-110673934D01*
X67059000Y-110841855D01*
X67059000Y-111462146D01*
X67075539Y-111630067D01*
X67140897Y-111845523D01*
X67247033Y-112044089D01*
X67389868Y-112218133D01*
X67563912Y-112360968D01*
X67675102Y-112420400D01*
X66378820Y-112420400D01*
X66310689Y-112352269D01*
X66474133Y-112218133D01*
X66616968Y-112044089D01*
X66723103Y-111845522D01*
X66788461Y-111630066D01*
X66805000Y-111462145D01*
X66805000Y-110841854D01*
X66788461Y-110673933D01*
X66723103Y-110458477D01*
X66616968Y-110259911D01*
X66474133Y-110085867D01*
X66300088Y-109943032D01*
X66101522Y-109836897D01*
X65886066Y-109771539D01*
X65662000Y-109749470D01*
X65437933Y-109771539D01*
X65222477Y-109836897D01*
X65023911Y-109943032D01*
X64897000Y-110047186D01*
X64897000Y-108358000D01*
X66039928Y-108358000D01*
X66052188Y-108482482D01*
X66088498Y-108602180D01*
X66147463Y-108712494D01*
X66226815Y-108809185D01*
X66323506Y-108888537D01*
X66433820Y-108947502D01*
X66553518Y-108983812D01*
X66678000Y-108996072D01*
X67154250Y-108993000D01*
X67313000Y-108834250D01*
X67313000Y-107469000D01*
X66201750Y-107469000D01*
X66043000Y-107627750D01*
X66039928Y-108358000D01*
X64897000Y-108358000D01*
X64897000Y-106326000D01*
X66039928Y-106326000D01*
X66043000Y-107056250D01*
X66201750Y-107215000D01*
X67313000Y-107215000D01*
X67313000Y-105849750D01*
X67154250Y-105691000D01*
X66678000Y-105687928D01*
X66553518Y-105700188D01*
X66433820Y-105736498D01*
X66323506Y-105795463D01*
X66226815Y-105874815D01*
X66147463Y-105971506D01*
X66088498Y-106081820D01*
X66052188Y-106201518D01*
X66039928Y-106326000D01*
X64897000Y-106326000D01*
X64897000Y-102321420D01*
X67956421Y-99262000D01*
X68075050Y-99262000D01*
X68222267Y-99232717D01*
X68360942Y-99175276D01*
X68485747Y-99091884D01*
X68591884Y-98985747D01*
X68675276Y-98860942D01*
X68732717Y-98722267D01*
X68762000Y-98575050D01*
X68762000Y-98424950D01*
X68732717Y-98277733D01*
X68675276Y-98139058D01*
X68591884Y-98014253D01*
X68485747Y-97908116D01*
X68360942Y-97824724D01*
X68222267Y-97767283D01*
X68075050Y-97738000D01*
X67924950Y-97738000D01*
X67777733Y-97767283D01*
X67639058Y-97824724D01*
X67514253Y-97908116D01*
X67408116Y-98014253D01*
X67324724Y-98139058D01*
X67267283Y-98277733D01*
X67238000Y-98424950D01*
X67238000Y-98543579D01*
X64047430Y-101734150D01*
X64028053Y-101750052D01*
X64012151Y-101769429D01*
X64012150Y-101769430D01*
X63964571Y-101827405D01*
X63917400Y-101915657D01*
X63888352Y-102011416D01*
X63878543Y-102111000D01*
X63881001Y-102135954D01*
X63881000Y-110042262D01*
X63760088Y-109943032D01*
X63561522Y-109836897D01*
X63346066Y-109771539D01*
X63122000Y-109749470D01*
X62897933Y-109771539D01*
X62682477Y-109836897D01*
X62483911Y-109943032D01*
X62309867Y-110085867D01*
X62167032Y-110259912D01*
X62060897Y-110458478D01*
X61995539Y-110673934D01*
X61979000Y-110841855D01*
X61979000Y-111462146D01*
X61995539Y-111630067D01*
X62060897Y-111845523D01*
X62167033Y-112044089D01*
X62309868Y-112218133D01*
X62483912Y-112360968D01*
X62682478Y-112467103D01*
X62897934Y-112532461D01*
X63122000Y-112554530D01*
X63346067Y-112532461D01*
X63561523Y-112467103D01*
X63760089Y-112360968D01*
X63881000Y-112261738D01*
X63881000Y-113376579D01*
X63312414Y-113945166D01*
X63181515Y-113905458D01*
X62945000Y-113882163D01*
X62708486Y-113905458D01*
X62481060Y-113974447D01*
X62271463Y-114086479D01*
X62087749Y-114237248D01*
X61936980Y-114420962D01*
X61824947Y-114630559D01*
X61755958Y-114857985D01*
X61738500Y-115035237D01*
X61738500Y-115534762D01*
X61755958Y-115712014D01*
X61824947Y-115939440D01*
X61936979Y-116149037D01*
X62087748Y-116332752D01*
X62271462Y-116483521D01*
X62481059Y-116595553D01*
X62708485Y-116664542D01*
X62945000Y-116687837D01*
X63181514Y-116664542D01*
X63408940Y-116595553D01*
X63618537Y-116483521D01*
X63802252Y-116332752D01*
X63953021Y-116149038D01*
X64065053Y-115939441D01*
X64134042Y-115712015D01*
X64151500Y-115534763D01*
X64151500Y-115035238D01*
X64151500Y-115035237D01*
X64238500Y-115035237D01*
X64238500Y-115534762D01*
X64255958Y-115712014D01*
X64324947Y-115939440D01*
X64436979Y-116149037D01*
X64587748Y-116332752D01*
X64771462Y-116483521D01*
X64981059Y-116595553D01*
X65208485Y-116664542D01*
X65445000Y-116687837D01*
X65681514Y-116664542D01*
X65908940Y-116595553D01*
X66118537Y-116483521D01*
X66302252Y-116332752D01*
X66453021Y-116149038D01*
X66565053Y-115939441D01*
X66634042Y-115712015D01*
X66651500Y-115534763D01*
X66651500Y-115035238D01*
X66651500Y-115035237D01*
X66738500Y-115035237D01*
X66738500Y-115534762D01*
X66755958Y-115712014D01*
X66824947Y-115939440D01*
X66936979Y-116149037D01*
X67087748Y-116332752D01*
X67271462Y-116483521D01*
X67481059Y-116595553D01*
X67708485Y-116664542D01*
X67945000Y-116687837D01*
X68181514Y-116664542D01*
X68408940Y-116595553D01*
X68618537Y-116483521D01*
X68802252Y-116332752D01*
X68953021Y-116149038D01*
X69065053Y-115939441D01*
X69134042Y-115712015D01*
X69151500Y-115534763D01*
X69151500Y-115035238D01*
X69134042Y-114857986D01*
X69065053Y-114630560D01*
X68953021Y-114420962D01*
X68802252Y-114237248D01*
X68618538Y-114086479D01*
X68408941Y-113974447D01*
X68181515Y-113905458D01*
X67945000Y-113882163D01*
X67708486Y-113905458D01*
X67481060Y-113974447D01*
X67271463Y-114086479D01*
X67087749Y-114237248D01*
X66936980Y-114420962D01*
X66824947Y-114630559D01*
X66755958Y-114857985D01*
X66738500Y-115035237D01*
X66651500Y-115035237D01*
X66634042Y-114857986D01*
X66565053Y-114630560D01*
X66453021Y-114420962D01*
X66302252Y-114237248D01*
X66118538Y-114086479D01*
X65908941Y-113974447D01*
X65681515Y-113905458D01*
X65445000Y-113882163D01*
X65208486Y-113905458D01*
X64981060Y-113974447D01*
X64771463Y-114086479D01*
X64587749Y-114237248D01*
X64436980Y-114420962D01*
X64324947Y-114630559D01*
X64255958Y-114857985D01*
X64238500Y-115035237D01*
X64151500Y-115035237D01*
X64134042Y-114857986D01*
X64065053Y-114630560D01*
X64064638Y-114629783D01*
X64730571Y-113963850D01*
X64749948Y-113947948D01*
X64775217Y-113917157D01*
X64813429Y-113870596D01*
X64860600Y-113782345D01*
X64867969Y-113758053D01*
X64889649Y-113686585D01*
X64897000Y-113611947D01*
X64897000Y-113611945D01*
X64899457Y-113587001D01*
X64897000Y-113562057D01*
X64897000Y-112256813D01*
X65023912Y-112360968D01*
X65152290Y-112429587D01*
X65154971Y-112456799D01*
X65161352Y-112521585D01*
X65190400Y-112617343D01*
X65237571Y-112705595D01*
X65285150Y-112763570D01*
X65301053Y-112782948D01*
X65320430Y-112798850D01*
X65791545Y-113269965D01*
X65807452Y-113289348D01*
X65884805Y-113352829D01*
X65973057Y-113400001D01*
X66068815Y-113429049D01*
X66143453Y-113436400D01*
X66143456Y-113436400D01*
X66168400Y-113438857D01*
X66193344Y-113436400D01*
X71321180Y-113436400D01*
X70812414Y-113945166D01*
X70681515Y-113905458D01*
X70445000Y-113882163D01*
X70208486Y-113905458D01*
X69981060Y-113974447D01*
X69771463Y-114086479D01*
X69587749Y-114237248D01*
X69436980Y-114420962D01*
X69324947Y-114630559D01*
X69255958Y-114857985D01*
X69238500Y-115035237D01*
X69238500Y-115534762D01*
X69255958Y-115712014D01*
X69324947Y-115939440D01*
X69436979Y-116149037D01*
X69587748Y-116332752D01*
X69771462Y-116483521D01*
X69981059Y-116595553D01*
X70208485Y-116664542D01*
X70445000Y-116687837D01*
X70681514Y-116664542D01*
X70908940Y-116595553D01*
X71118537Y-116483521D01*
X71302252Y-116332752D01*
X71453021Y-116149038D01*
X71565053Y-115939441D01*
X71634042Y-115712015D01*
X71651500Y-115534763D01*
X71651500Y-115035238D01*
X71634042Y-114857986D01*
X71565053Y-114630560D01*
X71564637Y-114629783D01*
X72148420Y-114046000D01*
X72347194Y-114046000D01*
X72271463Y-114086479D01*
X72087749Y-114237248D01*
X71936980Y-114420962D01*
X71824947Y-114630559D01*
X71755958Y-114857985D01*
X71738500Y-115035237D01*
X71738500Y-115534762D01*
X71755958Y-115712014D01*
X71824947Y-115939440D01*
X71936979Y-116149037D01*
X72087748Y-116332752D01*
X72271462Y-116483521D01*
X72481059Y-116595553D01*
X72708485Y-116664542D01*
X72945000Y-116687837D01*
X73181514Y-116664542D01*
X73408940Y-116595553D01*
X73618537Y-116483521D01*
X73802252Y-116332752D01*
X73953021Y-116149038D01*
X73982298Y-116094265D01*
X73981428Y-116301000D01*
X73993688Y-116425482D01*
X74029998Y-116545180D01*
X74088963Y-116655494D01*
X74168315Y-116752185D01*
X74265006Y-116831537D01*
X74375320Y-116890502D01*
X74495018Y-116926812D01*
X74619500Y-116939072D01*
X75159250Y-116936000D01*
X75318000Y-116777250D01*
X75318000Y-115412000D01*
X75572000Y-115412000D01*
X75572000Y-116777250D01*
X75730750Y-116936000D01*
X76270500Y-116939072D01*
X76394982Y-116926812D01*
X76514680Y-116890502D01*
X76624994Y-116831537D01*
X76721685Y-116752185D01*
X76801037Y-116655494D01*
X76860002Y-116545180D01*
X76896312Y-116425482D01*
X76908572Y-116301000D01*
X76905500Y-115570750D01*
X76746750Y-115412000D01*
X75572000Y-115412000D01*
X75318000Y-115412000D01*
X75298000Y-115412000D01*
X75298000Y-115158000D01*
X75318000Y-115158000D01*
X75318000Y-115138000D01*
X75572000Y-115138000D01*
X75572000Y-115158000D01*
X76746750Y-115158000D01*
X76905500Y-114999250D01*
X76908572Y-114269000D01*
X76896312Y-114144518D01*
X76866427Y-114046000D01*
X78435656Y-114046000D01*
X78460600Y-114048457D01*
X78485544Y-114046000D01*
X78485547Y-114046000D01*
X78560185Y-114038649D01*
X78655943Y-114009601D01*
X78744195Y-113962429D01*
X78821548Y-113898948D01*
X78837455Y-113879565D01*
X79970571Y-112746450D01*
X79989948Y-112730548D01*
X80049853Y-112657553D01*
X80053429Y-112653196D01*
X80088902Y-112586830D01*
X80100601Y-112564943D01*
X80129649Y-112469185D01*
X80137000Y-112394547D01*
X80137000Y-112394545D01*
X80139457Y-112369601D01*
X80137000Y-112344657D01*
X80137000Y-112256813D01*
X80263912Y-112360968D01*
X80394001Y-112430501D01*
X80394000Y-114721579D01*
X78148580Y-116967000D01*
X61575421Y-116967000D01*
X61101205Y-116492785D01*
X61118537Y-116483521D01*
X61302252Y-116332752D01*
X61453021Y-116149038D01*
X61565053Y-115939441D01*
X61634042Y-115712015D01*
X61651500Y-115534763D01*
X61651500Y-115035238D01*
X61634042Y-114857986D01*
X61565053Y-114630560D01*
X61453021Y-114420962D01*
X61302252Y-114237248D01*
X61118538Y-114086479D01*
X60908941Y-113974447D01*
X60681515Y-113905458D01*
X60445000Y-113882163D01*
X60208486Y-113905458D01*
X59981060Y-113974447D01*
X59771463Y-114086479D01*
X59587749Y-114237248D01*
X59525000Y-114313708D01*
X59525000Y-114197420D01*
X60923571Y-112798850D01*
X60942948Y-112782948D01*
X60961624Y-112760190D01*
X61006429Y-112705596D01*
X61053600Y-112617345D01*
X61053601Y-112617343D01*
X61082649Y-112521585D01*
X61090000Y-112446947D01*
X61090000Y-112446945D01*
X61091710Y-112429588D01*
X61220089Y-112360968D01*
X61394133Y-112218133D01*
X61536968Y-112044089D01*
X61643103Y-111845522D01*
X61708461Y-111630066D01*
X61725000Y-111462145D01*
X61725000Y-110841854D01*
X61708461Y-110673933D01*
X61643103Y-110458477D01*
X61536968Y-110259911D01*
X61394133Y-110085867D01*
X61220088Y-109943032D01*
X61021522Y-109836897D01*
X60806066Y-109771539D01*
X60582000Y-109749470D01*
X60357933Y-109771539D01*
X60142477Y-109836897D01*
X59943911Y-109943032D01*
X59769867Y-110085867D01*
X59627032Y-110259912D01*
X59520897Y-110458478D01*
X59455539Y-110673934D01*
X59439000Y-110841855D01*
X59439000Y-111462146D01*
X59455539Y-111630067D01*
X59520897Y-111845523D01*
X59627033Y-112044089D01*
X59769868Y-112218133D01*
X59933311Y-112352268D01*
X58675435Y-113610145D01*
X58656052Y-113626052D01*
X58592571Y-113703405D01*
X58545399Y-113791658D01*
X58516351Y-113887416D01*
X58509000Y-113962053D01*
X58506543Y-113987000D01*
X58509000Y-114011944D01*
X58509001Y-116904046D01*
X58506543Y-116929000D01*
X58515474Y-117019674D01*
X58516352Y-117028585D01*
X58524562Y-117055649D01*
X58545400Y-117124343D01*
X58592571Y-117212595D01*
X58640150Y-117270570D01*
X58656053Y-117289948D01*
X58675430Y-117305850D01*
X60411395Y-119041815D01*
X60427302Y-119061198D01*
X60504655Y-119124679D01*
X60592907Y-119171851D01*
X60688665Y-119200899D01*
X60763303Y-119208250D01*
X60763306Y-119208250D01*
X60788250Y-119210707D01*
X60813194Y-119208250D01*
X90608306Y-119208250D01*
X90633250Y-119210707D01*
X90658194Y-119208250D01*
X90658197Y-119208250D01*
X90732835Y-119200899D01*
X90828593Y-119171851D01*
X90916845Y-119124679D01*
X90994198Y-119061198D01*
X91010105Y-119041815D01*
X92091571Y-117960350D01*
X92110948Y-117944448D01*
X92155718Y-117889895D01*
X92174429Y-117867096D01*
X92203588Y-117812543D01*
X92221601Y-117778843D01*
X92250649Y-117683085D01*
X92258000Y-117608447D01*
X92258000Y-117608444D01*
X92260457Y-117583500D01*
X92258000Y-117558556D01*
X92258000Y-117528501D01*
X92388088Y-117458968D01*
X92562133Y-117316133D01*
X92704968Y-117142089D01*
X92811103Y-116943523D01*
X92873448Y-116737998D01*
X92904619Y-116901101D01*
X93007941Y-117155942D01*
X93158994Y-117385729D01*
X93351974Y-117581632D01*
X93579465Y-117736122D01*
X93832724Y-117843262D01*
X93906930Y-117858220D01*
X94123000Y-117735720D01*
X94123000Y-116377000D01*
X94103000Y-116377000D01*
X94103000Y-116123000D01*
X94123000Y-116123000D01*
X94123000Y-114764280D01*
X94377000Y-114764280D01*
X94377000Y-116123000D01*
X94397000Y-116123000D01*
X94397000Y-116377000D01*
X94377000Y-116377000D01*
X94377000Y-117735720D01*
X94593070Y-117858220D01*
X94667276Y-117843262D01*
X94920535Y-117736122D01*
X95148026Y-117581632D01*
X95341006Y-117385729D01*
X95492059Y-117155942D01*
X95595381Y-116901101D01*
X95605157Y-116849947D01*
X95605157Y-117266000D01*
X95612513Y-117340689D01*
X95634299Y-117412508D01*
X95669678Y-117478696D01*
X95717289Y-117536711D01*
X95775304Y-117584322D01*
X95841492Y-117619701D01*
X95913311Y-117641487D01*
X95988000Y-117648843D01*
X97512000Y-117648843D01*
X97586689Y-117641487D01*
X97658508Y-117619701D01*
X97724696Y-117584322D01*
X97782711Y-117536711D01*
X97830322Y-117478696D01*
X97865701Y-117412508D01*
X97887487Y-117340689D01*
X97894843Y-117266000D01*
X97894843Y-115234000D01*
X97887487Y-115159311D01*
X97865701Y-115087492D01*
X97830322Y-115021304D01*
X97782711Y-114963289D01*
X97724696Y-114915678D01*
X97658508Y-114880299D01*
X97586689Y-114858513D01*
X97512000Y-114851157D01*
X95988000Y-114851157D01*
X95913311Y-114858513D01*
X95841492Y-114880299D01*
X95775304Y-114915678D01*
X95717289Y-114963289D01*
X95669678Y-115021304D01*
X95634299Y-115087492D01*
X95612513Y-115159311D01*
X95605157Y-115234000D01*
X95605157Y-115650053D01*
X95595381Y-115598899D01*
X95492059Y-115344058D01*
X95341006Y-115114271D01*
X95148026Y-114918368D01*
X94920535Y-114763878D01*
X94667276Y-114656738D01*
X94593070Y-114641780D01*
X94377000Y-114764280D01*
X94123000Y-114764280D01*
X93906930Y-114641780D01*
X93832724Y-114656738D01*
X93579465Y-114763878D01*
X93351974Y-114918368D01*
X93158994Y-115114271D01*
X93007941Y-115344058D01*
X92904619Y-115598899D01*
X92873448Y-115762002D01*
X92811103Y-115556478D01*
X92704968Y-115357911D01*
X92562133Y-115183867D01*
X92388089Y-115041032D01*
X92189523Y-114934897D01*
X91974067Y-114869539D01*
X91750000Y-114847470D01*
X91525934Y-114869539D01*
X91310478Y-114934897D01*
X91111912Y-115041032D01*
X90937868Y-115183867D01*
X90795033Y-115357911D01*
X90688897Y-115556477D01*
X90623539Y-115771933D01*
X90607000Y-115939854D01*
X90607000Y-116560145D01*
X90623539Y-116728066D01*
X90688897Y-116943522D01*
X90795032Y-117142088D01*
X90937867Y-117316133D01*
X91111911Y-117458968D01*
X91140715Y-117474364D01*
X90422830Y-118192250D01*
X89359671Y-118192250D01*
X89591570Y-117960351D01*
X89610948Y-117944448D01*
X89655718Y-117889895D01*
X89674429Y-117867096D01*
X89721600Y-117778845D01*
X89727743Y-117758594D01*
X89750649Y-117683085D01*
X89758000Y-117608447D01*
X89758000Y-117608445D01*
X89760457Y-117583501D01*
X89758000Y-117558557D01*
X89758000Y-117528501D01*
X89888088Y-117458968D01*
X90062133Y-117316133D01*
X90204968Y-117142089D01*
X90311103Y-116943523D01*
X90376461Y-116728067D01*
X90393000Y-116560146D01*
X90393000Y-115939855D01*
X90376461Y-115771934D01*
X90311103Y-115556478D01*
X90204968Y-115357911D01*
X90062133Y-115183867D01*
X89888089Y-115041032D01*
X89689523Y-114934897D01*
X89474067Y-114869539D01*
X89250000Y-114847470D01*
X89025934Y-114869539D01*
X88810478Y-114934897D01*
X88611912Y-115041032D01*
X88437868Y-115183867D01*
X88295033Y-115357911D01*
X88188897Y-115556477D01*
X88123539Y-115771933D01*
X88107000Y-115939854D01*
X88107000Y-116560145D01*
X88123539Y-116728066D01*
X88188897Y-116943522D01*
X88295032Y-117142088D01*
X88437867Y-117316133D01*
X88611911Y-117458968D01*
X88640715Y-117474364D01*
X88449589Y-117665491D01*
X85998930Y-117665491D01*
X85220000Y-116886562D01*
X85220000Y-112259275D01*
X85343912Y-112360968D01*
X85542478Y-112467103D01*
X85757934Y-112532461D01*
X85982000Y-112554530D01*
X86206067Y-112532461D01*
X86421523Y-112467103D01*
X86620089Y-112360968D01*
X86794133Y-112218133D01*
X86936968Y-112044089D01*
X87006500Y-111914002D01*
X87006500Y-112808079D01*
X86408430Y-113406150D01*
X86389053Y-113422052D01*
X86373151Y-113441429D01*
X86373150Y-113441430D01*
X86325571Y-113499405D01*
X86304942Y-113538000D01*
X86278400Y-113587657D01*
X86250541Y-113679498D01*
X86249352Y-113683416D01*
X86239543Y-113783000D01*
X86242001Y-113807954D01*
X86242001Y-114971499D01*
X86111912Y-115041032D01*
X85937868Y-115183867D01*
X85795033Y-115357911D01*
X85688897Y-115556477D01*
X85623539Y-115771933D01*
X85607000Y-115939854D01*
X85607000Y-116560145D01*
X85623539Y-116728066D01*
X85688897Y-116943522D01*
X85795032Y-117142088D01*
X85937867Y-117316133D01*
X86111911Y-117458968D01*
X86310477Y-117565103D01*
X86525933Y-117630461D01*
X86750000Y-117652530D01*
X86974066Y-117630461D01*
X87189522Y-117565103D01*
X87388088Y-117458968D01*
X87562133Y-117316133D01*
X87704968Y-117142089D01*
X87811103Y-116943523D01*
X87876461Y-116728067D01*
X87893000Y-116560146D01*
X87893000Y-115939855D01*
X87876461Y-115771934D01*
X87811103Y-115556478D01*
X87704968Y-115357911D01*
X87562133Y-115183867D01*
X87388089Y-115041032D01*
X87258000Y-114971498D01*
X87258000Y-113993420D01*
X87856070Y-113395350D01*
X87875448Y-113379448D01*
X87931294Y-113311399D01*
X87938929Y-113302096D01*
X87986100Y-113213845D01*
X87986101Y-113213842D01*
X88015149Y-113118085D01*
X88022500Y-113043447D01*
X88022500Y-113043445D01*
X88024957Y-113018501D01*
X88022500Y-112993557D01*
X88022500Y-111124420D01*
X88289645Y-111391565D01*
X88305552Y-111410948D01*
X88382905Y-111474429D01*
X88471157Y-111521601D01*
X88566915Y-111550649D01*
X88641553Y-111558000D01*
X88641556Y-111558000D01*
X88666500Y-111560457D01*
X88691444Y-111558000D01*
X88721498Y-111558000D01*
X88791032Y-111688089D01*
X88933867Y-111862133D01*
X89107911Y-112004968D01*
X89306477Y-112111103D01*
X89521933Y-112176461D01*
X89689854Y-112193000D01*
X90310146Y-112193000D01*
X90478067Y-112176461D01*
X90693523Y-112111103D01*
X90892089Y-112004968D01*
X91066133Y-111862133D01*
X91208968Y-111688089D01*
X91315103Y-111489523D01*
X91380461Y-111274067D01*
X91402530Y-111050000D01*
X91380461Y-110825933D01*
X91315103Y-110610477D01*
X91208968Y-110411911D01*
X91066133Y-110237867D01*
X90892089Y-110095032D01*
X90693523Y-109988897D01*
X90478067Y-109923539D01*
X90310146Y-109907000D01*
X89689854Y-109907000D01*
X89521933Y-109923539D01*
X89306477Y-109988897D01*
X89107911Y-110095032D01*
X88933867Y-110237867D01*
X88791032Y-110411911D01*
X88775636Y-110440716D01*
X88757250Y-110422330D01*
X88757250Y-109124887D01*
X88791032Y-109188089D01*
X88933867Y-109362133D01*
X89107911Y-109504968D01*
X89306477Y-109611103D01*
X89521933Y-109676461D01*
X89689854Y-109693000D01*
X90310146Y-109693000D01*
X90478067Y-109676461D01*
X90693523Y-109611103D01*
X90892089Y-109504968D01*
X91066133Y-109362133D01*
X91208968Y-109188089D01*
X91315103Y-108989523D01*
X91380461Y-108774067D01*
X91402530Y-108550000D01*
X91380461Y-108325933D01*
X91315103Y-108110477D01*
X91208968Y-107911911D01*
X91066133Y-107737867D01*
X90892089Y-107595032D01*
X90693523Y-107488897D01*
X90478067Y-107423539D01*
X90310146Y-107407000D01*
X89689854Y-107407000D01*
X89521933Y-107423539D01*
X89306477Y-107488897D01*
X89107911Y-107595032D01*
X88933867Y-107737867D01*
X88791032Y-107911911D01*
X88757250Y-107975113D01*
X88757250Y-106624887D01*
X88791032Y-106688089D01*
X88933867Y-106862133D01*
X89107911Y-107004968D01*
X89306477Y-107111103D01*
X89521933Y-107176461D01*
X89689854Y-107193000D01*
X90310146Y-107193000D01*
X90478067Y-107176461D01*
X90693523Y-107111103D01*
X90892089Y-107004968D01*
X91066133Y-106862133D01*
X91208968Y-106688089D01*
X91315103Y-106489523D01*
X91380461Y-106274067D01*
X91402530Y-106050000D01*
X91380461Y-105825933D01*
X91315103Y-105610477D01*
X91208968Y-105411911D01*
X91066133Y-105237867D01*
X90892089Y-105095032D01*
X90693523Y-104988897D01*
X90559200Y-104948150D01*
X91016000Y-104950072D01*
X91140482Y-104937812D01*
X91260180Y-104901502D01*
X91370494Y-104842537D01*
X91467185Y-104763185D01*
X91546537Y-104666494D01*
X91605502Y-104556180D01*
X91641812Y-104436482D01*
X91654072Y-104312000D01*
X91651000Y-103835750D01*
X91492250Y-103677000D01*
X90127000Y-103677000D01*
X90127000Y-103697000D01*
X89873000Y-103697000D01*
X89873000Y-103677000D01*
X88507750Y-103677000D01*
X88349000Y-103835750D01*
X88348927Y-103847006D01*
X87692355Y-103190435D01*
X87676448Y-103171052D01*
X87599095Y-103107571D01*
X87510843Y-103060399D01*
X87415085Y-103031351D01*
X87340447Y-103024000D01*
X87340444Y-103024000D01*
X87315500Y-103021543D01*
X87290556Y-103024000D01*
X87260502Y-103024000D01*
X87190968Y-102893911D01*
X87079428Y-102758000D01*
X88348883Y-102758000D01*
X88345928Y-102788000D01*
X88349000Y-103264250D01*
X88507750Y-103423000D01*
X89873000Y-103423000D01*
X89873000Y-103403000D01*
X90127000Y-103403000D01*
X90127000Y-103423000D01*
X91492250Y-103423000D01*
X91651000Y-103264250D01*
X91654072Y-102788000D01*
X91651117Y-102758000D01*
X92225056Y-102758000D01*
X92250000Y-102760457D01*
X92274944Y-102758000D01*
X92274947Y-102758000D01*
X92349585Y-102750649D01*
X92445343Y-102721601D01*
X92533595Y-102674429D01*
X92610948Y-102610948D01*
X92626855Y-102591565D01*
X98149586Y-97068835D01*
X98168958Y-97052937D01*
X98184856Y-97033565D01*
X98184860Y-97033561D01*
X98232439Y-96975586D01*
X98279610Y-96887334D01*
X98300660Y-96817942D01*
X98308659Y-96791574D01*
X98316010Y-96716936D01*
X98316010Y-96716935D01*
X98318467Y-96691991D01*
X98316010Y-96667046D01*
X98316008Y-89714529D01*
X98318466Y-89689575D01*
X98308657Y-89589990D01*
X98279609Y-89494231D01*
X98232438Y-89405980D01*
X98184859Y-89348005D01*
X98184858Y-89348004D01*
X98168956Y-89328627D01*
X98149579Y-89312725D01*
X97246496Y-88409642D01*
X97230589Y-88390259D01*
X97153236Y-88326778D01*
X97064984Y-88279606D01*
X96969226Y-88250558D01*
X96894588Y-88243207D01*
X96894585Y-88243207D01*
X96869641Y-88240750D01*
X96844697Y-88243207D01*
X95761627Y-88243207D01*
X94389400Y-86870980D01*
X94389400Y-70291745D01*
X94510810Y-70254916D01*
X94614659Y-70199407D01*
X94658963Y-70282294D01*
X94738315Y-70378985D01*
X94835006Y-70458337D01*
X94945320Y-70517302D01*
X95065018Y-70553612D01*
X95189500Y-70565872D01*
X95602250Y-70562800D01*
X95761000Y-70404050D01*
X95761000Y-69165800D01*
X96015000Y-69165800D01*
X96015000Y-70404050D01*
X96173750Y-70562800D01*
X96586500Y-70565872D01*
X96710982Y-70553612D01*
X96830680Y-70517302D01*
X96940994Y-70458337D01*
X97037685Y-70378985D01*
X97117037Y-70282294D01*
X97176002Y-70171980D01*
X97212312Y-70052282D01*
X97224572Y-69927800D01*
X97221500Y-69324550D01*
X97062750Y-69165800D01*
X96015000Y-69165800D01*
X95761000Y-69165800D01*
X95741000Y-69165800D01*
X95741000Y-68911800D01*
X95761000Y-68911800D01*
X95761000Y-67673550D01*
X96015000Y-67673550D01*
X96015000Y-68911800D01*
X97062750Y-68911800D01*
X97221500Y-68753050D01*
X97224572Y-68149800D01*
X97212312Y-68025318D01*
X97176002Y-67905620D01*
X97117037Y-67795306D01*
X97102189Y-67777213D01*
X99738001Y-67777213D01*
X99738001Y-68222787D01*
X99824928Y-68659801D01*
X99995442Y-69071458D01*
X100242991Y-69441940D01*
X100558060Y-69757009D01*
X100928542Y-70004558D01*
X101340199Y-70175072D01*
X101777213Y-70261999D01*
X102222787Y-70261999D01*
X102659801Y-70175072D01*
X103071458Y-70004558D01*
X103441940Y-69757009D01*
X103757009Y-69441940D01*
X104004558Y-69071458D01*
X104175072Y-68659801D01*
X104261999Y-68222787D01*
X104261999Y-67777213D01*
X104175072Y-67340199D01*
X104004558Y-66928542D01*
X103757009Y-66558060D01*
X103441940Y-66242991D01*
X103071458Y-65995442D01*
X102659801Y-65824928D01*
X102222787Y-65738001D01*
X101777213Y-65738001D01*
X101340199Y-65824928D01*
X100928542Y-65995442D01*
X100558060Y-66242991D01*
X100242991Y-66558060D01*
X99995442Y-66928542D01*
X99824928Y-67340199D01*
X99738001Y-67777213D01*
X97102189Y-67777213D01*
X97037685Y-67698615D01*
X96940994Y-67619263D01*
X96830680Y-67560298D01*
X96710982Y-67523988D01*
X96586500Y-67511728D01*
X96173750Y-67514800D01*
X96015000Y-67673550D01*
X95761000Y-67673550D01*
X95602250Y-67514800D01*
X95189500Y-67511728D01*
X95065018Y-67523988D01*
X94945320Y-67560298D01*
X94835006Y-67619263D01*
X94738315Y-67698615D01*
X94658963Y-67795306D01*
X94614659Y-67878193D01*
X94510810Y-67822684D01*
X94373474Y-67781024D01*
X94230650Y-67766957D01*
X93532150Y-67766957D01*
X93389326Y-67781024D01*
X93251990Y-67822684D01*
X93125421Y-67890337D01*
X93014482Y-67981382D01*
X92923437Y-68092321D01*
X92878100Y-68177140D01*
X92832763Y-68092321D01*
X92741718Y-67981382D01*
X92630779Y-67890337D01*
X92504210Y-67822684D01*
X92366874Y-67781024D01*
X92224050Y-67766957D01*
X91525550Y-67766957D01*
X91382726Y-67781024D01*
X91245390Y-67822684D01*
X91118821Y-67890337D01*
X91007882Y-67981382D01*
X90916837Y-68092321D01*
X90871500Y-68177140D01*
X90826163Y-68092321D01*
X90735118Y-67981382D01*
X90624179Y-67890337D01*
X90497610Y-67822684D01*
X90360274Y-67781024D01*
X90217450Y-67766957D01*
X89518950Y-67766957D01*
X89376126Y-67781024D01*
X89238790Y-67822684D01*
X89112221Y-67890337D01*
X89001282Y-67981382D01*
X88910237Y-68092321D01*
X88864900Y-68177140D01*
X88819563Y-68092321D01*
X88728518Y-67981382D01*
X88617579Y-67890337D01*
X88491010Y-67822684D01*
X88353674Y-67781024D01*
X88210850Y-67766957D01*
X87512350Y-67766957D01*
X87369526Y-67781024D01*
X87232190Y-67822684D01*
X87105621Y-67890337D01*
X86994682Y-67981382D01*
X86903637Y-68092321D01*
X86858300Y-68177140D01*
X86812963Y-68092321D01*
X86721918Y-67981382D01*
X86610979Y-67890337D01*
X86484410Y-67822684D01*
X86347074Y-67781024D01*
X86204250Y-67766957D01*
X85505750Y-67766957D01*
X85362926Y-67781024D01*
X85225590Y-67822684D01*
X85099021Y-67890337D01*
X84988082Y-67981382D01*
X84897037Y-68092321D01*
X84851700Y-68177140D01*
X84806363Y-68092321D01*
X84715318Y-67981382D01*
X84604379Y-67890337D01*
X84477810Y-67822684D01*
X84340474Y-67781024D01*
X84197650Y-67766957D01*
X83499150Y-67766957D01*
X83356326Y-67781024D01*
X83218990Y-67822684D01*
X83092421Y-67890337D01*
X82981482Y-67981382D01*
X82890437Y-68092321D01*
X82845100Y-68177140D01*
X82799763Y-68092321D01*
X82708718Y-67981382D01*
X82597779Y-67890337D01*
X82471210Y-67822684D01*
X82333874Y-67781024D01*
X82191050Y-67766957D01*
X81492550Y-67766957D01*
X81349726Y-67781024D01*
X81212390Y-67822684D01*
X81085821Y-67890337D01*
X80974882Y-67981382D01*
X80883837Y-68092321D01*
X80838500Y-68177140D01*
X80793163Y-68092321D01*
X80702118Y-67981382D01*
X80591179Y-67890337D01*
X80464610Y-67822684D01*
X80327274Y-67781024D01*
X80184450Y-67766957D01*
X79485950Y-67766957D01*
X79343126Y-67781024D01*
X79205790Y-67822684D01*
X79079221Y-67890337D01*
X78968282Y-67981382D01*
X78877237Y-68092321D01*
X78831900Y-68177140D01*
X78786563Y-68092321D01*
X78695518Y-67981382D01*
X78584579Y-67890337D01*
X78458010Y-67822684D01*
X78320674Y-67781024D01*
X78177850Y-67766957D01*
X77479350Y-67766957D01*
X77336526Y-67781024D01*
X77199190Y-67822684D01*
X77072621Y-67890337D01*
X76961682Y-67981382D01*
X76870637Y-68092321D01*
X76802984Y-68218890D01*
X76761324Y-68356226D01*
X76747257Y-68499050D01*
X76747257Y-69578550D01*
X76761324Y-69721374D01*
X76802984Y-69858710D01*
X76870637Y-69985279D01*
X76961682Y-70096218D01*
X77072621Y-70187263D01*
X77199190Y-70254916D01*
X77336526Y-70296576D01*
X77479350Y-70310643D01*
X78177850Y-70310643D01*
X78320674Y-70296576D01*
X78458010Y-70254916D01*
X78584579Y-70187263D01*
X78695518Y-70096218D01*
X78786563Y-69985279D01*
X78831900Y-69900460D01*
X78877237Y-69985279D01*
X78968282Y-70096218D01*
X79079221Y-70187263D01*
X79205790Y-70254916D01*
X79343126Y-70296576D01*
X79485950Y-70310643D01*
X80184450Y-70310643D01*
X80327274Y-70296576D01*
X80464610Y-70254916D01*
X80591179Y-70187263D01*
X80702118Y-70096218D01*
X80793163Y-69985279D01*
X80838500Y-69900460D01*
X80883837Y-69985279D01*
X80974882Y-70096218D01*
X81085821Y-70187263D01*
X81212390Y-70254916D01*
X81349726Y-70296576D01*
X81492550Y-70310643D01*
X82191050Y-70310643D01*
X82333874Y-70296576D01*
X82471210Y-70254916D01*
X82597779Y-70187263D01*
X82708718Y-70096218D01*
X82799763Y-69985279D01*
X82845100Y-69900460D01*
X82890437Y-69985279D01*
X82981482Y-70096218D01*
X83092421Y-70187263D01*
X83218990Y-70254916D01*
X83356326Y-70296576D01*
X83499150Y-70310643D01*
X84197650Y-70310643D01*
X84340474Y-70296576D01*
X84477810Y-70254916D01*
X84604379Y-70187263D01*
X84715318Y-70096218D01*
X84806363Y-69985279D01*
X84851700Y-69900460D01*
X84897037Y-69985279D01*
X84988082Y-70096218D01*
X85099021Y-70187263D01*
X85225590Y-70254916D01*
X85362926Y-70296576D01*
X85505750Y-70310643D01*
X86204250Y-70310643D01*
X86347074Y-70296576D01*
X86484410Y-70254916D01*
X86610979Y-70187263D01*
X86721918Y-70096218D01*
X86812963Y-69985279D01*
X86858300Y-69900460D01*
X86903637Y-69985279D01*
X86994682Y-70096218D01*
X87105621Y-70187263D01*
X87232190Y-70254916D01*
X87353601Y-70291745D01*
X87353600Y-77154979D01*
X76048930Y-88459650D01*
X76031115Y-88477465D01*
X76011738Y-88493367D01*
X75995836Y-88512744D01*
X75995835Y-88512745D01*
X75948256Y-88570720D01*
X75910607Y-88641157D01*
X75901085Y-88658972D01*
X75876631Y-88739588D01*
X75872037Y-88754731D01*
X75862228Y-88854315D01*
X75864686Y-88879269D01*
X75864685Y-92349741D01*
X75862228Y-92374685D01*
X75864685Y-92399629D01*
X75864685Y-92399631D01*
X75872036Y-92474269D01*
X75901084Y-92570027D01*
X75948256Y-92658280D01*
X76011737Y-92735633D01*
X76031120Y-92751540D01*
X77851000Y-94571420D01*
X77851000Y-94635102D01*
X77723911Y-94703032D01*
X77549867Y-94845867D01*
X77407032Y-95019912D01*
X77300897Y-95218478D01*
X77235539Y-95433934D01*
X77219000Y-95601855D01*
X77219000Y-96222146D01*
X77235539Y-96390067D01*
X77300897Y-96605523D01*
X77407033Y-96804089D01*
X77549868Y-96978133D01*
X77723912Y-97120968D01*
X77838096Y-97182000D01*
X76345905Y-97182000D01*
X76460089Y-97120968D01*
X76634133Y-96978133D01*
X76776968Y-96804089D01*
X76883103Y-96605522D01*
X76948461Y-96390066D01*
X76965000Y-96222145D01*
X76965000Y-95601854D01*
X76948461Y-95433933D01*
X76883103Y-95218477D01*
X76776968Y-95019911D01*
X76634133Y-94845867D01*
X76460088Y-94703032D01*
X76331710Y-94634413D01*
X76330000Y-94617053D01*
X76322649Y-94542415D01*
X76293601Y-94446657D01*
X76282494Y-94425878D01*
X76246429Y-94358404D01*
X76198850Y-94300429D01*
X76182948Y-94281052D01*
X76163570Y-94265149D01*
X75808000Y-93909580D01*
X75808000Y-85724944D01*
X75810457Y-85700000D01*
X75808000Y-85675053D01*
X75800649Y-85600415D01*
X75771601Y-85504657D01*
X75724429Y-85416405D01*
X75660948Y-85339052D01*
X75641565Y-85323145D01*
X68308000Y-77989580D01*
X68308000Y-77118943D01*
X68310457Y-77093999D01*
X68308000Y-77069053D01*
X68300649Y-76994415D01*
X68271601Y-76898657D01*
X68257139Y-76871600D01*
X68224429Y-76810404D01*
X68176850Y-76752429D01*
X68160948Y-76733052D01*
X68141571Y-76717150D01*
X67881744Y-76457323D01*
X68923000Y-76457323D01*
X68923000Y-76982677D01*
X69025492Y-77497935D01*
X69226536Y-77983298D01*
X69518406Y-78420113D01*
X69889887Y-78791594D01*
X70326702Y-79083464D01*
X70812065Y-79284508D01*
X71327323Y-79387000D01*
X71852677Y-79387000D01*
X72367935Y-79284508D01*
X72853298Y-79083464D01*
X73290113Y-78791594D01*
X73661594Y-78420113D01*
X73953464Y-77983298D01*
X74154508Y-77497935D01*
X74257000Y-76982677D01*
X74257000Y-76457323D01*
X74154508Y-75942065D01*
X73953464Y-75456702D01*
X73868353Y-75329323D01*
X78997000Y-75329323D01*
X78997000Y-75854677D01*
X79099492Y-76369935D01*
X79300536Y-76855298D01*
X79592406Y-77292113D01*
X79963887Y-77663594D01*
X80400702Y-77955464D01*
X80886065Y-78156508D01*
X81401323Y-78259000D01*
X81926677Y-78259000D01*
X82441935Y-78156508D01*
X82927298Y-77955464D01*
X83364113Y-77663594D01*
X83735594Y-77292113D01*
X84027464Y-76855298D01*
X84228508Y-76369935D01*
X84331000Y-75854677D01*
X84331000Y-75329323D01*
X84228508Y-74814065D01*
X84027464Y-74328702D01*
X83735594Y-73891887D01*
X83364113Y-73520406D01*
X82927298Y-73228536D01*
X82441935Y-73027492D01*
X81926677Y-72925000D01*
X81401323Y-72925000D01*
X80886065Y-73027492D01*
X80400702Y-73228536D01*
X79963887Y-73520406D01*
X79592406Y-73891887D01*
X79300536Y-74328702D01*
X79099492Y-74814065D01*
X78997000Y-75329323D01*
X73868353Y-75329323D01*
X73661594Y-75019887D01*
X73290113Y-74648406D01*
X72853298Y-74356536D01*
X72367935Y-74155492D01*
X71852677Y-74053000D01*
X71327323Y-74053000D01*
X70812065Y-74155492D01*
X70326702Y-74356536D01*
X69889887Y-74648406D01*
X69518406Y-75019887D01*
X69226536Y-75456702D01*
X69025492Y-75942065D01*
X68923000Y-76457323D01*
X67881744Y-76457323D01*
X63760002Y-72335582D01*
X63761103Y-72333522D01*
X63826461Y-72118066D01*
X63843000Y-71950145D01*
X63843000Y-71329855D01*
X64097000Y-71329855D01*
X64097000Y-71950146D01*
X64113539Y-72118067D01*
X64178897Y-72333523D01*
X64285033Y-72532089D01*
X64427868Y-72706133D01*
X64601912Y-72848968D01*
X64800478Y-72955103D01*
X65015934Y-73020461D01*
X65240000Y-73042530D01*
X65464067Y-73020461D01*
X65679523Y-72955103D01*
X65878089Y-72848968D01*
X66052133Y-72706133D01*
X66194968Y-72532089D01*
X66301103Y-72333522D01*
X66366461Y-72118066D01*
X66383000Y-71950145D01*
X66383000Y-71329855D01*
X66637000Y-71329855D01*
X66637000Y-71950146D01*
X66653539Y-72118067D01*
X66718897Y-72333523D01*
X66825033Y-72532089D01*
X66967868Y-72706133D01*
X67141912Y-72848968D01*
X67340478Y-72955103D01*
X67555934Y-73020461D01*
X67780000Y-73042530D01*
X68004067Y-73020461D01*
X68219523Y-72955103D01*
X68418089Y-72848968D01*
X68592133Y-72706133D01*
X68734968Y-72532089D01*
X68841103Y-72333522D01*
X68906461Y-72118066D01*
X68923000Y-71950145D01*
X68923000Y-71329855D01*
X69177000Y-71329855D01*
X69177000Y-71950146D01*
X69193539Y-72118067D01*
X69258897Y-72333523D01*
X69365033Y-72532089D01*
X69507868Y-72706133D01*
X69681912Y-72848968D01*
X69880478Y-72955103D01*
X70095934Y-73020461D01*
X70320000Y-73042530D01*
X70544067Y-73020461D01*
X70759523Y-72955103D01*
X70958089Y-72848968D01*
X71132133Y-72706133D01*
X71274968Y-72532089D01*
X71381103Y-72333522D01*
X71446461Y-72118066D01*
X71463000Y-71950145D01*
X71463000Y-71329855D01*
X71717000Y-71329855D01*
X71717000Y-71950146D01*
X71733539Y-72118067D01*
X71798897Y-72333523D01*
X71905033Y-72532089D01*
X72047868Y-72706133D01*
X72221912Y-72848968D01*
X72420478Y-72955103D01*
X72635934Y-73020461D01*
X72860000Y-73042530D01*
X73084067Y-73020461D01*
X73299523Y-72955103D01*
X73498089Y-72848968D01*
X73672133Y-72706133D01*
X73814968Y-72532089D01*
X73921103Y-72333522D01*
X73986461Y-72118066D01*
X74003000Y-71950145D01*
X74003000Y-71329854D01*
X73986461Y-71161933D01*
X73921103Y-70946477D01*
X73814968Y-70747911D01*
X73672133Y-70573867D01*
X73498088Y-70431032D01*
X73299522Y-70324897D01*
X73084066Y-70259539D01*
X72860000Y-70237470D01*
X72635933Y-70259539D01*
X72420477Y-70324897D01*
X72221911Y-70431032D01*
X72047867Y-70573867D01*
X71905032Y-70747912D01*
X71798897Y-70946478D01*
X71733539Y-71161934D01*
X71717000Y-71329855D01*
X71463000Y-71329855D01*
X71463000Y-71329854D01*
X71446461Y-71161933D01*
X71381103Y-70946477D01*
X71274968Y-70747911D01*
X71132133Y-70573867D01*
X70958088Y-70431032D01*
X70759522Y-70324897D01*
X70544066Y-70259539D01*
X70320000Y-70237470D01*
X70095933Y-70259539D01*
X69880477Y-70324897D01*
X69681911Y-70431032D01*
X69507867Y-70573867D01*
X69365032Y-70747912D01*
X69258897Y-70946478D01*
X69193539Y-71161934D01*
X69177000Y-71329855D01*
X68923000Y-71329855D01*
X68923000Y-71329854D01*
X68906461Y-71161933D01*
X68841103Y-70946477D01*
X68734968Y-70747911D01*
X68592133Y-70573867D01*
X68418088Y-70431032D01*
X68219522Y-70324897D01*
X68004066Y-70259539D01*
X67780000Y-70237470D01*
X67555933Y-70259539D01*
X67340477Y-70324897D01*
X67141911Y-70431032D01*
X66967867Y-70573867D01*
X66825032Y-70747912D01*
X66718897Y-70946478D01*
X66653539Y-71161934D01*
X66637000Y-71329855D01*
X66383000Y-71329855D01*
X66383000Y-71329854D01*
X66366461Y-71161933D01*
X66301103Y-70946477D01*
X66194968Y-70747911D01*
X66052133Y-70573867D01*
X65878088Y-70431032D01*
X65679522Y-70324897D01*
X65464066Y-70259539D01*
X65240000Y-70237470D01*
X65015933Y-70259539D01*
X64800477Y-70324897D01*
X64601911Y-70431032D01*
X64427867Y-70573867D01*
X64285032Y-70747912D01*
X64178897Y-70946478D01*
X64113539Y-71161934D01*
X64097000Y-71329855D01*
X63843000Y-71329855D01*
X63843000Y-71329854D01*
X63826461Y-71161933D01*
X63761103Y-70946477D01*
X63654968Y-70747911D01*
X63512133Y-70573867D01*
X63338088Y-70431032D01*
X63139522Y-70324897D01*
X62924066Y-70259539D01*
X62700000Y-70237470D01*
X62475933Y-70259539D01*
X62260477Y-70324897D01*
X62061911Y-70431032D01*
X61887867Y-70573867D01*
X61745032Y-70747912D01*
X61638897Y-70946478D01*
X61573539Y-71161934D01*
X61557000Y-71329855D01*
X61557000Y-71950146D01*
X61573539Y-72118067D01*
X61638897Y-72333523D01*
X61745033Y-72532089D01*
X61887868Y-72706133D01*
X62061912Y-72848968D01*
X62260478Y-72955103D01*
X62475934Y-73020461D01*
X62700000Y-73042530D01*
X62924067Y-73020461D01*
X62988496Y-73000917D01*
X67292000Y-77304421D01*
X67292001Y-78175046D01*
X67289543Y-78200000D01*
X67299352Y-78299584D01*
X67328400Y-78395343D01*
X67375571Y-78483595D01*
X67423150Y-78541570D01*
X67439053Y-78560948D01*
X67458430Y-78576850D01*
X74792000Y-85910420D01*
X74792001Y-94095046D01*
X74789543Y-94120000D01*
X74794591Y-94171244D01*
X74799352Y-94219585D01*
X74812345Y-94262416D01*
X74828400Y-94315343D01*
X74875571Y-94403595D01*
X74910912Y-94446658D01*
X74939053Y-94480948D01*
X74958430Y-94496850D01*
X75173311Y-94711731D01*
X75009867Y-94845867D01*
X74867032Y-95019912D01*
X74760897Y-95218478D01*
X74695539Y-95433934D01*
X74679000Y-95601855D01*
X74679000Y-96222146D01*
X74695539Y-96390067D01*
X74760897Y-96605523D01*
X74867033Y-96804089D01*
X74971002Y-96930774D01*
X74837733Y-96957283D01*
X74699058Y-97014724D01*
X74574253Y-97098116D01*
X74468116Y-97204253D01*
X74384724Y-97329058D01*
X74327283Y-97467733D01*
X74298000Y-97614950D01*
X74298000Y-97765050D01*
X74327283Y-97912267D01*
X74384724Y-98050942D01*
X74468116Y-98175747D01*
X74574253Y-98281884D01*
X74699058Y-98365276D01*
X74837733Y-98422717D01*
X74984950Y-98452000D01*
X75135050Y-98452000D01*
X75282267Y-98422717D01*
X75420942Y-98365276D01*
X75545747Y-98281884D01*
X75629631Y-98198000D01*
X84179056Y-98198000D01*
X84204000Y-98200457D01*
X84228944Y-98198000D01*
X84228947Y-98198000D01*
X84303585Y-98190649D01*
X84399343Y-98161601D01*
X84487595Y-98114429D01*
X84564948Y-98050948D01*
X84580855Y-98031565D01*
X84743778Y-97868642D01*
X84666897Y-98012477D01*
X84601539Y-98227933D01*
X84579470Y-98452000D01*
X84601539Y-98676067D01*
X84666897Y-98891523D01*
X84773032Y-99090089D01*
X84852565Y-99187000D01*
X83624631Y-99187000D01*
X83540747Y-99103116D01*
X83415942Y-99019724D01*
X83277267Y-98962283D01*
X83130050Y-98933000D01*
X82979950Y-98933000D01*
X82832733Y-98962283D01*
X82694058Y-99019724D01*
X82569253Y-99103116D01*
X82463116Y-99209253D01*
X82379724Y-99334058D01*
X82322283Y-99472733D01*
X82293000Y-99619950D01*
X82293000Y-99770050D01*
X82322283Y-99917267D01*
X82379724Y-100055942D01*
X82463116Y-100180747D01*
X82569253Y-100286884D01*
X82694058Y-100370276D01*
X82832733Y-100427717D01*
X82979950Y-100457000D01*
X83130050Y-100457000D01*
X83277267Y-100427717D01*
X83415942Y-100370276D01*
X83540747Y-100286884D01*
X83624631Y-100203000D01*
X84896882Y-100203000D01*
X84773032Y-100353911D01*
X84666897Y-100552477D01*
X84601539Y-100767933D01*
X84579470Y-100992000D01*
X84601539Y-101216067D01*
X84666897Y-101431523D01*
X84773032Y-101630089D01*
X84864875Y-101742000D01*
X81710421Y-101742000D01*
X79512000Y-99543580D01*
X79512000Y-99424950D01*
X79482717Y-99277733D01*
X79425276Y-99139058D01*
X79341884Y-99014253D01*
X79235747Y-98908116D01*
X79110942Y-98824724D01*
X78972267Y-98767283D01*
X78825050Y-98738000D01*
X78674950Y-98738000D01*
X78527733Y-98767283D01*
X78389058Y-98824724D01*
X78264253Y-98908116D01*
X78158116Y-99014253D01*
X78074724Y-99139058D01*
X78017283Y-99277733D01*
X77988000Y-99424950D01*
X77988000Y-99575050D01*
X78017283Y-99722267D01*
X78074724Y-99860942D01*
X78158116Y-99985747D01*
X78264253Y-100091884D01*
X78389058Y-100175276D01*
X78527733Y-100232717D01*
X78674950Y-100262000D01*
X78793580Y-100262000D01*
X81123150Y-102591571D01*
X81139052Y-102610948D01*
X81158429Y-102626850D01*
X81216404Y-102674429D01*
X81301413Y-102719867D01*
X81304657Y-102721601D01*
X81400415Y-102750649D01*
X81475053Y-102758000D01*
X81475055Y-102758000D01*
X81499999Y-102760457D01*
X81524943Y-102758000D01*
X84884572Y-102758000D01*
X84773032Y-102893911D01*
X84666897Y-103092477D01*
X84601539Y-103307933D01*
X84579470Y-103532000D01*
X84599032Y-103730611D01*
X84114355Y-103245935D01*
X84098448Y-103226552D01*
X84021095Y-103163071D01*
X83932843Y-103115899D01*
X83837085Y-103086851D01*
X83762447Y-103079500D01*
X83762444Y-103079500D01*
X83737500Y-103077043D01*
X83712556Y-103079500D01*
X78651920Y-103079500D01*
X73790000Y-98217580D01*
X73790000Y-97190502D01*
X73920089Y-97120968D01*
X74094133Y-96978133D01*
X74236968Y-96804089D01*
X74343103Y-96605522D01*
X74408461Y-96390066D01*
X74425000Y-96222145D01*
X74425000Y-95601854D01*
X74408461Y-95433933D01*
X74343103Y-95218477D01*
X74236968Y-95019911D01*
X74094133Y-94845867D01*
X73920088Y-94703032D01*
X73808000Y-94643120D01*
X73808000Y-94524944D01*
X73810457Y-94500000D01*
X73806575Y-94460584D01*
X73800649Y-94400415D01*
X73771601Y-94304657D01*
X73744960Y-94254815D01*
X73724429Y-94216404D01*
X73676850Y-94158429D01*
X73660948Y-94139052D01*
X73641571Y-94123150D01*
X69441570Y-89923150D01*
X69441566Y-89923147D01*
X69395278Y-89876859D01*
X69379370Y-89857474D01*
X69302017Y-89793993D01*
X69213765Y-89746821D01*
X69118007Y-89717773D01*
X69043369Y-89710422D01*
X69043366Y-89710422D01*
X69018422Y-89707965D01*
X68993478Y-89710422D01*
X65106522Y-89710422D01*
X65081578Y-89707965D01*
X65056634Y-89710422D01*
X65056631Y-89710422D01*
X64981993Y-89717773D01*
X64886235Y-89746821D01*
X64797983Y-89793993D01*
X64720630Y-89857474D01*
X64704723Y-89876857D01*
X64019258Y-90562322D01*
X63970000Y-90557470D01*
X63745933Y-90579539D01*
X63530477Y-90644897D01*
X63331911Y-90751032D01*
X63157867Y-90893867D01*
X63015032Y-91067912D01*
X62908897Y-91266478D01*
X62843539Y-91481934D01*
X62827000Y-91649854D01*
X62827000Y-91579000D01*
X62775381Y-91308899D01*
X62672059Y-91054058D01*
X62521006Y-90824271D01*
X62328026Y-90628368D01*
X62100535Y-90473878D01*
X61847276Y-90366738D01*
X61773070Y-90351780D01*
X61557000Y-90474280D01*
X61557000Y-91833000D01*
X62827000Y-91833000D01*
X62827000Y-92087000D01*
X61557000Y-92087000D01*
X61557000Y-92107000D01*
X61303000Y-92107000D01*
X61303000Y-92087000D01*
X61283000Y-92087000D01*
X61283000Y-91833000D01*
X61303000Y-91833000D01*
X61303000Y-90474280D01*
X61086930Y-90351780D01*
X61012724Y-90366738D01*
X60759465Y-90473878D01*
X60531974Y-90628368D01*
X60338994Y-90824271D01*
X60187941Y-91054058D01*
X60084619Y-91308899D01*
X60034843Y-91569356D01*
X60034843Y-90944000D01*
X60027487Y-90869311D01*
X60005701Y-90797492D01*
X59970322Y-90731304D01*
X59922711Y-90673289D01*
X59864696Y-90625678D01*
X59798508Y-90590299D01*
X59726689Y-90568513D01*
X59652000Y-90561157D01*
X58128000Y-90561157D01*
X58053311Y-90568513D01*
X57981492Y-90590299D01*
X57915304Y-90625678D01*
X57857289Y-90673289D01*
X57809678Y-90731304D01*
X57774299Y-90797492D01*
X57752513Y-90869311D01*
X57745157Y-90944000D01*
X57745157Y-92976000D01*
X57752513Y-93050689D01*
X57774299Y-93122508D01*
X57807163Y-93183990D01*
X57702411Y-93183990D01*
X57417217Y-92898797D01*
X57417217Y-90219637D01*
X57961570Y-89675284D01*
X57980948Y-89659382D01*
X58022763Y-89608430D01*
X58044429Y-89582030D01*
X58088274Y-89500001D01*
X58091601Y-89493777D01*
X58120649Y-89398019D01*
X58128000Y-89323381D01*
X58128000Y-89323378D01*
X58130457Y-89298434D01*
X58128000Y-89273490D01*
X58128000Y-86617323D01*
X68923000Y-86617323D01*
X68923000Y-87142677D01*
X69025492Y-87657935D01*
X69226536Y-88143298D01*
X69518406Y-88580113D01*
X69889887Y-88951594D01*
X70326702Y-89243464D01*
X70812065Y-89444508D01*
X71327323Y-89547000D01*
X71852677Y-89547000D01*
X72367935Y-89444508D01*
X72853298Y-89243464D01*
X73290113Y-88951594D01*
X73661594Y-88580113D01*
X73953464Y-88143298D01*
X74154508Y-87657935D01*
X74257000Y-87142677D01*
X74257000Y-86617323D01*
X74154508Y-86102065D01*
X73953464Y-85616702D01*
X73661594Y-85179887D01*
X73290113Y-84808406D01*
X72853298Y-84516536D01*
X72367935Y-84315492D01*
X71852677Y-84213000D01*
X71327323Y-84213000D01*
X70812065Y-84315492D01*
X70326702Y-84516536D01*
X69889887Y-84808406D01*
X69518406Y-85179887D01*
X69226536Y-85616702D01*
X69025492Y-86102065D01*
X68923000Y-86617323D01*
X58128000Y-86617323D01*
X58128000Y-75329323D01*
X58169000Y-75329323D01*
X58169000Y-75854677D01*
X58271492Y-76369935D01*
X58472536Y-76855298D01*
X58764406Y-77292113D01*
X59135887Y-77663594D01*
X59572702Y-77955464D01*
X60058065Y-78156508D01*
X60573323Y-78259000D01*
X61098677Y-78259000D01*
X61613935Y-78156508D01*
X62099298Y-77955464D01*
X62536113Y-77663594D01*
X62907594Y-77292113D01*
X63199464Y-76855298D01*
X63400508Y-76369935D01*
X63503000Y-75854677D01*
X63503000Y-75329323D01*
X63400508Y-74814065D01*
X63199464Y-74328702D01*
X62907594Y-73891887D01*
X62536113Y-73520406D01*
X62099298Y-73228536D01*
X61613935Y-73027492D01*
X61098677Y-72925000D01*
X60655842Y-72925000D01*
X60798089Y-72848968D01*
X60972133Y-72706133D01*
X61114968Y-72532089D01*
X61221103Y-72333522D01*
X61286461Y-72118066D01*
X61303000Y-71950145D01*
X61303000Y-71329854D01*
X61286461Y-71161933D01*
X61221103Y-70946477D01*
X61114968Y-70747911D01*
X60972133Y-70573867D01*
X60798088Y-70431032D01*
X60599522Y-70324897D01*
X60384066Y-70259539D01*
X60160000Y-70237470D01*
X59935933Y-70259539D01*
X59720477Y-70324897D01*
X59521911Y-70431032D01*
X59347867Y-70573867D01*
X59205032Y-70747912D01*
X59098897Y-70946478D01*
X59033539Y-71161934D01*
X59017000Y-71329855D01*
X59017000Y-71950146D01*
X59033539Y-72118067D01*
X59098897Y-72333523D01*
X59205033Y-72532089D01*
X59347868Y-72706133D01*
X59521912Y-72848968D01*
X59720478Y-72955103D01*
X59935934Y-73020461D01*
X60048317Y-73031530D01*
X59572702Y-73228536D01*
X59135887Y-73520406D01*
X58764406Y-73891887D01*
X58472536Y-74328702D01*
X58271492Y-74814065D01*
X58169000Y-75329323D01*
X58128000Y-75329323D01*
X58128000Y-72918502D01*
X58258089Y-72848968D01*
X58432133Y-72706133D01*
X58574968Y-72532089D01*
X58681103Y-72333522D01*
X58746461Y-72118066D01*
X58763000Y-71950145D01*
X58763000Y-71329854D01*
X58746461Y-71161933D01*
X58681103Y-70946477D01*
X58574968Y-70747911D01*
X58432133Y-70573867D01*
X58258088Y-70431032D01*
X58059522Y-70324897D01*
X57844066Y-70259539D01*
X57620000Y-70237470D01*
X57395933Y-70259539D01*
X57180477Y-70324897D01*
X56981911Y-70431032D01*
X56807867Y-70573867D01*
X56665032Y-70747912D01*
X56558897Y-70946478D01*
X56493539Y-71161934D01*
X56477000Y-71329855D01*
X56477000Y-71950146D01*
X56493539Y-72118067D01*
X56558897Y-72333523D01*
X56665033Y-72532089D01*
X56807868Y-72706133D01*
X56981912Y-72848968D01*
X57112000Y-72918501D01*
X57112000Y-76101260D01*
X57076850Y-76058429D01*
X57060948Y-76039052D01*
X57041571Y-76023150D01*
X55588000Y-74569580D01*
X55588000Y-72918502D01*
X55718089Y-72848968D01*
X55892133Y-72706133D01*
X56034968Y-72532089D01*
X56141103Y-72333522D01*
X56206461Y-72118066D01*
X56223000Y-71950145D01*
X56223000Y-71329854D01*
X56206461Y-71161933D01*
X56141103Y-70946477D01*
X56034968Y-70747911D01*
X55892133Y-70573867D01*
X55718088Y-70431032D01*
X55519522Y-70324897D01*
X55304066Y-70259539D01*
X55080000Y-70237470D01*
X54855933Y-70259539D01*
X54640477Y-70324897D01*
X54441911Y-70431032D01*
X54267867Y-70573867D01*
X54125032Y-70747912D01*
X54018897Y-70946478D01*
X53953539Y-71161934D01*
X53937000Y-71329855D01*
X53799088Y-71329855D01*
X53785619Y-71262146D01*
X53687969Y-71026398D01*
X53546203Y-70814231D01*
X53365769Y-70633797D01*
X53153602Y-70492031D01*
X52917854Y-70394381D01*
X52667586Y-70344600D01*
X52412414Y-70344600D01*
X52162146Y-70394381D01*
X51926398Y-70492031D01*
X51714231Y-70633797D01*
X51533797Y-70814231D01*
X51392031Y-71026398D01*
X51294381Y-71262146D01*
X51244600Y-71512414D01*
X50406000Y-71512414D01*
X50406000Y-68019854D01*
X50429791Y-67777213D01*
X59738001Y-67777213D01*
X59738001Y-68222787D01*
X59824928Y-68659801D01*
X59995442Y-69071458D01*
X60242991Y-69441940D01*
X60558060Y-69757009D01*
X60928542Y-70004558D01*
X61340199Y-70175072D01*
X61777213Y-70261999D01*
X62222787Y-70261999D01*
X62659801Y-70175072D01*
X63071458Y-70004558D01*
X63441940Y-69757009D01*
X63757009Y-69441940D01*
X64004558Y-69071458D01*
X64175072Y-68659801D01*
X64261999Y-68222787D01*
X64261999Y-67777213D01*
X64175072Y-67340199D01*
X64004558Y-66928542D01*
X63757009Y-66558060D01*
X63441940Y-66242991D01*
X63071458Y-65995442D01*
X62659801Y-65824928D01*
X62222787Y-65738001D01*
X61777213Y-65738001D01*
X61340199Y-65824928D01*
X60928542Y-65995442D01*
X60558060Y-66242991D01*
X60242991Y-66558060D01*
X59995442Y-66928542D01*
X59824928Y-67340199D01*
X59738001Y-67777213D01*
X50429791Y-67777213D01*
X50457312Y-67496537D01*
X50603529Y-67012244D01*
X50841025Y-66565578D01*
X51160755Y-66173550D01*
X51550539Y-65851093D01*
X51995540Y-65610482D01*
X52478796Y-65460889D01*
X53001029Y-65406000D01*
X101980146Y-65406000D01*
X102503463Y-65457312D01*
M02*
