M48
INCH,TZ
T1C0.0150
T2C0.0354
T3C0.0394
T4C0.0400
T5C0.0433
T6C0.0984
T7C0.1300
%
G90
G05
T1
X24746Y-39854
X27351Y-39061
X28051Y-39261
X28770Y-40073
X29551Y-38461
X32850Y-46150
T2
X24547Y-45798
X25531Y-45798
X26516Y-45798
X27500Y-45798
X28484Y-45798
X29469Y-45798
X30453Y-45798
X34183Y-45761
X35167Y-45761
X36151Y-45761
X37135Y-45761
X38120Y-45761
T3
X21368Y-45800
X22352Y-45800
X35551Y-40784
X35551Y-41769
X35551Y-42753
X35551Y-43737
X20768Y-34900
X21752Y-34900
T4
X26551Y-42261
X27551Y-42261
X28551Y-42261
X29551Y-42261
X20851Y-28461
X21851Y-28461
X22851Y-28461
X23351Y-36461
X23851Y-28461
X24351Y-36461
X24851Y-28461
X25351Y-36461
X25851Y-28461
X26351Y-36461
X26851Y-28461
X27851Y-28461
X28851Y-28461
X30641Y-27181
X30641Y-35841
X31431Y-27181
X31431Y-35841
X32221Y-27181
X32221Y-35841
X33011Y-27181
X33011Y-35841
X33801Y-27181
X33801Y-35841
X34591Y-27181
X34591Y-35841
X35381Y-27181
X35381Y-35841
X36171Y-27181
X36171Y-35841
X36961Y-27181
X36961Y-35841
X37751Y-27181
X37751Y-35841
T5
X20851Y-37761
X20851Y-43761
X21851Y-37761
X21851Y-43761
X22851Y-37761
X22851Y-43761
X23851Y-37761
X23851Y-43761
X24851Y-37761
X24851Y-43761
X25851Y-37761
X25851Y-43761
X26851Y-37761
X26851Y-43761
X27851Y-37761
X27851Y-43761
X28851Y-37761
X28851Y-43761
X29851Y-37761
X29851Y-43761
X30851Y-37761
X30851Y-43761
X31851Y-37761
X31851Y-43761
X32851Y-37761
X32851Y-43761
X33851Y-37761
X33851Y-38761
X33851Y-39761
X33851Y-40761
X33851Y-41761
X33851Y-42761
X33851Y-43761
T6
X32283Y-48031
X40157Y-26772
X24409Y-26772
T7
X23951Y-29761
X23951Y-41961
X32151Y-29761
X32151Y-41961
X28351Y-30461
X28351Y-34461
T0
M30
