M48
INCH,TZ
T1C0.0150
T2C0.0360
T3C0.0380
T4C0.0984
T5C0.1300
%
G90
G05
T1
X24746Y-39854
X26772Y-38780
X28051Y-39261
X28900Y-39750
X29350Y-40200
X29551Y-38461
X30850Y-42750
X31004Y-39173
X32699Y-39250
X32850Y-45750
T2
X30641Y-27181
X30641Y-35841
X31431Y-27181
X31431Y-35841
X32221Y-27181
X32221Y-35841
X33011Y-27181
X33011Y-35841
X33801Y-27181
X33801Y-35841
X34591Y-27181
X34591Y-35841
X35381Y-27181
X35381Y-35841
X36171Y-27181
X36171Y-35841
X36961Y-27181
X36961Y-35841
X37751Y-27181
X37751Y-35841
T3
X20685Y-28205
X21685Y-28205
X22685Y-28205
X23185Y-36205
X23685Y-28205
X24185Y-36205
X24685Y-28205
X25185Y-36205
X25685Y-28205
X26185Y-36205
X26685Y-28205
X27685Y-28205
X28685Y-28205
X20758Y-45400
X21742Y-45400
X35433Y-40768
X35433Y-41752
X35433Y-42736
X35433Y-43720
X20851Y-37761
X20851Y-43761
X21851Y-37761
X21851Y-43761
X22851Y-37761
X22851Y-43761
X23851Y-37761
X23851Y-43761
X24851Y-37761
X24851Y-43761
X25851Y-37761
X25851Y-43761
X26851Y-37761
X26851Y-43761
X27851Y-37761
X27851Y-43761
X28851Y-37761
X28851Y-43761
X29851Y-37761
X29851Y-43761
X30851Y-37761
X30851Y-43761
X31851Y-37761
X31851Y-43761
X32851Y-37761
X32851Y-43761
X33851Y-37761
X33851Y-38761
X33851Y-39761
X33851Y-40761
X33851Y-41761
X33851Y-42761
X33851Y-43761
X34154Y-45768
X35138Y-45768
X36122Y-45768
X37106Y-45768
X38091Y-45768
X23797Y-45388
X24781Y-45388
X25766Y-45388
X26750Y-45388
X27734Y-45388
X28719Y-45388
X29703Y-45388
X26551Y-42261
X27551Y-42261
X28551Y-42261
X29551Y-42261
X20758Y-34528
X21742Y-34528
T4
X32283Y-48031
X40157Y-26772
X24409Y-26772
T5
X23951Y-29761
X23951Y-41961
X32151Y-29761
X32151Y-41961
X28185Y-30205
X28185Y-34205
T0
M30
