G04 #@! TF.GenerationSoftware,KiCad,Pcbnew,(5.1.2)-2*
G04 #@! TF.CreationDate,2019-09-30T00:10:55+10:00*
G04 #@! TF.ProjectId,Smart_eNERF_Gun,536d6172-745f-4654-9e45-52465f47756e,6.2*
G04 #@! TF.SameCoordinates,Original*
G04 #@! TF.FileFunction,Legend,Bot*
G04 #@! TF.FilePolarity,Positive*
%FSLAX46Y46*%
G04 Gerber Fmt 4.6, Leading zero omitted, Abs format (unit mm)*
G04 Created by KiCad (PCBNEW (5.1.2)-2) date 2019-09-30 00:10:55*
%MOMM*%
%LPD*%
G04 APERTURE LIST*
%ADD10C,0.080000*%
%ADD11C,0.120000*%
%ADD12C,0.100000*%
%ADD13C,0.127000*%
%ADD14C,0.150000*%
G04 APERTURE END LIST*
D10*
X55903571Y-89464285D02*
X55832142Y-89488095D01*
X55808333Y-89511904D01*
X55784523Y-89559523D01*
X55784523Y-89630952D01*
X55808333Y-89678571D01*
X55832142Y-89702380D01*
X55879761Y-89726190D01*
X56070238Y-89726190D01*
X56070238Y-89226190D01*
X55903571Y-89226190D01*
X55855952Y-89250000D01*
X55832142Y-89273809D01*
X55808333Y-89321428D01*
X55808333Y-89369047D01*
X55832142Y-89416666D01*
X55855952Y-89440476D01*
X55903571Y-89464285D01*
X56070238Y-89464285D01*
X55594047Y-89583333D02*
X55355952Y-89583333D01*
X55641666Y-89726190D02*
X55475000Y-89226190D01*
X55308333Y-89726190D01*
X55213095Y-89226190D02*
X54927380Y-89226190D01*
X55070238Y-89726190D02*
X55070238Y-89226190D01*
X54760714Y-89535714D02*
X54379761Y-89535714D01*
X54570238Y-89726190D02*
X54570238Y-89345238D01*
X53105952Y-89250000D02*
X53153571Y-89226190D01*
X53225000Y-89226190D01*
X53296428Y-89250000D01*
X53344047Y-89297619D01*
X53367857Y-89345238D01*
X53391666Y-89440476D01*
X53391666Y-89511904D01*
X53367857Y-89607142D01*
X53344047Y-89654761D01*
X53296428Y-89702380D01*
X53225000Y-89726190D01*
X53177380Y-89726190D01*
X53105952Y-89702380D01*
X53082142Y-89678571D01*
X53082142Y-89511904D01*
X53177380Y-89511904D01*
X52867857Y-89726190D02*
X52867857Y-89226190D01*
X52582142Y-89726190D01*
X52582142Y-89226190D01*
X52344047Y-89726190D02*
X52344047Y-89226190D01*
X52225000Y-89226190D01*
X52153571Y-89250000D01*
X52105952Y-89297619D01*
X52082142Y-89345238D01*
X52058333Y-89440476D01*
X52058333Y-89511904D01*
X52082142Y-89607142D01*
X52105952Y-89654761D01*
X52153571Y-89702380D01*
X52225000Y-89726190D01*
X52344047Y-89726190D01*
D11*
X58423000Y-109120000D02*
X84077000Y-109120000D01*
X84077000Y-73052000D02*
X58423000Y-73052000D01*
X58423000Y-109120000D02*
X58423000Y-73052000D01*
X84077000Y-73052000D02*
X84077000Y-109120000D01*
D12*
X57531000Y-77794000D02*
G75*
G03X57531000Y-77794000I-254000J0D01*
G01*
D13*
X57675000Y-90000000D02*
X57675000Y-78500000D01*
X50275000Y-90000000D02*
X57675000Y-90000000D01*
X50275000Y-78500000D02*
X50275000Y-90000000D01*
X57675000Y-78500000D02*
X50275000Y-78500000D01*
D14*
X83105476Y-71636000D02*
X83200714Y-71588380D01*
X83343571Y-71588380D01*
X83486428Y-71636000D01*
X83581666Y-71731238D01*
X83629285Y-71826476D01*
X83676904Y-72016952D01*
X83676904Y-72159809D01*
X83629285Y-72350285D01*
X83581666Y-72445523D01*
X83486428Y-72540761D01*
X83343571Y-72588380D01*
X83248333Y-72588380D01*
X83105476Y-72540761D01*
X83057857Y-72493142D01*
X83057857Y-72159809D01*
X83248333Y-72159809D01*
X82629285Y-72588380D02*
X82629285Y-71588380D01*
X82248333Y-71588380D01*
X82153095Y-71636000D01*
X82105476Y-71683619D01*
X82057857Y-71778857D01*
X82057857Y-71921714D01*
X82105476Y-72016952D01*
X82153095Y-72064571D01*
X82248333Y-72112190D01*
X82629285Y-72112190D01*
X81676904Y-72540761D02*
X81534047Y-72588380D01*
X81295952Y-72588380D01*
X81200714Y-72540761D01*
X81153095Y-72493142D01*
X81105476Y-72397904D01*
X81105476Y-72302666D01*
X81153095Y-72207428D01*
X81200714Y-72159809D01*
X81295952Y-72112190D01*
X81486428Y-72064571D01*
X81581666Y-72016952D01*
X81629285Y-71969333D01*
X81676904Y-71874095D01*
X81676904Y-71778857D01*
X81629285Y-71683619D01*
X81581666Y-71636000D01*
X81486428Y-71588380D01*
X81248333Y-71588380D01*
X81105476Y-71636000D01*
X80153095Y-72588380D02*
X80724523Y-72588380D01*
X80438809Y-72588380D02*
X80438809Y-71588380D01*
X80534047Y-71731238D01*
X80629285Y-71826476D01*
X80724523Y-71874095D01*
X98004380Y-101687714D02*
X98718666Y-101687714D01*
X98861523Y-101640095D01*
X98956761Y-101544857D01*
X99004380Y-101402000D01*
X99004380Y-101306761D01*
X98956761Y-102116285D02*
X99004380Y-102259142D01*
X99004380Y-102497238D01*
X98956761Y-102592476D01*
X98909142Y-102640095D01*
X98813904Y-102687714D01*
X98718666Y-102687714D01*
X98623428Y-102640095D01*
X98575809Y-102592476D01*
X98528190Y-102497238D01*
X98480571Y-102306761D01*
X98432952Y-102211523D01*
X98385333Y-102163904D01*
X98290095Y-102116285D01*
X98194857Y-102116285D01*
X98099619Y-102163904D01*
X98052000Y-102211523D01*
X98004380Y-102306761D01*
X98004380Y-102544857D01*
X98052000Y-102687714D01*
X98004380Y-102973428D02*
X98004380Y-103544857D01*
X99004380Y-103259142D02*
X98004380Y-103259142D01*
X98623428Y-103878190D02*
X98623428Y-104640095D01*
X98004380Y-105306761D02*
X98004380Y-105497238D01*
X98052000Y-105592476D01*
X98147238Y-105687714D01*
X98337714Y-105735333D01*
X98671047Y-105735333D01*
X98861523Y-105687714D01*
X98956761Y-105592476D01*
X99004380Y-105497238D01*
X99004380Y-105306761D01*
X98956761Y-105211523D01*
X98861523Y-105116285D01*
X98671047Y-105068666D01*
X98337714Y-105068666D01*
X98147238Y-105116285D01*
X98052000Y-105211523D01*
X98004380Y-105306761D01*
X99004380Y-106163904D02*
X98004380Y-106163904D01*
X98004380Y-106544857D01*
X98052000Y-106640095D01*
X98099619Y-106687714D01*
X98194857Y-106735333D01*
X98337714Y-106735333D01*
X98432952Y-106687714D01*
X98480571Y-106640095D01*
X98528190Y-106544857D01*
X98528190Y-106163904D01*
X98004380Y-107021047D02*
X98004380Y-107592476D01*
X99004380Y-107306761D02*
X98004380Y-107306761D01*
X99004380Y-108449619D02*
X99004380Y-107878190D01*
X99004380Y-108163904D02*
X98004380Y-108163904D01*
X98147238Y-108068666D01*
X98242476Y-107973428D01*
X98290095Y-107878190D01*
X54285714Y-91204761D02*
X54142857Y-91252380D01*
X53904761Y-91252380D01*
X53809523Y-91204761D01*
X53761904Y-91157142D01*
X53714285Y-91061904D01*
X53714285Y-90966666D01*
X53761904Y-90871428D01*
X53809523Y-90823809D01*
X53904761Y-90776190D01*
X54095238Y-90728571D01*
X54190476Y-90680952D01*
X54238095Y-90633333D01*
X54285714Y-90538095D01*
X54285714Y-90442857D01*
X54238095Y-90347619D01*
X54190476Y-90300000D01*
X54095238Y-90252380D01*
X53857142Y-90252380D01*
X53714285Y-90300000D01*
X53285714Y-90252380D02*
X53285714Y-91061904D01*
X53238095Y-91157142D01*
X53190476Y-91204761D01*
X53095238Y-91252380D01*
X52904761Y-91252380D01*
X52809523Y-91204761D01*
X52761904Y-91157142D01*
X52714285Y-91061904D01*
X52714285Y-90252380D01*
X52238095Y-91252380D02*
X52238095Y-90252380D01*
X51857142Y-90252380D01*
X51761904Y-90300000D01*
X51714285Y-90347619D01*
X51666666Y-90442857D01*
X51666666Y-90585714D01*
X51714285Y-90680952D01*
X51761904Y-90728571D01*
X51857142Y-90776190D01*
X52238095Y-90776190D01*
X50714285Y-91252380D02*
X51285714Y-91252380D01*
X51000000Y-91252380D02*
X51000000Y-90252380D01*
X51095238Y-90395238D01*
X51190476Y-90490476D01*
X51285714Y-90538095D01*
M02*
